M48
; DRILL file {KiCad 9.0.7} date 2026-01-26T16:26:28+0100
; FORMAT={-:-/ absolute / metric / decimal}
; #@! TF.CreationDate,2026-01-26T16:26:28+01:00
; #@! TF.GenerationSoftware,Kicad,Pcbnew,9.0.7
; #@! TF.FileFunction,Plated,1,4,PTH
FMAT,2
METRIC
; #@! TA.AperFunction,Plated,PTH,ViaDrill
T1C0.300
; #@! TA.AperFunction,Plated,PTH,ComponentDrill
T2C0.300
; #@! TA.AperFunction,Plated,PTH,ComponentDrill
T3C0.750
; #@! TA.AperFunction,Plated,PTH,ComponentDrill
T4C1.000
; #@! TA.AperFunction,Plated,PTH,ComponentDrill
T5C2.700
%
G90
G05
T1
X102.7Y-65.8
X104.5Y-56.5
X104.75Y-53.0
X108.0Y-59.0
X108.0Y-60.0
X108.5Y-63.75
X110.25Y-69.25
X111.25Y-65.25
X113.75Y-67.75
X115.0Y-74.15
X117.25Y-61.25
X117.25Y-62.075
X117.25Y-65.475
X117.612Y-55.362
X118.25Y-62.725
X121.5Y-59.5
X121.5Y-60.5
X122.6Y-65.2
X123.0Y-57.0
X123.5Y-66.5
X123.575Y-55.325
X124.0Y-58.5
X124.0Y-70.25
X126.0Y-70.25
X127.05Y-68.451
X127.16Y-62.75
X127.7Y-66.5
X128.0Y-62.75
X128.0Y-70.25
X128.1Y-64.8
X129.5Y-57.25
X130.0Y-67.75
X130.32Y-64.02
X132.57Y-57.32
X136.25Y-68.7
X137.262Y-61.925
X137.262Y-63.425
X139.762Y-60.425
X140.492Y-67.53
X140.762Y-57.6
X141.012Y-60.925
X141.033Y-61.796
X146.0Y-70.25
X146.75Y-57.75
X149.549Y-58.299
X149.619Y-63.881
X149.625Y-59.375
X150.725Y-63.995
X151.0Y-61.0
X151.0Y-62.25
X152.25Y-68.5
X155.0Y-65.25
T2
X111.875Y-59.35
X111.875Y-60.95
X111.875Y-62.55
X111.875Y-64.15
X114.125Y-59.35
X114.125Y-60.95
X114.125Y-62.55
X114.125Y-64.15
X144.012Y-58.925
X144.012Y-60.525
X144.012Y-62.125
X144.012Y-63.725
X146.262Y-58.925
X146.262Y-60.525
X146.262Y-62.125
X146.262Y-63.725
T3
X100.15Y-58.496
X100.15Y-60.496
X100.15Y-62.496
X100.15Y-64.496
X120.0Y-72.75
X122.0Y-72.75
X124.0Y-72.75
X126.0Y-72.75
X128.0Y-72.75
X130.0Y-72.75
X157.75Y-58.25
X157.75Y-60.25
X157.75Y-62.25
X157.75Y-64.25
T4
X104.75Y-48.71
X104.75Y-51.25
X107.29Y-48.71
X107.29Y-51.25
X109.83Y-48.71
X109.83Y-51.25
X112.37Y-48.71
X112.37Y-51.25
X114.91Y-48.71
X114.91Y-51.25
X117.45Y-48.71
X117.45Y-51.25
X119.99Y-48.71
X119.99Y-51.25
X122.53Y-48.71
X122.53Y-51.25
X125.07Y-48.71
X125.07Y-51.25
X127.61Y-48.71
X127.61Y-51.25
X130.15Y-48.71
X130.15Y-51.25
X132.69Y-48.71
X132.69Y-51.25
X135.23Y-48.71
X135.23Y-51.25
X137.77Y-48.71
X137.77Y-51.25
X140.31Y-48.71
X140.31Y-51.25
X142.85Y-48.71
X142.85Y-51.25
X145.39Y-48.71
X145.39Y-51.25
X147.0Y-74.0
X147.93Y-48.71
X147.93Y-51.25
X149.5Y-74.0
X150.47Y-48.71
X150.47Y-51.25
X153.01Y-48.71
X153.01Y-51.25
T5
X100.0Y-50.0
X100.0Y-73.0
X158.0Y-50.0
X158.0Y-73.0
M30
