%TF.GenerationSoftware,KiCad,Pcbnew,9.0.7*%
%TF.CreationDate,2026-01-26T16:26:35+01:00*%
%TF.ProjectId,Projet 6 KICAD CLS COMPLET,50726f6a-6574-4203-9620-4b4943414420,rev?*%
%TF.SameCoordinates,Original*%
%TF.FileFunction,Paste,Top*%
%TF.FilePolarity,Positive*%
%FSLAX46Y46*%
G04 Gerber Fmt 4.6, Leading zero omitted, Abs format (unit mm)*
G04 Created by KiCad (PCBNEW 9.0.7) date 2026-01-26 16:26:35*
%MOMM*%
%LPD*%
G01*
G04 APERTURE LIST*
G04 Aperture macros list*
%AMRoundRect*
0 Rectangle with rounded corners*
0 $1 Rounding radius*
0 $2 $3 $4 $5 $6 $7 $8 $9 X,Y pos of 4 corners*
0 Add a 4 corners polygon primitive as box body*
4,1,4,$2,$3,$4,$5,$6,$7,$8,$9,$2,$3,0*
0 Add four circle primitives for the rounded corners*
1,1,$1+$1,$2,$3*
1,1,$1+$1,$4,$5*
1,1,$1+$1,$6,$7*
1,1,$1+$1,$8,$9*
0 Add four rect primitives between the rounded corners*
20,1,$1+$1,$2,$3,$4,$5,0*
20,1,$1+$1,$4,$5,$6,$7,0*
20,1,$1+$1,$6,$7,$8,$9,0*
20,1,$1+$1,$8,$9,$2,$3,0*%
G04 Aperture macros list end*
%ADD10RoundRect,0.225000X0.225000X0.250000X-0.225000X0.250000X-0.225000X-0.250000X0.225000X-0.250000X0*%
%ADD11RoundRect,0.225000X0.250000X-0.225000X0.250000X0.225000X-0.250000X0.225000X-0.250000X-0.225000X0*%
%ADD12RoundRect,0.225000X-0.225000X-0.250000X0.225000X-0.250000X0.225000X0.250000X-0.225000X0.250000X0*%
%ADD13RoundRect,0.225000X-0.250000X0.225000X-0.250000X-0.225000X0.250000X-0.225000X0.250000X0.225000X0*%
%ADD14RoundRect,0.218750X0.256250X-0.218750X0.256250X0.218750X-0.256250X0.218750X-0.256250X-0.218750X0*%
%ADD15RoundRect,0.250000X0.475000X-0.250000X0.475000X0.250000X-0.475000X0.250000X-0.475000X-0.250000X0*%
%ADD16RoundRect,0.200000X0.275000X-0.200000X0.275000X0.200000X-0.275000X0.200000X-0.275000X-0.200000X0*%
%ADD17RoundRect,0.218750X-0.218750X-0.256250X0.218750X-0.256250X0.218750X0.256250X-0.218750X0.256250X0*%
%ADD18RoundRect,0.200000X-0.200000X-0.275000X0.200000X-0.275000X0.200000X0.275000X-0.200000X0.275000X0*%
%ADD19RoundRect,0.250000X-0.550000X1.500000X-0.550000X-1.500000X0.550000X-1.500000X0.550000X1.500000X0*%
%ADD20RoundRect,0.218750X-0.256250X0.218750X-0.256250X-0.218750X0.256250X-0.218750X0.256250X0.218750X0*%
%ADD21RoundRect,0.200000X-0.275000X0.200000X-0.275000X-0.200000X0.275000X-0.200000X0.275000X0.200000X0*%
%ADD22RoundRect,0.200000X0.200000X0.275000X-0.200000X0.275000X-0.200000X-0.275000X0.200000X-0.275000X0*%
%ADD23RoundRect,0.250000X-0.475000X0.250000X-0.475000X-0.250000X0.475000X-0.250000X0.475000X0.250000X0*%
%ADD24RoundRect,0.250000X0.900000X0.475000X-0.900000X0.475000X-0.900000X-0.475000X0.900000X-0.475000X0*%
%ADD25RoundRect,0.100000X0.637500X0.100000X-0.637500X0.100000X-0.637500X-0.100000X0.637500X-0.100000X0*%
%ADD26RoundRect,0.250000X0.312500X0.625000X-0.312500X0.625000X-0.312500X-0.625000X0.312500X-0.625000X0*%
%ADD27RoundRect,0.250000X-0.900000X-0.475000X0.900000X-0.475000X0.900000X0.475000X-0.900000X0.475000X0*%
%ADD28RoundRect,0.100000X-0.637500X-0.100000X0.637500X-0.100000X0.637500X0.100000X-0.637500X0.100000X0*%
%ADD29RoundRect,0.218750X0.218750X0.256250X-0.218750X0.256250X-0.218750X-0.256250X0.218750X-0.256250X0*%
%ADD30R,0.610000X0.350000*%
%ADD31R,0.350000X0.610000*%
%ADD32RoundRect,0.250000X-0.312500X-0.625000X0.312500X-0.625000X0.312500X0.625000X-0.312500X0.625000X0*%
%ADD33RoundRect,0.250000X-0.625000X0.312500X-0.625000X-0.312500X0.625000X-0.312500X0.625000X0.312500X0*%
G04 APERTURE END LIST*
D10*
%TO.C,C23*%
X109525000Y-55750000D03*
X107975000Y-55750000D03*
%TD*%
D11*
%TO.C,C22*%
X106000000Y-57525000D03*
X106000000Y-55975000D03*
%TD*%
%TO.C,C18*%
X110250000Y-72275000D03*
X110250000Y-70725000D03*
%TD*%
D12*
%TO.C,C15*%
X118775000Y-65475000D03*
X120325000Y-65475000D03*
%TD*%
D13*
%TO.C,C13*%
X108000000Y-65975000D03*
X108000000Y-67525000D03*
%TD*%
%TO.C,C12*%
X106000000Y-65975000D03*
X106000000Y-67525000D03*
%TD*%
D10*
%TO.C,C11*%
X141575000Y-55390983D03*
X140025000Y-55390983D03*
%TD*%
D11*
%TO.C,C9*%
X150000000Y-56525000D03*
X150000000Y-54975000D03*
%TD*%
%TO.C,C8*%
X152000000Y-56525000D03*
X152000000Y-54975000D03*
%TD*%
D10*
%TO.C,C7*%
X139537500Y-57425000D03*
X137987500Y-57425000D03*
%TD*%
D12*
%TO.C,C6*%
X148725000Y-67500000D03*
X150275000Y-67500000D03*
%TD*%
D13*
%TO.C,C5*%
X152250000Y-65775000D03*
X152250000Y-67325000D03*
%TD*%
D12*
%TO.C,C4*%
X147275000Y-70250000D03*
X148825000Y-70250000D03*
%TD*%
%TO.C,C3*%
X116525000Y-67500000D03*
X118075000Y-67500000D03*
%TD*%
%TO.C,C2*%
X130495000Y-62500000D03*
X132045000Y-62500000D03*
%TD*%
%TO.C,C1*%
X130503378Y-60500000D03*
X132053378Y-60500000D03*
%TD*%
D14*
%TO.C,D3*%
X112250000Y-74075000D03*
X112250000Y-72500000D03*
%TD*%
D15*
%TO.C,C14*%
X154000000Y-56700000D03*
X154000000Y-54800000D03*
%TD*%
D16*
%TO.C,R14*%
X113750000Y-71000000D03*
X113750000Y-69350000D03*
%TD*%
D17*
%TO.C,D1*%
X135925000Y-59250000D03*
X137500000Y-59250000D03*
%TD*%
D18*
%TO.C,R1*%
X138362500Y-63425000D03*
X140012500Y-63425000D03*
%TD*%
D19*
%TO.C,C10*%
X136250000Y-68700000D03*
X136250000Y-74300000D03*
%TD*%
D20*
%TO.C,D4*%
X112250000Y-69425000D03*
X112250000Y-71000000D03*
%TD*%
D21*
%TO.C,R15*%
X117612500Y-56400000D03*
X117612500Y-58050000D03*
%TD*%
D22*
%TO.C,R2*%
X140012500Y-61925000D03*
X138362500Y-61925000D03*
%TD*%
D23*
%TO.C,C16*%
X104000000Y-65800000D03*
X104000000Y-67700000D03*
%TD*%
D18*
%TO.C,R8*%
X118425000Y-59500000D03*
X120075000Y-59500000D03*
%TD*%
%TO.C,R6*%
X130920000Y-58500000D03*
X132570000Y-58500000D03*
%TD*%
D21*
%TO.C,R7*%
X139025000Y-64882408D03*
X139025000Y-66532408D03*
%TD*%
D24*
%TO.C,U2*%
X145137500Y-63125000D03*
X145137500Y-61325000D03*
X145137500Y-59525000D03*
D25*
X148000000Y-65550000D03*
X148000000Y-64900000D03*
X148000000Y-64250000D03*
X148000000Y-63600000D03*
X148000000Y-62950000D03*
X148000000Y-62300000D03*
X148000000Y-61650000D03*
X148000000Y-61000000D03*
X148000000Y-60350000D03*
X148000000Y-59700000D03*
X148000000Y-59050000D03*
X148000000Y-58400000D03*
X148000000Y-57750000D03*
X148000000Y-57100000D03*
X142275000Y-57100000D03*
X142275000Y-57750000D03*
X142275000Y-58400000D03*
X142275000Y-59050000D03*
X142275000Y-59700000D03*
X142275000Y-60350000D03*
X142275000Y-61000000D03*
X142275000Y-61650000D03*
X142275000Y-62300000D03*
X142275000Y-62950000D03*
X142275000Y-63600000D03*
X142275000Y-64250000D03*
X142275000Y-64900000D03*
X142275000Y-65550000D03*
%TD*%
D22*
%TO.C,R16*%
X120075000Y-61000000D03*
X118425000Y-61000000D03*
%TD*%
%TO.C,R4*%
X129570000Y-58500000D03*
X127920000Y-58500000D03*
%TD*%
D21*
%TO.C,R13*%
X113750000Y-72500000D03*
X113750000Y-74150000D03*
%TD*%
D26*
%TO.C,R18*%
X154000000Y-58750000D03*
X151075000Y-58750000D03*
%TD*%
D16*
%TO.C,R9*%
X119112500Y-58050000D03*
X119112500Y-56400000D03*
%TD*%
%TO.C,R3*%
X140492164Y-66532408D03*
X140492164Y-64882408D03*
%TD*%
D27*
%TO.C,U1*%
X113000000Y-59950000D03*
X113000000Y-61750000D03*
X113000000Y-63550000D03*
D28*
X110137500Y-57525000D03*
X110137500Y-58175000D03*
X110137500Y-58825000D03*
X110137500Y-59475000D03*
X110137500Y-60125000D03*
X110137500Y-60775000D03*
X110137500Y-61425000D03*
X110137500Y-62075000D03*
X110137500Y-62725000D03*
X110137500Y-63375000D03*
X110137500Y-64025000D03*
X110137500Y-64675000D03*
X110137500Y-65325000D03*
X110137500Y-65975000D03*
X115862500Y-65975000D03*
X115862500Y-65325000D03*
X115862500Y-64675000D03*
X115862500Y-64025000D03*
X115862500Y-63375000D03*
X115862500Y-62725000D03*
X115862500Y-62075000D03*
X115862500Y-61425000D03*
X115862500Y-60775000D03*
X115862500Y-60125000D03*
X115862500Y-59475000D03*
X115862500Y-58825000D03*
X115862500Y-58175000D03*
X115862500Y-57525000D03*
%TD*%
D22*
%TO.C,R5*%
X126570000Y-58500000D03*
X124920000Y-58500000D03*
%TD*%
D29*
%TO.C,D2*%
X122126557Y-63725778D03*
X120551557Y-63725778D03*
%TD*%
D18*
%TO.C,R19*%
X138875000Y-59250000D03*
X140525000Y-59250000D03*
%TD*%
D22*
%TO.C,R12*%
X119187500Y-63725000D03*
X117537500Y-63725000D03*
%TD*%
D30*
%TO.C,U3*%
X126500000Y-60250000D03*
X126500000Y-60750000D03*
X126500000Y-61250000D03*
X126500000Y-61750000D03*
D31*
X127160000Y-61910000D03*
X127660000Y-61910000D03*
X128160000Y-61910000D03*
D30*
X128820000Y-61750000D03*
X128820000Y-61250000D03*
X128820000Y-60750000D03*
X128820000Y-60250000D03*
D31*
X128160000Y-60090000D03*
X127660000Y-60090000D03*
X127160000Y-60090000D03*
%TD*%
D32*
%TO.C,R11*%
X103825000Y-63500000D03*
X106750000Y-63500000D03*
%TD*%
%TO.C,R10*%
X103787500Y-60000000D03*
X106712500Y-60000000D03*
%TD*%
D33*
%TO.C,R17*%
X152852941Y-60787500D03*
X152852941Y-63712500D03*
%TD*%
M02*
