%TF.GenerationSoftware,KiCad,Pcbnew,9.0.7*%
%TF.CreationDate,2026-01-26T16:26:35+01:00*%
%TF.ProjectId,Projet 6 KICAD CLS COMPLET,50726f6a-6574-4203-9620-4b4943414420,rev?*%
%TF.SameCoordinates,Original*%
%TF.FileFunction,Copper,L2,Inr*%
%TF.FilePolarity,Positive*%
%FSLAX46Y46*%
G04 Gerber Fmt 4.6, Leading zero omitted, Abs format (unit mm)*
G04 Created by KiCad (PCBNEW 9.0.7) date 2026-01-26 16:26:35*
%MOMM*%
%LPD*%
G01*
G04 APERTURE LIST*
G04 Aperture macros list*
%AMRoundRect*
0 Rectangle with rounded corners*
0 $1 Rounding radius*
0 $2 $3 $4 $5 $6 $7 $8 $9 X,Y pos of 4 corners*
0 Add a 4 corners polygon primitive as box body*
4,1,4,$2,$3,$4,$5,$6,$7,$8,$9,$2,$3,0*
0 Add four circle primitives for the rounded corners*
1,1,$1+$1,$2,$3*
1,1,$1+$1,$4,$5*
1,1,$1+$1,$6,$7*
1,1,$1+$1,$8,$9*
0 Add four rect primitives between the rounded corners*
20,1,$1+$1,$2,$3,$4,$5,0*
20,1,$1+$1,$4,$5,$6,$7,0*
20,1,$1+$1,$6,$7,$8,$9,0*
20,1,$1+$1,$8,$9,$2,$3,0*%
G04 Aperture macros list end*
%TA.AperFunction,ComponentPad*%
%ADD10C,5.400000*%
%TD*%
%TA.AperFunction,HeatsinkPad*%
%ADD11C,0.600000*%
%TD*%
%TA.AperFunction,ComponentPad*%
%ADD12RoundRect,0.250000X-0.625000X0.350000X-0.625000X-0.350000X0.625000X-0.350000X0.625000X0.350000X0*%
%TD*%
%TA.AperFunction,ComponentPad*%
%ADD13O,1.750000X1.200000*%
%TD*%
%TA.AperFunction,ComponentPad*%
%ADD14RoundRect,0.250000X0.625000X-0.350000X0.625000X0.350000X-0.625000X0.350000X-0.625000X-0.350000X0*%
%TD*%
%TA.AperFunction,ComponentPad*%
%ADD15RoundRect,0.250000X-0.350000X-0.625000X0.350000X-0.625000X0.350000X0.625000X-0.350000X0.625000X0*%
%TD*%
%TA.AperFunction,ComponentPad*%
%ADD16O,1.200000X1.750000*%
%TD*%
%TA.AperFunction,ComponentPad*%
%ADD17RoundRect,0.250000X0.600000X0.750000X-0.600000X0.750000X-0.600000X-0.750000X0.600000X-0.750000X0*%
%TD*%
%TA.AperFunction,ComponentPad*%
%ADD18O,1.700000X2.000000*%
%TD*%
%TA.AperFunction,ComponentPad*%
%ADD19R,1.700000X1.700000*%
%TD*%
%TA.AperFunction,ComponentPad*%
%ADD20C,1.700000*%
%TD*%
%TA.AperFunction,ViaPad*%
%ADD21C,0.600000*%
%TD*%
%TA.AperFunction,Conductor*%
%ADD22C,0.200000*%
%TD*%
G04 APERTURE END LIST*
D10*
%TO.N,GND*%
%TO.C,H2*%
X158000000Y-50000000D03*
%TD*%
%TO.N,GND*%
%TO.C,H1*%
X100000000Y-50000000D03*
%TD*%
D11*
%TO.N,GND*%
%TO.C,U2*%
X146262500Y-63725000D03*
X146262500Y-62125000D03*
X146262500Y-60525000D03*
X146262500Y-58925000D03*
X144012500Y-63725000D03*
X144012500Y-62125000D03*
X144012500Y-60525000D03*
X144012500Y-58925000D03*
%TD*%
D10*
%TO.N,GND*%
%TO.C,H4*%
X158000000Y-73000000D03*
%TD*%
D11*
%TO.N,GND*%
%TO.C,U1*%
X111875000Y-59350000D03*
X111875000Y-60950000D03*
X111875000Y-62550000D03*
X111875000Y-64150000D03*
X114125000Y-59350000D03*
X114125000Y-60950000D03*
X114125000Y-62550000D03*
X114125000Y-64150000D03*
%TD*%
D12*
%TO.N,MOT1_2_A2*%
%TO.C,J3*%
X100150435Y-58495718D03*
D13*
%TO.N,MOT1_1_A1*%
X100150435Y-60495718D03*
%TO.N,MOT1_1_B1*%
X100150435Y-62495718D03*
%TO.N,MOT1_2_B2*%
X100150435Y-64495718D03*
%TD*%
D14*
%TO.N,MOT2_2_A2*%
%TO.C,J4*%
X157750000Y-64250000D03*
D13*
%TO.N,MOT2_1_A1*%
X157750000Y-62250000D03*
%TO.N,MOT2_1_B1*%
X157750000Y-60250000D03*
%TO.N,MOT2_2_B2*%
X157750000Y-58250000D03*
%TD*%
D15*
%TO.N,GND*%
%TO.C,J2*%
X120000000Y-72750000D03*
D16*
%TO.N,CS*%
X122000000Y-72750000D03*
%TO.N,MOSI*%
X124000000Y-72750000D03*
%TO.N,MISO*%
X126000000Y-72750000D03*
%TO.N,SCLK*%
X128000000Y-72750000D03*
%TO.N,+3.3V*%
X130000000Y-72750000D03*
%TD*%
D17*
%TO.N,GND*%
%TO.C,J5*%
X149500000Y-74000000D03*
D18*
%TO.N,VCC*%
X147000000Y-74000000D03*
%TD*%
D10*
%TO.N,GND*%
%TO.C,H3*%
X100000000Y-73000000D03*
%TD*%
D19*
%TO.N,+3.3V*%
%TO.C,J1*%
X104750000Y-51250000D03*
D20*
%TO.N,unconnected-(J1-Pin_2-Pad2)*%
X104750000Y-48710000D03*
%TO.N,SDA*%
X107290000Y-51250000D03*
%TO.N,unconnected-(J1-Pin_4-Pad4)*%
X107290000Y-48710000D03*
%TO.N,SCL*%
X109830000Y-51250000D03*
%TO.N,GND*%
X109830000Y-48710000D03*
%TO.N,unconnected-(J1-Pin_7-Pad7)*%
X112370000Y-51250000D03*
%TO.N,unconnected-(J1-Pin_8-Pad8)*%
X112370000Y-48710000D03*
%TO.N,GND*%
X114910000Y-51250000D03*
%TO.N,unconnected-(J1-Pin_10-Pad10)*%
X114910000Y-48710000D03*
%TO.N,unconnected-(J1-Pin_11-Pad11)*%
X117450000Y-51250000D03*
%TO.N,unconnected-(J1-Pin_12-Pad12)*%
X117450000Y-48710000D03*
%TO.N,unconnected-(J1-Pin_13-Pad13)*%
X119990000Y-51250000D03*
%TO.N,GND*%
X119990000Y-48710000D03*
%TO.N,unconnected-(J1-Pin_15-Pad15)*%
X122530000Y-51250000D03*
%TO.N,unconnected-(J1-Pin_16-Pad16)*%
X122530000Y-48710000D03*
%TO.N,+3.3V*%
X125070000Y-51250000D03*
%TO.N,unconnected-(J1-Pin_18-Pad18)*%
X125070000Y-48710000D03*
%TO.N,MOSI*%
X127610000Y-51250000D03*
%TO.N,GND*%
X127610000Y-48710000D03*
%TO.N,MISO*%
X130150000Y-51250000D03*
%TO.N,unconnected-(J1-Pin_22-Pad22)*%
X130150000Y-48710000D03*
%TO.N,SCLK*%
X132690000Y-51250000D03*
%TO.N,CS*%
X132690000Y-48710000D03*
%TO.N,GND*%
X135230000Y-51250000D03*
%TO.N,unconnected-(J1-Pin_26-Pad26)*%
X135230000Y-48710000D03*
%TO.N,unconnected-(J1-Pin_27-Pad27)*%
X137770000Y-51250000D03*
%TO.N,unconnected-(J1-Pin_28-Pad28)*%
X137770000Y-48710000D03*
%TO.N,unconnected-(J1-Pin_29-Pad29)*%
X140310000Y-51250000D03*
%TO.N,GND*%
X140310000Y-48710000D03*
%TO.N,DIR2*%
X142850000Y-51250000D03*
%TO.N,STEP1*%
X142850000Y-48710000D03*
%TO.N,STEP2*%
X145390000Y-51250000D03*
%TO.N,GND*%
X145390000Y-48710000D03*
%TO.N,unconnected-(J1-Pin_35-Pad35)*%
X147930000Y-51250000D03*
%TO.N,DIR1*%
X147930000Y-48710000D03*
%TO.N,unconnected-(J1-Pin_37-Pad37)*%
X150470000Y-51250000D03*
%TO.N,unconnected-(J1-Pin_38-Pad38)*%
X150470000Y-48710000D03*
%TO.N,GND*%
X153010000Y-51250000D03*
%TO.N,unconnected-(J1-Pin_40-Pad40)*%
X153010000Y-48710000D03*
%TD*%
D21*
%TO.N,GND*%
X111250000Y-65250000D03*
X137262500Y-61925000D03*
X121500000Y-59500000D03*
X146750000Y-57750000D03*
X117250000Y-62075000D03*
X128000000Y-62750000D03*
X141012500Y-60925000D03*
%TO.N,+3.3V*%
X104750000Y-53000000D03*
X113750000Y-67750000D03*
X121500000Y-60500000D03*
X140762500Y-57600000D03*
X140492164Y-67529664D03*
X132570000Y-57320000D03*
X127160000Y-62750000D03*
X117612500Y-55362500D03*
X124000000Y-58500000D03*
X130000000Y-67750000D03*
X129500000Y-57250000D03*
X117250000Y-65475000D03*
X137262500Y-63425000D03*
X130320000Y-64020000D03*
X110250000Y-69250000D03*
%TO.N,MOSI*%
X124000000Y-70250000D03*
%TO.N,STEP1*%
X122600000Y-65200000D03*
X117250000Y-61250000D03*
X128100000Y-64800000D03*
%TO.N,CS*%
X127049765Y-68451235D03*
%TO.N,MISO*%
X126000000Y-70250000D03*
%TO.N,SCLK*%
X128000000Y-70250000D03*
%TO.N,SDA*%
X123000000Y-57000000D03*
%TO.N,STEP2*%
X141033380Y-61795880D03*
%TO.N,DIR2*%
X139762500Y-60425000D03*
%TO.N,SCL*%
X123575000Y-55325000D03*
%TO.N,DIR1*%
X127700000Y-66500000D03*
X118250000Y-62725000D03*
X123500000Y-66500000D03*
%TO.N,MOT1_2_B2*%
X108500000Y-63750000D03*
%TO.N,MOT1_2_A2*%
X108000000Y-60000000D03*
%TO.N,MOT2_1_A1*%
X151000000Y-61000000D03*
%TO.N,MOT2_1_B1*%
X150725451Y-63995403D03*
X155000000Y-65250000D03*
%TO.N,MOT2_2_A2*%
X151000000Y-62250000D03*
%TO.N,MOT2_2_B2*%
X149625000Y-59375000D03*
%TO.N,VCC*%
X146000000Y-70250000D03*
X108000000Y-59000000D03*
X136250000Y-68700000D03*
X149619342Y-63880658D03*
X104500000Y-56500000D03*
X149549396Y-58299396D03*
X115000000Y-74150000D03*
X102700000Y-65800000D03*
X152250000Y-68500000D03*
%TD*%
D22*
%TO.N,DIR1*%
X118250000Y-62725000D02*
X118251000Y-62726000D01*
%TD*%
%TA.AperFunction,Conductor*%
%TO.N,GND*%
G36*
X158003243Y-46800669D02*
G01*
X158327952Y-46817687D01*
X158340860Y-46819044D01*
X158658794Y-46869400D01*
X158671478Y-46872095D01*
X158982429Y-46955414D01*
X158994770Y-46959425D01*
X159295282Y-47074780D01*
X159307138Y-47080058D01*
X159593976Y-47226210D01*
X159605192Y-47232686D01*
X159875165Y-47408008D01*
X159885666Y-47415637D01*
X160135836Y-47618221D01*
X160145481Y-47626906D01*
X160373093Y-47854518D01*
X160381778Y-47864163D01*
X160584362Y-48114333D01*
X160591991Y-48124834D01*
X160767310Y-48394802D01*
X160773792Y-48406029D01*
X160820587Y-48497868D01*
X160919940Y-48692859D01*
X160925219Y-48704717D01*
X161040574Y-49005229D01*
X161044585Y-49017572D01*
X161127902Y-49328515D01*
X161130600Y-49341211D01*
X161180955Y-49659139D01*
X161182312Y-49672047D01*
X161199330Y-49996756D01*
X161199500Y-50003246D01*
X161199500Y-72996753D01*
X161199330Y-73003243D01*
X161182312Y-73327952D01*
X161180955Y-73340860D01*
X161130600Y-73658788D01*
X161127902Y-73671484D01*
X161044585Y-73982427D01*
X161040574Y-73994770D01*
X160925219Y-74295282D01*
X160919940Y-74307140D01*
X160773796Y-74593964D01*
X160767306Y-74605204D01*
X160591991Y-74875165D01*
X160584362Y-74885666D01*
X160381778Y-75135836D01*
X160373093Y-75145481D01*
X160145481Y-75373093D01*
X160135836Y-75381778D01*
X159885666Y-75584362D01*
X159875165Y-75591991D01*
X159605204Y-75767306D01*
X159593964Y-75773796D01*
X159307140Y-75919940D01*
X159295282Y-75925219D01*
X158994770Y-76040574D01*
X158982427Y-76044585D01*
X158671484Y-76127902D01*
X158658788Y-76130600D01*
X158340860Y-76180955D01*
X158327952Y-76182312D01*
X158003244Y-76199330D01*
X157996754Y-76199500D01*
X100003246Y-76199500D01*
X99996756Y-76199330D01*
X99672047Y-76182312D01*
X99659139Y-76180955D01*
X99341211Y-76130600D01*
X99328515Y-76127902D01*
X99017572Y-76044585D01*
X99005229Y-76040574D01*
X98704717Y-75925219D01*
X98692859Y-75919940D01*
X98495501Y-75819381D01*
X98406029Y-75773792D01*
X98394802Y-75767310D01*
X98124834Y-75591991D01*
X98114333Y-75584362D01*
X97864163Y-75381778D01*
X97854518Y-75373093D01*
X97626906Y-75145481D01*
X97618221Y-75135836D01*
X97415637Y-74885666D01*
X97408008Y-74875165D01*
X97371961Y-74819657D01*
X97232686Y-74605192D01*
X97226210Y-74593976D01*
X97080058Y-74307138D01*
X97074784Y-74295292D01*
X96993718Y-74084108D01*
X114499500Y-74084108D01*
X114499500Y-74215891D01*
X114533608Y-74343187D01*
X114566467Y-74400099D01*
X114599500Y-74457314D01*
X114692686Y-74550500D01*
X114806814Y-74616392D01*
X114934108Y-74650500D01*
X114934110Y-74650500D01*
X115065890Y-74650500D01*
X115065892Y-74650500D01*
X115193186Y-74616392D01*
X115307314Y-74550500D01*
X115400500Y-74457314D01*
X115466392Y-74343186D01*
X115500500Y-74215892D01*
X115500500Y-74084108D01*
X115466392Y-73956814D01*
X115400500Y-73842686D01*
X115307314Y-73749500D01*
X115250250Y-73716554D01*
X115193187Y-73683608D01*
X115124534Y-73665213D01*
X115065892Y-73649500D01*
X114934108Y-73649500D01*
X114806812Y-73683608D01*
X114692686Y-73749500D01*
X114692683Y-73749502D01*
X114599502Y-73842683D01*
X114599500Y-73842686D01*
X114533608Y-73956812D01*
X114499500Y-74084108D01*
X96993718Y-74084108D01*
X96959424Y-73994769D01*
X96955414Y-73982427D01*
X96948551Y-73956814D01*
X96872095Y-73671478D01*
X96869399Y-73658788D01*
X96867498Y-73646788D01*
X96819044Y-73340860D01*
X96817687Y-73327952D01*
X96800670Y-73003243D01*
X96800500Y-72996753D01*
X96800500Y-72081946D01*
X119100000Y-72081946D01*
X119100000Y-72600000D01*
X119653590Y-72600000D01*
X119650556Y-72605255D01*
X119625000Y-72700630D01*
X119625000Y-72799370D01*
X119650556Y-72894745D01*
X119653590Y-72900000D01*
X119100000Y-72900000D01*
X119100000Y-73418053D01*
X119110613Y-73506443D01*
X119166079Y-73647095D01*
X119257435Y-73767564D01*
X119377904Y-73858920D01*
X119518556Y-73914386D01*
X119606946Y-73925000D01*
X119850000Y-73925000D01*
X119850000Y-73096410D01*
X119855255Y-73099444D01*
X119950630Y-73125000D01*
X120049370Y-73125000D01*
X120144745Y-73099444D01*
X120150000Y-73096410D01*
X120150000Y-73925000D01*
X120393054Y-73925000D01*
X120481443Y-73914386D01*
X120622095Y-73858920D01*
X120742564Y-73767564D01*
X120833920Y-73647095D01*
X120889386Y-73506443D01*
X120900000Y-73418053D01*
X120900000Y-72900000D01*
X120346410Y-72900000D01*
X120349444Y-72894745D01*
X120375000Y-72799370D01*
X120375000Y-72700630D01*
X120349444Y-72605255D01*
X120346410Y-72600000D01*
X120900000Y-72600000D01*
X120900000Y-72396153D01*
X121199500Y-72396153D01*
X121199500Y-73103846D01*
X121230261Y-73258489D01*
X121230264Y-73258501D01*
X121290602Y-73404172D01*
X121290609Y-73404185D01*
X121378210Y-73535288D01*
X121378213Y-73535292D01*
X121489707Y-73646786D01*
X121489711Y-73646789D01*
X121620814Y-73734390D01*
X121620827Y-73734397D01*
X121766498Y-73794735D01*
X121766503Y-73794737D01*
X121921153Y-73825499D01*
X121921156Y-73825500D01*
X121921158Y-73825500D01*
X122078844Y-73825500D01*
X122078845Y-73825499D01*
X122233497Y-73794737D01*
X122379179Y-73734394D01*
X122510289Y-73646789D01*
X122621789Y-73535289D01*
X122709394Y-73404179D01*
X122769737Y-73258497D01*
X122800500Y-73103842D01*
X122800500Y-72396158D01*
X122800500Y-72396155D01*
X122800499Y-72396153D01*
X123199500Y-72396153D01*
X123199500Y-73103846D01*
X123230261Y-73258489D01*
X123230264Y-73258501D01*
X123290602Y-73404172D01*
X123290609Y-73404185D01*
X123378210Y-73535288D01*
X123378213Y-73535292D01*
X123489707Y-73646786D01*
X123489711Y-73646789D01*
X123620814Y-73734390D01*
X123620827Y-73734397D01*
X123766498Y-73794735D01*
X123766503Y-73794737D01*
X123921153Y-73825499D01*
X123921156Y-73825500D01*
X123921158Y-73825500D01*
X124078844Y-73825500D01*
X124078845Y-73825499D01*
X124233497Y-73794737D01*
X124379179Y-73734394D01*
X124510289Y-73646789D01*
X124621789Y-73535289D01*
X124709394Y-73404179D01*
X124769737Y-73258497D01*
X124800500Y-73103842D01*
X124800500Y-72396158D01*
X124800500Y-72396155D01*
X124800499Y-72396153D01*
X125199500Y-72396153D01*
X125199500Y-73103846D01*
X125230261Y-73258489D01*
X125230264Y-73258501D01*
X125290602Y-73404172D01*
X125290609Y-73404185D01*
X125378210Y-73535288D01*
X125378213Y-73535292D01*
X125489707Y-73646786D01*
X125489711Y-73646789D01*
X125620814Y-73734390D01*
X125620827Y-73734397D01*
X125766498Y-73794735D01*
X125766503Y-73794737D01*
X125921153Y-73825499D01*
X125921156Y-73825500D01*
X125921158Y-73825500D01*
X126078844Y-73825500D01*
X126078845Y-73825499D01*
X126233497Y-73794737D01*
X126379179Y-73734394D01*
X126510289Y-73646789D01*
X126621789Y-73535289D01*
X126709394Y-73404179D01*
X126769737Y-73258497D01*
X126800500Y-73103842D01*
X126800500Y-72396158D01*
X126800500Y-72396155D01*
X126800499Y-72396153D01*
X127199500Y-72396153D01*
X127199500Y-73103846D01*
X127230261Y-73258489D01*
X127230264Y-73258501D01*
X127290602Y-73404172D01*
X127290609Y-73404185D01*
X127378210Y-73535288D01*
X127378213Y-73535292D01*
X127489707Y-73646786D01*
X127489711Y-73646789D01*
X127620814Y-73734390D01*
X127620827Y-73734397D01*
X127766498Y-73794735D01*
X127766503Y-73794737D01*
X127921153Y-73825499D01*
X127921156Y-73825500D01*
X127921158Y-73825500D01*
X128078844Y-73825500D01*
X128078845Y-73825499D01*
X128233497Y-73794737D01*
X128379179Y-73734394D01*
X128510289Y-73646789D01*
X128621789Y-73535289D01*
X128709394Y-73404179D01*
X128769737Y-73258497D01*
X128800500Y-73103842D01*
X128800500Y-72396158D01*
X128800500Y-72396155D01*
X128800499Y-72396153D01*
X129199500Y-72396153D01*
X129199500Y-73103846D01*
X129230261Y-73258489D01*
X129230264Y-73258501D01*
X129290602Y-73404172D01*
X129290609Y-73404185D01*
X129378210Y-73535288D01*
X129378213Y-73535292D01*
X129489707Y-73646786D01*
X129489711Y-73646789D01*
X129620814Y-73734390D01*
X129620827Y-73734397D01*
X129766498Y-73794735D01*
X129766503Y-73794737D01*
X129921153Y-73825499D01*
X129921156Y-73825500D01*
X129921158Y-73825500D01*
X130078844Y-73825500D01*
X130078845Y-73825499D01*
X130233497Y-73794737D01*
X130349880Y-73746530D01*
X145949500Y-73746530D01*
X145949500Y-74253469D01*
X145989868Y-74456412D01*
X145989870Y-74456420D01*
X146060478Y-74626883D01*
X146069059Y-74647598D01*
X146070998Y-74650500D01*
X146184024Y-74819657D01*
X146330342Y-74965975D01*
X146330345Y-74965977D01*
X146502402Y-75080941D01*
X146693580Y-75160130D01*
X146896530Y-75200499D01*
X146896534Y-75200500D01*
X146896535Y-75200500D01*
X147103466Y-75200500D01*
X147103467Y-75200499D01*
X147306420Y-75160130D01*
X147497598Y-75080941D01*
X147669655Y-74965977D01*
X147815977Y-74819655D01*
X147930941Y-74647598D01*
X148010130Y-74456420D01*
X148050500Y-74253465D01*
X148050500Y-73746535D01*
X148010130Y-73543580D01*
X147930941Y-73352402D01*
X147833751Y-73206946D01*
X148350000Y-73206946D01*
X148350000Y-73850000D01*
X149022555Y-73850000D01*
X149000000Y-73934174D01*
X149000000Y-74065826D01*
X149022555Y-74150000D01*
X148350000Y-74150000D01*
X148350000Y-74793053D01*
X148360613Y-74881443D01*
X148416079Y-75022095D01*
X148507435Y-75142564D01*
X148627904Y-75233920D01*
X148768556Y-75289386D01*
X148856946Y-75300000D01*
X149350000Y-75300000D01*
X149350000Y-74477445D01*
X149434174Y-74500000D01*
X149565826Y-74500000D01*
X149650000Y-74477445D01*
X149650000Y-75300000D01*
X150143054Y-75300000D01*
X150231443Y-75289386D01*
X150372095Y-75233920D01*
X150492564Y-75142564D01*
X150583920Y-75022095D01*
X150639386Y-74881443D01*
X150650000Y-74793053D01*
X150650000Y-74150000D01*
X149977445Y-74150000D01*
X150000000Y-74065826D01*
X150000000Y-73934174D01*
X149977445Y-73850000D01*
X150650000Y-73850000D01*
X150650000Y-73206946D01*
X150639386Y-73118556D01*
X150583920Y-72977904D01*
X150492564Y-72857435D01*
X150372095Y-72766079D01*
X150231443Y-72710613D01*
X150143054Y-72700000D01*
X149650000Y-72700000D01*
X149650000Y-73522554D01*
X149565826Y-73500000D01*
X149434174Y-73500000D01*
X149350000Y-73522554D01*
X149350000Y-72700000D01*
X148856946Y-72700000D01*
X148768556Y-72710613D01*
X148627904Y-72766079D01*
X148507435Y-72857435D01*
X148416079Y-72977904D01*
X148360613Y-73118556D01*
X148350000Y-73206946D01*
X147833751Y-73206946D01*
X147815977Y-73180345D01*
X147815975Y-73180342D01*
X147669657Y-73034024D01*
X147547504Y-72952405D01*
X147497598Y-72919059D01*
X147306420Y-72839870D01*
X147306412Y-72839868D01*
X147103469Y-72799500D01*
X147103465Y-72799500D01*
X146896535Y-72799500D01*
X146896530Y-72799500D01*
X146693587Y-72839868D01*
X146693579Y-72839870D01*
X146502403Y-72919058D01*
X146330342Y-73034024D01*
X146184024Y-73180342D01*
X146069058Y-73352403D01*
X145989870Y-73543579D01*
X145989868Y-73543587D01*
X145949500Y-73746530D01*
X130349880Y-73746530D01*
X130379179Y-73734394D01*
X130510289Y-73646789D01*
X130621789Y-73535289D01*
X130709394Y-73404179D01*
X130769737Y-73258497D01*
X130800500Y-73103842D01*
X130800500Y-72396158D01*
X130800500Y-72396155D01*
X130800499Y-72396153D01*
X130769738Y-72241510D01*
X130769737Y-72241503D01*
X130769735Y-72241498D01*
X130709397Y-72095827D01*
X130709390Y-72095814D01*
X130621789Y-71964711D01*
X130621786Y-71964707D01*
X130510292Y-71853213D01*
X130510288Y-71853210D01*
X130379185Y-71765609D01*
X130379172Y-71765602D01*
X130233501Y-71705264D01*
X130233489Y-71705261D01*
X130078845Y-71674500D01*
X130078842Y-71674500D01*
X129921158Y-71674500D01*
X129921155Y-71674500D01*
X129766510Y-71705261D01*
X129766498Y-71705264D01*
X129620827Y-71765602D01*
X129620814Y-71765609D01*
X129489711Y-71853210D01*
X129489707Y-71853213D01*
X129378213Y-71964707D01*
X129378210Y-71964711D01*
X129290609Y-72095814D01*
X129290602Y-72095827D01*
X129230264Y-72241498D01*
X129230261Y-72241510D01*
X129199500Y-72396153D01*
X128800499Y-72396153D01*
X128769738Y-72241510D01*
X128769737Y-72241503D01*
X128769735Y-72241498D01*
X128709397Y-72095827D01*
X128709390Y-72095814D01*
X128621789Y-71964711D01*
X128621786Y-71964707D01*
X128510292Y-71853213D01*
X128510288Y-71853210D01*
X128379185Y-71765609D01*
X128379172Y-71765602D01*
X128233501Y-71705264D01*
X128233489Y-71705261D01*
X128078845Y-71674500D01*
X128078842Y-71674500D01*
X127921158Y-71674500D01*
X127921155Y-71674500D01*
X127766510Y-71705261D01*
X127766498Y-71705264D01*
X127620827Y-71765602D01*
X127620814Y-71765609D01*
X127489711Y-71853210D01*
X127489707Y-71853213D01*
X127378213Y-71964707D01*
X127378210Y-71964711D01*
X127290609Y-72095814D01*
X127290602Y-72095827D01*
X127230264Y-72241498D01*
X127230261Y-72241510D01*
X127199500Y-72396153D01*
X126800499Y-72396153D01*
X126769738Y-72241510D01*
X126769737Y-72241503D01*
X126769735Y-72241498D01*
X126709397Y-72095827D01*
X126709390Y-72095814D01*
X126621789Y-71964711D01*
X126621786Y-71964707D01*
X126510292Y-71853213D01*
X126510288Y-71853210D01*
X126379185Y-71765609D01*
X126379172Y-71765602D01*
X126233501Y-71705264D01*
X126233489Y-71705261D01*
X126078845Y-71674500D01*
X126078842Y-71674500D01*
X125921158Y-71674500D01*
X125921155Y-71674500D01*
X125766510Y-71705261D01*
X125766498Y-71705264D01*
X125620827Y-71765602D01*
X125620814Y-71765609D01*
X125489711Y-71853210D01*
X125489707Y-71853213D01*
X125378213Y-71964707D01*
X125378210Y-71964711D01*
X125290609Y-72095814D01*
X125290602Y-72095827D01*
X125230264Y-72241498D01*
X125230261Y-72241510D01*
X125199500Y-72396153D01*
X124800499Y-72396153D01*
X124769738Y-72241510D01*
X124769737Y-72241503D01*
X124769735Y-72241498D01*
X124709397Y-72095827D01*
X124709390Y-72095814D01*
X124621789Y-71964711D01*
X124621786Y-71964707D01*
X124510292Y-71853213D01*
X124510288Y-71853210D01*
X124379185Y-71765609D01*
X124379172Y-71765602D01*
X124233501Y-71705264D01*
X124233489Y-71705261D01*
X124078845Y-71674500D01*
X124078842Y-71674500D01*
X123921158Y-71674500D01*
X123921155Y-71674500D01*
X123766510Y-71705261D01*
X123766498Y-71705264D01*
X123620827Y-71765602D01*
X123620814Y-71765609D01*
X123489711Y-71853210D01*
X123489707Y-71853213D01*
X123378213Y-71964707D01*
X123378210Y-71964711D01*
X123290609Y-72095814D01*
X123290602Y-72095827D01*
X123230264Y-72241498D01*
X123230261Y-72241510D01*
X123199500Y-72396153D01*
X122800499Y-72396153D01*
X122769738Y-72241510D01*
X122769737Y-72241503D01*
X122769735Y-72241498D01*
X122709397Y-72095827D01*
X122709390Y-72095814D01*
X122621789Y-71964711D01*
X122621786Y-71964707D01*
X122510292Y-71853213D01*
X122510288Y-71853210D01*
X122379185Y-71765609D01*
X122379172Y-71765602D01*
X122233501Y-71705264D01*
X122233489Y-71705261D01*
X122078845Y-71674500D01*
X122078842Y-71674500D01*
X121921158Y-71674500D01*
X121921155Y-71674500D01*
X121766510Y-71705261D01*
X121766498Y-71705264D01*
X121620827Y-71765602D01*
X121620814Y-71765609D01*
X121489711Y-71853210D01*
X121489707Y-71853213D01*
X121378213Y-71964707D01*
X121378210Y-71964711D01*
X121290609Y-72095814D01*
X121290602Y-72095827D01*
X121230264Y-72241498D01*
X121230261Y-72241510D01*
X121199500Y-72396153D01*
X120900000Y-72396153D01*
X120900000Y-72081946D01*
X120889386Y-71993556D01*
X120833920Y-71852904D01*
X120742564Y-71732435D01*
X120622095Y-71641079D01*
X120481443Y-71585613D01*
X120393054Y-71575000D01*
X120150000Y-71575000D01*
X120150000Y-72403589D01*
X120144745Y-72400556D01*
X120049370Y-72375000D01*
X119950630Y-72375000D01*
X119855255Y-72400556D01*
X119850000Y-72403589D01*
X119850000Y-71575000D01*
X119606946Y-71575000D01*
X119518556Y-71585613D01*
X119377904Y-71641079D01*
X119257435Y-71732435D01*
X119166079Y-71852904D01*
X119110613Y-71993556D01*
X119100000Y-72081946D01*
X96800500Y-72081946D01*
X96800500Y-70184108D01*
X123499500Y-70184108D01*
X123499500Y-70315891D01*
X123533608Y-70443187D01*
X123566554Y-70500250D01*
X123599500Y-70557314D01*
X123692686Y-70650500D01*
X123806814Y-70716392D01*
X123934108Y-70750500D01*
X123934110Y-70750500D01*
X124065890Y-70750500D01*
X124065892Y-70750500D01*
X124193186Y-70716392D01*
X124307314Y-70650500D01*
X124400500Y-70557314D01*
X124466392Y-70443186D01*
X124500500Y-70315892D01*
X124500500Y-70184108D01*
X125499500Y-70184108D01*
X125499500Y-70315891D01*
X125533608Y-70443187D01*
X125566554Y-70500250D01*
X125599500Y-70557314D01*
X125692686Y-70650500D01*
X125806814Y-70716392D01*
X125934108Y-70750500D01*
X125934110Y-70750500D01*
X126065890Y-70750500D01*
X126065892Y-70750500D01*
X126193186Y-70716392D01*
X126307314Y-70650500D01*
X126400500Y-70557314D01*
X126466392Y-70443186D01*
X126500500Y-70315892D01*
X126500500Y-70184108D01*
X127499500Y-70184108D01*
X127499500Y-70315891D01*
X127533608Y-70443187D01*
X127566554Y-70500250D01*
X127599500Y-70557314D01*
X127692686Y-70650500D01*
X127806814Y-70716392D01*
X127934108Y-70750500D01*
X127934110Y-70750500D01*
X128065890Y-70750500D01*
X128065892Y-70750500D01*
X128193186Y-70716392D01*
X128307314Y-70650500D01*
X128400500Y-70557314D01*
X128466392Y-70443186D01*
X128500500Y-70315892D01*
X128500500Y-70184108D01*
X145499500Y-70184108D01*
X145499500Y-70315891D01*
X145533608Y-70443187D01*
X145566554Y-70500250D01*
X145599500Y-70557314D01*
X145692686Y-70650500D01*
X145806814Y-70716392D01*
X145934108Y-70750500D01*
X145934110Y-70750500D01*
X146065890Y-70750500D01*
X146065892Y-70750500D01*
X146193186Y-70716392D01*
X146307314Y-70650500D01*
X146400500Y-70557314D01*
X146466392Y-70443186D01*
X146500500Y-70315892D01*
X146500500Y-70184108D01*
X146466392Y-70056814D01*
X146400500Y-69942686D01*
X146307314Y-69849500D01*
X146250250Y-69816554D01*
X146193187Y-69783608D01*
X146129539Y-69766554D01*
X146065892Y-69749500D01*
X145934108Y-69749500D01*
X145806812Y-69783608D01*
X145692686Y-69849500D01*
X145692683Y-69849502D01*
X145599502Y-69942683D01*
X145599500Y-69942686D01*
X145533608Y-70056812D01*
X145499500Y-70184108D01*
X128500500Y-70184108D01*
X128466392Y-70056814D01*
X128400500Y-69942686D01*
X128307314Y-69849500D01*
X128250250Y-69816554D01*
X128193187Y-69783608D01*
X128129539Y-69766554D01*
X128065892Y-69749500D01*
X127934108Y-69749500D01*
X127806812Y-69783608D01*
X127692686Y-69849500D01*
X127692683Y-69849502D01*
X127599502Y-69942683D01*
X127599500Y-69942686D01*
X127533608Y-70056812D01*
X127499500Y-70184108D01*
X126500500Y-70184108D01*
X126466392Y-70056814D01*
X126400500Y-69942686D01*
X126307314Y-69849500D01*
X126250250Y-69816554D01*
X126193187Y-69783608D01*
X126129539Y-69766554D01*
X126065892Y-69749500D01*
X125934108Y-69749500D01*
X125806812Y-69783608D01*
X125692686Y-69849500D01*
X125692683Y-69849502D01*
X125599502Y-69942683D01*
X125599500Y-69942686D01*
X125533608Y-70056812D01*
X125499500Y-70184108D01*
X124500500Y-70184108D01*
X124466392Y-70056814D01*
X124400500Y-69942686D01*
X124307314Y-69849500D01*
X124250250Y-69816554D01*
X124193187Y-69783608D01*
X124129539Y-69766554D01*
X124065892Y-69749500D01*
X123934108Y-69749500D01*
X123806812Y-69783608D01*
X123692686Y-69849500D01*
X123692683Y-69849502D01*
X123599502Y-69942683D01*
X123599500Y-69942686D01*
X123533608Y-70056812D01*
X123499500Y-70184108D01*
X96800500Y-70184108D01*
X96800500Y-69184108D01*
X109749500Y-69184108D01*
X109749500Y-69315891D01*
X109783608Y-69443187D01*
X109816554Y-69500250D01*
X109849500Y-69557314D01*
X109942686Y-69650500D01*
X110056814Y-69716392D01*
X110184108Y-69750500D01*
X110184110Y-69750500D01*
X110315890Y-69750500D01*
X110315892Y-69750500D01*
X110443186Y-69716392D01*
X110557314Y-69650500D01*
X110650500Y-69557314D01*
X110716392Y-69443186D01*
X110750500Y-69315892D01*
X110750500Y-69184108D01*
X110716392Y-69056814D01*
X110650500Y-68942686D01*
X110557314Y-68849500D01*
X110500250Y-68816554D01*
X110443187Y-68783608D01*
X110349671Y-68758551D01*
X110315892Y-68749500D01*
X110184108Y-68749500D01*
X110056812Y-68783608D01*
X109942686Y-68849500D01*
X109942683Y-68849502D01*
X109849502Y-68942683D01*
X109849500Y-68942686D01*
X109783608Y-69056812D01*
X109749500Y-69184108D01*
X96800500Y-69184108D01*
X96800500Y-68385343D01*
X126549265Y-68385343D01*
X126549265Y-68517126D01*
X126583373Y-68644422D01*
X126611528Y-68693187D01*
X126649265Y-68758549D01*
X126742451Y-68851735D01*
X126856579Y-68917627D01*
X126983873Y-68951735D01*
X126983875Y-68951735D01*
X127115655Y-68951735D01*
X127115657Y-68951735D01*
X127242951Y-68917627D01*
X127357079Y-68851735D01*
X127450265Y-68758549D01*
X127516157Y-68644421D01*
X127518920Y-68634108D01*
X135749500Y-68634108D01*
X135749500Y-68765892D01*
X135766554Y-68829539D01*
X135783608Y-68893187D01*
X135797718Y-68917626D01*
X135849500Y-69007314D01*
X135942686Y-69100500D01*
X136056814Y-69166392D01*
X136184108Y-69200500D01*
X136184110Y-69200500D01*
X136315890Y-69200500D01*
X136315892Y-69200500D01*
X136443186Y-69166392D01*
X136557314Y-69100500D01*
X136650500Y-69007314D01*
X136716392Y-68893186D01*
X136750500Y-68765892D01*
X136750500Y-68634108D01*
X136716392Y-68506814D01*
X136716389Y-68506808D01*
X136705520Y-68487982D01*
X136705519Y-68487981D01*
X136674415Y-68434108D01*
X151749500Y-68434108D01*
X151749500Y-68565891D01*
X151783608Y-68693187D01*
X151816121Y-68749500D01*
X151849500Y-68807314D01*
X151942686Y-68900500D01*
X152056814Y-68966392D01*
X152184108Y-69000500D01*
X152184110Y-69000500D01*
X152315890Y-69000500D01*
X152315892Y-69000500D01*
X152443186Y-68966392D01*
X152557314Y-68900500D01*
X152650500Y-68807314D01*
X152716392Y-68693186D01*
X152750500Y-68565892D01*
X152750500Y-68434108D01*
X152716392Y-68306814D01*
X152650500Y-68192686D01*
X152557314Y-68099500D01*
X152500250Y-68066554D01*
X152443187Y-68033608D01*
X152379539Y-68016554D01*
X152315892Y-67999500D01*
X152184108Y-67999500D01*
X152056812Y-68033608D01*
X151942686Y-68099500D01*
X151942683Y-68099502D01*
X151849502Y-68192683D01*
X151849500Y-68192686D01*
X151783608Y-68306812D01*
X151749500Y-68434108D01*
X136674415Y-68434108D01*
X136650500Y-68392686D01*
X136557314Y-68299500D01*
X136485519Y-68258049D01*
X136443187Y-68233608D01*
X136378931Y-68216391D01*
X136315892Y-68199500D01*
X136184108Y-68199500D01*
X136056812Y-68233608D01*
X135942686Y-68299500D01*
X135942683Y-68299502D01*
X135849502Y-68392683D01*
X135849500Y-68392686D01*
X135783608Y-68506812D01*
X135767778Y-68565892D01*
X135749500Y-68634108D01*
X127518920Y-68634108D01*
X127550265Y-68517127D01*
X127550265Y-68385343D01*
X127516157Y-68258049D01*
X127450265Y-68143921D01*
X127357079Y-68050735D01*
X127268338Y-67999500D01*
X127242952Y-67984843D01*
X127179304Y-67967789D01*
X127115657Y-67950735D01*
X126983873Y-67950735D01*
X126856577Y-67984843D01*
X126742451Y-68050735D01*
X126742448Y-68050737D01*
X126649267Y-68143918D01*
X126649265Y-68143921D01*
X126583373Y-68258047D01*
X126549265Y-68385343D01*
X96800500Y-68385343D01*
X96800500Y-67684108D01*
X113249500Y-67684108D01*
X113249500Y-67815892D01*
X113266554Y-67879539D01*
X113283608Y-67943187D01*
X113287966Y-67950735D01*
X113349500Y-68057314D01*
X113442686Y-68150500D01*
X113556814Y-68216392D01*
X113684108Y-68250500D01*
X113684110Y-68250500D01*
X113815890Y-68250500D01*
X113815892Y-68250500D01*
X113943186Y-68216392D01*
X114057314Y-68150500D01*
X114150500Y-68057314D01*
X114216392Y-67943186D01*
X114250500Y-67815892D01*
X114250500Y-67684108D01*
X129499500Y-67684108D01*
X129499500Y-67815892D01*
X129516554Y-67879539D01*
X129533608Y-67943187D01*
X129537966Y-67950735D01*
X129599500Y-68057314D01*
X129692686Y-68150500D01*
X129806814Y-68216392D01*
X129934108Y-68250500D01*
X129934110Y-68250500D01*
X130065890Y-68250500D01*
X130065892Y-68250500D01*
X130193186Y-68216392D01*
X130307314Y-68150500D01*
X130400500Y-68057314D01*
X130466392Y-67943186D01*
X130500500Y-67815892D01*
X130500500Y-67684108D01*
X130466392Y-67556814D01*
X130412674Y-67463772D01*
X139991664Y-67463772D01*
X139991664Y-67595555D01*
X140025772Y-67722851D01*
X140058718Y-67779914D01*
X140091664Y-67836978D01*
X140184850Y-67930164D01*
X140298978Y-67996056D01*
X140426272Y-68030164D01*
X140426274Y-68030164D01*
X140558054Y-68030164D01*
X140558056Y-68030164D01*
X140685350Y-67996056D01*
X140799478Y-67930164D01*
X140892664Y-67836978D01*
X140958556Y-67722850D01*
X140992664Y-67595556D01*
X140992664Y-67463772D01*
X140958556Y-67336478D01*
X140892664Y-67222350D01*
X140799478Y-67129164D01*
X140742414Y-67096218D01*
X140685351Y-67063272D01*
X140621703Y-67046218D01*
X140558056Y-67029164D01*
X140426272Y-67029164D01*
X140298976Y-67063272D01*
X140184850Y-67129164D01*
X140184847Y-67129166D01*
X140091666Y-67222347D01*
X140091664Y-67222350D01*
X140025772Y-67336476D01*
X139991664Y-67463772D01*
X130412674Y-67463772D01*
X130400500Y-67442686D01*
X130307314Y-67349500D01*
X130250250Y-67316554D01*
X130193187Y-67283608D01*
X130129539Y-67266554D01*
X130065892Y-67249500D01*
X129934108Y-67249500D01*
X129806812Y-67283608D01*
X129692686Y-67349500D01*
X129692683Y-67349502D01*
X129599502Y-67442683D01*
X129599500Y-67442686D01*
X129533608Y-67556812D01*
X129523227Y-67595555D01*
X129499500Y-67684108D01*
X114250500Y-67684108D01*
X114216392Y-67556814D01*
X114150500Y-67442686D01*
X114057314Y-67349500D01*
X114000250Y-67316554D01*
X113943187Y-67283608D01*
X113879539Y-67266554D01*
X113815892Y-67249500D01*
X113684108Y-67249500D01*
X113556812Y-67283608D01*
X113442686Y-67349500D01*
X113442683Y-67349502D01*
X113349502Y-67442683D01*
X113349500Y-67442686D01*
X113283608Y-67556812D01*
X113273227Y-67595555D01*
X113249500Y-67684108D01*
X96800500Y-67684108D01*
X96800500Y-66434108D01*
X122999500Y-66434108D01*
X122999500Y-66565891D01*
X123033608Y-66693187D01*
X123066554Y-66750250D01*
X123099500Y-66807314D01*
X123192686Y-66900500D01*
X123306814Y-66966392D01*
X123434108Y-67000500D01*
X123434110Y-67000500D01*
X123565890Y-67000500D01*
X123565892Y-67000500D01*
X123693186Y-66966392D01*
X123807314Y-66900500D01*
X123900500Y-66807314D01*
X123966392Y-66693186D01*
X124000500Y-66565892D01*
X124000500Y-66434108D01*
X127199500Y-66434108D01*
X127199500Y-66565891D01*
X127233608Y-66693187D01*
X127266554Y-66750250D01*
X127299500Y-66807314D01*
X127392686Y-66900500D01*
X127506814Y-66966392D01*
X127634108Y-67000500D01*
X127634110Y-67000500D01*
X127765890Y-67000500D01*
X127765892Y-67000500D01*
X127893186Y-66966392D01*
X128007314Y-66900500D01*
X128100500Y-66807314D01*
X128166392Y-66693186D01*
X128200500Y-66565892D01*
X128200500Y-66434108D01*
X128166392Y-66306814D01*
X128100500Y-66192686D01*
X128007314Y-66099500D01*
X127950250Y-66066554D01*
X127893187Y-66033608D01*
X127829539Y-66016554D01*
X127765892Y-65999500D01*
X127634108Y-65999500D01*
X127506812Y-66033608D01*
X127392686Y-66099500D01*
X127392683Y-66099502D01*
X127299502Y-66192683D01*
X127299500Y-66192686D01*
X127233608Y-66306812D01*
X127199500Y-66434108D01*
X124000500Y-66434108D01*
X123966392Y-66306814D01*
X123900500Y-66192686D01*
X123807314Y-66099500D01*
X123750250Y-66066554D01*
X123693187Y-66033608D01*
X123629539Y-66016554D01*
X123565892Y-65999500D01*
X123434108Y-65999500D01*
X123306812Y-66033608D01*
X123192686Y-66099500D01*
X123192683Y-66099502D01*
X123099502Y-66192683D01*
X123099500Y-66192686D01*
X123033608Y-66306812D01*
X122999500Y-66434108D01*
X96800500Y-66434108D01*
X96800500Y-65734108D01*
X102199500Y-65734108D01*
X102199500Y-65865892D01*
X102216554Y-65929539D01*
X102233608Y-65993187D01*
X102237253Y-65999500D01*
X102299500Y-66107314D01*
X102392686Y-66200500D01*
X102506814Y-66266392D01*
X102634108Y-66300500D01*
X102634110Y-66300500D01*
X102765890Y-66300500D01*
X102765892Y-66300500D01*
X102893186Y-66266392D01*
X103007314Y-66200500D01*
X103100500Y-66107314D01*
X103166392Y-65993186D01*
X103200500Y-65865892D01*
X103200500Y-65734108D01*
X103166392Y-65606814D01*
X103100500Y-65492686D01*
X103016922Y-65409108D01*
X116749500Y-65409108D01*
X116749500Y-65540892D01*
X116765472Y-65600500D01*
X116783608Y-65668187D01*
X116811439Y-65716391D01*
X116849500Y-65782314D01*
X116942686Y-65875500D01*
X117056814Y-65941392D01*
X117184108Y-65975500D01*
X117184110Y-65975500D01*
X117315890Y-65975500D01*
X117315892Y-65975500D01*
X117443186Y-65941392D01*
X117557314Y-65875500D01*
X117650500Y-65782314D01*
X117716392Y-65668186D01*
X117750500Y-65540892D01*
X117750500Y-65409108D01*
X117716392Y-65281814D01*
X117650500Y-65167686D01*
X117616922Y-65134108D01*
X122099500Y-65134108D01*
X122099500Y-65265892D01*
X122107626Y-65296218D01*
X122133608Y-65393187D01*
X122162476Y-65443186D01*
X122199500Y-65507314D01*
X122292686Y-65600500D01*
X122406814Y-65666392D01*
X122534108Y-65700500D01*
X122534110Y-65700500D01*
X122665890Y-65700500D01*
X122665892Y-65700500D01*
X122793186Y-65666392D01*
X122907314Y-65600500D01*
X123000500Y-65507314D01*
X123066392Y-65393186D01*
X123100500Y-65265892D01*
X123100500Y-65134108D01*
X123066392Y-65006814D01*
X123065925Y-65006006D01*
X123047735Y-64974500D01*
X123000500Y-64892686D01*
X122907314Y-64799500D01*
X122820712Y-64749500D01*
X122794053Y-64734108D01*
X127599500Y-64734108D01*
X127599500Y-64865892D01*
X127614574Y-64922149D01*
X127633608Y-64993187D01*
X127665051Y-65047646D01*
X127699500Y-65107314D01*
X127792686Y-65200500D01*
X127891521Y-65257563D01*
X127905944Y-65265890D01*
X127906814Y-65266392D01*
X128034108Y-65300500D01*
X128034110Y-65300500D01*
X128165890Y-65300500D01*
X128165892Y-65300500D01*
X128293186Y-65266392D01*
X128407314Y-65200500D01*
X128423706Y-65184108D01*
X154499500Y-65184108D01*
X154499500Y-65315891D01*
X154533608Y-65443187D01*
X154562185Y-65492683D01*
X154599500Y-65557314D01*
X154692686Y-65650500D01*
X154806814Y-65716392D01*
X154934108Y-65750500D01*
X154934110Y-65750500D01*
X155065890Y-65750500D01*
X155065892Y-65750500D01*
X155193186Y-65716392D01*
X155307314Y-65650500D01*
X155400500Y-65557314D01*
X155466392Y-65443186D01*
X155500500Y-65315892D01*
X155500500Y-65184108D01*
X155466392Y-65056814D01*
X155400500Y-64942686D01*
X155307314Y-64849500D01*
X155243890Y-64812882D01*
X155193187Y-64783608D01*
X155129539Y-64766554D01*
X155065892Y-64749500D01*
X154934108Y-64749500D01*
X154806812Y-64783608D01*
X154692686Y-64849500D01*
X154692683Y-64849502D01*
X154599502Y-64942683D01*
X154599500Y-64942686D01*
X154533608Y-65056812D01*
X154499500Y-65184108D01*
X128423706Y-65184108D01*
X128500500Y-65107314D01*
X128566392Y-64993186D01*
X128600500Y-64865892D01*
X128600500Y-64734108D01*
X128566392Y-64606814D01*
X128500500Y-64492686D01*
X128407314Y-64399500D01*
X128342591Y-64362132D01*
X128293187Y-64333608D01*
X128229539Y-64316554D01*
X128165892Y-64299500D01*
X128034108Y-64299500D01*
X127906812Y-64333608D01*
X127792686Y-64399500D01*
X127792683Y-64399502D01*
X127699502Y-64492683D01*
X127699500Y-64492686D01*
X127633608Y-64606812D01*
X127617515Y-64666874D01*
X127599500Y-64734108D01*
X122794053Y-64734108D01*
X122793187Y-64733608D01*
X122701757Y-64709110D01*
X122665892Y-64699500D01*
X122534108Y-64699500D01*
X122406812Y-64733608D01*
X122292686Y-64799500D01*
X122292683Y-64799502D01*
X122199502Y-64892683D01*
X122199500Y-64892686D01*
X122133608Y-65006812D01*
X122115472Y-65074500D01*
X122099500Y-65134108D01*
X117616922Y-65134108D01*
X117557314Y-65074500D01*
X117500250Y-65041554D01*
X117443187Y-65008608D01*
X117379539Y-64991554D01*
X117315892Y-64974500D01*
X117184108Y-64974500D01*
X117056812Y-65008608D01*
X116942686Y-65074500D01*
X116942683Y-65074502D01*
X116849502Y-65167683D01*
X116849500Y-65167686D01*
X116783608Y-65281812D01*
X116779748Y-65296218D01*
X116749500Y-65409108D01*
X103016922Y-65409108D01*
X103007314Y-65399500D01*
X102950250Y-65366554D01*
X102893187Y-65333608D01*
X102827061Y-65315890D01*
X102765892Y-65299500D01*
X102634108Y-65299500D01*
X102506812Y-65333608D01*
X102392686Y-65399500D01*
X102392683Y-65399502D01*
X102299502Y-65492683D01*
X102299500Y-65492686D01*
X102233608Y-65606812D01*
X102217163Y-65668187D01*
X102199500Y-65734108D01*
X96800500Y-65734108D01*
X96800500Y-64416871D01*
X99074935Y-64416871D01*
X99074935Y-64574564D01*
X99105696Y-64729207D01*
X99105699Y-64729219D01*
X99166037Y-64874890D01*
X99166044Y-64874903D01*
X99253645Y-65006006D01*
X99253648Y-65006010D01*
X99365142Y-65117504D01*
X99365146Y-65117507D01*
X99496249Y-65205108D01*
X99496262Y-65205115D01*
X99641933Y-65265453D01*
X99641938Y-65265455D01*
X99796588Y-65296217D01*
X99796591Y-65296218D01*
X99796593Y-65296218D01*
X100504279Y-65296218D01*
X100504280Y-65296217D01*
X100658932Y-65265455D01*
X100804614Y-65205112D01*
X100935724Y-65117507D01*
X101047224Y-65006007D01*
X101134829Y-64874897D01*
X101195172Y-64729215D01*
X101207573Y-64666874D01*
X111570255Y-64666874D01*
X111643411Y-64709111D01*
X111796009Y-64749999D01*
X111796011Y-64750000D01*
X111953989Y-64750000D01*
X111953990Y-64749999D01*
X112106590Y-64709110D01*
X112179743Y-64666874D01*
X113820255Y-64666874D01*
X113893411Y-64709111D01*
X114046009Y-64749999D01*
X114046011Y-64750000D01*
X114203989Y-64750000D01*
X114203990Y-64749999D01*
X114356590Y-64709110D01*
X114429743Y-64666874D01*
X114125001Y-64362132D01*
X114125000Y-64362132D01*
X113820255Y-64666874D01*
X112179743Y-64666874D01*
X111875001Y-64362132D01*
X111875000Y-64362132D01*
X111570255Y-64666874D01*
X101207573Y-64666874D01*
X101210080Y-64654269D01*
X101221225Y-64598242D01*
X101225934Y-64574564D01*
X101225935Y-64574562D01*
X101225935Y-64416873D01*
X101225934Y-64416871D01*
X101221763Y-64395900D01*
X101195172Y-64262221D01*
X101183884Y-64234968D01*
X101134832Y-64116545D01*
X101134825Y-64116532D01*
X101047224Y-63985429D01*
X101047221Y-63985425D01*
X100935727Y-63873931D01*
X100935723Y-63873928D01*
X100804615Y-63786324D01*
X100804612Y-63786322D01*
X100658936Y-63725982D01*
X100658924Y-63725979D01*
X100504280Y-63695218D01*
X100504277Y-63695218D01*
X99796593Y-63695218D01*
X99796590Y-63695218D01*
X99641945Y-63725979D01*
X99641933Y-63725982D01*
X99496262Y-63786320D01*
X99496249Y-63786327D01*
X99365146Y-63873928D01*
X99365142Y-63873931D01*
X99253648Y-63985425D01*
X99253645Y-63985429D01*
X99166044Y-64116532D01*
X99166037Y-64116545D01*
X99105699Y-64262216D01*
X99105696Y-64262228D01*
X99074935Y-64416871D01*
X96800500Y-64416871D01*
X96800500Y-63684108D01*
X107999500Y-63684108D01*
X107999500Y-63815892D01*
X108015319Y-63874929D01*
X108033608Y-63943187D01*
X108057995Y-63985425D01*
X108099500Y-64057314D01*
X108192686Y-64150500D01*
X108306814Y-64216392D01*
X108434108Y-64250500D01*
X108434110Y-64250500D01*
X108565890Y-64250500D01*
X108565892Y-64250500D01*
X108693186Y-64216392D01*
X108807314Y-64150500D01*
X108886805Y-64071009D01*
X111275000Y-64071009D01*
X111275000Y-64228990D01*
X111315889Y-64381592D01*
X111358124Y-64454743D01*
X111662868Y-64150000D01*
X111662868Y-64149999D01*
X111633032Y-64120163D01*
X111725000Y-64120163D01*
X111725000Y-64179837D01*
X111747836Y-64234968D01*
X111790032Y-64277164D01*
X111845163Y-64300000D01*
X111904837Y-64300000D01*
X111959968Y-64277164D01*
X112002164Y-64234968D01*
X112025000Y-64179837D01*
X112025000Y-64149999D01*
X112087132Y-64149999D01*
X112087132Y-64150000D01*
X112391874Y-64454742D01*
X112434110Y-64381590D01*
X112474999Y-64228990D01*
X112475000Y-64228989D01*
X112475000Y-64071011D01*
X112474999Y-64071009D01*
X113525000Y-64071009D01*
X113525000Y-64228990D01*
X113565889Y-64381592D01*
X113608124Y-64454743D01*
X113912868Y-64150000D01*
X113912868Y-64149999D01*
X113883032Y-64120163D01*
X113975000Y-64120163D01*
X113975000Y-64179837D01*
X113997836Y-64234968D01*
X114040032Y-64277164D01*
X114095163Y-64300000D01*
X114154837Y-64300000D01*
X114209968Y-64277164D01*
X114252164Y-64234968D01*
X114275000Y-64179837D01*
X114275000Y-64149999D01*
X114337132Y-64149999D01*
X114337132Y-64150000D01*
X114641874Y-64454742D01*
X114684110Y-64381590D01*
X114724999Y-64228990D01*
X114725000Y-64228989D01*
X114725000Y-64071011D01*
X114724999Y-64071009D01*
X114700098Y-63978074D01*
X114693676Y-63954108D01*
X129819500Y-63954108D01*
X129819500Y-64085892D01*
X129828683Y-64120163D01*
X129853608Y-64213187D01*
X129881918Y-64262221D01*
X129919500Y-64327314D01*
X130012686Y-64420500D01*
X130126814Y-64486392D01*
X130254108Y-64520500D01*
X130254110Y-64520500D01*
X130385890Y-64520500D01*
X130385892Y-64520500D01*
X130513186Y-64486392D01*
X130627314Y-64420500D01*
X130720500Y-64327314D01*
X130769829Y-64241874D01*
X143707755Y-64241874D01*
X143780911Y-64284111D01*
X143933509Y-64324999D01*
X143933511Y-64325000D01*
X144091489Y-64325000D01*
X144091490Y-64324999D01*
X144244090Y-64284110D01*
X144317243Y-64241874D01*
X145957755Y-64241874D01*
X146030911Y-64284111D01*
X146183509Y-64324999D01*
X146183511Y-64325000D01*
X146341489Y-64325000D01*
X146341490Y-64324999D01*
X146494090Y-64284110D01*
X146567243Y-64241874D01*
X146262501Y-63937132D01*
X146262500Y-63937132D01*
X145957755Y-64241874D01*
X144317243Y-64241874D01*
X144012501Y-63937132D01*
X144012500Y-63937132D01*
X143707755Y-64241874D01*
X130769829Y-64241874D01*
X130786392Y-64213186D01*
X130820500Y-64085892D01*
X130820500Y-63954108D01*
X130786392Y-63826814D01*
X130785633Y-63825500D01*
X130776666Y-63809968D01*
X130720500Y-63712686D01*
X130627314Y-63619500D01*
X130570250Y-63586554D01*
X130513187Y-63553608D01*
X130449539Y-63536554D01*
X130385892Y-63519500D01*
X130254108Y-63519500D01*
X130126812Y-63553608D01*
X130012686Y-63619500D01*
X130012683Y-63619502D01*
X129919502Y-63712683D01*
X129919500Y-63712686D01*
X129853608Y-63826812D01*
X129822426Y-63943187D01*
X129819500Y-63954108D01*
X114693676Y-63954108D01*
X114684110Y-63918410D01*
X114641873Y-63845255D01*
X114337132Y-64149999D01*
X114275000Y-64149999D01*
X114275000Y-64120163D01*
X114252164Y-64065032D01*
X114209968Y-64022836D01*
X114154837Y-64000000D01*
X114095163Y-64000000D01*
X114040032Y-64022836D01*
X113997836Y-64065032D01*
X113975000Y-64120163D01*
X113883032Y-64120163D01*
X113608124Y-63845255D01*
X113608123Y-63845255D01*
X113565890Y-63918405D01*
X113565890Y-63918406D01*
X113525000Y-64071009D01*
X112474999Y-64071009D01*
X112434111Y-63918411D01*
X112391873Y-63845255D01*
X112087132Y-64149999D01*
X112025000Y-64149999D01*
X112025000Y-64120163D01*
X112002164Y-64065032D01*
X111959968Y-64022836D01*
X111904837Y-64000000D01*
X111845163Y-64000000D01*
X111790032Y-64022836D01*
X111747836Y-64065032D01*
X111725000Y-64120163D01*
X111633032Y-64120163D01*
X111358124Y-63845255D01*
X111358123Y-63845255D01*
X111315890Y-63918405D01*
X111315890Y-63918406D01*
X111275000Y-64071009D01*
X108886805Y-64071009D01*
X108900500Y-64057314D01*
X108966392Y-63943186D01*
X109000500Y-63815892D01*
X109000500Y-63684108D01*
X108986839Y-63633123D01*
X111570255Y-63633123D01*
X111570255Y-63633124D01*
X111875000Y-63937868D01*
X111875001Y-63937868D01*
X112179743Y-63633124D01*
X112179741Y-63633123D01*
X113820255Y-63633123D01*
X113820255Y-63633124D01*
X114125000Y-63937868D01*
X114125001Y-63937868D01*
X114429743Y-63633124D01*
X114356592Y-63590889D01*
X114203990Y-63550000D01*
X114046009Y-63550000D01*
X113893406Y-63590890D01*
X113893405Y-63590890D01*
X113820255Y-63633123D01*
X112179741Y-63633123D01*
X112106592Y-63590889D01*
X111953990Y-63550000D01*
X111796009Y-63550000D01*
X111643406Y-63590890D01*
X111643405Y-63590890D01*
X111570255Y-63633123D01*
X108986839Y-63633123D01*
X108966392Y-63556814D01*
X108900500Y-63442686D01*
X108816922Y-63359108D01*
X136762000Y-63359108D01*
X136762000Y-63490892D01*
X136772214Y-63529011D01*
X136796108Y-63618187D01*
X136812173Y-63646011D01*
X136862000Y-63732314D01*
X136955186Y-63825500D01*
X137069314Y-63891392D01*
X137196608Y-63925500D01*
X137196610Y-63925500D01*
X137328390Y-63925500D01*
X137328392Y-63925500D01*
X137455686Y-63891392D01*
X137569814Y-63825500D01*
X137663000Y-63732314D01*
X137712828Y-63646009D01*
X143412500Y-63646009D01*
X143412500Y-63803990D01*
X143453389Y-63956592D01*
X143495624Y-64029743D01*
X143800368Y-63725000D01*
X143800368Y-63724999D01*
X143770532Y-63695163D01*
X143862500Y-63695163D01*
X143862500Y-63754837D01*
X143885336Y-63809968D01*
X143927532Y-63852164D01*
X143982663Y-63875000D01*
X144042337Y-63875000D01*
X144097468Y-63852164D01*
X144139664Y-63809968D01*
X144162500Y-63754837D01*
X144162500Y-63724999D01*
X144224632Y-63724999D01*
X144224632Y-63725000D01*
X144529374Y-64029742D01*
X144571610Y-63956590D01*
X144612499Y-63803990D01*
X144612500Y-63803989D01*
X144612500Y-63646011D01*
X144612499Y-63646009D01*
X145662500Y-63646009D01*
X145662500Y-63803990D01*
X145703389Y-63956592D01*
X145745624Y-64029743D01*
X146050368Y-63725000D01*
X146050368Y-63724999D01*
X146020532Y-63695163D01*
X146112500Y-63695163D01*
X146112500Y-63754837D01*
X146135336Y-63809968D01*
X146177532Y-63852164D01*
X146232663Y-63875000D01*
X146292337Y-63875000D01*
X146347468Y-63852164D01*
X146389664Y-63809968D01*
X146412500Y-63754837D01*
X146412500Y-63724999D01*
X146474632Y-63724999D01*
X146474632Y-63725000D01*
X146779374Y-64029742D01*
X146821610Y-63956590D01*
X146859612Y-63814766D01*
X149118842Y-63814766D01*
X149118842Y-63946550D01*
X149133164Y-64000000D01*
X149152950Y-64073845D01*
X149177411Y-64116211D01*
X149218842Y-64187972D01*
X149312028Y-64281158D01*
X149426156Y-64347050D01*
X149553450Y-64381158D01*
X149553452Y-64381158D01*
X149685232Y-64381158D01*
X149685234Y-64381158D01*
X149812528Y-64347050D01*
X149926656Y-64281158D01*
X150019842Y-64187972D01*
X150033436Y-64164425D01*
X150084002Y-64116211D01*
X150152609Y-64102987D01*
X150217474Y-64128955D01*
X150254904Y-64181518D01*
X150255951Y-64181085D01*
X150257834Y-64185631D01*
X150258003Y-64185869D01*
X150258204Y-64186526D01*
X150259058Y-64188588D01*
X150275111Y-64216392D01*
X150324951Y-64302717D01*
X150418137Y-64395903D01*
X150532265Y-64461795D01*
X150659559Y-64495903D01*
X150659561Y-64495903D01*
X150791341Y-64495903D01*
X150791343Y-64495903D01*
X150918637Y-64461795D01*
X151032765Y-64395903D01*
X151125951Y-64302717D01*
X151191843Y-64188589D01*
X151225951Y-64061295D01*
X151225951Y-63929511D01*
X151203502Y-63845730D01*
X156674500Y-63845730D01*
X156674500Y-64654269D01*
X156677353Y-64684699D01*
X156677353Y-64684701D01*
X156717524Y-64799500D01*
X156722207Y-64812882D01*
X156802850Y-64922150D01*
X156912118Y-65002793D01*
X156954845Y-65017744D01*
X157040299Y-65047646D01*
X157070730Y-65050500D01*
X157070734Y-65050500D01*
X158429270Y-65050500D01*
X158459699Y-65047646D01*
X158459701Y-65047646D01*
X158523790Y-65025219D01*
X158587882Y-65002793D01*
X158697150Y-64922150D01*
X158777793Y-64812882D01*
X158800219Y-64748790D01*
X158822646Y-64684701D01*
X158822646Y-64684699D01*
X158825500Y-64654269D01*
X158825500Y-63845730D01*
X158822646Y-63815300D01*
X158822646Y-63815298D01*
X158786740Y-63712686D01*
X158777793Y-63687118D01*
X158697150Y-63577850D01*
X158587882Y-63497207D01*
X158587880Y-63497206D01*
X158459700Y-63452353D01*
X158429270Y-63449500D01*
X158429266Y-63449500D01*
X157070734Y-63449500D01*
X157070730Y-63449500D01*
X157040300Y-63452353D01*
X157040298Y-63452353D01*
X156912119Y-63497206D01*
X156912117Y-63497207D01*
X156802850Y-63577850D01*
X156722207Y-63687117D01*
X156722206Y-63687119D01*
X156677353Y-63815298D01*
X156677353Y-63815300D01*
X156674500Y-63845730D01*
X151203502Y-63845730D01*
X151191843Y-63802217D01*
X151125951Y-63688089D01*
X151032765Y-63594903D01*
X150954991Y-63550000D01*
X150918638Y-63529011D01*
X150854990Y-63511957D01*
X150791343Y-63494903D01*
X150659559Y-63494903D01*
X150532263Y-63529011D01*
X150418137Y-63594903D01*
X150418134Y-63594905D01*
X150324953Y-63688086D01*
X150324946Y-63688095D01*
X150311354Y-63711637D01*
X150260786Y-63759851D01*
X150192178Y-63773072D01*
X150127314Y-63747102D01*
X150089889Y-63694542D01*
X150088842Y-63694976D01*
X150086956Y-63690423D01*
X150086788Y-63690187D01*
X150086587Y-63689531D01*
X150085734Y-63687472D01*
X150054356Y-63633124D01*
X150019842Y-63573344D01*
X149926656Y-63480158D01*
X149861748Y-63442683D01*
X149812529Y-63414266D01*
X149748881Y-63397212D01*
X149685234Y-63380158D01*
X149553450Y-63380158D01*
X149426154Y-63414266D01*
X149312028Y-63480158D01*
X149312025Y-63480160D01*
X149218844Y-63573341D01*
X149218842Y-63573344D01*
X149152950Y-63687470D01*
X149140934Y-63732316D01*
X149118842Y-63814766D01*
X146859612Y-63814766D01*
X146862499Y-63803990D01*
X146862500Y-63803989D01*
X146862500Y-63646011D01*
X146862499Y-63646009D01*
X146821611Y-63493411D01*
X146779373Y-63420255D01*
X146474632Y-63724999D01*
X146412500Y-63724999D01*
X146412500Y-63695163D01*
X146389664Y-63640032D01*
X146347468Y-63597836D01*
X146292337Y-63575000D01*
X146232663Y-63575000D01*
X146177532Y-63597836D01*
X146135336Y-63640032D01*
X146112500Y-63695163D01*
X146020532Y-63695163D01*
X145745624Y-63420255D01*
X145745623Y-63420255D01*
X145703390Y-63493405D01*
X145703390Y-63493406D01*
X145662500Y-63646009D01*
X144612499Y-63646009D01*
X144571611Y-63493411D01*
X144529373Y-63420255D01*
X144224632Y-63724999D01*
X144162500Y-63724999D01*
X144162500Y-63695163D01*
X144139664Y-63640032D01*
X144097468Y-63597836D01*
X144042337Y-63575000D01*
X143982663Y-63575000D01*
X143927532Y-63597836D01*
X143885336Y-63640032D01*
X143862500Y-63695163D01*
X143770532Y-63695163D01*
X143495624Y-63420255D01*
X143495623Y-63420255D01*
X143453390Y-63493405D01*
X143453390Y-63493406D01*
X143412500Y-63646009D01*
X137712828Y-63646009D01*
X137728892Y-63618186D01*
X137763000Y-63490892D01*
X137763000Y-63359108D01*
X137728892Y-63231814D01*
X137715214Y-63208123D01*
X143707755Y-63208123D01*
X143707755Y-63208124D01*
X144012500Y-63512868D01*
X144012501Y-63512868D01*
X144317243Y-63208124D01*
X144317241Y-63208123D01*
X145957755Y-63208123D01*
X145957755Y-63208124D01*
X146262500Y-63512868D01*
X146262501Y-63512868D01*
X146567243Y-63208124D01*
X146494092Y-63165889D01*
X146341490Y-63125000D01*
X146183509Y-63125000D01*
X146030906Y-63165890D01*
X146030905Y-63165890D01*
X145957755Y-63208123D01*
X144317241Y-63208123D01*
X144244092Y-63165889D01*
X144091490Y-63125000D01*
X143933509Y-63125000D01*
X143780906Y-63165890D01*
X143780905Y-63165890D01*
X143707755Y-63208123D01*
X137715214Y-63208123D01*
X137663000Y-63117686D01*
X137569814Y-63024500D01*
X137512750Y-62991554D01*
X137455687Y-62958608D01*
X137392039Y-62941554D01*
X137328392Y-62924500D01*
X137196608Y-62924500D01*
X137069312Y-62958608D01*
X136955186Y-63024500D01*
X136955183Y-63024502D01*
X136862002Y-63117683D01*
X136862000Y-63117686D01*
X136796108Y-63231812D01*
X136782230Y-63283608D01*
X136762000Y-63359108D01*
X108816922Y-63359108D01*
X108807314Y-63349500D01*
X108750250Y-63316554D01*
X108693187Y-63283608D01*
X108625430Y-63265453D01*
X108565892Y-63249500D01*
X108434108Y-63249500D01*
X108306812Y-63283608D01*
X108192686Y-63349500D01*
X108192683Y-63349502D01*
X108099502Y-63442683D01*
X108099500Y-63442686D01*
X108033608Y-63556812D01*
X108017163Y-63618187D01*
X107999500Y-63684108D01*
X96800500Y-63684108D01*
X96800500Y-62416871D01*
X99074935Y-62416871D01*
X99074935Y-62574564D01*
X99105696Y-62729207D01*
X99105699Y-62729219D01*
X99166037Y-62874890D01*
X99166044Y-62874903D01*
X99253645Y-63006006D01*
X99253648Y-63006010D01*
X99365142Y-63117504D01*
X99365146Y-63117507D01*
X99496249Y-63205108D01*
X99496262Y-63205115D01*
X99605833Y-63250500D01*
X99641938Y-63265455D01*
X99796588Y-63296217D01*
X99796591Y-63296218D01*
X99796593Y-63296218D01*
X100504279Y-63296218D01*
X100504280Y-63296217D01*
X100658932Y-63265455D01*
X100771601Y-63218785D01*
X100804607Y-63205115D01*
X100804607Y-63205114D01*
X100804614Y-63205112D01*
X100935724Y-63117507D01*
X100986357Y-63066874D01*
X111570255Y-63066874D01*
X111643411Y-63109111D01*
X111796009Y-63149999D01*
X111796011Y-63150000D01*
X111953989Y-63150000D01*
X111953990Y-63149999D01*
X112106590Y-63109110D01*
X112179743Y-63066874D01*
X113820255Y-63066874D01*
X113893411Y-63109111D01*
X114046009Y-63149999D01*
X114046011Y-63150000D01*
X114203989Y-63150000D01*
X114203990Y-63149999D01*
X114356590Y-63109110D01*
X114429743Y-63066874D01*
X114125001Y-62762132D01*
X114125000Y-62762132D01*
X113820255Y-63066874D01*
X112179743Y-63066874D01*
X111875001Y-62762132D01*
X111875000Y-62762132D01*
X111570255Y-63066874D01*
X100986357Y-63066874D01*
X101047224Y-63006007D01*
X101134829Y-62874897D01*
X101195172Y-62729215D01*
X101225935Y-62574560D01*
X101225935Y-62471009D01*
X111275000Y-62471009D01*
X111275000Y-62628990D01*
X111315889Y-62781592D01*
X111358124Y-62854743D01*
X111662868Y-62550000D01*
X111662868Y-62549999D01*
X111633032Y-62520163D01*
X111725000Y-62520163D01*
X111725000Y-62579837D01*
X111747836Y-62634968D01*
X111790032Y-62677164D01*
X111845163Y-62700000D01*
X111904837Y-62700000D01*
X111959968Y-62677164D01*
X112002164Y-62634968D01*
X112025000Y-62579837D01*
X112025000Y-62549999D01*
X112087132Y-62549999D01*
X112087132Y-62550000D01*
X112391874Y-62854742D01*
X112434110Y-62781590D01*
X112474999Y-62628990D01*
X112475000Y-62628989D01*
X112475000Y-62471011D01*
X112474999Y-62471009D01*
X113525000Y-62471009D01*
X113525000Y-62628990D01*
X113565889Y-62781592D01*
X113608124Y-62854743D01*
X113912868Y-62550000D01*
X113912868Y-62549999D01*
X113883032Y-62520163D01*
X113975000Y-62520163D01*
X113975000Y-62579837D01*
X113997836Y-62634968D01*
X114040032Y-62677164D01*
X114095163Y-62700000D01*
X114154837Y-62700000D01*
X114209968Y-62677164D01*
X114252164Y-62634968D01*
X114275000Y-62579837D01*
X114275000Y-62549999D01*
X114337132Y-62549999D01*
X114337132Y-62550000D01*
X114641874Y-62854742D01*
X114684110Y-62781590D01*
X114716930Y-62659108D01*
X117749500Y-62659108D01*
X117749500Y-62790892D01*
X117756199Y-62815892D01*
X117783608Y-62918187D01*
X117807401Y-62959397D01*
X117849500Y-63032314D01*
X117942686Y-63125500D01*
X118056814Y-63191392D01*
X118184108Y-63225500D01*
X118184110Y-63225500D01*
X118315890Y-63225500D01*
X118315892Y-63225500D01*
X118443186Y-63191392D01*
X118557314Y-63125500D01*
X118650500Y-63032314D01*
X118716392Y-62918186D01*
X118750500Y-62790892D01*
X118750500Y-62684108D01*
X126659500Y-62684108D01*
X126659500Y-62815891D01*
X126693608Y-62943187D01*
X126702967Y-62959397D01*
X126759500Y-63057314D01*
X126852686Y-63150500D01*
X126966814Y-63216392D01*
X127094108Y-63250500D01*
X127094110Y-63250500D01*
X127225890Y-63250500D01*
X127225892Y-63250500D01*
X127353186Y-63216392D01*
X127467314Y-63150500D01*
X127560500Y-63057314D01*
X127626392Y-62943186D01*
X127660500Y-62815892D01*
X127660500Y-62684108D01*
X127649184Y-62641874D01*
X143707755Y-62641874D01*
X143780911Y-62684111D01*
X143933509Y-62724999D01*
X143933511Y-62725000D01*
X144091489Y-62725000D01*
X144091490Y-62724999D01*
X144244090Y-62684110D01*
X144317243Y-62641874D01*
X145957755Y-62641874D01*
X146030911Y-62684111D01*
X146183509Y-62724999D01*
X146183511Y-62725000D01*
X146341489Y-62725000D01*
X146341490Y-62724999D01*
X146494090Y-62684110D01*
X146567243Y-62641874D01*
X146262501Y-62337132D01*
X146262500Y-62337132D01*
X145957755Y-62641874D01*
X144317243Y-62641874D01*
X144012501Y-62337132D01*
X144012500Y-62337132D01*
X143707755Y-62641874D01*
X127649184Y-62641874D01*
X127626392Y-62556814D01*
X127560500Y-62442686D01*
X127467314Y-62349500D01*
X127375308Y-62296380D01*
X127353187Y-62283608D01*
X127273349Y-62262216D01*
X127225892Y-62249500D01*
X127094108Y-62249500D01*
X126966812Y-62283608D01*
X126852686Y-62349500D01*
X126852683Y-62349502D01*
X126759502Y-62442683D01*
X126759500Y-62442686D01*
X126693608Y-62556812D01*
X126659500Y-62684108D01*
X118750500Y-62684108D01*
X118750500Y-62659108D01*
X118716392Y-62531814D01*
X118650500Y-62417686D01*
X118557314Y-62324500D01*
X118471578Y-62275000D01*
X118443187Y-62258608D01*
X118379539Y-62241554D01*
X118315892Y-62224500D01*
X118184108Y-62224500D01*
X118056812Y-62258608D01*
X117942686Y-62324500D01*
X117942683Y-62324502D01*
X117849502Y-62417683D01*
X117849500Y-62417686D01*
X117783608Y-62531812D01*
X117772153Y-62574564D01*
X117749500Y-62659108D01*
X114716930Y-62659108D01*
X114725000Y-62628989D01*
X114725000Y-62471011D01*
X114724999Y-62471009D01*
X114684111Y-62318411D01*
X114641873Y-62245255D01*
X114337132Y-62549999D01*
X114275000Y-62549999D01*
X114275000Y-62520163D01*
X114252164Y-62465032D01*
X114209968Y-62422836D01*
X114154837Y-62400000D01*
X114095163Y-62400000D01*
X114040032Y-62422836D01*
X113997836Y-62465032D01*
X113975000Y-62520163D01*
X113883032Y-62520163D01*
X113608124Y-62245255D01*
X113608123Y-62245255D01*
X113565890Y-62318405D01*
X113565890Y-62318406D01*
X113525000Y-62471009D01*
X112474999Y-62471009D01*
X112434111Y-62318411D01*
X112391873Y-62245255D01*
X112087132Y-62549999D01*
X112025000Y-62549999D01*
X112025000Y-62520163D01*
X112002164Y-62465032D01*
X111959968Y-62422836D01*
X111904837Y-62400000D01*
X111845163Y-62400000D01*
X111790032Y-62422836D01*
X111747836Y-62465032D01*
X111725000Y-62520163D01*
X111633032Y-62520163D01*
X111358124Y-62245255D01*
X111358123Y-62245255D01*
X111315890Y-62318405D01*
X111315890Y-62318406D01*
X111275000Y-62471009D01*
X101225935Y-62471009D01*
X101225935Y-62416876D01*
X101225935Y-62416873D01*
X101225934Y-62416871D01*
X101210073Y-62337132D01*
X101195172Y-62262221D01*
X101195170Y-62262216D01*
X101138342Y-62125018D01*
X101134831Y-62116544D01*
X101134825Y-62116532D01*
X101079092Y-62033123D01*
X111570255Y-62033123D01*
X111570255Y-62033124D01*
X111875000Y-62337868D01*
X111875001Y-62337868D01*
X112179743Y-62033124D01*
X112179741Y-62033123D01*
X113820255Y-62033123D01*
X113820255Y-62033124D01*
X114125000Y-62337868D01*
X114125001Y-62337868D01*
X114429743Y-62033124D01*
X114356592Y-61990889D01*
X114203990Y-61950000D01*
X114046009Y-61950000D01*
X113893406Y-61990890D01*
X113893405Y-61990890D01*
X113820255Y-62033123D01*
X112179741Y-62033123D01*
X112106592Y-61990889D01*
X111953990Y-61950000D01*
X111796009Y-61950000D01*
X111643406Y-61990890D01*
X111643405Y-61990890D01*
X111570255Y-62033123D01*
X101079092Y-62033123D01*
X101047224Y-61985429D01*
X101047221Y-61985425D01*
X100935727Y-61873931D01*
X100935723Y-61873928D01*
X100804620Y-61786327D01*
X100804607Y-61786320D01*
X100658936Y-61725982D01*
X100658924Y-61725979D01*
X100504280Y-61695218D01*
X100504277Y-61695218D01*
X99796593Y-61695218D01*
X99796590Y-61695218D01*
X99641945Y-61725979D01*
X99641933Y-61725982D01*
X99496262Y-61786320D01*
X99496249Y-61786327D01*
X99365146Y-61873928D01*
X99365142Y-61873931D01*
X99253648Y-61985425D01*
X99253645Y-61985429D01*
X99166044Y-62116532D01*
X99166037Y-62116545D01*
X99105699Y-62262216D01*
X99105696Y-62262228D01*
X99074935Y-62416871D01*
X96800500Y-62416871D01*
X96800500Y-61466874D01*
X111570255Y-61466874D01*
X111643411Y-61509111D01*
X111796009Y-61549999D01*
X111796011Y-61550000D01*
X111953989Y-61550000D01*
X111953990Y-61549999D01*
X112106590Y-61509110D01*
X112179743Y-61466874D01*
X113820255Y-61466874D01*
X113893411Y-61509111D01*
X114046009Y-61549999D01*
X114046011Y-61550000D01*
X114203989Y-61550000D01*
X114203990Y-61549999D01*
X114356590Y-61509110D01*
X114429743Y-61466874D01*
X114125001Y-61162132D01*
X114125000Y-61162132D01*
X113820255Y-61466874D01*
X112179743Y-61466874D01*
X111875001Y-61162132D01*
X111875000Y-61162132D01*
X111570255Y-61466874D01*
X96800500Y-61466874D01*
X96800500Y-60416871D01*
X99074935Y-60416871D01*
X99074935Y-60574564D01*
X99105696Y-60729207D01*
X99105699Y-60729219D01*
X99166037Y-60874890D01*
X99166044Y-60874903D01*
X99253645Y-61006006D01*
X99253648Y-61006010D01*
X99365142Y-61117504D01*
X99365146Y-61117507D01*
X99496249Y-61205108D01*
X99496262Y-61205115D01*
X99641933Y-61265453D01*
X99641938Y-61265455D01*
X99792380Y-61295380D01*
X99796588Y-61296217D01*
X99796591Y-61296218D01*
X99796593Y-61296218D01*
X100504279Y-61296218D01*
X100504280Y-61296217D01*
X100658932Y-61265455D01*
X100804614Y-61205112D01*
X100935724Y-61117507D01*
X101047224Y-61006007D01*
X101134829Y-60874897D01*
X101134830Y-60874894D01*
X101134832Y-60874891D01*
X101136440Y-60871009D01*
X111275000Y-60871009D01*
X111275000Y-61028990D01*
X111315889Y-61181592D01*
X111358124Y-61254743D01*
X111662868Y-60950000D01*
X111662868Y-60949999D01*
X111633032Y-60920163D01*
X111725000Y-60920163D01*
X111725000Y-60979837D01*
X111747836Y-61034968D01*
X111790032Y-61077164D01*
X111845163Y-61100000D01*
X111904837Y-61100000D01*
X111959968Y-61077164D01*
X112002164Y-61034968D01*
X112025000Y-60979837D01*
X112025000Y-60949999D01*
X112087132Y-60949999D01*
X112087132Y-60950000D01*
X112391874Y-61254742D01*
X112434110Y-61181590D01*
X112474999Y-61028990D01*
X112475000Y-61028989D01*
X112475000Y-60871011D01*
X112474999Y-60871009D01*
X113525000Y-60871009D01*
X113525000Y-61028990D01*
X113565889Y-61181592D01*
X113608124Y-61254743D01*
X113912868Y-60950000D01*
X113912868Y-60949999D01*
X113883032Y-60920163D01*
X113975000Y-60920163D01*
X113975000Y-60979837D01*
X113997836Y-61034968D01*
X114040032Y-61077164D01*
X114095163Y-61100000D01*
X114154837Y-61100000D01*
X114209968Y-61077164D01*
X114252164Y-61034968D01*
X114275000Y-60979837D01*
X114275000Y-60949999D01*
X114337132Y-60949999D01*
X114337132Y-60950000D01*
X114641874Y-61254742D01*
X114682656Y-61184108D01*
X116749500Y-61184108D01*
X116749500Y-61315891D01*
X116783608Y-61443187D01*
X116787253Y-61449500D01*
X116849500Y-61557314D01*
X116942686Y-61650500D01*
X117056814Y-61716392D01*
X117184108Y-61750500D01*
X117184110Y-61750500D01*
X117315890Y-61750500D01*
X117315892Y-61750500D01*
X117392445Y-61729988D01*
X140532880Y-61729988D01*
X140532880Y-61861772D01*
X140536138Y-61873931D01*
X140566988Y-61989067D01*
X140568041Y-61990890D01*
X140632880Y-62103194D01*
X140726066Y-62196380D01*
X140824901Y-62253443D01*
X140840105Y-62262221D01*
X140840194Y-62262272D01*
X140967488Y-62296380D01*
X140967490Y-62296380D01*
X141099270Y-62296380D01*
X141099272Y-62296380D01*
X141226566Y-62262272D01*
X141340694Y-62196380D01*
X141433880Y-62103194D01*
X141466896Y-62046009D01*
X143412500Y-62046009D01*
X143412500Y-62203990D01*
X143453389Y-62356592D01*
X143495624Y-62429743D01*
X143800368Y-62125000D01*
X143800368Y-62124999D01*
X143770532Y-62095163D01*
X143862500Y-62095163D01*
X143862500Y-62154837D01*
X143885336Y-62209968D01*
X143927532Y-62252164D01*
X143982663Y-62275000D01*
X144042337Y-62275000D01*
X144097468Y-62252164D01*
X144139664Y-62209968D01*
X144162500Y-62154837D01*
X144162500Y-62124999D01*
X144224632Y-62124999D01*
X144224632Y-62125000D01*
X144529374Y-62429742D01*
X144571610Y-62356590D01*
X144612499Y-62203990D01*
X144612500Y-62203989D01*
X144612500Y-62046011D01*
X144612499Y-62046009D01*
X145662500Y-62046009D01*
X145662500Y-62203990D01*
X145703389Y-62356592D01*
X145745624Y-62429743D01*
X146050368Y-62125000D01*
X146050368Y-62124999D01*
X146020532Y-62095163D01*
X146112500Y-62095163D01*
X146112500Y-62154837D01*
X146135336Y-62209968D01*
X146177532Y-62252164D01*
X146232663Y-62275000D01*
X146292337Y-62275000D01*
X146347468Y-62252164D01*
X146389664Y-62209968D01*
X146412500Y-62154837D01*
X146412500Y-62124999D01*
X146474632Y-62124999D01*
X146474632Y-62125000D01*
X146779374Y-62429742D01*
X146821610Y-62356590D01*
X146862499Y-62203990D01*
X146862500Y-62203989D01*
X146862500Y-62184108D01*
X150499500Y-62184108D01*
X150499500Y-62315892D01*
X150516554Y-62379539D01*
X150533608Y-62443187D01*
X150556884Y-62483501D01*
X150599500Y-62557314D01*
X150692686Y-62650500D01*
X150806814Y-62716392D01*
X150934108Y-62750500D01*
X150934110Y-62750500D01*
X151065890Y-62750500D01*
X151065892Y-62750500D01*
X151193186Y-62716392D01*
X151307314Y-62650500D01*
X151400500Y-62557314D01*
X151466392Y-62443186D01*
X151500500Y-62315892D01*
X151500500Y-62184108D01*
X151497029Y-62171153D01*
X156674500Y-62171153D01*
X156674500Y-62328846D01*
X156705261Y-62483489D01*
X156705264Y-62483501D01*
X156765602Y-62629172D01*
X156765609Y-62629185D01*
X156853210Y-62760288D01*
X156853213Y-62760292D01*
X156964707Y-62871786D01*
X156964711Y-62871789D01*
X157095814Y-62959390D01*
X157095827Y-62959397D01*
X157241498Y-63019735D01*
X157241503Y-63019737D01*
X157396153Y-63050499D01*
X157396156Y-63050500D01*
X157396158Y-63050500D01*
X158103844Y-63050500D01*
X158103845Y-63050499D01*
X158258497Y-63019737D01*
X158404179Y-62959394D01*
X158535289Y-62871789D01*
X158646789Y-62760289D01*
X158734394Y-62629179D01*
X158794737Y-62483497D01*
X158825500Y-62328842D01*
X158825500Y-62171158D01*
X158825500Y-62171155D01*
X158825499Y-62171153D01*
X158794737Y-62016503D01*
X158784128Y-61990890D01*
X158734397Y-61870827D01*
X158734390Y-61870814D01*
X158646789Y-61739711D01*
X158646786Y-61739707D01*
X158535292Y-61628213D01*
X158535288Y-61628210D01*
X158404185Y-61540609D01*
X158404172Y-61540602D01*
X158258501Y-61480264D01*
X158258489Y-61480261D01*
X158103845Y-61449500D01*
X158103842Y-61449500D01*
X157396158Y-61449500D01*
X157396155Y-61449500D01*
X157241510Y-61480261D01*
X157241498Y-61480264D01*
X157095827Y-61540602D01*
X157095814Y-61540609D01*
X156964711Y-61628210D01*
X156964707Y-61628213D01*
X156853213Y-61739707D01*
X156853210Y-61739711D01*
X156765609Y-61870814D01*
X156765602Y-61870827D01*
X156705264Y-62016498D01*
X156705261Y-62016510D01*
X156674500Y-62171153D01*
X151497029Y-62171153D01*
X151466392Y-62056814D01*
X151400500Y-61942686D01*
X151307314Y-61849500D01*
X151250250Y-61816554D01*
X151193187Y-61783608D01*
X151129539Y-61766554D01*
X151065892Y-61749500D01*
X150934108Y-61749500D01*
X150806812Y-61783608D01*
X150692686Y-61849500D01*
X150692683Y-61849502D01*
X150599502Y-61942683D01*
X150599500Y-61942686D01*
X150533608Y-62056812D01*
X150517603Y-62116545D01*
X150499500Y-62184108D01*
X146862500Y-62184108D01*
X146862500Y-62046011D01*
X146862499Y-62046009D01*
X146821611Y-61893411D01*
X146779373Y-61820255D01*
X146474632Y-62124999D01*
X146412500Y-62124999D01*
X146412500Y-62095163D01*
X146389664Y-62040032D01*
X146347468Y-61997836D01*
X146292337Y-61975000D01*
X146232663Y-61975000D01*
X146177532Y-61997836D01*
X146135336Y-62040032D01*
X146112500Y-62095163D01*
X146020532Y-62095163D01*
X145745624Y-61820255D01*
X145745623Y-61820255D01*
X145703390Y-61893405D01*
X145703390Y-61893406D01*
X145662500Y-62046009D01*
X144612499Y-62046009D01*
X144571611Y-61893411D01*
X144529373Y-61820255D01*
X144224632Y-62124999D01*
X144162500Y-62124999D01*
X144162500Y-62095163D01*
X144139664Y-62040032D01*
X144097468Y-61997836D01*
X144042337Y-61975000D01*
X143982663Y-61975000D01*
X143927532Y-61997836D01*
X143885336Y-62040032D01*
X143862500Y-62095163D01*
X143770532Y-62095163D01*
X143495624Y-61820255D01*
X143495623Y-61820255D01*
X143453390Y-61893405D01*
X143453390Y-61893406D01*
X143412500Y-62046009D01*
X141466896Y-62046009D01*
X141499772Y-61989066D01*
X141533880Y-61861772D01*
X141533880Y-61729988D01*
X141501227Y-61608123D01*
X143707755Y-61608123D01*
X143707755Y-61608124D01*
X144012500Y-61912868D01*
X144012501Y-61912868D01*
X144317243Y-61608124D01*
X144317241Y-61608123D01*
X145957755Y-61608123D01*
X145957755Y-61608124D01*
X146262500Y-61912868D01*
X146262501Y-61912868D01*
X146567243Y-61608124D01*
X146494092Y-61565889D01*
X146341490Y-61525000D01*
X146183509Y-61525000D01*
X146030906Y-61565890D01*
X146030905Y-61565890D01*
X145957755Y-61608123D01*
X144317241Y-61608123D01*
X144244092Y-61565889D01*
X144091490Y-61525000D01*
X143933509Y-61525000D01*
X143780906Y-61565890D01*
X143780905Y-61565890D01*
X143707755Y-61608123D01*
X141501227Y-61608123D01*
X141499772Y-61602694D01*
X141433880Y-61488566D01*
X141340694Y-61395380D01*
X141283630Y-61362434D01*
X141226567Y-61329488D01*
X141143818Y-61307316D01*
X141099272Y-61295380D01*
X140967488Y-61295380D01*
X140840192Y-61329488D01*
X140726066Y-61395380D01*
X140726063Y-61395382D01*
X140632882Y-61488563D01*
X140632880Y-61488566D01*
X140566988Y-61602692D01*
X140536523Y-61716391D01*
X140532880Y-61729988D01*
X117392445Y-61729988D01*
X117443186Y-61716392D01*
X117557314Y-61650500D01*
X117650500Y-61557314D01*
X117716392Y-61443186D01*
X117750500Y-61315892D01*
X117750500Y-61184108D01*
X117716392Y-61056814D01*
X117707766Y-61041874D01*
X143707755Y-61041874D01*
X143780911Y-61084111D01*
X143933509Y-61124999D01*
X143933511Y-61125000D01*
X144091489Y-61125000D01*
X144091490Y-61124999D01*
X144244090Y-61084110D01*
X144317243Y-61041874D01*
X145957755Y-61041874D01*
X146030911Y-61084111D01*
X146183509Y-61124999D01*
X146183511Y-61125000D01*
X146341489Y-61125000D01*
X146341490Y-61124999D01*
X146494090Y-61084110D01*
X146567243Y-61041874D01*
X146459477Y-60934108D01*
X150499500Y-60934108D01*
X150499500Y-61065892D01*
X150504382Y-61084111D01*
X150533608Y-61193187D01*
X150540491Y-61205108D01*
X150599500Y-61307314D01*
X150692686Y-61400500D01*
X150806814Y-61466392D01*
X150934108Y-61500500D01*
X150934110Y-61500500D01*
X151065890Y-61500500D01*
X151065892Y-61500500D01*
X151193186Y-61466392D01*
X151307314Y-61400500D01*
X151400500Y-61307314D01*
X151466392Y-61193186D01*
X151500500Y-61065892D01*
X151500500Y-60934108D01*
X151466392Y-60806814D01*
X151400500Y-60692686D01*
X151307314Y-60599500D01*
X151229956Y-60554837D01*
X151193187Y-60533608D01*
X151129539Y-60516554D01*
X151065892Y-60499500D01*
X150934108Y-60499500D01*
X150806812Y-60533608D01*
X150692686Y-60599500D01*
X150692683Y-60599502D01*
X150599502Y-60692683D01*
X150599500Y-60692686D01*
X150533608Y-60806812D01*
X150501807Y-60925499D01*
X150499500Y-60934108D01*
X146459477Y-60934108D01*
X146262501Y-60737132D01*
X146262500Y-60737132D01*
X145957755Y-61041874D01*
X144317243Y-61041874D01*
X144012501Y-60737132D01*
X144012500Y-60737132D01*
X143707755Y-61041874D01*
X117707766Y-61041874D01*
X117650500Y-60942686D01*
X117557314Y-60849500D01*
X117498301Y-60815429D01*
X117443187Y-60783608D01*
X117379539Y-60766554D01*
X117315892Y-60749500D01*
X117184108Y-60749500D01*
X117056812Y-60783608D01*
X116942686Y-60849500D01*
X116942683Y-60849502D01*
X116849502Y-60942683D01*
X116849500Y-60942686D01*
X116783608Y-61056812D01*
X116749500Y-61184108D01*
X114682656Y-61184108D01*
X114684110Y-61181590D01*
X114694213Y-61143888D01*
X114694213Y-61143887D01*
X114725000Y-61028988D01*
X114725000Y-60871011D01*
X114724999Y-60871009D01*
X114684111Y-60718411D01*
X114641873Y-60645255D01*
X114337132Y-60949999D01*
X114275000Y-60949999D01*
X114275000Y-60920163D01*
X114252164Y-60865032D01*
X114209968Y-60822836D01*
X114154837Y-60800000D01*
X114095163Y-60800000D01*
X114040032Y-60822836D01*
X113997836Y-60865032D01*
X113975000Y-60920163D01*
X113883032Y-60920163D01*
X113608124Y-60645255D01*
X113608123Y-60645255D01*
X113565890Y-60718405D01*
X113565890Y-60718406D01*
X113525000Y-60871009D01*
X112474999Y-60871009D01*
X112434111Y-60718411D01*
X112391873Y-60645255D01*
X112087132Y-60949999D01*
X112025000Y-60949999D01*
X112025000Y-60920163D01*
X112002164Y-60865032D01*
X111959968Y-60822836D01*
X111904837Y-60800000D01*
X111845163Y-60800000D01*
X111790032Y-60822836D01*
X111747836Y-60865032D01*
X111725000Y-60920163D01*
X111633032Y-60920163D01*
X111358124Y-60645255D01*
X111358123Y-60645255D01*
X111315890Y-60718405D01*
X111315890Y-60718406D01*
X111275000Y-60871009D01*
X101136440Y-60871009D01*
X101159461Y-60815430D01*
X101159461Y-60815429D01*
X101195172Y-60729215D01*
X101225935Y-60574560D01*
X101225935Y-60416876D01*
X101225935Y-60416873D01*
X101225934Y-60416871D01*
X101220566Y-60389885D01*
X101195172Y-60262221D01*
X101182576Y-60231811D01*
X101134832Y-60116545D01*
X101134825Y-60116532D01*
X101047224Y-59985429D01*
X101047221Y-59985425D01*
X100935727Y-59873931D01*
X100935723Y-59873928D01*
X100804620Y-59786327D01*
X100804607Y-59786320D01*
X100658936Y-59725982D01*
X100658924Y-59725979D01*
X100504280Y-59695218D01*
X100504277Y-59695218D01*
X99796593Y-59695218D01*
X99796590Y-59695218D01*
X99641945Y-59725979D01*
X99641933Y-59725982D01*
X99496262Y-59786320D01*
X99496249Y-59786327D01*
X99365146Y-59873928D01*
X99365142Y-59873931D01*
X99253648Y-59985425D01*
X99253645Y-59985429D01*
X99166044Y-60116532D01*
X99166037Y-60116545D01*
X99105699Y-60262216D01*
X99105696Y-60262228D01*
X99074935Y-60416871D01*
X96800500Y-60416871D01*
X96800500Y-58091448D01*
X99074935Y-58091448D01*
X99074935Y-58899987D01*
X99077788Y-58930417D01*
X99077788Y-58930419D01*
X99120390Y-59052164D01*
X99122642Y-59058600D01*
X99203285Y-59167868D01*
X99312553Y-59248511D01*
X99355280Y-59263462D01*
X99440734Y-59293364D01*
X99471165Y-59296218D01*
X99471169Y-59296218D01*
X100829705Y-59296218D01*
X100860134Y-59293364D01*
X100860136Y-59293364D01*
X100924225Y-59270937D01*
X100988317Y-59248511D01*
X101097585Y-59167868D01*
X101178228Y-59058600D01*
X101207657Y-58974496D01*
X101221790Y-58934108D01*
X107499500Y-58934108D01*
X107499500Y-59065892D01*
X107513571Y-59118405D01*
X107533608Y-59193187D01*
X107554714Y-59229743D01*
X107599500Y-59307314D01*
X107599502Y-59307316D01*
X107692687Y-59400501D01*
X107694158Y-59401630D01*
X107695083Y-59402897D01*
X107698433Y-59406247D01*
X107697910Y-59406769D01*
X107735356Y-59458060D01*
X107739506Y-59527807D01*
X107705289Y-59588725D01*
X107694158Y-59598370D01*
X107692687Y-59599498D01*
X107599502Y-59692683D01*
X107599500Y-59692686D01*
X107533608Y-59806812D01*
X107499500Y-59934108D01*
X107499500Y-60065891D01*
X107533608Y-60193187D01*
X107555908Y-60231811D01*
X107599500Y-60307314D01*
X107692686Y-60400500D01*
X107806814Y-60466392D01*
X107934108Y-60500500D01*
X107934110Y-60500500D01*
X108065890Y-60500500D01*
X108065892Y-60500500D01*
X108193186Y-60466392D01*
X108250809Y-60433123D01*
X111570255Y-60433123D01*
X111570255Y-60433124D01*
X111875000Y-60737868D01*
X111875001Y-60737868D01*
X112179743Y-60433124D01*
X112179741Y-60433123D01*
X113820255Y-60433123D01*
X113820255Y-60433124D01*
X114125000Y-60737868D01*
X114125001Y-60737868D01*
X114428759Y-60434108D01*
X120999500Y-60434108D01*
X120999500Y-60565891D01*
X121033608Y-60693187D01*
X121056200Y-60732316D01*
X121099500Y-60807314D01*
X121192686Y-60900500D01*
X121306814Y-60966392D01*
X121434108Y-61000500D01*
X121434110Y-61000500D01*
X121565890Y-61000500D01*
X121565892Y-61000500D01*
X121693186Y-60966392D01*
X121807314Y-60900500D01*
X121900500Y-60807314D01*
X121966392Y-60693186D01*
X122000500Y-60565892D01*
X122000500Y-60434108D01*
X121980404Y-60359108D01*
X139262000Y-60359108D01*
X139262000Y-60490892D01*
X139271139Y-60524999D01*
X139296108Y-60618187D01*
X139302458Y-60629185D01*
X139362000Y-60732314D01*
X139455186Y-60825500D01*
X139554021Y-60882563D01*
X139566982Y-60890046D01*
X139569314Y-60891392D01*
X139696608Y-60925500D01*
X139696610Y-60925500D01*
X139828390Y-60925500D01*
X139828392Y-60925500D01*
X139955686Y-60891392D01*
X139958017Y-60890046D01*
X139958018Y-60890046D01*
X139989639Y-60871789D01*
X140069814Y-60825500D01*
X140163000Y-60732314D01*
X140228892Y-60618186D01*
X140263000Y-60490892D01*
X140263000Y-60446009D01*
X143412500Y-60446009D01*
X143412500Y-60603990D01*
X143453389Y-60756592D01*
X143495624Y-60829743D01*
X143800368Y-60525000D01*
X143800368Y-60524999D01*
X143770532Y-60495163D01*
X143862500Y-60495163D01*
X143862500Y-60554837D01*
X143885336Y-60609968D01*
X143927532Y-60652164D01*
X143982663Y-60675000D01*
X144042337Y-60675000D01*
X144097468Y-60652164D01*
X144139664Y-60609968D01*
X144162500Y-60554837D01*
X144162500Y-60524999D01*
X144224632Y-60524999D01*
X144224632Y-60525000D01*
X144529374Y-60829742D01*
X144571610Y-60756590D01*
X144612499Y-60603990D01*
X144612500Y-60603989D01*
X144612500Y-60446011D01*
X144612499Y-60446009D01*
X145662500Y-60446009D01*
X145662500Y-60603990D01*
X145703389Y-60756592D01*
X145745624Y-60829743D01*
X146050368Y-60525000D01*
X146050368Y-60524999D01*
X146020532Y-60495163D01*
X146112500Y-60495163D01*
X146112500Y-60554837D01*
X146135336Y-60609968D01*
X146177532Y-60652164D01*
X146232663Y-60675000D01*
X146292337Y-60675000D01*
X146347468Y-60652164D01*
X146389664Y-60609968D01*
X146412500Y-60554837D01*
X146412500Y-60524999D01*
X146474632Y-60524999D01*
X146474632Y-60525000D01*
X146779374Y-60829742D01*
X146821611Y-60756590D01*
X146862499Y-60603990D01*
X146862500Y-60603989D01*
X146862500Y-60446011D01*
X146862499Y-60446009D01*
X146821611Y-60293411D01*
X146783307Y-60227067D01*
X146783306Y-60227064D01*
X146779375Y-60220255D01*
X146779374Y-60220255D01*
X146474632Y-60524999D01*
X146412500Y-60524999D01*
X146412500Y-60495163D01*
X146389664Y-60440032D01*
X146347468Y-60397836D01*
X146292337Y-60375000D01*
X146232663Y-60375000D01*
X146177532Y-60397836D01*
X146135336Y-60440032D01*
X146112500Y-60495163D01*
X146020532Y-60495163D01*
X145745624Y-60220255D01*
X145745623Y-60220255D01*
X145703390Y-60293405D01*
X145703390Y-60293406D01*
X145662500Y-60446009D01*
X144612499Y-60446009D01*
X144571611Y-60293411D01*
X144529373Y-60220255D01*
X144224632Y-60524999D01*
X144162500Y-60524999D01*
X144162500Y-60495163D01*
X144139664Y-60440032D01*
X144097468Y-60397836D01*
X144042337Y-60375000D01*
X143982663Y-60375000D01*
X143927532Y-60397836D01*
X143885336Y-60440032D01*
X143862500Y-60495163D01*
X143770532Y-60495163D01*
X143495624Y-60220255D01*
X143495623Y-60220255D01*
X143453390Y-60293405D01*
X143453390Y-60293406D01*
X143412500Y-60446009D01*
X140263000Y-60446009D01*
X140263000Y-60359108D01*
X140228892Y-60231814D01*
X140226151Y-60227067D01*
X140163003Y-60117691D01*
X140163002Y-60117690D01*
X140163000Y-60117686D01*
X140069814Y-60024500D01*
X140041448Y-60008123D01*
X143707755Y-60008123D01*
X143707755Y-60008124D01*
X144012500Y-60312868D01*
X144012501Y-60312868D01*
X144317243Y-60008124D01*
X144317241Y-60008123D01*
X145957755Y-60008123D01*
X145957755Y-60008124D01*
X146262500Y-60312868D01*
X146262501Y-60312868D01*
X146404215Y-60171153D01*
X156674500Y-60171153D01*
X156674500Y-60328846D01*
X156705261Y-60483489D01*
X156705264Y-60483501D01*
X156765602Y-60629172D01*
X156765609Y-60629185D01*
X156853210Y-60760288D01*
X156853213Y-60760292D01*
X156964707Y-60871786D01*
X156964711Y-60871789D01*
X157095814Y-60959390D01*
X157095827Y-60959397D01*
X157241498Y-61019735D01*
X157241503Y-61019737D01*
X157396153Y-61050499D01*
X157396156Y-61050500D01*
X157396158Y-61050500D01*
X158103844Y-61050500D01*
X158103845Y-61050499D01*
X158258497Y-61019737D01*
X158404179Y-60959394D01*
X158535289Y-60871789D01*
X158646789Y-60760289D01*
X158734394Y-60629179D01*
X158794737Y-60483497D01*
X158825500Y-60328842D01*
X158825500Y-60171158D01*
X158825500Y-60171155D01*
X158825499Y-60171153D01*
X158814637Y-60116545D01*
X158794737Y-60016503D01*
X158773772Y-59965889D01*
X158734397Y-59870827D01*
X158734390Y-59870814D01*
X158646789Y-59739711D01*
X158646786Y-59739707D01*
X158535292Y-59628213D01*
X158535288Y-59628210D01*
X158404185Y-59540609D01*
X158404172Y-59540602D01*
X158258501Y-59480264D01*
X158258489Y-59480261D01*
X158103845Y-59449500D01*
X158103842Y-59449500D01*
X157396158Y-59449500D01*
X157396155Y-59449500D01*
X157241510Y-59480261D01*
X157241498Y-59480264D01*
X157095827Y-59540602D01*
X157095814Y-59540609D01*
X156964711Y-59628210D01*
X156964707Y-59628213D01*
X156853213Y-59739707D01*
X156853210Y-59739711D01*
X156765609Y-59870814D01*
X156765602Y-59870827D01*
X156705264Y-60016498D01*
X156705261Y-60016510D01*
X156674500Y-60171153D01*
X146404215Y-60171153D01*
X146567243Y-60008124D01*
X146494092Y-59965889D01*
X146341490Y-59925000D01*
X146183509Y-59925000D01*
X146030906Y-59965890D01*
X146030905Y-59965890D01*
X145957755Y-60008123D01*
X144317241Y-60008123D01*
X144244092Y-59965889D01*
X144091490Y-59925000D01*
X143933509Y-59925000D01*
X143780906Y-59965890D01*
X143780905Y-59965890D01*
X143707755Y-60008123D01*
X140041448Y-60008123D01*
X140002134Y-59985425D01*
X139955687Y-59958608D01*
X139864257Y-59934110D01*
X139828392Y-59924500D01*
X139696608Y-59924500D01*
X139569312Y-59958608D01*
X139455186Y-60024500D01*
X139455183Y-60024502D01*
X139362002Y-60117683D01*
X139362000Y-60117686D01*
X139296108Y-60231812D01*
X139264440Y-60350000D01*
X139262000Y-60359108D01*
X121980404Y-60359108D01*
X121966392Y-60306814D01*
X121900500Y-60192686D01*
X121807314Y-60099500D01*
X121749100Y-60065890D01*
X121693187Y-60033608D01*
X121629330Y-60016498D01*
X121565892Y-59999500D01*
X121434108Y-59999500D01*
X121306812Y-60033608D01*
X121192686Y-60099500D01*
X121192683Y-60099502D01*
X121099502Y-60192683D01*
X121099500Y-60192686D01*
X121033608Y-60306812D01*
X120999500Y-60434108D01*
X114428759Y-60434108D01*
X114429743Y-60433124D01*
X114356592Y-60390889D01*
X114203990Y-60350000D01*
X114046009Y-60350000D01*
X113893406Y-60390890D01*
X113893405Y-60390890D01*
X113820255Y-60433123D01*
X112179741Y-60433123D01*
X112106592Y-60390889D01*
X111953990Y-60350000D01*
X111796009Y-60350000D01*
X111643406Y-60390890D01*
X111643405Y-60390890D01*
X111570255Y-60433123D01*
X108250809Y-60433123D01*
X108307314Y-60400500D01*
X108400500Y-60307314D01*
X108466392Y-60193186D01*
X108500500Y-60065892D01*
X108500500Y-59934108D01*
X108482485Y-59866874D01*
X111570255Y-59866874D01*
X111643411Y-59909111D01*
X111796009Y-59949999D01*
X111796011Y-59950000D01*
X111953989Y-59950000D01*
X111953990Y-59949999D01*
X112106590Y-59909110D01*
X112179743Y-59866874D01*
X113820255Y-59866874D01*
X113893411Y-59909111D01*
X114046009Y-59949999D01*
X114046011Y-59950000D01*
X114203989Y-59950000D01*
X114203990Y-59949999D01*
X114356590Y-59909110D01*
X114429743Y-59866874D01*
X114125001Y-59562132D01*
X114125000Y-59562132D01*
X113820255Y-59866874D01*
X112179743Y-59866874D01*
X111875001Y-59562132D01*
X111875000Y-59562132D01*
X111570255Y-59866874D01*
X108482485Y-59866874D01*
X108466392Y-59806814D01*
X108400500Y-59692686D01*
X108307314Y-59599500D01*
X108307311Y-59599498D01*
X108305847Y-59598375D01*
X108304921Y-59597107D01*
X108301567Y-59593753D01*
X108302090Y-59593229D01*
X108264645Y-59541947D01*
X108260491Y-59472201D01*
X108294704Y-59411281D01*
X108305847Y-59401625D01*
X108307306Y-59400504D01*
X108307314Y-59400500D01*
X108400500Y-59307314D01*
X108421461Y-59271009D01*
X111275000Y-59271009D01*
X111275000Y-59428990D01*
X111315889Y-59581592D01*
X111358124Y-59654743D01*
X111662868Y-59350000D01*
X111662868Y-59349999D01*
X111633032Y-59320163D01*
X111725000Y-59320163D01*
X111725000Y-59379837D01*
X111747836Y-59434968D01*
X111790032Y-59477164D01*
X111845163Y-59500000D01*
X111904837Y-59500000D01*
X111959968Y-59477164D01*
X112002164Y-59434968D01*
X112025000Y-59379837D01*
X112025000Y-59349999D01*
X112087132Y-59349999D01*
X112087132Y-59350000D01*
X112391874Y-59654742D01*
X112434110Y-59581590D01*
X112474999Y-59428990D01*
X112475000Y-59428989D01*
X112475000Y-59271011D01*
X112474999Y-59271009D01*
X113525000Y-59271009D01*
X113525000Y-59428990D01*
X113565889Y-59581592D01*
X113608124Y-59654743D01*
X113912868Y-59350000D01*
X113912868Y-59349999D01*
X113883032Y-59320163D01*
X113975000Y-59320163D01*
X113975000Y-59379837D01*
X113997836Y-59434968D01*
X114040032Y-59477164D01*
X114095163Y-59500000D01*
X114154837Y-59500000D01*
X114209968Y-59477164D01*
X114252164Y-59434968D01*
X114275000Y-59379837D01*
X114275000Y-59349999D01*
X114337132Y-59349999D01*
X114337132Y-59350000D01*
X114641874Y-59654742D01*
X114684110Y-59581590D01*
X114721547Y-59441874D01*
X143707755Y-59441874D01*
X143780911Y-59484111D01*
X143933509Y-59524999D01*
X143933511Y-59525000D01*
X144091489Y-59525000D01*
X144091490Y-59524999D01*
X144244090Y-59484110D01*
X144317243Y-59441874D01*
X145957755Y-59441874D01*
X146030911Y-59484111D01*
X146183509Y-59524999D01*
X146183511Y-59525000D01*
X146341489Y-59525000D01*
X146341490Y-59524999D01*
X146494090Y-59484110D01*
X146567243Y-59441874D01*
X146262501Y-59137132D01*
X146262500Y-59137132D01*
X145957755Y-59441874D01*
X144317243Y-59441874D01*
X144012501Y-59137132D01*
X144012500Y-59137132D01*
X143707755Y-59441874D01*
X114721547Y-59441874D01*
X114724999Y-59428990D01*
X114725000Y-59428989D01*
X114725000Y-59271011D01*
X114724999Y-59271009D01*
X114684111Y-59118411D01*
X114641873Y-59045255D01*
X114337132Y-59349999D01*
X114275000Y-59349999D01*
X114275000Y-59320163D01*
X114252164Y-59265032D01*
X114209968Y-59222836D01*
X114154837Y-59200000D01*
X114095163Y-59200000D01*
X114040032Y-59222836D01*
X113997836Y-59265032D01*
X113975000Y-59320163D01*
X113883032Y-59320163D01*
X113608124Y-59045255D01*
X113608123Y-59045255D01*
X113565890Y-59118405D01*
X113565890Y-59118406D01*
X113525000Y-59271009D01*
X112474999Y-59271009D01*
X112434111Y-59118411D01*
X112391873Y-59045255D01*
X112087132Y-59349999D01*
X112025000Y-59349999D01*
X112025000Y-59320163D01*
X112002164Y-59265032D01*
X111959968Y-59222836D01*
X111904837Y-59200000D01*
X111845163Y-59200000D01*
X111790032Y-59222836D01*
X111747836Y-59265032D01*
X111725000Y-59320163D01*
X111633032Y-59320163D01*
X111358124Y-59045255D01*
X111358123Y-59045255D01*
X111315890Y-59118405D01*
X111315890Y-59118406D01*
X111275000Y-59271009D01*
X108421461Y-59271009D01*
X108466392Y-59193186D01*
X108500500Y-59065892D01*
X108500500Y-58934108D01*
X108497060Y-58921272D01*
X108493951Y-58909665D01*
X108493949Y-58909660D01*
X108493667Y-58908608D01*
X108473441Y-58833123D01*
X111570255Y-58833123D01*
X111570255Y-58833124D01*
X111875000Y-59137868D01*
X111875001Y-59137868D01*
X112179743Y-58833124D01*
X112179741Y-58833123D01*
X113820255Y-58833123D01*
X113820255Y-58833124D01*
X114125000Y-59137868D01*
X114125001Y-59137868D01*
X114429743Y-58833124D01*
X114356592Y-58790889D01*
X114203990Y-58750000D01*
X114046009Y-58750000D01*
X113893406Y-58790890D01*
X113893405Y-58790890D01*
X113820255Y-58833123D01*
X112179741Y-58833123D01*
X112106592Y-58790889D01*
X111953990Y-58750000D01*
X111796009Y-58750000D01*
X111643406Y-58790890D01*
X111643405Y-58790890D01*
X111570255Y-58833123D01*
X108473441Y-58833123D01*
X108466392Y-58806814D01*
X108400500Y-58692686D01*
X108307314Y-58599500D01*
X108193186Y-58533608D01*
X108065892Y-58499500D01*
X107934108Y-58499500D01*
X107806812Y-58533608D01*
X107692686Y-58599500D01*
X107692683Y-58599502D01*
X107599502Y-58692683D01*
X107599500Y-58692686D01*
X107533608Y-58806812D01*
X107508506Y-58900497D01*
X107499500Y-58934108D01*
X101221790Y-58934108D01*
X101223081Y-58930419D01*
X101223081Y-58930417D01*
X101224583Y-58914404D01*
X101224583Y-58914403D01*
X101225935Y-58899986D01*
X101225935Y-58434108D01*
X123499500Y-58434108D01*
X123499500Y-58565891D01*
X123533608Y-58693187D01*
X123566410Y-58750000D01*
X123599500Y-58807314D01*
X123692686Y-58900500D01*
X123806814Y-58966392D01*
X123934108Y-59000500D01*
X123934110Y-59000500D01*
X124065890Y-59000500D01*
X124065892Y-59000500D01*
X124193186Y-58966392D01*
X124307314Y-58900500D01*
X124361805Y-58846009D01*
X143412500Y-58846009D01*
X143412500Y-59003990D01*
X143453389Y-59156592D01*
X143495624Y-59229743D01*
X143800368Y-58925000D01*
X143800368Y-58924999D01*
X143770532Y-58895163D01*
X143862500Y-58895163D01*
X143862500Y-58954837D01*
X143885336Y-59009968D01*
X143927532Y-59052164D01*
X143982663Y-59075000D01*
X144042337Y-59075000D01*
X144097468Y-59052164D01*
X144139664Y-59009968D01*
X144162500Y-58954837D01*
X144162500Y-58924999D01*
X144224632Y-58924999D01*
X144224632Y-58925000D01*
X144529374Y-59229742D01*
X144571610Y-59156590D01*
X144612499Y-59003990D01*
X144612500Y-59003989D01*
X144612500Y-58846011D01*
X144612499Y-58846009D01*
X145662500Y-58846009D01*
X145662500Y-59003990D01*
X145703389Y-59156592D01*
X145745624Y-59229743D01*
X146050368Y-58925000D01*
X146050368Y-58924999D01*
X146020532Y-58895163D01*
X146112500Y-58895163D01*
X146112500Y-58954837D01*
X146135336Y-59009968D01*
X146177532Y-59052164D01*
X146232663Y-59075000D01*
X146292337Y-59075000D01*
X146347468Y-59052164D01*
X146389664Y-59009968D01*
X146412500Y-58954837D01*
X146412500Y-58924999D01*
X146474632Y-58924999D01*
X146474632Y-58925000D01*
X146779374Y-59229742D01*
X146821610Y-59156590D01*
X146862499Y-59003990D01*
X146862500Y-59003989D01*
X146862500Y-58846011D01*
X146862499Y-58846009D01*
X146821611Y-58693411D01*
X146779373Y-58620255D01*
X146474632Y-58924999D01*
X146412500Y-58924999D01*
X146412500Y-58895163D01*
X146389664Y-58840032D01*
X146347468Y-58797836D01*
X146292337Y-58775000D01*
X146232663Y-58775000D01*
X146177532Y-58797836D01*
X146135336Y-58840032D01*
X146112500Y-58895163D01*
X146020532Y-58895163D01*
X145745624Y-58620255D01*
X145745623Y-58620255D01*
X145703390Y-58693405D01*
X145703390Y-58693406D01*
X145662500Y-58846009D01*
X144612499Y-58846009D01*
X144571611Y-58693411D01*
X144529373Y-58620255D01*
X144224632Y-58924999D01*
X144162500Y-58924999D01*
X144162500Y-58895163D01*
X144139664Y-58840032D01*
X144097468Y-58797836D01*
X144042337Y-58775000D01*
X143982663Y-58775000D01*
X143927532Y-58797836D01*
X143885336Y-58840032D01*
X143862500Y-58895163D01*
X143770532Y-58895163D01*
X143495624Y-58620255D01*
X143495623Y-58620255D01*
X143453390Y-58693405D01*
X143453390Y-58693406D01*
X143412500Y-58846009D01*
X124361805Y-58846009D01*
X124400500Y-58807314D01*
X124466392Y-58693186D01*
X124500500Y-58565892D01*
X124500500Y-58434108D01*
X124493537Y-58408123D01*
X143707755Y-58408123D01*
X143707755Y-58408124D01*
X144012500Y-58712868D01*
X144012501Y-58712868D01*
X144317243Y-58408124D01*
X144317241Y-58408123D01*
X145957755Y-58408123D01*
X145957755Y-58408124D01*
X146262500Y-58712868D01*
X146262501Y-58712868D01*
X146567243Y-58408124D01*
X146494092Y-58365889D01*
X146416698Y-58345152D01*
X146341490Y-58325000D01*
X146183509Y-58325000D01*
X146030906Y-58365890D01*
X146030905Y-58365890D01*
X145957755Y-58408123D01*
X144317241Y-58408123D01*
X144244092Y-58365889D01*
X144091490Y-58325000D01*
X143933509Y-58325000D01*
X143780906Y-58365890D01*
X143780905Y-58365890D01*
X143707755Y-58408123D01*
X124493537Y-58408123D01*
X124466392Y-58306814D01*
X124424066Y-58233504D01*
X149048896Y-58233504D01*
X149048896Y-58365288D01*
X149060374Y-58408124D01*
X149083004Y-58492583D01*
X149086998Y-58499500D01*
X149148896Y-58606710D01*
X149242082Y-58699896D01*
X149327758Y-58749361D01*
X149331698Y-58751636D01*
X149379913Y-58802204D01*
X149393135Y-58870811D01*
X149367167Y-58935675D01*
X149331700Y-58966408D01*
X149317692Y-58974496D01*
X149317683Y-58974502D01*
X149224502Y-59067683D01*
X149224500Y-59067686D01*
X149158608Y-59181812D01*
X149127954Y-59296218D01*
X149124500Y-59309108D01*
X149124500Y-59440892D01*
X149129100Y-59458060D01*
X149158608Y-59568187D01*
X149176686Y-59599498D01*
X149224500Y-59682314D01*
X149317686Y-59775500D01*
X149431814Y-59841392D01*
X149559108Y-59875500D01*
X149559110Y-59875500D01*
X149690890Y-59875500D01*
X149690892Y-59875500D01*
X149818186Y-59841392D01*
X149932314Y-59775500D01*
X150025500Y-59682314D01*
X150091392Y-59568186D01*
X150125500Y-59440892D01*
X150125500Y-59309108D01*
X150091392Y-59181814D01*
X150025500Y-59067686D01*
X149932314Y-58974500D01*
X149882847Y-58945940D01*
X149842697Y-58922759D01*
X149794482Y-58872191D01*
X149781260Y-58803584D01*
X149807228Y-58738719D01*
X149842697Y-58707986D01*
X149856710Y-58699896D01*
X149949896Y-58606710D01*
X150015788Y-58492582D01*
X150049896Y-58365288D01*
X150049896Y-58233504D01*
X150033189Y-58171153D01*
X156674500Y-58171153D01*
X156674500Y-58328846D01*
X156705261Y-58483489D01*
X156705264Y-58483501D01*
X156765602Y-58629172D01*
X156765609Y-58629185D01*
X156853210Y-58760288D01*
X156853213Y-58760292D01*
X156964707Y-58871786D01*
X156964711Y-58871789D01*
X157095814Y-58959390D01*
X157095827Y-58959397D01*
X157203486Y-59003990D01*
X157241503Y-59019737D01*
X157369790Y-59045255D01*
X157396153Y-59050499D01*
X157396156Y-59050500D01*
X157396158Y-59050500D01*
X158103844Y-59050500D01*
X158103845Y-59050499D01*
X158258497Y-59019737D01*
X158404179Y-58959394D01*
X158535289Y-58871789D01*
X158646789Y-58760289D01*
X158734394Y-58629179D01*
X158794737Y-58483497D01*
X158825500Y-58328842D01*
X158825500Y-58171158D01*
X158825500Y-58171155D01*
X158825499Y-58171153D01*
X158812581Y-58106210D01*
X158794737Y-58016503D01*
X158794735Y-58016498D01*
X158734397Y-57870827D01*
X158734390Y-57870814D01*
X158646789Y-57739711D01*
X158646786Y-57739707D01*
X158535292Y-57628213D01*
X158535288Y-57628210D01*
X158404185Y-57540609D01*
X158404172Y-57540602D01*
X158258501Y-57480264D01*
X158258489Y-57480261D01*
X158103845Y-57449500D01*
X158103842Y-57449500D01*
X157396158Y-57449500D01*
X157396155Y-57449500D01*
X157241510Y-57480261D01*
X157241498Y-57480264D01*
X157095827Y-57540602D01*
X157095814Y-57540609D01*
X156964711Y-57628210D01*
X156964707Y-57628213D01*
X156853213Y-57739707D01*
X156853210Y-57739711D01*
X156765609Y-57870814D01*
X156765602Y-57870827D01*
X156705264Y-58016498D01*
X156705261Y-58016510D01*
X156674500Y-58171153D01*
X150033189Y-58171153D01*
X150015788Y-58106210D01*
X149949896Y-57992082D01*
X149856710Y-57898896D01*
X149799646Y-57865950D01*
X149742583Y-57833004D01*
X149678935Y-57815950D01*
X149615288Y-57798896D01*
X149483504Y-57798896D01*
X149356208Y-57833004D01*
X149242082Y-57898896D01*
X149242079Y-57898898D01*
X149148898Y-57992079D01*
X149148896Y-57992082D01*
X149083004Y-58106208D01*
X149058634Y-58197160D01*
X149048896Y-58233504D01*
X124424066Y-58233504D01*
X124400500Y-58192686D01*
X124307314Y-58099500D01*
X124240663Y-58061019D01*
X124193187Y-58033608D01*
X124129330Y-58016498D01*
X124065892Y-57999500D01*
X123934108Y-57999500D01*
X123806812Y-58033608D01*
X123692686Y-58099500D01*
X123692683Y-58099502D01*
X123599502Y-58192683D01*
X123599500Y-58192686D01*
X123533608Y-58306812D01*
X123499500Y-58434108D01*
X101225935Y-58434108D01*
X101225935Y-58091448D01*
X101223081Y-58061018D01*
X101223081Y-58061016D01*
X101178228Y-57932837D01*
X101178227Y-57932835D01*
X101159391Y-57907313D01*
X101097585Y-57823568D01*
X100988317Y-57742925D01*
X100988315Y-57742924D01*
X100860135Y-57698071D01*
X100829705Y-57695218D01*
X100829701Y-57695218D01*
X99471169Y-57695218D01*
X99471165Y-57695218D01*
X99440735Y-57698071D01*
X99440733Y-57698071D01*
X99312554Y-57742924D01*
X99312552Y-57742925D01*
X99203285Y-57823568D01*
X99122642Y-57932835D01*
X99122641Y-57932837D01*
X99077788Y-58061016D01*
X99077788Y-58061018D01*
X99074935Y-58091448D01*
X96800500Y-58091448D01*
X96800500Y-56434108D01*
X103999500Y-56434108D01*
X103999500Y-56565891D01*
X104033608Y-56693187D01*
X104066121Y-56749500D01*
X104099500Y-56807314D01*
X104192686Y-56900500D01*
X104306814Y-56966392D01*
X104434108Y-57000500D01*
X104434110Y-57000500D01*
X104565890Y-57000500D01*
X104565892Y-57000500D01*
X104693186Y-56966392D01*
X104749103Y-56934108D01*
X122499500Y-56934108D01*
X122499500Y-57065891D01*
X122533608Y-57193187D01*
X122566554Y-57250250D01*
X122599500Y-57307314D01*
X122692686Y-57400500D01*
X122806814Y-57466392D01*
X122934108Y-57500500D01*
X122934110Y-57500500D01*
X123065890Y-57500500D01*
X123065892Y-57500500D01*
X123193186Y-57466392D01*
X123307314Y-57400500D01*
X123400500Y-57307314D01*
X123466392Y-57193186D01*
X123468824Y-57184108D01*
X128999500Y-57184108D01*
X128999500Y-57315891D01*
X129033608Y-57443187D01*
X129037253Y-57449500D01*
X129099500Y-57557314D01*
X129192686Y-57650500D01*
X129306814Y-57716392D01*
X129434108Y-57750500D01*
X129434110Y-57750500D01*
X129565890Y-57750500D01*
X129565892Y-57750500D01*
X129693186Y-57716392D01*
X129807314Y-57650500D01*
X129900500Y-57557314D01*
X129966392Y-57443186D01*
X130000500Y-57315892D01*
X130000500Y-57254108D01*
X132069500Y-57254108D01*
X132069500Y-57385892D01*
X132075106Y-57406814D01*
X132103608Y-57513187D01*
X132136554Y-57570250D01*
X132169500Y-57627314D01*
X132262686Y-57720500D01*
X132376814Y-57786392D01*
X132504108Y-57820500D01*
X132504110Y-57820500D01*
X132635890Y-57820500D01*
X132635892Y-57820500D01*
X132763186Y-57786392D01*
X132877314Y-57720500D01*
X132970500Y-57627314D01*
X133024313Y-57534108D01*
X140262000Y-57534108D01*
X140262000Y-57665891D01*
X140296108Y-57793187D01*
X140313649Y-57823568D01*
X140362000Y-57907314D01*
X140455186Y-58000500D01*
X140512531Y-58033608D01*
X140560002Y-58061016D01*
X140569314Y-58066392D01*
X140696608Y-58100500D01*
X140696610Y-58100500D01*
X140828390Y-58100500D01*
X140828392Y-58100500D01*
X140955686Y-58066392D01*
X141069814Y-58000500D01*
X141163000Y-57907314D01*
X141228892Y-57793186D01*
X141263000Y-57665892D01*
X141263000Y-57534108D01*
X141228892Y-57406814D01*
X141163000Y-57292686D01*
X141069814Y-57199500D01*
X140973490Y-57143887D01*
X140955687Y-57133608D01*
X140892039Y-57116554D01*
X140828392Y-57099500D01*
X140696608Y-57099500D01*
X140569312Y-57133608D01*
X140455186Y-57199500D01*
X140455183Y-57199502D01*
X140362002Y-57292683D01*
X140362000Y-57292686D01*
X140296108Y-57406812D01*
X140262000Y-57534108D01*
X133024313Y-57534108D01*
X133036392Y-57513186D01*
X133070500Y-57385892D01*
X133070500Y-57254108D01*
X133036392Y-57126814D01*
X132970500Y-57012686D01*
X132877314Y-56919500D01*
X132820250Y-56886554D01*
X132763187Y-56853608D01*
X132699539Y-56836554D01*
X132635892Y-56819500D01*
X132504108Y-56819500D01*
X132376812Y-56853608D01*
X132262686Y-56919500D01*
X132262683Y-56919502D01*
X132169502Y-57012683D01*
X132169500Y-57012686D01*
X132103608Y-57126812D01*
X132084132Y-57199500D01*
X132069500Y-57254108D01*
X130000500Y-57254108D01*
X130000500Y-57184108D01*
X129966392Y-57056814D01*
X129900500Y-56942686D01*
X129807314Y-56849500D01*
X129750250Y-56816554D01*
X129693187Y-56783608D01*
X129629539Y-56766554D01*
X129565892Y-56749500D01*
X129434108Y-56749500D01*
X129306812Y-56783608D01*
X129192686Y-56849500D01*
X129192683Y-56849502D01*
X129099502Y-56942683D01*
X129099500Y-56942686D01*
X129033608Y-57056812D01*
X128999500Y-57184108D01*
X123468824Y-57184108D01*
X123500500Y-57065892D01*
X123500500Y-56934108D01*
X123466392Y-56806814D01*
X123400500Y-56692686D01*
X123307314Y-56599500D01*
X123249100Y-56565890D01*
X123193187Y-56533608D01*
X123129539Y-56516554D01*
X123065892Y-56499500D01*
X122934108Y-56499500D01*
X122806812Y-56533608D01*
X122692686Y-56599500D01*
X122692683Y-56599502D01*
X122599502Y-56692683D01*
X122599500Y-56692686D01*
X122533608Y-56806812D01*
X122499500Y-56934108D01*
X104749103Y-56934108D01*
X104807314Y-56900500D01*
X104900500Y-56807314D01*
X104966392Y-56693186D01*
X105000500Y-56565892D01*
X105000500Y-56434108D01*
X104966392Y-56306814D01*
X104900500Y-56192686D01*
X104807314Y-56099500D01*
X104750250Y-56066554D01*
X104693187Y-56033608D01*
X104629539Y-56016554D01*
X104565892Y-55999500D01*
X104434108Y-55999500D01*
X104306812Y-56033608D01*
X104192686Y-56099500D01*
X104192683Y-56099502D01*
X104099502Y-56192683D01*
X104099500Y-56192686D01*
X104033608Y-56306812D01*
X103999500Y-56434108D01*
X96800500Y-56434108D01*
X96800500Y-55296608D01*
X117112000Y-55296608D01*
X117112000Y-55428391D01*
X117146108Y-55555687D01*
X117179054Y-55612750D01*
X117212000Y-55669814D01*
X117305186Y-55763000D01*
X117419314Y-55828892D01*
X117546608Y-55863000D01*
X117546610Y-55863000D01*
X117678390Y-55863000D01*
X117678392Y-55863000D01*
X117805686Y-55828892D01*
X117919814Y-55763000D01*
X118013000Y-55669814D01*
X118078892Y-55555686D01*
X118113000Y-55428392D01*
X118113000Y-55296608D01*
X118102952Y-55259108D01*
X123074500Y-55259108D01*
X123074500Y-55390892D01*
X123084548Y-55428391D01*
X123108608Y-55518187D01*
X123130259Y-55555687D01*
X123174500Y-55632314D01*
X123267686Y-55725500D01*
X123381814Y-55791392D01*
X123509108Y-55825500D01*
X123509110Y-55825500D01*
X123640890Y-55825500D01*
X123640892Y-55825500D01*
X123768186Y-55791392D01*
X123882314Y-55725500D01*
X123975500Y-55632314D01*
X124041392Y-55518186D01*
X124075500Y-55390892D01*
X124075500Y-55259108D01*
X124041392Y-55131814D01*
X123975500Y-55017686D01*
X123882314Y-54924500D01*
X123825250Y-54891554D01*
X123768187Y-54858608D01*
X123704539Y-54841554D01*
X123640892Y-54824500D01*
X123509108Y-54824500D01*
X123381812Y-54858608D01*
X123267686Y-54924500D01*
X123267683Y-54924502D01*
X123174502Y-55017683D01*
X123174500Y-55017686D01*
X123108608Y-55131812D01*
X123098560Y-55169314D01*
X123074500Y-55259108D01*
X118102952Y-55259108D01*
X118078892Y-55169314D01*
X118013000Y-55055186D01*
X117919814Y-54962000D01*
X117854862Y-54924500D01*
X117805687Y-54896108D01*
X117742039Y-54879054D01*
X117678392Y-54862000D01*
X117546608Y-54862000D01*
X117419312Y-54896108D01*
X117305186Y-54962000D01*
X117305183Y-54962002D01*
X117212002Y-55055183D01*
X117212000Y-55055186D01*
X117146108Y-55169312D01*
X117112000Y-55296608D01*
X96800500Y-55296608D01*
X96800500Y-50380247D01*
X103699500Y-50380247D01*
X103699500Y-52119752D01*
X103711131Y-52178229D01*
X103711132Y-52178230D01*
X103755447Y-52244552D01*
X103821769Y-52288867D01*
X103821770Y-52288868D01*
X103880247Y-52300499D01*
X103880250Y-52300500D01*
X104497794Y-52300500D01*
X104564833Y-52320185D01*
X104610588Y-52372989D01*
X104620532Y-52442147D01*
X104591507Y-52505703D01*
X104559794Y-52531887D01*
X104442689Y-52599497D01*
X104442683Y-52599502D01*
X104349502Y-52692683D01*
X104349500Y-52692686D01*
X104283608Y-52806812D01*
X104249500Y-52934108D01*
X104249500Y-53065891D01*
X104283608Y-53193187D01*
X104316554Y-53250250D01*
X104349500Y-53307314D01*
X104442686Y-53400500D01*
X104556814Y-53466392D01*
X104684108Y-53500500D01*
X104684110Y-53500500D01*
X104815890Y-53500500D01*
X104815892Y-53500500D01*
X104943186Y-53466392D01*
X105057314Y-53400500D01*
X105150500Y-53307314D01*
X105216392Y-53193186D01*
X105250500Y-53065892D01*
X105250500Y-52934108D01*
X105216392Y-52806814D01*
X105150500Y-52692686D01*
X105057314Y-52599500D01*
X105057312Y-52599499D01*
X105057310Y-52599497D01*
X104940206Y-52531887D01*
X104891990Y-52481320D01*
X104878768Y-52412713D01*
X104904736Y-52347848D01*
X104961650Y-52307320D01*
X105002206Y-52300500D01*
X105619750Y-52300500D01*
X105619751Y-52300499D01*
X105634568Y-52297552D01*
X105678229Y-52288868D01*
X105678229Y-52288867D01*
X105678231Y-52288867D01*
X105744552Y-52244552D01*
X105788867Y-52178231D01*
X105788867Y-52178229D01*
X105788868Y-52178229D01*
X105800499Y-52119752D01*
X105800500Y-52119750D01*
X105800500Y-51146530D01*
X106239500Y-51146530D01*
X106239500Y-51353469D01*
X106279868Y-51556412D01*
X106279870Y-51556420D01*
X106359058Y-51747596D01*
X106474024Y-51919657D01*
X106620342Y-52065975D01*
X106620345Y-52065977D01*
X106792402Y-52180941D01*
X106983580Y-52260130D01*
X107128052Y-52288867D01*
X107186530Y-52300499D01*
X107186534Y-52300500D01*
X107186535Y-52300500D01*
X107393466Y-52300500D01*
X107393467Y-52300499D01*
X107596420Y-52260130D01*
X107787598Y-52180941D01*
X107959655Y-52065977D01*
X108105977Y-51919655D01*
X108220941Y-51747598D01*
X108300130Y-51556420D01*
X108340500Y-51353465D01*
X108340500Y-51146535D01*
X108340499Y-51146530D01*
X108779500Y-51146530D01*
X108779500Y-51353469D01*
X108819868Y-51556412D01*
X108819870Y-51556420D01*
X108899058Y-51747596D01*
X109014024Y-51919657D01*
X109160342Y-52065975D01*
X109160345Y-52065977D01*
X109332402Y-52180941D01*
X109523580Y-52260130D01*
X109668052Y-52288867D01*
X109726530Y-52300499D01*
X109726534Y-52300500D01*
X109726535Y-52300500D01*
X109933466Y-52300500D01*
X109933467Y-52300499D01*
X110136420Y-52260130D01*
X110327598Y-52180941D01*
X110499655Y-52065977D01*
X110645977Y-51919655D01*
X110760941Y-51747598D01*
X110840130Y-51556420D01*
X110880500Y-51353465D01*
X110880500Y-51146535D01*
X110880499Y-51146530D01*
X111319500Y-51146530D01*
X111319500Y-51353469D01*
X111359868Y-51556412D01*
X111359870Y-51556420D01*
X111439058Y-51747596D01*
X111554024Y-51919657D01*
X111700342Y-52065975D01*
X111700345Y-52065977D01*
X111872402Y-52180941D01*
X112063580Y-52260130D01*
X112208052Y-52288867D01*
X112266530Y-52300499D01*
X112266534Y-52300500D01*
X112266535Y-52300500D01*
X112473466Y-52300500D01*
X112473467Y-52300499D01*
X112676420Y-52260130D01*
X112867598Y-52180941D01*
X113039655Y-52065977D01*
X113039658Y-52065974D01*
X113077999Y-52027634D01*
X113185974Y-51919658D01*
X113185975Y-51919657D01*
X113185977Y-51919655D01*
X113300941Y-51747598D01*
X113380130Y-51556420D01*
X113420500Y-51353465D01*
X113420500Y-51159493D01*
X113760000Y-51159493D01*
X113760000Y-51340506D01*
X113788317Y-51519293D01*
X113844251Y-51691444D01*
X113844252Y-51691447D01*
X113926432Y-51852731D01*
X113997424Y-51950442D01*
X113997425Y-51950443D01*
X114466329Y-51481538D01*
X114509901Y-51557007D01*
X114602993Y-51650099D01*
X114678460Y-51693670D01*
X114209555Y-52162574D01*
X114307268Y-52233567D01*
X114468552Y-52315747D01*
X114468555Y-52315748D01*
X114640706Y-52371682D01*
X114819494Y-52400000D01*
X115000506Y-52400000D01*
X115179293Y-52371682D01*
X115351444Y-52315748D01*
X115351447Y-52315747D01*
X115512730Y-52233568D01*
X115610442Y-52162574D01*
X115610443Y-52162574D01*
X115141539Y-51693670D01*
X115217007Y-51650099D01*
X115310099Y-51557007D01*
X115353670Y-51481539D01*
X115822574Y-51950443D01*
X115822574Y-51950442D01*
X115893568Y-51852730D01*
X115975747Y-51691447D01*
X115975748Y-51691444D01*
X116031682Y-51519293D01*
X116060000Y-51340506D01*
X116060000Y-51159493D01*
X116057947Y-51146530D01*
X116399500Y-51146530D01*
X116399500Y-51353469D01*
X116439868Y-51556412D01*
X116439870Y-51556420D01*
X116519058Y-51747596D01*
X116634024Y-51919657D01*
X116780342Y-52065975D01*
X116780345Y-52065977D01*
X116952402Y-52180941D01*
X117143580Y-52260130D01*
X117288052Y-52288867D01*
X117346530Y-52300499D01*
X117346534Y-52300500D01*
X117346535Y-52300500D01*
X117553466Y-52300500D01*
X117553467Y-52300499D01*
X117756420Y-52260130D01*
X117947598Y-52180941D01*
X118119655Y-52065977D01*
X118265977Y-51919655D01*
X118380941Y-51747598D01*
X118460130Y-51556420D01*
X118500500Y-51353465D01*
X118500500Y-51146535D01*
X118500499Y-51146530D01*
X118939500Y-51146530D01*
X118939500Y-51353469D01*
X118979868Y-51556412D01*
X118979870Y-51556420D01*
X119059058Y-51747596D01*
X119174024Y-51919657D01*
X119320342Y-52065975D01*
X119320345Y-52065977D01*
X119492402Y-52180941D01*
X119683580Y-52260130D01*
X119828052Y-52288867D01*
X119886530Y-52300499D01*
X119886534Y-52300500D01*
X119886535Y-52300500D01*
X120093466Y-52300500D01*
X120093467Y-52300499D01*
X120296420Y-52260130D01*
X120487598Y-52180941D01*
X120659655Y-52065977D01*
X120805977Y-51919655D01*
X120920941Y-51747598D01*
X121000130Y-51556420D01*
X121040500Y-51353465D01*
X121040500Y-51146535D01*
X121040499Y-51146530D01*
X121479500Y-51146530D01*
X121479500Y-51353469D01*
X121519868Y-51556412D01*
X121519870Y-51556420D01*
X121599058Y-51747596D01*
X121714024Y-51919657D01*
X121860342Y-52065975D01*
X121860345Y-52065977D01*
X122032402Y-52180941D01*
X122223580Y-52260130D01*
X122368052Y-52288867D01*
X122426530Y-52300499D01*
X122426534Y-52300500D01*
X122426535Y-52300500D01*
X122633466Y-52300500D01*
X122633467Y-52300499D01*
X122836420Y-52260130D01*
X123027598Y-52180941D01*
X123199655Y-52065977D01*
X123345977Y-51919655D01*
X123460941Y-51747598D01*
X123540130Y-51556420D01*
X123580500Y-51353465D01*
X123580500Y-51146535D01*
X123580499Y-51146530D01*
X124019500Y-51146530D01*
X124019500Y-51353469D01*
X124059868Y-51556412D01*
X124059870Y-51556420D01*
X124139058Y-51747596D01*
X124254024Y-51919657D01*
X124400342Y-52065975D01*
X124400345Y-52065977D01*
X124572402Y-52180941D01*
X124763580Y-52260130D01*
X124908052Y-52288867D01*
X124966530Y-52300499D01*
X124966534Y-52300500D01*
X124966535Y-52300500D01*
X125173466Y-52300500D01*
X125173467Y-52300499D01*
X125376420Y-52260130D01*
X125567598Y-52180941D01*
X125739655Y-52065977D01*
X125885977Y-51919655D01*
X126000941Y-51747598D01*
X126080130Y-51556420D01*
X126120500Y-51353465D01*
X126120500Y-51146535D01*
X126120499Y-51146530D01*
X126559500Y-51146530D01*
X126559500Y-51353469D01*
X126599868Y-51556412D01*
X126599870Y-51556420D01*
X126679058Y-51747596D01*
X126794024Y-51919657D01*
X126940342Y-52065975D01*
X126940345Y-52065977D01*
X127112402Y-52180941D01*
X127303580Y-52260130D01*
X127448052Y-52288867D01*
X127506530Y-52300499D01*
X127506534Y-52300500D01*
X127506535Y-52300500D01*
X127713466Y-52300500D01*
X127713467Y-52300499D01*
X127916420Y-52260130D01*
X128107598Y-52180941D01*
X128279655Y-52065977D01*
X128425977Y-51919655D01*
X128540941Y-51747598D01*
X128620130Y-51556420D01*
X128660500Y-51353465D01*
X128660500Y-51146535D01*
X128660499Y-51146530D01*
X129099500Y-51146530D01*
X129099500Y-51353469D01*
X129139868Y-51556412D01*
X129139870Y-51556420D01*
X129219058Y-51747596D01*
X129334024Y-51919657D01*
X129480342Y-52065975D01*
X129480345Y-52065977D01*
X129652402Y-52180941D01*
X129843580Y-52260130D01*
X129988052Y-52288867D01*
X130046530Y-52300499D01*
X130046534Y-52300500D01*
X130046535Y-52300500D01*
X130253466Y-52300500D01*
X130253467Y-52300499D01*
X130456420Y-52260130D01*
X130647598Y-52180941D01*
X130819655Y-52065977D01*
X130965977Y-51919655D01*
X131080941Y-51747598D01*
X131160130Y-51556420D01*
X131200500Y-51353465D01*
X131200500Y-51146535D01*
X131200499Y-51146530D01*
X131639500Y-51146530D01*
X131639500Y-51353469D01*
X131679868Y-51556412D01*
X131679870Y-51556420D01*
X131759058Y-51747596D01*
X131874024Y-51919657D01*
X132020342Y-52065975D01*
X132020345Y-52065977D01*
X132192402Y-52180941D01*
X132383580Y-52260130D01*
X132528052Y-52288867D01*
X132586530Y-52300499D01*
X132586534Y-52300500D01*
X132586535Y-52300500D01*
X132793466Y-52300500D01*
X132793467Y-52300499D01*
X132996420Y-52260130D01*
X133187598Y-52180941D01*
X133359655Y-52065977D01*
X133359658Y-52065974D01*
X133397999Y-52027634D01*
X133505974Y-51919658D01*
X133505975Y-51919657D01*
X133505977Y-51919655D01*
X133620941Y-51747598D01*
X133700130Y-51556420D01*
X133740500Y-51353465D01*
X133740500Y-51159493D01*
X134080000Y-51159493D01*
X134080000Y-51340506D01*
X134108317Y-51519293D01*
X134164251Y-51691444D01*
X134164252Y-51691447D01*
X134246432Y-51852731D01*
X134317424Y-51950442D01*
X134317425Y-51950443D01*
X134786329Y-51481538D01*
X134829901Y-51557007D01*
X134922993Y-51650099D01*
X134998460Y-51693670D01*
X134529555Y-52162574D01*
X134627268Y-52233567D01*
X134788552Y-52315747D01*
X134788555Y-52315748D01*
X134960706Y-52371682D01*
X135139494Y-52400000D01*
X135320506Y-52400000D01*
X135499293Y-52371682D01*
X135671444Y-52315748D01*
X135671447Y-52315747D01*
X135832730Y-52233568D01*
X135930442Y-52162574D01*
X135930443Y-52162574D01*
X135461539Y-51693670D01*
X135537007Y-51650099D01*
X135630099Y-51557007D01*
X135673670Y-51481538D01*
X136142574Y-51950443D01*
X136142574Y-51950442D01*
X136213568Y-51852730D01*
X136295747Y-51691447D01*
X136295748Y-51691444D01*
X136351682Y-51519293D01*
X136380000Y-51340506D01*
X136380000Y-51159493D01*
X136377947Y-51146530D01*
X136719500Y-51146530D01*
X136719500Y-51353469D01*
X136759868Y-51556412D01*
X136759870Y-51556420D01*
X136839058Y-51747596D01*
X136954024Y-51919657D01*
X137100342Y-52065975D01*
X137100345Y-52065977D01*
X137272402Y-52180941D01*
X137463580Y-52260130D01*
X137608052Y-52288867D01*
X137666530Y-52300499D01*
X137666534Y-52300500D01*
X137666535Y-52300500D01*
X137873466Y-52300500D01*
X137873467Y-52300499D01*
X138076420Y-52260130D01*
X138267598Y-52180941D01*
X138439655Y-52065977D01*
X138585977Y-51919655D01*
X138700941Y-51747598D01*
X138780130Y-51556420D01*
X138820500Y-51353465D01*
X138820500Y-51146535D01*
X138820499Y-51146530D01*
X139259500Y-51146530D01*
X139259500Y-51353469D01*
X139299868Y-51556412D01*
X139299870Y-51556420D01*
X139379058Y-51747596D01*
X139494024Y-51919657D01*
X139640342Y-52065975D01*
X139640345Y-52065977D01*
X139812402Y-52180941D01*
X140003580Y-52260130D01*
X140148052Y-52288867D01*
X140206530Y-52300499D01*
X140206534Y-52300500D01*
X140206535Y-52300500D01*
X140413466Y-52300500D01*
X140413467Y-52300499D01*
X140616420Y-52260130D01*
X140807598Y-52180941D01*
X140979655Y-52065977D01*
X141125977Y-51919655D01*
X141240941Y-51747598D01*
X141320130Y-51556420D01*
X141360500Y-51353465D01*
X141360500Y-51146535D01*
X141360499Y-51146530D01*
X141799500Y-51146530D01*
X141799500Y-51353469D01*
X141839868Y-51556412D01*
X141839870Y-51556420D01*
X141919058Y-51747596D01*
X142034024Y-51919657D01*
X142180342Y-52065975D01*
X142180345Y-52065977D01*
X142352402Y-52180941D01*
X142543580Y-52260130D01*
X142688052Y-52288867D01*
X142746530Y-52300499D01*
X142746534Y-52300500D01*
X142746535Y-52300500D01*
X142953466Y-52300500D01*
X142953467Y-52300499D01*
X143156420Y-52260130D01*
X143347598Y-52180941D01*
X143519655Y-52065977D01*
X143665977Y-51919655D01*
X143780941Y-51747598D01*
X143860130Y-51556420D01*
X143900500Y-51353465D01*
X143900500Y-51146535D01*
X143900499Y-51146530D01*
X144339500Y-51146530D01*
X144339500Y-51353469D01*
X144379868Y-51556412D01*
X144379870Y-51556420D01*
X144459058Y-51747596D01*
X144574024Y-51919657D01*
X144720342Y-52065975D01*
X144720345Y-52065977D01*
X144892402Y-52180941D01*
X145083580Y-52260130D01*
X145228052Y-52288867D01*
X145286530Y-52300499D01*
X145286534Y-52300500D01*
X145286535Y-52300500D01*
X145493466Y-52300500D01*
X145493467Y-52300499D01*
X145696420Y-52260130D01*
X145887598Y-52180941D01*
X146059655Y-52065977D01*
X146205977Y-51919655D01*
X146320941Y-51747598D01*
X146400130Y-51556420D01*
X146440500Y-51353465D01*
X146440500Y-51146535D01*
X146440499Y-51146530D01*
X146879500Y-51146530D01*
X146879500Y-51353469D01*
X146919868Y-51556412D01*
X146919870Y-51556420D01*
X146999058Y-51747596D01*
X147114024Y-51919657D01*
X147260342Y-52065975D01*
X147260345Y-52065977D01*
X147432402Y-52180941D01*
X147623580Y-52260130D01*
X147768052Y-52288867D01*
X147826530Y-52300499D01*
X147826534Y-52300500D01*
X147826535Y-52300500D01*
X148033466Y-52300500D01*
X148033467Y-52300499D01*
X148236420Y-52260130D01*
X148427598Y-52180941D01*
X148599655Y-52065977D01*
X148745977Y-51919655D01*
X148860941Y-51747598D01*
X148940130Y-51556420D01*
X148980500Y-51353465D01*
X148980500Y-51146535D01*
X148980499Y-51146530D01*
X149419500Y-51146530D01*
X149419500Y-51353469D01*
X149459868Y-51556412D01*
X149459870Y-51556420D01*
X149539058Y-51747596D01*
X149654024Y-51919657D01*
X149800342Y-52065975D01*
X149800345Y-52065977D01*
X149972402Y-52180941D01*
X150163580Y-52260130D01*
X150308052Y-52288867D01*
X150366530Y-52300499D01*
X150366534Y-52300500D01*
X150366535Y-52300500D01*
X150573466Y-52300500D01*
X150573467Y-52300499D01*
X150776420Y-52260130D01*
X150967598Y-52180941D01*
X151139655Y-52065977D01*
X151139658Y-52065974D01*
X151177999Y-52027634D01*
X151285974Y-51919658D01*
X151285975Y-51919657D01*
X151285977Y-51919655D01*
X151400941Y-51747598D01*
X151480130Y-51556420D01*
X151520500Y-51353465D01*
X151520500Y-51159493D01*
X151860000Y-51159493D01*
X151860000Y-51340506D01*
X151888317Y-51519293D01*
X151944251Y-51691444D01*
X151944252Y-51691447D01*
X152026432Y-51852731D01*
X152097424Y-51950442D01*
X152097425Y-51950443D01*
X152566329Y-51481538D01*
X152609901Y-51557007D01*
X152702993Y-51650099D01*
X152778460Y-51693670D01*
X152309555Y-52162574D01*
X152407268Y-52233567D01*
X152568552Y-52315747D01*
X152568555Y-52315748D01*
X152740706Y-52371682D01*
X152919494Y-52400000D01*
X153100506Y-52400000D01*
X153279293Y-52371682D01*
X153451444Y-52315748D01*
X153451447Y-52315747D01*
X153612730Y-52233568D01*
X153710442Y-52162574D01*
X153710443Y-52162574D01*
X153241539Y-51693670D01*
X153317007Y-51650099D01*
X153410099Y-51557007D01*
X153453670Y-51481539D01*
X153922574Y-51950443D01*
X153922574Y-51950442D01*
X153993568Y-51852730D01*
X154075747Y-51691447D01*
X154075748Y-51691444D01*
X154131682Y-51519293D01*
X154160000Y-51340506D01*
X154160000Y-51159493D01*
X154131682Y-50980706D01*
X154075748Y-50808555D01*
X154075747Y-50808552D01*
X153993567Y-50647268D01*
X153922574Y-50549556D01*
X153922574Y-50549555D01*
X153453670Y-51018460D01*
X153410099Y-50942993D01*
X153317007Y-50849901D01*
X153241539Y-50806329D01*
X153710443Y-50337425D01*
X153710442Y-50337424D01*
X153612731Y-50266432D01*
X153451447Y-50184252D01*
X153451444Y-50184251D01*
X153279293Y-50128317D01*
X153100506Y-50100000D01*
X152919494Y-50100000D01*
X152740706Y-50128317D01*
X152568555Y-50184251D01*
X152568552Y-50184252D01*
X152407265Y-50266434D01*
X152309556Y-50337423D01*
X152309556Y-50337425D01*
X152778461Y-50806329D01*
X152702993Y-50849901D01*
X152609901Y-50942993D01*
X152566329Y-51018460D01*
X152097425Y-50549556D01*
X152097423Y-50549556D01*
X152026434Y-50647265D01*
X151944252Y-50808552D01*
X151944251Y-50808555D01*
X151888317Y-50980706D01*
X151860000Y-51159493D01*
X151520500Y-51159493D01*
X151520500Y-51146535D01*
X151480130Y-50943580D01*
X151400941Y-50752402D01*
X151285977Y-50580345D01*
X151285975Y-50580342D01*
X151139657Y-50434024D01*
X150971655Y-50321770D01*
X150967598Y-50319059D01*
X150776420Y-50239870D01*
X150776412Y-50239868D01*
X150573469Y-50199500D01*
X150573465Y-50199500D01*
X150366535Y-50199500D01*
X150366530Y-50199500D01*
X150163587Y-50239868D01*
X150163579Y-50239870D01*
X149972403Y-50319058D01*
X149800342Y-50434024D01*
X149654024Y-50580342D01*
X149539058Y-50752403D01*
X149459870Y-50943579D01*
X149459868Y-50943587D01*
X149419500Y-51146530D01*
X148980499Y-51146530D01*
X148940130Y-50943580D01*
X148860941Y-50752402D01*
X148745977Y-50580345D01*
X148745975Y-50580342D01*
X148599657Y-50434024D01*
X148431655Y-50321770D01*
X148427598Y-50319059D01*
X148236420Y-50239870D01*
X148236412Y-50239868D01*
X148033469Y-50199500D01*
X148033465Y-50199500D01*
X147826535Y-50199500D01*
X147826530Y-50199500D01*
X147623587Y-50239868D01*
X147623579Y-50239870D01*
X147432403Y-50319058D01*
X147260342Y-50434024D01*
X147114024Y-50580342D01*
X146999058Y-50752403D01*
X146919870Y-50943579D01*
X146919868Y-50943587D01*
X146879500Y-51146530D01*
X146440499Y-51146530D01*
X146400130Y-50943580D01*
X146320941Y-50752402D01*
X146205977Y-50580345D01*
X146205975Y-50580342D01*
X146059657Y-50434024D01*
X145891655Y-50321770D01*
X145887598Y-50319059D01*
X145696420Y-50239870D01*
X145696412Y-50239868D01*
X145493469Y-50199500D01*
X145493465Y-50199500D01*
X145286535Y-50199500D01*
X145286530Y-50199500D01*
X145083587Y-50239868D01*
X145083579Y-50239870D01*
X144892403Y-50319058D01*
X144720342Y-50434024D01*
X144574024Y-50580342D01*
X144459058Y-50752403D01*
X144379870Y-50943579D01*
X144379868Y-50943587D01*
X144339500Y-51146530D01*
X143900499Y-51146530D01*
X143860130Y-50943580D01*
X143780941Y-50752402D01*
X143665977Y-50580345D01*
X143665975Y-50580342D01*
X143519657Y-50434024D01*
X143351655Y-50321770D01*
X143347598Y-50319059D01*
X143156420Y-50239870D01*
X143156412Y-50239868D01*
X142953469Y-50199500D01*
X142953465Y-50199500D01*
X142746535Y-50199500D01*
X142746530Y-50199500D01*
X142543587Y-50239868D01*
X142543579Y-50239870D01*
X142352403Y-50319058D01*
X142180342Y-50434024D01*
X142034024Y-50580342D01*
X141919058Y-50752403D01*
X141839870Y-50943579D01*
X141839868Y-50943587D01*
X141799500Y-51146530D01*
X141360499Y-51146530D01*
X141320130Y-50943580D01*
X141240941Y-50752402D01*
X141125977Y-50580345D01*
X141125975Y-50580342D01*
X140979657Y-50434024D01*
X140811655Y-50321770D01*
X140807598Y-50319059D01*
X140616420Y-50239870D01*
X140616412Y-50239868D01*
X140413469Y-50199500D01*
X140413465Y-50199500D01*
X140206535Y-50199500D01*
X140206530Y-50199500D01*
X140003587Y-50239868D01*
X140003579Y-50239870D01*
X139812403Y-50319058D01*
X139640342Y-50434024D01*
X139494024Y-50580342D01*
X139379058Y-50752403D01*
X139299870Y-50943579D01*
X139299868Y-50943587D01*
X139259500Y-51146530D01*
X138820499Y-51146530D01*
X138780130Y-50943580D01*
X138700941Y-50752402D01*
X138585977Y-50580345D01*
X138585975Y-50580342D01*
X138439657Y-50434024D01*
X138271655Y-50321770D01*
X138267598Y-50319059D01*
X138076420Y-50239870D01*
X138076412Y-50239868D01*
X137873469Y-50199500D01*
X137873465Y-50199500D01*
X137666535Y-50199500D01*
X137666530Y-50199500D01*
X137463587Y-50239868D01*
X137463579Y-50239870D01*
X137272403Y-50319058D01*
X137100342Y-50434024D01*
X136954024Y-50580342D01*
X136839058Y-50752403D01*
X136759870Y-50943579D01*
X136759868Y-50943587D01*
X136719500Y-51146530D01*
X136377947Y-51146530D01*
X136351682Y-50980706D01*
X136295748Y-50808555D01*
X136295747Y-50808552D01*
X136213567Y-50647268D01*
X136142574Y-50549556D01*
X136142574Y-50549555D01*
X135673670Y-51018460D01*
X135630099Y-50942993D01*
X135537007Y-50849901D01*
X135461539Y-50806329D01*
X135930443Y-50337425D01*
X135930442Y-50337424D01*
X135832731Y-50266432D01*
X135671447Y-50184252D01*
X135671444Y-50184251D01*
X135499293Y-50128317D01*
X135320506Y-50100000D01*
X135139494Y-50100000D01*
X134960706Y-50128317D01*
X134788555Y-50184251D01*
X134788552Y-50184252D01*
X134627265Y-50266434D01*
X134529556Y-50337423D01*
X134529556Y-50337425D01*
X134998461Y-50806329D01*
X134922993Y-50849901D01*
X134829901Y-50942993D01*
X134786329Y-51018460D01*
X134317425Y-50549556D01*
X134317423Y-50549556D01*
X134246434Y-50647265D01*
X134164252Y-50808552D01*
X134164251Y-50808555D01*
X134108317Y-50980706D01*
X134080000Y-51159493D01*
X133740500Y-51159493D01*
X133740500Y-51146535D01*
X133700130Y-50943580D01*
X133620941Y-50752402D01*
X133505977Y-50580345D01*
X133505975Y-50580342D01*
X133359657Y-50434024D01*
X133191655Y-50321770D01*
X133187598Y-50319059D01*
X132996420Y-50239870D01*
X132996412Y-50239868D01*
X132793469Y-50199500D01*
X132793465Y-50199500D01*
X132586535Y-50199500D01*
X132586530Y-50199500D01*
X132383587Y-50239868D01*
X132383579Y-50239870D01*
X132192403Y-50319058D01*
X132020342Y-50434024D01*
X131874024Y-50580342D01*
X131759058Y-50752403D01*
X131679870Y-50943579D01*
X131679868Y-50943587D01*
X131639500Y-51146530D01*
X131200499Y-51146530D01*
X131160130Y-50943580D01*
X131080941Y-50752402D01*
X130965977Y-50580345D01*
X130965975Y-50580342D01*
X130819657Y-50434024D01*
X130651655Y-50321770D01*
X130647598Y-50319059D01*
X130456420Y-50239870D01*
X130456412Y-50239868D01*
X130253469Y-50199500D01*
X130253465Y-50199500D01*
X130046535Y-50199500D01*
X130046530Y-50199500D01*
X129843587Y-50239868D01*
X129843579Y-50239870D01*
X129652403Y-50319058D01*
X129480342Y-50434024D01*
X129334024Y-50580342D01*
X129219058Y-50752403D01*
X129139870Y-50943579D01*
X129139868Y-50943587D01*
X129099500Y-51146530D01*
X128660499Y-51146530D01*
X128620130Y-50943580D01*
X128540941Y-50752402D01*
X128425977Y-50580345D01*
X128425975Y-50580342D01*
X128279657Y-50434024D01*
X128111655Y-50321770D01*
X128107598Y-50319059D01*
X127916420Y-50239870D01*
X127916412Y-50239868D01*
X127713469Y-50199500D01*
X127713465Y-50199500D01*
X127506535Y-50199500D01*
X127506530Y-50199500D01*
X127303587Y-50239868D01*
X127303579Y-50239870D01*
X127112403Y-50319058D01*
X126940342Y-50434024D01*
X126794024Y-50580342D01*
X126679058Y-50752403D01*
X126599870Y-50943579D01*
X126599868Y-50943587D01*
X126559500Y-51146530D01*
X126120499Y-51146530D01*
X126080130Y-50943580D01*
X126000941Y-50752402D01*
X125885977Y-50580345D01*
X125885975Y-50580342D01*
X125739657Y-50434024D01*
X125571655Y-50321770D01*
X125567598Y-50319059D01*
X125376420Y-50239870D01*
X125376412Y-50239868D01*
X125173469Y-50199500D01*
X125173465Y-50199500D01*
X124966535Y-50199500D01*
X124966530Y-50199500D01*
X124763587Y-50239868D01*
X124763579Y-50239870D01*
X124572403Y-50319058D01*
X124400342Y-50434024D01*
X124254024Y-50580342D01*
X124139058Y-50752403D01*
X124059870Y-50943579D01*
X124059868Y-50943587D01*
X124019500Y-51146530D01*
X123580499Y-51146530D01*
X123540130Y-50943580D01*
X123460941Y-50752402D01*
X123345977Y-50580345D01*
X123345975Y-50580342D01*
X123199657Y-50434024D01*
X123031655Y-50321770D01*
X123027598Y-50319059D01*
X122836420Y-50239870D01*
X122836412Y-50239868D01*
X122633469Y-50199500D01*
X122633465Y-50199500D01*
X122426535Y-50199500D01*
X122426530Y-50199500D01*
X122223587Y-50239868D01*
X122223579Y-50239870D01*
X122032403Y-50319058D01*
X121860342Y-50434024D01*
X121714024Y-50580342D01*
X121599058Y-50752403D01*
X121519870Y-50943579D01*
X121519868Y-50943587D01*
X121479500Y-51146530D01*
X121040499Y-51146530D01*
X121000130Y-50943580D01*
X120920941Y-50752402D01*
X120805977Y-50580345D01*
X120805975Y-50580342D01*
X120659657Y-50434024D01*
X120491655Y-50321770D01*
X120487598Y-50319059D01*
X120296420Y-50239870D01*
X120296412Y-50239868D01*
X120093469Y-50199500D01*
X120093465Y-50199500D01*
X119886535Y-50199500D01*
X119886530Y-50199500D01*
X119683587Y-50239868D01*
X119683579Y-50239870D01*
X119492403Y-50319058D01*
X119320342Y-50434024D01*
X119174024Y-50580342D01*
X119059058Y-50752403D01*
X118979870Y-50943579D01*
X118979868Y-50943587D01*
X118939500Y-51146530D01*
X118500499Y-51146530D01*
X118460130Y-50943580D01*
X118380941Y-50752402D01*
X118265977Y-50580345D01*
X118265975Y-50580342D01*
X118119657Y-50434024D01*
X117951655Y-50321770D01*
X117947598Y-50319059D01*
X117756420Y-50239870D01*
X117756412Y-50239868D01*
X117553469Y-50199500D01*
X117553465Y-50199500D01*
X117346535Y-50199500D01*
X117346530Y-50199500D01*
X117143587Y-50239868D01*
X117143579Y-50239870D01*
X116952403Y-50319058D01*
X116780342Y-50434024D01*
X116634024Y-50580342D01*
X116519058Y-50752403D01*
X116439870Y-50943579D01*
X116439868Y-50943587D01*
X116399500Y-51146530D01*
X116057947Y-51146530D01*
X116031682Y-50980706D01*
X115975748Y-50808555D01*
X115975747Y-50808552D01*
X115893567Y-50647268D01*
X115822574Y-50549556D01*
X115822574Y-50549555D01*
X115353670Y-51018460D01*
X115310099Y-50942993D01*
X115217007Y-50849901D01*
X115141539Y-50806329D01*
X115610443Y-50337425D01*
X115610442Y-50337424D01*
X115512731Y-50266432D01*
X115351447Y-50184252D01*
X115351444Y-50184251D01*
X115179293Y-50128317D01*
X115000506Y-50100000D01*
X114819494Y-50100000D01*
X114640706Y-50128317D01*
X114468555Y-50184251D01*
X114468552Y-50184252D01*
X114307265Y-50266434D01*
X114209556Y-50337423D01*
X114209556Y-50337425D01*
X114678461Y-50806329D01*
X114602993Y-50849901D01*
X114509901Y-50942993D01*
X114466329Y-51018460D01*
X113997425Y-50549556D01*
X113997423Y-50549556D01*
X113926434Y-50647265D01*
X113844252Y-50808552D01*
X113844251Y-50808555D01*
X113788317Y-50980706D01*
X113760000Y-51159493D01*
X113420500Y-51159493D01*
X113420500Y-51146535D01*
X113380130Y-50943580D01*
X113300941Y-50752402D01*
X113185977Y-50580345D01*
X113185975Y-50580342D01*
X113039657Y-50434024D01*
X112871655Y-50321770D01*
X112867598Y-50319059D01*
X112676420Y-50239870D01*
X112676412Y-50239868D01*
X112473469Y-50199500D01*
X112473465Y-50199500D01*
X112266535Y-50199500D01*
X112266530Y-50199500D01*
X112063587Y-50239868D01*
X112063579Y-50239870D01*
X111872403Y-50319058D01*
X111700342Y-50434024D01*
X111554024Y-50580342D01*
X111439058Y-50752403D01*
X111359870Y-50943579D01*
X111359868Y-50943587D01*
X111319500Y-51146530D01*
X110880499Y-51146530D01*
X110840130Y-50943580D01*
X110760941Y-50752402D01*
X110645977Y-50580345D01*
X110645975Y-50580342D01*
X110499657Y-50434024D01*
X110331655Y-50321770D01*
X110327598Y-50319059D01*
X110136420Y-50239870D01*
X110136412Y-50239868D01*
X109933469Y-50199500D01*
X109933465Y-50199500D01*
X109726535Y-50199500D01*
X109726530Y-50199500D01*
X109523587Y-50239868D01*
X109523579Y-50239870D01*
X109332403Y-50319058D01*
X109160342Y-50434024D01*
X109014024Y-50580342D01*
X108899058Y-50752403D01*
X108819870Y-50943579D01*
X108819868Y-50943587D01*
X108779500Y-51146530D01*
X108340499Y-51146530D01*
X108300130Y-50943580D01*
X108220941Y-50752402D01*
X108105977Y-50580345D01*
X108105975Y-50580342D01*
X107959657Y-50434024D01*
X107791655Y-50321770D01*
X107787598Y-50319059D01*
X107596420Y-50239870D01*
X107596412Y-50239868D01*
X107393469Y-50199500D01*
X107393465Y-50199500D01*
X107186535Y-50199500D01*
X107186530Y-50199500D01*
X106983587Y-50239868D01*
X106983579Y-50239870D01*
X106792403Y-50319058D01*
X106620342Y-50434024D01*
X106474024Y-50580342D01*
X106359058Y-50752403D01*
X106279870Y-50943579D01*
X106279868Y-50943587D01*
X106239500Y-51146530D01*
X105800500Y-51146530D01*
X105800500Y-50380249D01*
X105800499Y-50380247D01*
X105788868Y-50321770D01*
X105788867Y-50321769D01*
X105744552Y-50255447D01*
X105678230Y-50211132D01*
X105678229Y-50211131D01*
X105619752Y-50199500D01*
X105619748Y-50199500D01*
X103880252Y-50199500D01*
X103880247Y-50199500D01*
X103821770Y-50211131D01*
X103821769Y-50211132D01*
X103755447Y-50255447D01*
X103711132Y-50321769D01*
X103711131Y-50321770D01*
X103699500Y-50380247D01*
X96800500Y-50380247D01*
X96800500Y-50003246D01*
X96800670Y-49996756D01*
X96812252Y-49775747D01*
X96817687Y-49672045D01*
X96819044Y-49659139D01*
X96821926Y-49640941D01*
X96869401Y-49341201D01*
X96872094Y-49328525D01*
X96955416Y-49017564D01*
X96959425Y-49005229D01*
X96991323Y-48922132D01*
X97074784Y-48704707D01*
X97080054Y-48692868D01*
X97124046Y-48606530D01*
X103699500Y-48606530D01*
X103699500Y-48813469D01*
X103739868Y-49016412D01*
X103739870Y-49016420D01*
X103819058Y-49207596D01*
X103934024Y-49379657D01*
X104080342Y-49525975D01*
X104080345Y-49525977D01*
X104252402Y-49640941D01*
X104443580Y-49720130D01*
X104646530Y-49760499D01*
X104646534Y-49760500D01*
X104646535Y-49760500D01*
X104853466Y-49760500D01*
X104853467Y-49760499D01*
X105056420Y-49720130D01*
X105247598Y-49640941D01*
X105419655Y-49525977D01*
X105565977Y-49379655D01*
X105680941Y-49207598D01*
X105760130Y-49016420D01*
X105800500Y-48813465D01*
X105800500Y-48606535D01*
X105800499Y-48606530D01*
X106239500Y-48606530D01*
X106239500Y-48813469D01*
X106279868Y-49016412D01*
X106279870Y-49016420D01*
X106359058Y-49207596D01*
X106474024Y-49379657D01*
X106620342Y-49525975D01*
X106620345Y-49525977D01*
X106792402Y-49640941D01*
X106983580Y-49720130D01*
X107186530Y-49760499D01*
X107186534Y-49760500D01*
X107186535Y-49760500D01*
X107393466Y-49760500D01*
X107393467Y-49760499D01*
X107596420Y-49720130D01*
X107787598Y-49640941D01*
X107959655Y-49525977D01*
X107959658Y-49525974D01*
X107997999Y-49487634D01*
X108105974Y-49379658D01*
X108105975Y-49379657D01*
X108105977Y-49379655D01*
X108220941Y-49207598D01*
X108300130Y-49016420D01*
X108340500Y-48813465D01*
X108340500Y-48619493D01*
X108680000Y-48619493D01*
X108680000Y-48800506D01*
X108708317Y-48979293D01*
X108764251Y-49151444D01*
X108764252Y-49151447D01*
X108846432Y-49312731D01*
X108917424Y-49410442D01*
X108917425Y-49410443D01*
X109386329Y-48941538D01*
X109429901Y-49017007D01*
X109522993Y-49110099D01*
X109598460Y-49153670D01*
X109129555Y-49622574D01*
X109227268Y-49693567D01*
X109388552Y-49775747D01*
X109388555Y-49775748D01*
X109560706Y-49831682D01*
X109739494Y-49860000D01*
X109920506Y-49860000D01*
X110099293Y-49831682D01*
X110271444Y-49775748D01*
X110271447Y-49775747D01*
X110432730Y-49693568D01*
X110530442Y-49622574D01*
X110530443Y-49622574D01*
X110061539Y-49153670D01*
X110137007Y-49110099D01*
X110230099Y-49017007D01*
X110273670Y-48941539D01*
X110742574Y-49410443D01*
X110742574Y-49410442D01*
X110813568Y-49312730D01*
X110895747Y-49151447D01*
X110895748Y-49151444D01*
X110951682Y-48979293D01*
X110980000Y-48800506D01*
X110980000Y-48619493D01*
X110977947Y-48606530D01*
X111319500Y-48606530D01*
X111319500Y-48813469D01*
X111359868Y-49016412D01*
X111359870Y-49016420D01*
X111439058Y-49207596D01*
X111554024Y-49379657D01*
X111700342Y-49525975D01*
X111700345Y-49525977D01*
X111872402Y-49640941D01*
X112063580Y-49720130D01*
X112266530Y-49760499D01*
X112266534Y-49760500D01*
X112266535Y-49760500D01*
X112473466Y-49760500D01*
X112473467Y-49760499D01*
X112676420Y-49720130D01*
X112867598Y-49640941D01*
X113039655Y-49525977D01*
X113185977Y-49379655D01*
X113300941Y-49207598D01*
X113380130Y-49016420D01*
X113420500Y-48813465D01*
X113420500Y-48606535D01*
X113420499Y-48606530D01*
X113859500Y-48606530D01*
X113859500Y-48813469D01*
X113899868Y-49016412D01*
X113899870Y-49016420D01*
X113979058Y-49207596D01*
X114094024Y-49379657D01*
X114240342Y-49525975D01*
X114240345Y-49525977D01*
X114412402Y-49640941D01*
X114603580Y-49720130D01*
X114806530Y-49760499D01*
X114806534Y-49760500D01*
X114806535Y-49760500D01*
X115013466Y-49760500D01*
X115013467Y-49760499D01*
X115216420Y-49720130D01*
X115407598Y-49640941D01*
X115579655Y-49525977D01*
X115725977Y-49379655D01*
X115840941Y-49207598D01*
X115920130Y-49016420D01*
X115960500Y-48813465D01*
X115960500Y-48606535D01*
X115960499Y-48606530D01*
X116399500Y-48606530D01*
X116399500Y-48813469D01*
X116439868Y-49016412D01*
X116439870Y-49016420D01*
X116519058Y-49207596D01*
X116634024Y-49379657D01*
X116780342Y-49525975D01*
X116780345Y-49525977D01*
X116952402Y-49640941D01*
X117143580Y-49720130D01*
X117346530Y-49760499D01*
X117346534Y-49760500D01*
X117346535Y-49760500D01*
X117553466Y-49760500D01*
X117553467Y-49760499D01*
X117756420Y-49720130D01*
X117947598Y-49640941D01*
X118119655Y-49525977D01*
X118119658Y-49525974D01*
X118157999Y-49487634D01*
X118265974Y-49379658D01*
X118265975Y-49379657D01*
X118265977Y-49379655D01*
X118380941Y-49207598D01*
X118460130Y-49016420D01*
X118500500Y-48813465D01*
X118500500Y-48619493D01*
X118840000Y-48619493D01*
X118840000Y-48800506D01*
X118868317Y-48979293D01*
X118924251Y-49151444D01*
X118924252Y-49151447D01*
X119006432Y-49312731D01*
X119077424Y-49410442D01*
X119077425Y-49410443D01*
X119546329Y-48941538D01*
X119589901Y-49017007D01*
X119682993Y-49110099D01*
X119758460Y-49153670D01*
X119289555Y-49622574D01*
X119387268Y-49693567D01*
X119548552Y-49775747D01*
X119548555Y-49775748D01*
X119720706Y-49831682D01*
X119899494Y-49860000D01*
X120080506Y-49860000D01*
X120259293Y-49831682D01*
X120431444Y-49775748D01*
X120431447Y-49775747D01*
X120592730Y-49693568D01*
X120690442Y-49622574D01*
X120690443Y-49622574D01*
X120221539Y-49153670D01*
X120297007Y-49110099D01*
X120390099Y-49017007D01*
X120433670Y-48941539D01*
X120902574Y-49410443D01*
X120902574Y-49410442D01*
X120973568Y-49312730D01*
X121055747Y-49151447D01*
X121055748Y-49151444D01*
X121111682Y-48979293D01*
X121140000Y-48800506D01*
X121140000Y-48619493D01*
X121137947Y-48606530D01*
X121479500Y-48606530D01*
X121479500Y-48813469D01*
X121519868Y-49016412D01*
X121519870Y-49016420D01*
X121599058Y-49207596D01*
X121714024Y-49379657D01*
X121860342Y-49525975D01*
X121860345Y-49525977D01*
X122032402Y-49640941D01*
X122223580Y-49720130D01*
X122426530Y-49760499D01*
X122426534Y-49760500D01*
X122426535Y-49760500D01*
X122633466Y-49760500D01*
X122633467Y-49760499D01*
X122836420Y-49720130D01*
X123027598Y-49640941D01*
X123199655Y-49525977D01*
X123345977Y-49379655D01*
X123460941Y-49207598D01*
X123540130Y-49016420D01*
X123580500Y-48813465D01*
X123580500Y-48606535D01*
X123580499Y-48606530D01*
X124019500Y-48606530D01*
X124019500Y-48813469D01*
X124059868Y-49016412D01*
X124059870Y-49016420D01*
X124139058Y-49207596D01*
X124254024Y-49379657D01*
X124400342Y-49525975D01*
X124400345Y-49525977D01*
X124572402Y-49640941D01*
X124763580Y-49720130D01*
X124966530Y-49760499D01*
X124966534Y-49760500D01*
X124966535Y-49760500D01*
X125173466Y-49760500D01*
X125173467Y-49760499D01*
X125376420Y-49720130D01*
X125567598Y-49640941D01*
X125739655Y-49525977D01*
X125739658Y-49525974D01*
X125777999Y-49487634D01*
X125885974Y-49379658D01*
X125885975Y-49379657D01*
X125885977Y-49379655D01*
X126000941Y-49207598D01*
X126080130Y-49016420D01*
X126120500Y-48813465D01*
X126120500Y-48619493D01*
X126460000Y-48619493D01*
X126460000Y-48800506D01*
X126488317Y-48979293D01*
X126544251Y-49151444D01*
X126544252Y-49151447D01*
X126626432Y-49312731D01*
X126697424Y-49410442D01*
X126697425Y-49410443D01*
X127166329Y-48941538D01*
X127209901Y-49017007D01*
X127302993Y-49110099D01*
X127378460Y-49153670D01*
X126909555Y-49622574D01*
X127007268Y-49693567D01*
X127168552Y-49775747D01*
X127168555Y-49775748D01*
X127340706Y-49831682D01*
X127519494Y-49860000D01*
X127700506Y-49860000D01*
X127879293Y-49831682D01*
X128051444Y-49775748D01*
X128051447Y-49775747D01*
X128212730Y-49693568D01*
X128310442Y-49622574D01*
X128310443Y-49622574D01*
X127841539Y-49153670D01*
X127917007Y-49110099D01*
X128010099Y-49017007D01*
X128053670Y-48941539D01*
X128522574Y-49410443D01*
X128522574Y-49410442D01*
X128593568Y-49312730D01*
X128675747Y-49151447D01*
X128675748Y-49151444D01*
X128731682Y-48979293D01*
X128760000Y-48800506D01*
X128760000Y-48619493D01*
X128757947Y-48606530D01*
X129099500Y-48606530D01*
X129099500Y-48813469D01*
X129139868Y-49016412D01*
X129139870Y-49016420D01*
X129219058Y-49207596D01*
X129334024Y-49379657D01*
X129480342Y-49525975D01*
X129480345Y-49525977D01*
X129652402Y-49640941D01*
X129843580Y-49720130D01*
X130046530Y-49760499D01*
X130046534Y-49760500D01*
X130046535Y-49760500D01*
X130253466Y-49760500D01*
X130253467Y-49760499D01*
X130456420Y-49720130D01*
X130647598Y-49640941D01*
X130819655Y-49525977D01*
X130965977Y-49379655D01*
X131080941Y-49207598D01*
X131160130Y-49016420D01*
X131200500Y-48813465D01*
X131200500Y-48606535D01*
X131200499Y-48606530D01*
X131639500Y-48606530D01*
X131639500Y-48813469D01*
X131679868Y-49016412D01*
X131679870Y-49016420D01*
X131759058Y-49207596D01*
X131874024Y-49379657D01*
X132020342Y-49525975D01*
X132020345Y-49525977D01*
X132192402Y-49640941D01*
X132383580Y-49720130D01*
X132586530Y-49760499D01*
X132586534Y-49760500D01*
X132586535Y-49760500D01*
X132793466Y-49760500D01*
X132793467Y-49760499D01*
X132996420Y-49720130D01*
X133187598Y-49640941D01*
X133359655Y-49525977D01*
X133505977Y-49379655D01*
X133620941Y-49207598D01*
X133700130Y-49016420D01*
X133740500Y-48813465D01*
X133740500Y-48606535D01*
X133740499Y-48606530D01*
X134179500Y-48606530D01*
X134179500Y-48813469D01*
X134219868Y-49016412D01*
X134219870Y-49016420D01*
X134299058Y-49207596D01*
X134414024Y-49379657D01*
X134560342Y-49525975D01*
X134560345Y-49525977D01*
X134732402Y-49640941D01*
X134923580Y-49720130D01*
X135126530Y-49760499D01*
X135126534Y-49760500D01*
X135126535Y-49760500D01*
X135333466Y-49760500D01*
X135333467Y-49760499D01*
X135536420Y-49720130D01*
X135727598Y-49640941D01*
X135899655Y-49525977D01*
X136045977Y-49379655D01*
X136160941Y-49207598D01*
X136240130Y-49016420D01*
X136280500Y-48813465D01*
X136280500Y-48606535D01*
X136280499Y-48606530D01*
X136719500Y-48606530D01*
X136719500Y-48813469D01*
X136759868Y-49016412D01*
X136759870Y-49016420D01*
X136839058Y-49207596D01*
X136954024Y-49379657D01*
X137100342Y-49525975D01*
X137100345Y-49525977D01*
X137272402Y-49640941D01*
X137463580Y-49720130D01*
X137666530Y-49760499D01*
X137666534Y-49760500D01*
X137666535Y-49760500D01*
X137873466Y-49760500D01*
X137873467Y-49760499D01*
X138076420Y-49720130D01*
X138267598Y-49640941D01*
X138439655Y-49525977D01*
X138439658Y-49525974D01*
X138477999Y-49487634D01*
X138585974Y-49379658D01*
X138585975Y-49379657D01*
X138585977Y-49379655D01*
X138700941Y-49207598D01*
X138780130Y-49016420D01*
X138820500Y-48813465D01*
X138820500Y-48619493D01*
X139160000Y-48619493D01*
X139160000Y-48800506D01*
X139188317Y-48979293D01*
X139244251Y-49151444D01*
X139244252Y-49151447D01*
X139326432Y-49312731D01*
X139397424Y-49410442D01*
X139397425Y-49410443D01*
X139866329Y-48941538D01*
X139909901Y-49017007D01*
X140002993Y-49110099D01*
X140078460Y-49153670D01*
X139609555Y-49622574D01*
X139707268Y-49693567D01*
X139868552Y-49775747D01*
X139868555Y-49775748D01*
X140040706Y-49831682D01*
X140219494Y-49860000D01*
X140400506Y-49860000D01*
X140579293Y-49831682D01*
X140751444Y-49775748D01*
X140751447Y-49775747D01*
X140912730Y-49693568D01*
X141010442Y-49622574D01*
X141010443Y-49622574D01*
X140541539Y-49153670D01*
X140617007Y-49110099D01*
X140710099Y-49017007D01*
X140753670Y-48941539D01*
X141222574Y-49410443D01*
X141222574Y-49410442D01*
X141293568Y-49312730D01*
X141375747Y-49151447D01*
X141375748Y-49151444D01*
X141431682Y-48979293D01*
X141460000Y-48800506D01*
X141460000Y-48619493D01*
X141457947Y-48606530D01*
X141799500Y-48606530D01*
X141799500Y-48813469D01*
X141839868Y-49016412D01*
X141839870Y-49016420D01*
X141919058Y-49207596D01*
X142034024Y-49379657D01*
X142180342Y-49525975D01*
X142180345Y-49525977D01*
X142352402Y-49640941D01*
X142543580Y-49720130D01*
X142746530Y-49760499D01*
X142746534Y-49760500D01*
X142746535Y-49760500D01*
X142953466Y-49760500D01*
X142953467Y-49760499D01*
X143156420Y-49720130D01*
X143347598Y-49640941D01*
X143519655Y-49525977D01*
X143519658Y-49525974D01*
X143557999Y-49487634D01*
X143665974Y-49379658D01*
X143665975Y-49379657D01*
X143665977Y-49379655D01*
X143780941Y-49207598D01*
X143860130Y-49016420D01*
X143900500Y-48813465D01*
X143900500Y-48619493D01*
X144240000Y-48619493D01*
X144240000Y-48800506D01*
X144268317Y-48979293D01*
X144324251Y-49151444D01*
X144324252Y-49151447D01*
X144406432Y-49312731D01*
X144477424Y-49410442D01*
X144477425Y-49410443D01*
X144946329Y-48941538D01*
X144989901Y-49017007D01*
X145082993Y-49110099D01*
X145158460Y-49153670D01*
X144689555Y-49622574D01*
X144787268Y-49693567D01*
X144948552Y-49775747D01*
X144948555Y-49775748D01*
X145120706Y-49831682D01*
X145299494Y-49860000D01*
X145480506Y-49860000D01*
X145659293Y-49831682D01*
X145831444Y-49775748D01*
X145831447Y-49775747D01*
X145992730Y-49693568D01*
X146090442Y-49622574D01*
X146090443Y-49622574D01*
X145621539Y-49153670D01*
X145697007Y-49110099D01*
X145790099Y-49017007D01*
X145833670Y-48941539D01*
X146302574Y-49410443D01*
X146302574Y-49410442D01*
X146373568Y-49312730D01*
X146455747Y-49151447D01*
X146455748Y-49151444D01*
X146511682Y-48979293D01*
X146540000Y-48800506D01*
X146540000Y-48619493D01*
X146537947Y-48606530D01*
X146879500Y-48606530D01*
X146879500Y-48813469D01*
X146919868Y-49016412D01*
X146919870Y-49016420D01*
X146999058Y-49207596D01*
X147114024Y-49379657D01*
X147260342Y-49525975D01*
X147260345Y-49525977D01*
X147432402Y-49640941D01*
X147623580Y-49720130D01*
X147826530Y-49760499D01*
X147826534Y-49760500D01*
X147826535Y-49760500D01*
X148033466Y-49760500D01*
X148033467Y-49760499D01*
X148236420Y-49720130D01*
X148427598Y-49640941D01*
X148599655Y-49525977D01*
X148745977Y-49379655D01*
X148860941Y-49207598D01*
X148940130Y-49016420D01*
X148980500Y-48813465D01*
X148980500Y-48606535D01*
X148980499Y-48606530D01*
X149419500Y-48606530D01*
X149419500Y-48813469D01*
X149459868Y-49016412D01*
X149459870Y-49016420D01*
X149539058Y-49207596D01*
X149654024Y-49379657D01*
X149800342Y-49525975D01*
X149800345Y-49525977D01*
X149972402Y-49640941D01*
X150163580Y-49720130D01*
X150366530Y-49760499D01*
X150366534Y-49760500D01*
X150366535Y-49760500D01*
X150573466Y-49760500D01*
X150573467Y-49760499D01*
X150776420Y-49720130D01*
X150967598Y-49640941D01*
X151139655Y-49525977D01*
X151285977Y-49379655D01*
X151400941Y-49207598D01*
X151480130Y-49016420D01*
X151520500Y-48813465D01*
X151520500Y-48606535D01*
X151520499Y-48606530D01*
X151959500Y-48606530D01*
X151959500Y-48813469D01*
X151999868Y-49016412D01*
X151999870Y-49016420D01*
X152079058Y-49207596D01*
X152194024Y-49379657D01*
X152340342Y-49525975D01*
X152340345Y-49525977D01*
X152512402Y-49640941D01*
X152703580Y-49720130D01*
X152906530Y-49760499D01*
X152906534Y-49760500D01*
X152906535Y-49760500D01*
X153113466Y-49760500D01*
X153113467Y-49760499D01*
X153316420Y-49720130D01*
X153507598Y-49640941D01*
X153679655Y-49525977D01*
X153825977Y-49379655D01*
X153940941Y-49207598D01*
X154020130Y-49016420D01*
X154060500Y-48813465D01*
X154060500Y-48606535D01*
X154020130Y-48403580D01*
X153940941Y-48212402D01*
X153825977Y-48040345D01*
X153825975Y-48040342D01*
X153679657Y-47894024D01*
X153535082Y-47797423D01*
X153507598Y-47779059D01*
X153316420Y-47699870D01*
X153316412Y-47699868D01*
X153113469Y-47659500D01*
X153113465Y-47659500D01*
X152906535Y-47659500D01*
X152906530Y-47659500D01*
X152703587Y-47699868D01*
X152703579Y-47699870D01*
X152512403Y-47779058D01*
X152340342Y-47894024D01*
X152194024Y-48040342D01*
X152079058Y-48212403D01*
X151999870Y-48403579D01*
X151999868Y-48403587D01*
X151959500Y-48606530D01*
X151520499Y-48606530D01*
X151480130Y-48403580D01*
X151400941Y-48212402D01*
X151285977Y-48040345D01*
X151285975Y-48040342D01*
X151139657Y-47894024D01*
X150995082Y-47797423D01*
X150967598Y-47779059D01*
X150776420Y-47699870D01*
X150776412Y-47699868D01*
X150573469Y-47659500D01*
X150573465Y-47659500D01*
X150366535Y-47659500D01*
X150366530Y-47659500D01*
X150163587Y-47699868D01*
X150163579Y-47699870D01*
X149972403Y-47779058D01*
X149800342Y-47894024D01*
X149654024Y-48040342D01*
X149539058Y-48212403D01*
X149459870Y-48403579D01*
X149459868Y-48403587D01*
X149419500Y-48606530D01*
X148980499Y-48606530D01*
X148940130Y-48403580D01*
X148860941Y-48212402D01*
X148745977Y-48040345D01*
X148745975Y-48040342D01*
X148599657Y-47894024D01*
X148455082Y-47797423D01*
X148427598Y-47779059D01*
X148236420Y-47699870D01*
X148236412Y-47699868D01*
X148033469Y-47659500D01*
X148033465Y-47659500D01*
X147826535Y-47659500D01*
X147826530Y-47659500D01*
X147623587Y-47699868D01*
X147623579Y-47699870D01*
X147432403Y-47779058D01*
X147260342Y-47894024D01*
X147114024Y-48040342D01*
X146999058Y-48212403D01*
X146919870Y-48403579D01*
X146919868Y-48403587D01*
X146879500Y-48606530D01*
X146537947Y-48606530D01*
X146511682Y-48440706D01*
X146455748Y-48268555D01*
X146455747Y-48268552D01*
X146373567Y-48107268D01*
X146302574Y-48009556D01*
X146302574Y-48009555D01*
X145833670Y-48478460D01*
X145790099Y-48402993D01*
X145697007Y-48309901D01*
X145621539Y-48266329D01*
X146090443Y-47797425D01*
X146090442Y-47797424D01*
X145992731Y-47726432D01*
X145831447Y-47644252D01*
X145831444Y-47644251D01*
X145659293Y-47588317D01*
X145480506Y-47560000D01*
X145299494Y-47560000D01*
X145120706Y-47588317D01*
X144948555Y-47644251D01*
X144948552Y-47644252D01*
X144787265Y-47726434D01*
X144689556Y-47797423D01*
X144689556Y-47797425D01*
X145158461Y-48266329D01*
X145082993Y-48309901D01*
X144989901Y-48402993D01*
X144946329Y-48478460D01*
X144477425Y-48009556D01*
X144477423Y-48009556D01*
X144406434Y-48107265D01*
X144324252Y-48268552D01*
X144324251Y-48268555D01*
X144268317Y-48440706D01*
X144240000Y-48619493D01*
X143900500Y-48619493D01*
X143900500Y-48606535D01*
X143860130Y-48403580D01*
X143780941Y-48212402D01*
X143665977Y-48040345D01*
X143665975Y-48040342D01*
X143519657Y-47894024D01*
X143375082Y-47797423D01*
X143347598Y-47779059D01*
X143156420Y-47699870D01*
X143156412Y-47699868D01*
X142953469Y-47659500D01*
X142953465Y-47659500D01*
X142746535Y-47659500D01*
X142746530Y-47659500D01*
X142543587Y-47699868D01*
X142543579Y-47699870D01*
X142352403Y-47779058D01*
X142180342Y-47894024D01*
X142034024Y-48040342D01*
X141919058Y-48212403D01*
X141839870Y-48403579D01*
X141839868Y-48403587D01*
X141799500Y-48606530D01*
X141457947Y-48606530D01*
X141431682Y-48440706D01*
X141375748Y-48268555D01*
X141375747Y-48268552D01*
X141293567Y-48107268D01*
X141222574Y-48009556D01*
X141222574Y-48009555D01*
X140753670Y-48478460D01*
X140710099Y-48402993D01*
X140617007Y-48309901D01*
X140541539Y-48266329D01*
X141010443Y-47797425D01*
X141010442Y-47797424D01*
X140912731Y-47726432D01*
X140751447Y-47644252D01*
X140751444Y-47644251D01*
X140579293Y-47588317D01*
X140400506Y-47560000D01*
X140219494Y-47560000D01*
X140040706Y-47588317D01*
X139868555Y-47644251D01*
X139868552Y-47644252D01*
X139707265Y-47726434D01*
X139609556Y-47797423D01*
X139609556Y-47797425D01*
X140078461Y-48266329D01*
X140002993Y-48309901D01*
X139909901Y-48402993D01*
X139866329Y-48478460D01*
X139397425Y-48009556D01*
X139397423Y-48009556D01*
X139326434Y-48107265D01*
X139244252Y-48268552D01*
X139244251Y-48268555D01*
X139188317Y-48440706D01*
X139160000Y-48619493D01*
X138820500Y-48619493D01*
X138820500Y-48606535D01*
X138780130Y-48403580D01*
X138700941Y-48212402D01*
X138585977Y-48040345D01*
X138585975Y-48040342D01*
X138439657Y-47894024D01*
X138295082Y-47797423D01*
X138267598Y-47779059D01*
X138076420Y-47699870D01*
X138076412Y-47699868D01*
X137873469Y-47659500D01*
X137873465Y-47659500D01*
X137666535Y-47659500D01*
X137666530Y-47659500D01*
X137463587Y-47699868D01*
X137463579Y-47699870D01*
X137272403Y-47779058D01*
X137100342Y-47894024D01*
X136954024Y-48040342D01*
X136839058Y-48212403D01*
X136759870Y-48403579D01*
X136759868Y-48403587D01*
X136719500Y-48606530D01*
X136280499Y-48606530D01*
X136240130Y-48403580D01*
X136160941Y-48212402D01*
X136045977Y-48040345D01*
X136045975Y-48040342D01*
X135899657Y-47894024D01*
X135755082Y-47797423D01*
X135727598Y-47779059D01*
X135536420Y-47699870D01*
X135536412Y-47699868D01*
X135333469Y-47659500D01*
X135333465Y-47659500D01*
X135126535Y-47659500D01*
X135126530Y-47659500D01*
X134923587Y-47699868D01*
X134923579Y-47699870D01*
X134732403Y-47779058D01*
X134560342Y-47894024D01*
X134414024Y-48040342D01*
X134299058Y-48212403D01*
X134219870Y-48403579D01*
X134219868Y-48403587D01*
X134179500Y-48606530D01*
X133740499Y-48606530D01*
X133700130Y-48403580D01*
X133620941Y-48212402D01*
X133505977Y-48040345D01*
X133505975Y-48040342D01*
X133359657Y-47894024D01*
X133215082Y-47797423D01*
X133187598Y-47779059D01*
X132996420Y-47699870D01*
X132996412Y-47699868D01*
X132793469Y-47659500D01*
X132793465Y-47659500D01*
X132586535Y-47659500D01*
X132586530Y-47659500D01*
X132383587Y-47699868D01*
X132383579Y-47699870D01*
X132192403Y-47779058D01*
X132020342Y-47894024D01*
X131874024Y-48040342D01*
X131759058Y-48212403D01*
X131679870Y-48403579D01*
X131679868Y-48403587D01*
X131639500Y-48606530D01*
X131200499Y-48606530D01*
X131160130Y-48403580D01*
X131080941Y-48212402D01*
X130965977Y-48040345D01*
X130965975Y-48040342D01*
X130819657Y-47894024D01*
X130675082Y-47797423D01*
X130647598Y-47779059D01*
X130456420Y-47699870D01*
X130456412Y-47699868D01*
X130253469Y-47659500D01*
X130253465Y-47659500D01*
X130046535Y-47659500D01*
X130046530Y-47659500D01*
X129843587Y-47699868D01*
X129843579Y-47699870D01*
X129652403Y-47779058D01*
X129480342Y-47894024D01*
X129334024Y-48040342D01*
X129219058Y-48212403D01*
X129139870Y-48403579D01*
X129139868Y-48403587D01*
X129099500Y-48606530D01*
X128757947Y-48606530D01*
X128731682Y-48440706D01*
X128675748Y-48268555D01*
X128675747Y-48268552D01*
X128593567Y-48107268D01*
X128522574Y-48009556D01*
X128522574Y-48009555D01*
X128053670Y-48478460D01*
X128010099Y-48402993D01*
X127917007Y-48309901D01*
X127841539Y-48266329D01*
X128310443Y-47797425D01*
X128310442Y-47797424D01*
X128212731Y-47726432D01*
X128051447Y-47644252D01*
X128051444Y-47644251D01*
X127879293Y-47588317D01*
X127700506Y-47560000D01*
X127519494Y-47560000D01*
X127340706Y-47588317D01*
X127168555Y-47644251D01*
X127168552Y-47644252D01*
X127007265Y-47726434D01*
X126909556Y-47797423D01*
X126909556Y-47797425D01*
X127378461Y-48266329D01*
X127302993Y-48309901D01*
X127209901Y-48402993D01*
X127166329Y-48478460D01*
X126697425Y-48009556D01*
X126697423Y-48009556D01*
X126626434Y-48107265D01*
X126544252Y-48268552D01*
X126544251Y-48268555D01*
X126488317Y-48440706D01*
X126460000Y-48619493D01*
X126120500Y-48619493D01*
X126120500Y-48606535D01*
X126080130Y-48403580D01*
X126000941Y-48212402D01*
X125885977Y-48040345D01*
X125885975Y-48040342D01*
X125739657Y-47894024D01*
X125595082Y-47797423D01*
X125567598Y-47779059D01*
X125376420Y-47699870D01*
X125376412Y-47699868D01*
X125173469Y-47659500D01*
X125173465Y-47659500D01*
X124966535Y-47659500D01*
X124966530Y-47659500D01*
X124763587Y-47699868D01*
X124763579Y-47699870D01*
X124572403Y-47779058D01*
X124400342Y-47894024D01*
X124254024Y-48040342D01*
X124139058Y-48212403D01*
X124059870Y-48403579D01*
X124059868Y-48403587D01*
X124019500Y-48606530D01*
X123580499Y-48606530D01*
X123540130Y-48403580D01*
X123460941Y-48212402D01*
X123345977Y-48040345D01*
X123345975Y-48040342D01*
X123199657Y-47894024D01*
X123055082Y-47797423D01*
X123027598Y-47779059D01*
X122836420Y-47699870D01*
X122836412Y-47699868D01*
X122633469Y-47659500D01*
X122633465Y-47659500D01*
X122426535Y-47659500D01*
X122426530Y-47659500D01*
X122223587Y-47699868D01*
X122223579Y-47699870D01*
X122032403Y-47779058D01*
X121860342Y-47894024D01*
X121714024Y-48040342D01*
X121599058Y-48212403D01*
X121519870Y-48403579D01*
X121519868Y-48403587D01*
X121479500Y-48606530D01*
X121137947Y-48606530D01*
X121111682Y-48440706D01*
X121055748Y-48268555D01*
X121055747Y-48268552D01*
X120973567Y-48107268D01*
X120902574Y-48009556D01*
X120902574Y-48009555D01*
X120433670Y-48478460D01*
X120390099Y-48402993D01*
X120297007Y-48309901D01*
X120221539Y-48266329D01*
X120690443Y-47797425D01*
X120690442Y-47797424D01*
X120592731Y-47726432D01*
X120431447Y-47644252D01*
X120431444Y-47644251D01*
X120259293Y-47588317D01*
X120080506Y-47560000D01*
X119899494Y-47560000D01*
X119720706Y-47588317D01*
X119548555Y-47644251D01*
X119548552Y-47644252D01*
X119387265Y-47726434D01*
X119289556Y-47797423D01*
X119289556Y-47797425D01*
X119758461Y-48266329D01*
X119682993Y-48309901D01*
X119589901Y-48402993D01*
X119546329Y-48478460D01*
X119077425Y-48009556D01*
X119077423Y-48009556D01*
X119006434Y-48107265D01*
X118924252Y-48268552D01*
X118924251Y-48268555D01*
X118868317Y-48440706D01*
X118840000Y-48619493D01*
X118500500Y-48619493D01*
X118500500Y-48606535D01*
X118460130Y-48403580D01*
X118380941Y-48212402D01*
X118265977Y-48040345D01*
X118265975Y-48040342D01*
X118119657Y-47894024D01*
X117975082Y-47797423D01*
X117947598Y-47779059D01*
X117756420Y-47699870D01*
X117756412Y-47699868D01*
X117553469Y-47659500D01*
X117553465Y-47659500D01*
X117346535Y-47659500D01*
X117346530Y-47659500D01*
X117143587Y-47699868D01*
X117143579Y-47699870D01*
X116952403Y-47779058D01*
X116780342Y-47894024D01*
X116634024Y-48040342D01*
X116519058Y-48212403D01*
X116439870Y-48403579D01*
X116439868Y-48403587D01*
X116399500Y-48606530D01*
X115960499Y-48606530D01*
X115920130Y-48403580D01*
X115840941Y-48212402D01*
X115725977Y-48040345D01*
X115725975Y-48040342D01*
X115579657Y-47894024D01*
X115435082Y-47797423D01*
X115407598Y-47779059D01*
X115216420Y-47699870D01*
X115216412Y-47699868D01*
X115013469Y-47659500D01*
X115013465Y-47659500D01*
X114806535Y-47659500D01*
X114806530Y-47659500D01*
X114603587Y-47699868D01*
X114603579Y-47699870D01*
X114412403Y-47779058D01*
X114240342Y-47894024D01*
X114094024Y-48040342D01*
X113979058Y-48212403D01*
X113899870Y-48403579D01*
X113899868Y-48403587D01*
X113859500Y-48606530D01*
X113420499Y-48606530D01*
X113380130Y-48403580D01*
X113300941Y-48212402D01*
X113185977Y-48040345D01*
X113185975Y-48040342D01*
X113039657Y-47894024D01*
X112895082Y-47797423D01*
X112867598Y-47779059D01*
X112676420Y-47699870D01*
X112676412Y-47699868D01*
X112473469Y-47659500D01*
X112473465Y-47659500D01*
X112266535Y-47659500D01*
X112266530Y-47659500D01*
X112063587Y-47699868D01*
X112063579Y-47699870D01*
X111872403Y-47779058D01*
X111700342Y-47894024D01*
X111554024Y-48040342D01*
X111439058Y-48212403D01*
X111359870Y-48403579D01*
X111359868Y-48403587D01*
X111319500Y-48606530D01*
X110977947Y-48606530D01*
X110951682Y-48440706D01*
X110895748Y-48268555D01*
X110895747Y-48268552D01*
X110813567Y-48107268D01*
X110742574Y-48009556D01*
X110742574Y-48009555D01*
X110273670Y-48478460D01*
X110230099Y-48402993D01*
X110137007Y-48309901D01*
X110061539Y-48266329D01*
X110530443Y-47797425D01*
X110530442Y-47797424D01*
X110432731Y-47726432D01*
X110271447Y-47644252D01*
X110271444Y-47644251D01*
X110099293Y-47588317D01*
X109920506Y-47560000D01*
X109739494Y-47560000D01*
X109560706Y-47588317D01*
X109388555Y-47644251D01*
X109388552Y-47644252D01*
X109227265Y-47726434D01*
X109129556Y-47797423D01*
X109129556Y-47797425D01*
X109598461Y-48266329D01*
X109522993Y-48309901D01*
X109429901Y-48402993D01*
X109386329Y-48478460D01*
X108917425Y-48009556D01*
X108917423Y-48009556D01*
X108846434Y-48107265D01*
X108764252Y-48268552D01*
X108764251Y-48268555D01*
X108708317Y-48440706D01*
X108680000Y-48619493D01*
X108340500Y-48619493D01*
X108340500Y-48606535D01*
X108300130Y-48403580D01*
X108220941Y-48212402D01*
X108105977Y-48040345D01*
X108105975Y-48040342D01*
X107959657Y-47894024D01*
X107815082Y-47797423D01*
X107787598Y-47779059D01*
X107596420Y-47699870D01*
X107596412Y-47699868D01*
X107393469Y-47659500D01*
X107393465Y-47659500D01*
X107186535Y-47659500D01*
X107186530Y-47659500D01*
X106983587Y-47699868D01*
X106983579Y-47699870D01*
X106792403Y-47779058D01*
X106620342Y-47894024D01*
X106474024Y-48040342D01*
X106359058Y-48212403D01*
X106279870Y-48403579D01*
X106279868Y-48403587D01*
X106239500Y-48606530D01*
X105800499Y-48606530D01*
X105760130Y-48403580D01*
X105680941Y-48212402D01*
X105565977Y-48040345D01*
X105565975Y-48040342D01*
X105419657Y-47894024D01*
X105275082Y-47797423D01*
X105247598Y-47779059D01*
X105056420Y-47699870D01*
X105056412Y-47699868D01*
X104853469Y-47659500D01*
X104853465Y-47659500D01*
X104646535Y-47659500D01*
X104646530Y-47659500D01*
X104443587Y-47699868D01*
X104443579Y-47699870D01*
X104252403Y-47779058D01*
X104080342Y-47894024D01*
X103934024Y-48040342D01*
X103819058Y-48212403D01*
X103739870Y-48403579D01*
X103739868Y-48403587D01*
X103699500Y-48606530D01*
X97124046Y-48606530D01*
X97226214Y-48406014D01*
X97232680Y-48394815D01*
X97408015Y-48124823D01*
X97415630Y-48114342D01*
X97618229Y-47864153D01*
X97626896Y-47854528D01*
X97854528Y-47626896D01*
X97864153Y-47618229D01*
X98114342Y-47415630D01*
X98124823Y-47408015D01*
X98394815Y-47232680D01*
X98406014Y-47226214D01*
X98692868Y-47080054D01*
X98704707Y-47074784D01*
X99005236Y-46959422D01*
X99017564Y-46955416D01*
X99328525Y-46872094D01*
X99341201Y-46869401D01*
X99659141Y-46819043D01*
X99672045Y-46817687D01*
X99996756Y-46800669D01*
X100003246Y-46800500D01*
X100047595Y-46800500D01*
X157952405Y-46800500D01*
X157996754Y-46800500D01*
X158003243Y-46800669D01*
G37*
%TD.AperFunction*%
%TD*%
M02*
