%TF.GenerationSoftware,KiCad,Pcbnew,9.0.7*%
%TF.CreationDate,2026-01-26T16:26:35+01:00*%
%TF.ProjectId,Projet 6 KICAD CLS COMPLET,50726f6a-6574-4203-9620-4b4943414420,rev?*%
%TF.SameCoordinates,Original*%
%TF.FileFunction,Legend,Bot*%
%TF.FilePolarity,Positive*%
%FSLAX46Y46*%
G04 Gerber Fmt 4.6, Leading zero omitted, Abs format (unit mm)*
G04 Created by KiCad (PCBNEW 9.0.7) date 2026-01-26 16:26:35*
%MOMM*%
%LPD*%
G01*
G04 APERTURE LIST*
%ADD10C,0.100000*%
%ADD11C,0.120000*%
G04 APERTURE END LIST*
D10*
G36*
X153288040Y-59836187D02*
G01*
X153290455Y-59836848D01*
X153291267Y-59837660D01*
X153299128Y-59839223D01*
X153306856Y-59841340D01*
X153307944Y-59840977D01*
X153310401Y-59841466D01*
X153536693Y-59841466D01*
X153606466Y-59876352D01*
X153641353Y-59946126D01*
X153641353Y-60017757D01*
X153606466Y-60087532D01*
X153536693Y-60122419D01*
X153322205Y-60122419D01*
X153265163Y-60093898D01*
X153265163Y-59824748D01*
X153288040Y-59836187D01*
G37*
G36*
X151511228Y-57980694D02*
G01*
X151546115Y-58050468D01*
X151546115Y-58168150D01*
X151169925Y-58092912D01*
X151169925Y-58050468D01*
X151204811Y-57980694D01*
X151274586Y-57945808D01*
X151441455Y-57945808D01*
X151511228Y-57980694D01*
G37*
G36*
X151192801Y-56616299D02*
G01*
X151195216Y-56616960D01*
X151196028Y-56617772D01*
X151203889Y-56619335D01*
X151211617Y-56621452D01*
X151212705Y-56621089D01*
X151215162Y-56621578D01*
X151441454Y-56621578D01*
X151511227Y-56656464D01*
X151546114Y-56726238D01*
X151546114Y-56797869D01*
X151511227Y-56867644D01*
X151441454Y-56902531D01*
X151226966Y-56902531D01*
X151169924Y-56874010D01*
X151169924Y-56604860D01*
X151192801Y-56616299D01*
G37*
G36*
X152716611Y-56616299D02*
G01*
X152719026Y-56616960D01*
X152719838Y-56617772D01*
X152727699Y-56619335D01*
X152735427Y-56621452D01*
X152736515Y-56621089D01*
X152738972Y-56621578D01*
X152965264Y-56621578D01*
X153035037Y-56656464D01*
X153069924Y-56726238D01*
X153069924Y-56797869D01*
X153035037Y-56867644D01*
X152965264Y-56902531D01*
X152750776Y-56902531D01*
X152693734Y-56874010D01*
X152693734Y-56604860D01*
X152716611Y-56616299D01*
G37*
G36*
X154804845Y-60333530D02*
G01*
X150486430Y-60333530D01*
X150486430Y-59486618D01*
X150597541Y-59486618D01*
X150597541Y-59524886D01*
X150624601Y-59551946D01*
X150643735Y-59555752D01*
X150727170Y-59555752D01*
X150804593Y-59594463D01*
X150840737Y-59630608D01*
X150879449Y-59708031D01*
X150879449Y-60172419D01*
X150883255Y-60191553D01*
X150910315Y-60218613D01*
X150948583Y-60218613D01*
X150975643Y-60191553D01*
X150979449Y-60172419D01*
X150979449Y-59505752D01*
X151355639Y-59505752D01*
X151355639Y-60172419D01*
X151359445Y-60191553D01*
X151386505Y-60218613D01*
X151424773Y-60218613D01*
X151451833Y-60191553D01*
X151455639Y-60172419D01*
X151455639Y-59648609D01*
X151831829Y-59648609D01*
X151831829Y-60172419D01*
X151835635Y-60191553D01*
X151862695Y-60218613D01*
X151900963Y-60218613D01*
X151928023Y-60191553D01*
X151931829Y-60172419D01*
X151931829Y-59660412D01*
X151966715Y-59590638D01*
X152036491Y-59555752D01*
X152155741Y-59555752D01*
X152225514Y-59590638D01*
X152260401Y-59660412D01*
X152260401Y-60172419D01*
X152264207Y-60191553D01*
X152291267Y-60218613D01*
X152329535Y-60218613D01*
X152356595Y-60191553D01*
X152360401Y-60172419D01*
X152360401Y-59660412D01*
X152395287Y-59590638D01*
X152465062Y-59555752D01*
X152584312Y-59555752D01*
X152661735Y-59594463D01*
X152688972Y-59621700D01*
X152688972Y-60172419D01*
X152692778Y-60191553D01*
X152719838Y-60218613D01*
X152758106Y-60218613D01*
X152785166Y-60191553D01*
X152788972Y-60172419D01*
X152788972Y-59648609D01*
X153165163Y-59648609D01*
X153165163Y-60172419D01*
X153168969Y-60191553D01*
X153196029Y-60218613D01*
X153234297Y-60218613D01*
X153253193Y-60199716D01*
X153288040Y-60217140D01*
X153290455Y-60217801D01*
X153291267Y-60218613D01*
X153299128Y-60220176D01*
X153306856Y-60222293D01*
X153307944Y-60221930D01*
X153310401Y-60222419D01*
X153548496Y-60222419D01*
X153550952Y-60221930D01*
X153552041Y-60222293D01*
X153559768Y-60220176D01*
X153567630Y-60218613D01*
X153568441Y-60217801D01*
X153570857Y-60217140D01*
X153666094Y-60169522D01*
X153673960Y-60163416D01*
X153676494Y-60162572D01*
X153678683Y-60159750D01*
X153681506Y-60157560D01*
X153682351Y-60155025D01*
X153688455Y-60147160D01*
X153736074Y-60051922D01*
X153736735Y-60049506D01*
X153737547Y-60048695D01*
X153739110Y-60040833D01*
X153741227Y-60033106D01*
X153740864Y-60032017D01*
X153741353Y-60029561D01*
X153741353Y-59934323D01*
X153740864Y-59931866D01*
X153741227Y-59930778D01*
X153739110Y-59923050D01*
X153737547Y-59915189D01*
X153736735Y-59914377D01*
X153736074Y-59911962D01*
X153723445Y-59886704D01*
X154022306Y-59886704D01*
X154022306Y-59981942D01*
X154022794Y-59984398D01*
X154022432Y-59985487D01*
X154024548Y-59993214D01*
X154026112Y-60001076D01*
X154026923Y-60001887D01*
X154027585Y-60004303D01*
X154075203Y-60099540D01*
X154080114Y-60105868D01*
X154084569Y-60112535D01*
X154132188Y-60160155D01*
X154138854Y-60164609D01*
X154145183Y-60169521D01*
X154240421Y-60217140D01*
X154242836Y-60217801D01*
X154243648Y-60218613D01*
X154251509Y-60220176D01*
X154259237Y-60222293D01*
X154260325Y-60221930D01*
X154262782Y-60222419D01*
X154500877Y-60222419D01*
X154508739Y-60220855D01*
X154516688Y-60219853D01*
X154659545Y-60172234D01*
X154676493Y-60162573D01*
X154693608Y-60128344D01*
X154681506Y-60092040D01*
X154647278Y-60074926D01*
X154627922Y-60077366D01*
X154492764Y-60122419D01*
X154274586Y-60122419D01*
X154197163Y-60083708D01*
X154161017Y-60047561D01*
X154122306Y-59970139D01*
X154122306Y-59898507D01*
X154161017Y-59821083D01*
X154197162Y-59784939D01*
X154280234Y-59743403D01*
X154465385Y-59697116D01*
X154470337Y-59694776D01*
X154475619Y-59693330D01*
X154570856Y-59645712D01*
X154577189Y-59640796D01*
X154583851Y-59636345D01*
X154631470Y-59588727D01*
X154635924Y-59582060D01*
X154640836Y-59575732D01*
X154688455Y-59480494D01*
X154689116Y-59478078D01*
X154689928Y-59477267D01*
X154691491Y-59469405D01*
X154693608Y-59461678D01*
X154693245Y-59460589D01*
X154693734Y-59458133D01*
X154693734Y-59362895D01*
X154693245Y-59360438D01*
X154693608Y-59359350D01*
X154691491Y-59351622D01*
X154689928Y-59343761D01*
X154689116Y-59342949D01*
X154688455Y-59340534D01*
X154640836Y-59245296D01*
X154635924Y-59238967D01*
X154631470Y-59232301D01*
X154583851Y-59184683D01*
X154577189Y-59180231D01*
X154570856Y-59175316D01*
X154475619Y-59127698D01*
X154473203Y-59127036D01*
X154472392Y-59126225D01*
X154464530Y-59124661D01*
X154456803Y-59122545D01*
X154455714Y-59122907D01*
X154453258Y-59122419D01*
X154215163Y-59122419D01*
X154207301Y-59123982D01*
X154199351Y-59124985D01*
X154056495Y-59172604D01*
X154039546Y-59182265D01*
X154022432Y-59216494D01*
X154034533Y-59252798D01*
X154068762Y-59269912D01*
X154088117Y-59267472D01*
X154223276Y-59222419D01*
X154441455Y-59222419D01*
X154518878Y-59261130D01*
X154555022Y-59297275D01*
X154593734Y-59374698D01*
X154593734Y-59446329D01*
X154555022Y-59523752D01*
X154518878Y-59559897D01*
X154435807Y-59601433D01*
X154250655Y-59647721D01*
X154245702Y-59650060D01*
X154240421Y-59651507D01*
X154145183Y-59699126D01*
X154138854Y-59704037D01*
X154132188Y-59708492D01*
X154084570Y-59756111D01*
X154080118Y-59762772D01*
X154075203Y-59769106D01*
X154027585Y-59864343D01*
X154026923Y-59866758D01*
X154026112Y-59867570D01*
X154024548Y-59875431D01*
X154022432Y-59883159D01*
X154022794Y-59884247D01*
X154022306Y-59886704D01*
X153723445Y-59886704D01*
X153688455Y-59816724D01*
X153682350Y-59808858D01*
X153681506Y-59806325D01*
X153678685Y-59804135D01*
X153676494Y-59801312D01*
X153673958Y-59800466D01*
X153666094Y-59794363D01*
X153570857Y-59746745D01*
X153568441Y-59746083D01*
X153567630Y-59745272D01*
X153559768Y-59743708D01*
X153552041Y-59741592D01*
X153550952Y-59741954D01*
X153548496Y-59741466D01*
X153322205Y-59741466D01*
X153265163Y-59712945D01*
X153265163Y-59660412D01*
X153300049Y-59590638D01*
X153369824Y-59555752D01*
X153536693Y-59555752D01*
X153621373Y-59598092D01*
X153640189Y-59603245D01*
X153676494Y-59591143D01*
X153693608Y-59556915D01*
X153681506Y-59520611D01*
X153666094Y-59508649D01*
X153570857Y-59461031D01*
X153568441Y-59460369D01*
X153567630Y-59459558D01*
X153559768Y-59457994D01*
X153552041Y-59455878D01*
X153550952Y-59456240D01*
X153548496Y-59455752D01*
X153358020Y-59455752D01*
X153355563Y-59456240D01*
X153354475Y-59455878D01*
X153346747Y-59457994D01*
X153338886Y-59459558D01*
X153338074Y-59460369D01*
X153335659Y-59461031D01*
X153240421Y-59508650D01*
X153232555Y-59514754D01*
X153230022Y-59515599D01*
X153227832Y-59518419D01*
X153225009Y-59520611D01*
X153224163Y-59523146D01*
X153218060Y-59531011D01*
X153170442Y-59626248D01*
X153169780Y-59628663D01*
X153168969Y-59629475D01*
X153167405Y-59637336D01*
X153165289Y-59645064D01*
X153165651Y-59646152D01*
X153165163Y-59648609D01*
X152788972Y-59648609D01*
X152788972Y-59505752D01*
X152785166Y-59486618D01*
X152758106Y-59459558D01*
X152719838Y-59459558D01*
X152692778Y-59486618D01*
X152690685Y-59497135D01*
X152618476Y-59461031D01*
X152616060Y-59460369D01*
X152615249Y-59459558D01*
X152607387Y-59457994D01*
X152599660Y-59455878D01*
X152598571Y-59456240D01*
X152596115Y-59455752D01*
X152453258Y-59455752D01*
X152450801Y-59456240D01*
X152449713Y-59455878D01*
X152441985Y-59457994D01*
X152434124Y-59459558D01*
X152433312Y-59460369D01*
X152430897Y-59461031D01*
X152335659Y-59508650D01*
X152327793Y-59514754D01*
X152325260Y-59515599D01*
X152323070Y-59518419D01*
X152320247Y-59520611D01*
X152319401Y-59523146D01*
X152313298Y-59531011D01*
X152310400Y-59536805D01*
X152307503Y-59531010D01*
X152301398Y-59523144D01*
X152300554Y-59520611D01*
X152297733Y-59518421D01*
X152295542Y-59515598D01*
X152293006Y-59514752D01*
X152285142Y-59508649D01*
X152189905Y-59461031D01*
X152187489Y-59460369D01*
X152186678Y-59459558D01*
X152178816Y-59457994D01*
X152171089Y-59455878D01*
X152170000Y-59456240D01*
X152167544Y-59455752D01*
X152024687Y-59455752D01*
X152022230Y-59456240D01*
X152021142Y-59455878D01*
X152013414Y-59457994D01*
X152005553Y-59459558D01*
X152004741Y-59460369D01*
X152002326Y-59461031D01*
X151907088Y-59508650D01*
X151899222Y-59514753D01*
X151896688Y-59515599D01*
X151894497Y-59518421D01*
X151891676Y-59520611D01*
X151890831Y-59523144D01*
X151884726Y-59531011D01*
X151837108Y-59626248D01*
X151836446Y-59628663D01*
X151835635Y-59629475D01*
X151834071Y-59637336D01*
X151831955Y-59645064D01*
X151832317Y-59646152D01*
X151831829Y-59648609D01*
X151455639Y-59648609D01*
X151455639Y-59505752D01*
X151451833Y-59486618D01*
X151424773Y-59459558D01*
X151386505Y-59459558D01*
X151359445Y-59486618D01*
X151355639Y-59505752D01*
X150979449Y-59505752D01*
X150975643Y-59486618D01*
X150948583Y-59459558D01*
X150910315Y-59459558D01*
X150883255Y-59486618D01*
X150879449Y-59505752D01*
X150879449Y-59527898D01*
X150869566Y-59518016D01*
X150862904Y-59513564D01*
X150856571Y-59508649D01*
X150761334Y-59461031D01*
X150758918Y-59460369D01*
X150758107Y-59459558D01*
X150750245Y-59457994D01*
X150742518Y-59455878D01*
X150741429Y-59456240D01*
X150738973Y-59455752D01*
X150643735Y-59455752D01*
X150624601Y-59459558D01*
X150597541Y-59486618D01*
X150486430Y-59486618D01*
X150486430Y-59200904D01*
X151311826Y-59200904D01*
X151311826Y-59239172D01*
X151322665Y-59255393D01*
X151370283Y-59303012D01*
X151386504Y-59313851D01*
X151386505Y-59313851D01*
X151424773Y-59313851D01*
X151440994Y-59303012D01*
X151488613Y-59255394D01*
X151499452Y-59239173D01*
X151499452Y-59200904D01*
X151499452Y-59200903D01*
X151488613Y-59184682D01*
X151440994Y-59137064D01*
X151424773Y-59126225D01*
X151386504Y-59126225D01*
X151370283Y-59137064D01*
X151322665Y-59184683D01*
X151311827Y-59200903D01*
X151311826Y-59200904D01*
X150486430Y-59200904D01*
X150486430Y-58038665D01*
X151069925Y-58038665D01*
X151069925Y-58133903D01*
X151071366Y-58141151D01*
X151070876Y-58143606D01*
X151072271Y-58145699D01*
X151073731Y-58153037D01*
X151084027Y-58163333D01*
X151092103Y-58175447D01*
X151099011Y-58178317D01*
X151100791Y-58180097D01*
X151103295Y-58180097D01*
X151110119Y-58182932D01*
X151546115Y-58270131D01*
X151546115Y-58407813D01*
X151511228Y-58477588D01*
X151441455Y-58512475D01*
X151274586Y-58512475D01*
X151189905Y-58470135D01*
X151171089Y-58464982D01*
X151134784Y-58477083D01*
X151117670Y-58511311D01*
X151129771Y-58547616D01*
X151145183Y-58559577D01*
X151240421Y-58607196D01*
X151242836Y-58607857D01*
X151243648Y-58608669D01*
X151251509Y-58610232D01*
X151259237Y-58612349D01*
X151260325Y-58611986D01*
X151262782Y-58612475D01*
X151453258Y-58612475D01*
X151455714Y-58611986D01*
X151456803Y-58612349D01*
X151464530Y-58610232D01*
X151472392Y-58608669D01*
X151473203Y-58607857D01*
X151475619Y-58607196D01*
X151570856Y-58559578D01*
X151578722Y-58553472D01*
X151581256Y-58552628D01*
X151583445Y-58549806D01*
X151586268Y-58547616D01*
X151587113Y-58545081D01*
X151593217Y-58537216D01*
X151640836Y-58441978D01*
X151641497Y-58439562D01*
X151642309Y-58438751D01*
X151643872Y-58430889D01*
X151645989Y-58423162D01*
X151645626Y-58422073D01*
X151646115Y-58419617D01*
X151646115Y-58038665D01*
X151645626Y-58036208D01*
X151645989Y-58035120D01*
X151643872Y-58027392D01*
X151642309Y-58019531D01*
X151641497Y-58018719D01*
X151640836Y-58016304D01*
X151593217Y-57921066D01*
X151587112Y-57913200D01*
X151586268Y-57910667D01*
X151583447Y-57908477D01*
X151581256Y-57905654D01*
X151578720Y-57904808D01*
X151570856Y-57898705D01*
X151565062Y-57895808D01*
X151974686Y-57895808D01*
X151974686Y-58562475D01*
X151978492Y-58581609D01*
X152005552Y-58608669D01*
X152043820Y-58608669D01*
X152070880Y-58581609D01*
X152074686Y-58562475D01*
X152074686Y-57946972D01*
X152403384Y-57946972D01*
X152420498Y-57981200D01*
X152456803Y-57993301D01*
X152475619Y-57988148D01*
X152560300Y-57945808D01*
X152727169Y-57945808D01*
X152804592Y-57984519D01*
X152840736Y-58020664D01*
X152879448Y-58098087D01*
X152879448Y-58360194D01*
X152840736Y-58437617D01*
X152804590Y-58473764D01*
X152727169Y-58512475D01*
X152560300Y-58512475D01*
X152475619Y-58470135D01*
X152456803Y-58464982D01*
X152420498Y-58477083D01*
X152403384Y-58511311D01*
X152415485Y-58547616D01*
X152430897Y-58559577D01*
X152526135Y-58607196D01*
X152528550Y-58607857D01*
X152529362Y-58608669D01*
X152537223Y-58610232D01*
X152544951Y-58612349D01*
X152546039Y-58611986D01*
X152548496Y-58612475D01*
X152738972Y-58612475D01*
X152741428Y-58611986D01*
X152742517Y-58612349D01*
X152750244Y-58610232D01*
X152758106Y-58608669D01*
X152758917Y-58607857D01*
X152761333Y-58607196D01*
X152856570Y-58559578D01*
X152862897Y-58554667D01*
X152869566Y-58550211D01*
X152917185Y-58502591D01*
X152921638Y-58495925D01*
X152926550Y-58489597D01*
X152974169Y-58394359D01*
X152974830Y-58391943D01*
X152975642Y-58391132D01*
X152977205Y-58383270D01*
X152979322Y-58375543D01*
X152978959Y-58374454D01*
X152979448Y-58371998D01*
X152979448Y-58086284D01*
X152978959Y-58083827D01*
X152979322Y-58082739D01*
X152977205Y-58075011D01*
X152975642Y-58067150D01*
X152974830Y-58066338D01*
X152974169Y-58063923D01*
X152926550Y-57968685D01*
X152921638Y-57962356D01*
X152917184Y-57955690D01*
X152869565Y-57908072D01*
X152862903Y-57903620D01*
X152856570Y-57898705D01*
X152850776Y-57895808D01*
X153308020Y-57895808D01*
X153308020Y-58562475D01*
X153311826Y-58581609D01*
X153338886Y-58608669D01*
X153377154Y-58608669D01*
X153404214Y-58581609D01*
X153406306Y-58571091D01*
X153478516Y-58607196D01*
X153480931Y-58607857D01*
X153481743Y-58608669D01*
X153489604Y-58610232D01*
X153497332Y-58612349D01*
X153498420Y-58611986D01*
X153500877Y-58612475D01*
X153643734Y-58612475D01*
X153646190Y-58611986D01*
X153647279Y-58612349D01*
X153655006Y-58610232D01*
X153662868Y-58608669D01*
X153663679Y-58607857D01*
X153666095Y-58607196D01*
X153761332Y-58559578D01*
X153769198Y-58553472D01*
X153771732Y-58552628D01*
X153773921Y-58549806D01*
X153776744Y-58547616D01*
X153777589Y-58545081D01*
X153778939Y-58543341D01*
X154073731Y-58543341D01*
X154073731Y-58581609D01*
X154100791Y-58608669D01*
X154119925Y-58612475D01*
X154596115Y-58612475D01*
X154615249Y-58608669D01*
X154642309Y-58581609D01*
X154646115Y-58562475D01*
X154646115Y-57562475D01*
X154642309Y-57543341D01*
X154615249Y-57516281D01*
X154576981Y-57516281D01*
X154549921Y-57543341D01*
X154546115Y-57562475D01*
X154546115Y-58512475D01*
X154119925Y-58512475D01*
X154100791Y-58516281D01*
X154073731Y-58543341D01*
X153778939Y-58543341D01*
X153783693Y-58537216D01*
X153831312Y-58441978D01*
X153831973Y-58439562D01*
X153832785Y-58438751D01*
X153834348Y-58430889D01*
X153836465Y-58423162D01*
X153836102Y-58422073D01*
X153836591Y-58419617D01*
X153836591Y-57895808D01*
X153832785Y-57876674D01*
X153805725Y-57849614D01*
X153767457Y-57849614D01*
X153740397Y-57876674D01*
X153736591Y-57895808D01*
X153736591Y-58407813D01*
X153701704Y-58477588D01*
X153631931Y-58512475D01*
X153512681Y-58512475D01*
X153435258Y-58473764D01*
X153408020Y-58446525D01*
X153408020Y-57895808D01*
X153404214Y-57876674D01*
X153377154Y-57849614D01*
X153338886Y-57849614D01*
X153311826Y-57876674D01*
X153308020Y-57895808D01*
X152850776Y-57895808D01*
X152761333Y-57851087D01*
X152758917Y-57850425D01*
X152758106Y-57849614D01*
X152750244Y-57848050D01*
X152742517Y-57845934D01*
X152741428Y-57846296D01*
X152738972Y-57845808D01*
X152548496Y-57845808D01*
X152546039Y-57846296D01*
X152544951Y-57845934D01*
X152537223Y-57848050D01*
X152529362Y-57849614D01*
X152528550Y-57850425D01*
X152526135Y-57851087D01*
X152430897Y-57898706D01*
X152415485Y-57910667D01*
X152403384Y-57946972D01*
X152074686Y-57946972D01*
X152074686Y-57895808D01*
X152070880Y-57876674D01*
X152043820Y-57849614D01*
X152005552Y-57849614D01*
X151978492Y-57876674D01*
X151974686Y-57895808D01*
X151565062Y-57895808D01*
X151475619Y-57851087D01*
X151473203Y-57850425D01*
X151472392Y-57849614D01*
X151464530Y-57848050D01*
X151456803Y-57845934D01*
X151455714Y-57846296D01*
X151453258Y-57845808D01*
X151262782Y-57845808D01*
X151260325Y-57846296D01*
X151259237Y-57845934D01*
X151251509Y-57848050D01*
X151243648Y-57849614D01*
X151242836Y-57850425D01*
X151240421Y-57851087D01*
X151145183Y-57898706D01*
X151137317Y-57904810D01*
X151134784Y-57905655D01*
X151132594Y-57908475D01*
X151129771Y-57910667D01*
X151128925Y-57913202D01*
X151122822Y-57921067D01*
X151075204Y-58016304D01*
X151074542Y-58018719D01*
X151073731Y-58019531D01*
X151072167Y-58027392D01*
X151070051Y-58035120D01*
X151070413Y-58036208D01*
X151069925Y-58038665D01*
X150486430Y-58038665D01*
X150486430Y-57590960D01*
X151930873Y-57590960D01*
X151930873Y-57629228D01*
X151941712Y-57645449D01*
X151989330Y-57693068D01*
X152005551Y-57703907D01*
X152005552Y-57703907D01*
X152043820Y-57703907D01*
X152060041Y-57693068D01*
X152107660Y-57645450D01*
X152118499Y-57629229D01*
X152118499Y-57590960D01*
X152118499Y-57590959D01*
X152107660Y-57574738D01*
X152060041Y-57527120D01*
X152043820Y-57516281D01*
X152005551Y-57516281D01*
X151989330Y-57527120D01*
X151941712Y-57574739D01*
X151930874Y-57590959D01*
X151930873Y-57590960D01*
X150486430Y-57590960D01*
X150486430Y-56428721D01*
X151069924Y-56428721D01*
X151069924Y-56952531D01*
X151073730Y-56971665D01*
X151100790Y-56998725D01*
X151139058Y-56998725D01*
X151157954Y-56979828D01*
X151192801Y-56997252D01*
X151195216Y-56997913D01*
X151196028Y-56998725D01*
X151203889Y-57000288D01*
X151211617Y-57002405D01*
X151212705Y-57002042D01*
X151215162Y-57002531D01*
X151453257Y-57002531D01*
X151455713Y-57002042D01*
X151456802Y-57002405D01*
X151464529Y-57000288D01*
X151472391Y-56998725D01*
X151473202Y-56997913D01*
X151475618Y-56997252D01*
X151570855Y-56949634D01*
X151578721Y-56943528D01*
X151581255Y-56942684D01*
X151583444Y-56939862D01*
X151586267Y-56937672D01*
X151587112Y-56935137D01*
X151593216Y-56927272D01*
X151640835Y-56832034D01*
X151641496Y-56829618D01*
X151642308Y-56828807D01*
X151643871Y-56820945D01*
X151645988Y-56813218D01*
X151645625Y-56812129D01*
X151646114Y-56809673D01*
X151646114Y-56714435D01*
X151645625Y-56711978D01*
X151645988Y-56710890D01*
X151643871Y-56703162D01*
X151642308Y-56695301D01*
X151641496Y-56694489D01*
X151640835Y-56692074D01*
X151593216Y-56596836D01*
X151587111Y-56588970D01*
X151586267Y-56586437D01*
X151583446Y-56584247D01*
X151581255Y-56581424D01*
X151578719Y-56580578D01*
X151570855Y-56574475D01*
X151475618Y-56526857D01*
X151473202Y-56526195D01*
X151472391Y-56525384D01*
X151464529Y-56523820D01*
X151456802Y-56521704D01*
X151455713Y-56522066D01*
X151453257Y-56521578D01*
X151226966Y-56521578D01*
X151169924Y-56493057D01*
X151169924Y-56440524D01*
X151204810Y-56370750D01*
X151274585Y-56335864D01*
X151441454Y-56335864D01*
X151526134Y-56378204D01*
X151544950Y-56383357D01*
X151581255Y-56371255D01*
X151598369Y-56337027D01*
X151586267Y-56300723D01*
X151570855Y-56288761D01*
X151526793Y-56266730D01*
X151835635Y-56266730D01*
X151835635Y-56304998D01*
X151862695Y-56332058D01*
X151881829Y-56335864D01*
X151965264Y-56335864D01*
X152042687Y-56374575D01*
X152078831Y-56410720D01*
X152117543Y-56488143D01*
X152117543Y-56952531D01*
X152121349Y-56971665D01*
X152148409Y-56998725D01*
X152186677Y-56998725D01*
X152213737Y-56971665D01*
X152217543Y-56952531D01*
X152217543Y-56428721D01*
X152593734Y-56428721D01*
X152593734Y-56952531D01*
X152597540Y-56971665D01*
X152624600Y-56998725D01*
X152662868Y-56998725D01*
X152681764Y-56979828D01*
X152716611Y-56997252D01*
X152719026Y-56997913D01*
X152719838Y-56998725D01*
X152727699Y-57000288D01*
X152735427Y-57002405D01*
X152736515Y-57002042D01*
X152738972Y-57002531D01*
X152977067Y-57002531D01*
X152979523Y-57002042D01*
X152980612Y-57002405D01*
X152988339Y-57000288D01*
X152996201Y-56998725D01*
X152997012Y-56997913D01*
X152999428Y-56997252D01*
X153081781Y-56956076D01*
X153403384Y-56956076D01*
X153420498Y-56990304D01*
X153456803Y-57002405D01*
X153475619Y-56997252D01*
X153570856Y-56949634D01*
X153578722Y-56943528D01*
X153581256Y-56942684D01*
X153583445Y-56939862D01*
X153586268Y-56937672D01*
X153587113Y-56935137D01*
X153593217Y-56927272D01*
X153640836Y-56832034D01*
X153641497Y-56829618D01*
X153642309Y-56828807D01*
X153643872Y-56820945D01*
X153645989Y-56813218D01*
X153645626Y-56812129D01*
X153646115Y-56809673D01*
X153646115Y-56028635D01*
X153978493Y-56028635D01*
X153978493Y-56066903D01*
X154005553Y-56093963D01*
X154043821Y-56093963D01*
X154060042Y-56083124D01*
X154099315Y-56043851D01*
X154223276Y-56002531D01*
X154302288Y-56002531D01*
X154426249Y-56043851D01*
X154507402Y-56125004D01*
X154548939Y-56208078D01*
X154593734Y-56387257D01*
X154593734Y-56517804D01*
X154548939Y-56696982D01*
X154507402Y-56780056D01*
X154426248Y-56861210D01*
X154302288Y-56902531D01*
X154223276Y-56902531D01*
X154099316Y-56861211D01*
X154060043Y-56821937D01*
X154043822Y-56811098D01*
X154005553Y-56811098D01*
X153978493Y-56838157D01*
X153978493Y-56876426D01*
X153989331Y-56892647D01*
X154036950Y-56940267D01*
X154039032Y-56941658D01*
X154039546Y-56942685D01*
X154046504Y-56946651D01*
X154053171Y-56951106D01*
X154054320Y-56951106D01*
X154056495Y-56952346D01*
X154199351Y-56999965D01*
X154207301Y-57000967D01*
X154215163Y-57002531D01*
X154310401Y-57002531D01*
X154318263Y-57000967D01*
X154326212Y-56999965D01*
X154469069Y-56952346D01*
X154471244Y-56951106D01*
X154472393Y-56951106D01*
X154479063Y-56946648D01*
X154486017Y-56942685D01*
X154486529Y-56941659D01*
X154488614Y-56940267D01*
X154583852Y-56845028D01*
X154588305Y-56838362D01*
X154593217Y-56832034D01*
X154640836Y-56736796D01*
X154642282Y-56731514D01*
X154644622Y-56726562D01*
X154692241Y-56536086D01*
X154692538Y-56529968D01*
X154693734Y-56523959D01*
X154693734Y-56381102D01*
X154692538Y-56375092D01*
X154692241Y-56368975D01*
X154644622Y-56178499D01*
X154642282Y-56173546D01*
X154640836Y-56168265D01*
X154593217Y-56073027D01*
X154588301Y-56066692D01*
X154583851Y-56060033D01*
X154488613Y-55964795D01*
X154486530Y-55963403D01*
X154486017Y-55962377D01*
X154479056Y-55958409D01*
X154472392Y-55953956D01*
X154471244Y-55953956D01*
X154469069Y-55952716D01*
X154326212Y-55905097D01*
X154318263Y-55904094D01*
X154310401Y-55902531D01*
X154215163Y-55902531D01*
X154207301Y-55904094D01*
X154199351Y-55905097D01*
X154056495Y-55952716D01*
X154054320Y-55953956D01*
X154053171Y-55953956D01*
X154046504Y-55958410D01*
X154039546Y-55962377D01*
X154039032Y-55963403D01*
X154036950Y-55964795D01*
X153989332Y-56012414D01*
X153978493Y-56028635D01*
X153646115Y-56028635D01*
X153646115Y-55952531D01*
X153642309Y-55933397D01*
X153615249Y-55906337D01*
X153576981Y-55906337D01*
X153549921Y-55933397D01*
X153546115Y-55952531D01*
X153546115Y-56797869D01*
X153511228Y-56867644D01*
X153430897Y-56907810D01*
X153415485Y-56919771D01*
X153403384Y-56956076D01*
X153081781Y-56956076D01*
X153094665Y-56949634D01*
X153102531Y-56943528D01*
X153105065Y-56942684D01*
X153107254Y-56939862D01*
X153110077Y-56937672D01*
X153110922Y-56935137D01*
X153117026Y-56927272D01*
X153164645Y-56832034D01*
X153165306Y-56829618D01*
X153166118Y-56828807D01*
X153167681Y-56820945D01*
X153169798Y-56813218D01*
X153169435Y-56812129D01*
X153169924Y-56809673D01*
X153169924Y-56714435D01*
X153169435Y-56711978D01*
X153169798Y-56710890D01*
X153167681Y-56703162D01*
X153166118Y-56695301D01*
X153165306Y-56694489D01*
X153164645Y-56692074D01*
X153117026Y-56596836D01*
X153110921Y-56588970D01*
X153110077Y-56586437D01*
X153107256Y-56584247D01*
X153105065Y-56581424D01*
X153102529Y-56580578D01*
X153094665Y-56574475D01*
X152999428Y-56526857D01*
X152997012Y-56526195D01*
X152996201Y-56525384D01*
X152988339Y-56523820D01*
X152980612Y-56521704D01*
X152979523Y-56522066D01*
X152977067Y-56521578D01*
X152750776Y-56521578D01*
X152693734Y-56493057D01*
X152693734Y-56440524D01*
X152728620Y-56370750D01*
X152798395Y-56335864D01*
X152965264Y-56335864D01*
X153049944Y-56378204D01*
X153068760Y-56383357D01*
X153105065Y-56371255D01*
X153122179Y-56337027D01*
X153110077Y-56300723D01*
X153094665Y-56288761D01*
X152999428Y-56241143D01*
X152997012Y-56240481D01*
X152996201Y-56239670D01*
X152988339Y-56238106D01*
X152980612Y-56235990D01*
X152979523Y-56236352D01*
X152977067Y-56235864D01*
X152786591Y-56235864D01*
X152784134Y-56236352D01*
X152783046Y-56235990D01*
X152775318Y-56238106D01*
X152767457Y-56239670D01*
X152766645Y-56240481D01*
X152764230Y-56241143D01*
X152668992Y-56288762D01*
X152661126Y-56294866D01*
X152658593Y-56295711D01*
X152656403Y-56298531D01*
X152653580Y-56300723D01*
X152652734Y-56303258D01*
X152646631Y-56311123D01*
X152599013Y-56406360D01*
X152598351Y-56408775D01*
X152597540Y-56409587D01*
X152595976Y-56417448D01*
X152593860Y-56425176D01*
X152594222Y-56426264D01*
X152593734Y-56428721D01*
X152217543Y-56428721D01*
X152217543Y-56285864D01*
X152213737Y-56266730D01*
X152186677Y-56239670D01*
X152148409Y-56239670D01*
X152121349Y-56266730D01*
X152117543Y-56285864D01*
X152117543Y-56308010D01*
X152107660Y-56298128D01*
X152100998Y-56293676D01*
X152094665Y-56288761D01*
X151999428Y-56241143D01*
X151997012Y-56240481D01*
X151996201Y-56239670D01*
X151988339Y-56238106D01*
X151980612Y-56235990D01*
X151979523Y-56236352D01*
X151977067Y-56235864D01*
X151881829Y-56235864D01*
X151862695Y-56239670D01*
X151835635Y-56266730D01*
X151526793Y-56266730D01*
X151475618Y-56241143D01*
X151473202Y-56240481D01*
X151472391Y-56239670D01*
X151464529Y-56238106D01*
X151456802Y-56235990D01*
X151455713Y-56236352D01*
X151453257Y-56235864D01*
X151262781Y-56235864D01*
X151260324Y-56236352D01*
X151259236Y-56235990D01*
X151251508Y-56238106D01*
X151243647Y-56239670D01*
X151242835Y-56240481D01*
X151240420Y-56241143D01*
X151145182Y-56288762D01*
X151137316Y-56294866D01*
X151134783Y-56295711D01*
X151132593Y-56298531D01*
X151129770Y-56300723D01*
X151128924Y-56303258D01*
X151122821Y-56311123D01*
X151075203Y-56406360D01*
X151074541Y-56408775D01*
X151073730Y-56409587D01*
X151072166Y-56417448D01*
X151070050Y-56425176D01*
X151070412Y-56426264D01*
X151069924Y-56428721D01*
X150486430Y-56428721D01*
X150486430Y-55791420D01*
X154804845Y-55791420D01*
X154804845Y-60333530D01*
G37*
G36*
X145756972Y-54242082D02*
G01*
X145793116Y-54278227D01*
X145831828Y-54355650D01*
X145831828Y-54570138D01*
X145793116Y-54647561D01*
X145756970Y-54683708D01*
X145679549Y-54722419D01*
X145512680Y-54722419D01*
X145435257Y-54683708D01*
X145399111Y-54647561D01*
X145360400Y-54570139D01*
X145360400Y-54355650D01*
X145399111Y-54278226D01*
X145435256Y-54242082D01*
X145512680Y-54203371D01*
X145679549Y-54203371D01*
X145756972Y-54242082D01*
G37*
G36*
X147987418Y-54190638D02*
G01*
X148022305Y-54260412D01*
X148022305Y-54378094D01*
X147646115Y-54302856D01*
X147646115Y-54260412D01*
X147681001Y-54190638D01*
X147750776Y-54155752D01*
X147917645Y-54155752D01*
X147987418Y-54190638D01*
G37*
G36*
X149328401Y-54194463D02*
G01*
X149364545Y-54230608D01*
X149403257Y-54308031D01*
X149403257Y-54570138D01*
X149364545Y-54647561D01*
X149328399Y-54683708D01*
X149250978Y-54722419D01*
X149131728Y-54722419D01*
X149054305Y-54683708D01*
X149018159Y-54647561D01*
X148979448Y-54570139D01*
X148979448Y-54308031D01*
X149018159Y-54230607D01*
X149054304Y-54194463D01*
X149131728Y-54155752D01*
X149250978Y-54155752D01*
X149328401Y-54194463D01*
G37*
G36*
X154546115Y-54722419D02*
G01*
X154226967Y-54722419D01*
X154149544Y-54683708D01*
X154113398Y-54647561D01*
X154074687Y-54570139D01*
X154074687Y-54450888D01*
X154113398Y-54373464D01*
X154146934Y-54339929D01*
X154270895Y-54298609D01*
X154546115Y-54298609D01*
X154546115Y-54722419D01*
G37*
G36*
X154546115Y-54198609D02*
G01*
X154274586Y-54198609D01*
X154197162Y-54159897D01*
X154161017Y-54123753D01*
X154122306Y-54046330D01*
X154122306Y-53974698D01*
X154161017Y-53897274D01*
X154197162Y-53861130D01*
X154274586Y-53822419D01*
X154546115Y-53822419D01*
X154546115Y-54198609D01*
G37*
G36*
X150974686Y-54246228D02*
G01*
X150655538Y-54246228D01*
X150578114Y-54207516D01*
X150541969Y-54171372D01*
X150503258Y-54093949D01*
X150503258Y-53974698D01*
X150541969Y-53897274D01*
X150578114Y-53861130D01*
X150655538Y-53822419D01*
X150974686Y-53822419D01*
X150974686Y-54246228D01*
G37*
G36*
X154757226Y-55266863D02*
G01*
X141625479Y-55266863D01*
X141625479Y-54486704D01*
X141736590Y-54486704D01*
X141736590Y-54581942D01*
X141737078Y-54584398D01*
X141736716Y-54585487D01*
X141738832Y-54593214D01*
X141740396Y-54601076D01*
X141741207Y-54601887D01*
X141741869Y-54604303D01*
X141789487Y-54699540D01*
X141794398Y-54705868D01*
X141798853Y-54712535D01*
X141846472Y-54760155D01*
X141853138Y-54764609D01*
X141859467Y-54769521D01*
X141954705Y-54817140D01*
X141957120Y-54817801D01*
X141957932Y-54818613D01*
X141965793Y-54820176D01*
X141973521Y-54822293D01*
X141974609Y-54821930D01*
X141977066Y-54822419D01*
X142215161Y-54822419D01*
X142223023Y-54820855D01*
X142230972Y-54819853D01*
X142373829Y-54772234D01*
X142390777Y-54762573D01*
X142395421Y-54753285D01*
X142597539Y-54753285D01*
X142597539Y-54791553D01*
X142624599Y-54818613D01*
X142643733Y-54822419D01*
X143119923Y-54822419D01*
X143139057Y-54818613D01*
X143166117Y-54791553D01*
X143169923Y-54772419D01*
X143169923Y-53848523D01*
X143502301Y-53848523D01*
X143502301Y-53886791D01*
X143529361Y-53913851D01*
X143567629Y-53913851D01*
X143583850Y-53903012D01*
X143623123Y-53863739D01*
X143747084Y-53822419D01*
X143826096Y-53822419D01*
X143950057Y-53863739D01*
X144031210Y-53944892D01*
X144072747Y-54027966D01*
X144117542Y-54207145D01*
X144117542Y-54337692D01*
X144072747Y-54516870D01*
X144031210Y-54599944D01*
X143950056Y-54681098D01*
X143826096Y-54722419D01*
X143747084Y-54722419D01*
X143623124Y-54681099D01*
X143583851Y-54641825D01*
X143567630Y-54630986D01*
X143529361Y-54630986D01*
X143502301Y-54658045D01*
X143502301Y-54696314D01*
X143513139Y-54712535D01*
X143560758Y-54760155D01*
X143562840Y-54761546D01*
X143563354Y-54762573D01*
X143570312Y-54766539D01*
X143576979Y-54770994D01*
X143578128Y-54770994D01*
X143580303Y-54772234D01*
X143723159Y-54819853D01*
X143731109Y-54820855D01*
X143738971Y-54822419D01*
X143834209Y-54822419D01*
X143842071Y-54820855D01*
X143850020Y-54819853D01*
X143992877Y-54772234D01*
X143995052Y-54770994D01*
X143996201Y-54770994D01*
X144002871Y-54766536D01*
X144009825Y-54762573D01*
X144010337Y-54761547D01*
X144012422Y-54760155D01*
X144107660Y-54664916D01*
X144112113Y-54658250D01*
X144117025Y-54651922D01*
X144164644Y-54556684D01*
X144166090Y-54551402D01*
X144168430Y-54546450D01*
X144216049Y-54355974D01*
X144216346Y-54349856D01*
X144217542Y-54343847D01*
X145260400Y-54343847D01*
X145260400Y-54581942D01*
X145260888Y-54584398D01*
X145260526Y-54585487D01*
X145262642Y-54593214D01*
X145264206Y-54601076D01*
X145265017Y-54601887D01*
X145265679Y-54604303D01*
X145313297Y-54699540D01*
X145318208Y-54705868D01*
X145322663Y-54712535D01*
X145370282Y-54760155D01*
X145376948Y-54764609D01*
X145383277Y-54769521D01*
X145478515Y-54817140D01*
X145480930Y-54817801D01*
X145481742Y-54818613D01*
X145489603Y-54820176D01*
X145497331Y-54822293D01*
X145498419Y-54821930D01*
X145500876Y-54822419D01*
X145691352Y-54822419D01*
X145693808Y-54821930D01*
X145694897Y-54822293D01*
X145702624Y-54820176D01*
X145710486Y-54818613D01*
X145711297Y-54817801D01*
X145713713Y-54817140D01*
X145808950Y-54769522D01*
X145815277Y-54764611D01*
X145821946Y-54760155D01*
X145869565Y-54712535D01*
X145874018Y-54705869D01*
X145878930Y-54699541D01*
X145926549Y-54604303D01*
X145927210Y-54601887D01*
X145928022Y-54601076D01*
X145929585Y-54593214D01*
X145931702Y-54585487D01*
X145931339Y-54584398D01*
X145931828Y-54581942D01*
X145931828Y-54200990D01*
X145930632Y-54194980D01*
X145930335Y-54188863D01*
X145904774Y-54086618D01*
X146883254Y-54086618D01*
X146883254Y-54124886D01*
X146910314Y-54151946D01*
X146929448Y-54155752D01*
X147117543Y-54155752D01*
X147117543Y-54617757D01*
X147082656Y-54687532D01*
X147012883Y-54722419D01*
X146929448Y-54722419D01*
X146910314Y-54726225D01*
X146883254Y-54753285D01*
X146883254Y-54791553D01*
X146910314Y-54818613D01*
X146929448Y-54822419D01*
X147024686Y-54822419D01*
X147027142Y-54821930D01*
X147028231Y-54822293D01*
X147035958Y-54820176D01*
X147043820Y-54818613D01*
X147044631Y-54817801D01*
X147047047Y-54817140D01*
X147142284Y-54769522D01*
X147150150Y-54763416D01*
X147152684Y-54762572D01*
X147154873Y-54759750D01*
X147157696Y-54757560D01*
X147158541Y-54755025D01*
X147164645Y-54747160D01*
X147212264Y-54651922D01*
X147212925Y-54649506D01*
X147213737Y-54648695D01*
X147215300Y-54640833D01*
X147217417Y-54633106D01*
X147217054Y-54632017D01*
X147217543Y-54629561D01*
X147217543Y-54248609D01*
X147546115Y-54248609D01*
X147546115Y-54343847D01*
X147547556Y-54351095D01*
X147547066Y-54353550D01*
X147548461Y-54355643D01*
X147549921Y-54362981D01*
X147560217Y-54373277D01*
X147568293Y-54385391D01*
X147575201Y-54388261D01*
X147576981Y-54390041D01*
X147579485Y-54390041D01*
X147586309Y-54392876D01*
X148022305Y-54480075D01*
X148022305Y-54617757D01*
X147987418Y-54687532D01*
X147917645Y-54722419D01*
X147750776Y-54722419D01*
X147666095Y-54680079D01*
X147647279Y-54674926D01*
X147610974Y-54687027D01*
X147593860Y-54721255D01*
X147605961Y-54757560D01*
X147621373Y-54769521D01*
X147716611Y-54817140D01*
X147719026Y-54817801D01*
X147719838Y-54818613D01*
X147727699Y-54820176D01*
X147735427Y-54822293D01*
X147736515Y-54821930D01*
X147738972Y-54822419D01*
X147929448Y-54822419D01*
X147931904Y-54821930D01*
X147932993Y-54822293D01*
X147940720Y-54820176D01*
X147948582Y-54818613D01*
X147949393Y-54817801D01*
X147951809Y-54817140D01*
X148047046Y-54769522D01*
X148054912Y-54763416D01*
X148057446Y-54762572D01*
X148059635Y-54759750D01*
X148062458Y-54757560D01*
X148063303Y-54755025D01*
X148069407Y-54747160D01*
X148117026Y-54651922D01*
X148117687Y-54649506D01*
X148118499Y-54648695D01*
X148120062Y-54640833D01*
X148122179Y-54633106D01*
X148121816Y-54632017D01*
X148122305Y-54629561D01*
X148122305Y-54248609D01*
X148121816Y-54246152D01*
X148122179Y-54245064D01*
X148120062Y-54237336D01*
X148118499Y-54229475D01*
X148117687Y-54228663D01*
X148117026Y-54226248D01*
X148069407Y-54131010D01*
X148063302Y-54123144D01*
X148062458Y-54120611D01*
X148059637Y-54118421D01*
X148057446Y-54115598D01*
X148054910Y-54114752D01*
X148047046Y-54108649D01*
X148041252Y-54105752D01*
X148450876Y-54105752D01*
X148450876Y-54962895D01*
X148451364Y-54965351D01*
X148451002Y-54966440D01*
X148453118Y-54974167D01*
X148454682Y-54982029D01*
X148455493Y-54982840D01*
X148456155Y-54985256D01*
X148503773Y-55080493D01*
X148509876Y-55088357D01*
X148510722Y-55090893D01*
X148513545Y-55093084D01*
X148515735Y-55095905D01*
X148518268Y-55096749D01*
X148526134Y-55102854D01*
X148621372Y-55150473D01*
X148623787Y-55151134D01*
X148624599Y-55151946D01*
X148632460Y-55153509D01*
X148640188Y-55155626D01*
X148641276Y-55155263D01*
X148643733Y-55155752D01*
X148691352Y-55155752D01*
X148710486Y-55151946D01*
X148737546Y-55124886D01*
X148737546Y-55086618D01*
X148710486Y-55059558D01*
X148691352Y-55055752D01*
X148655537Y-55055752D01*
X148585762Y-55020865D01*
X148550876Y-54951092D01*
X148550876Y-54296228D01*
X148879448Y-54296228D01*
X148879448Y-54581942D01*
X148879936Y-54584398D01*
X148879574Y-54585487D01*
X148881690Y-54593214D01*
X148883254Y-54601076D01*
X148884065Y-54601887D01*
X148884727Y-54604303D01*
X148932345Y-54699540D01*
X148937256Y-54705868D01*
X148941711Y-54712535D01*
X148989330Y-54760155D01*
X148995996Y-54764609D01*
X149002325Y-54769521D01*
X149097563Y-54817140D01*
X149099978Y-54817801D01*
X149100790Y-54818613D01*
X149108651Y-54820176D01*
X149116379Y-54822293D01*
X149117467Y-54821930D01*
X149119924Y-54822419D01*
X149262781Y-54822419D01*
X149265237Y-54821930D01*
X149266326Y-54822293D01*
X149274053Y-54820176D01*
X149281915Y-54818613D01*
X149282726Y-54817801D01*
X149285142Y-54817140D01*
X149380379Y-54769522D01*
X149386706Y-54764611D01*
X149393375Y-54760155D01*
X149440994Y-54712535D01*
X149445447Y-54705869D01*
X149450359Y-54699541D01*
X149497978Y-54604303D01*
X149498639Y-54601887D01*
X149499451Y-54601076D01*
X149501014Y-54593214D01*
X149503131Y-54585487D01*
X149502768Y-54584398D01*
X149503257Y-54581942D01*
X149503257Y-54296228D01*
X149502768Y-54293771D01*
X149503131Y-54292683D01*
X149501014Y-54284955D01*
X149499451Y-54277094D01*
X149498639Y-54276282D01*
X149497978Y-54273867D01*
X149450359Y-54178629D01*
X149445447Y-54172300D01*
X149440993Y-54165634D01*
X149393374Y-54118016D01*
X149386712Y-54113564D01*
X149380379Y-54108649D01*
X149336317Y-54086618D01*
X149692778Y-54086618D01*
X149692778Y-54124886D01*
X149719838Y-54151946D01*
X149738972Y-54155752D01*
X149822407Y-54155752D01*
X149899830Y-54194463D01*
X149935974Y-54230608D01*
X149974686Y-54308031D01*
X149974686Y-54772419D01*
X149978492Y-54791553D01*
X150005552Y-54818613D01*
X150043820Y-54818613D01*
X150070880Y-54791553D01*
X150074686Y-54772419D01*
X150074686Y-54105752D01*
X150070880Y-54086618D01*
X150043820Y-54059558D01*
X150005552Y-54059558D01*
X149978492Y-54086618D01*
X149974686Y-54105752D01*
X149974686Y-54127898D01*
X149964803Y-54118016D01*
X149958141Y-54113564D01*
X149951808Y-54108649D01*
X149856571Y-54061031D01*
X149854155Y-54060369D01*
X149853344Y-54059558D01*
X149845482Y-54057994D01*
X149837755Y-54055878D01*
X149836666Y-54056240D01*
X149834210Y-54055752D01*
X149738972Y-54055752D01*
X149719838Y-54059558D01*
X149692778Y-54086618D01*
X149336317Y-54086618D01*
X149285142Y-54061031D01*
X149282726Y-54060369D01*
X149281915Y-54059558D01*
X149274053Y-54057994D01*
X149266326Y-54055878D01*
X149265237Y-54056240D01*
X149262781Y-54055752D01*
X149119924Y-54055752D01*
X149117467Y-54056240D01*
X149116379Y-54055878D01*
X149108651Y-54057994D01*
X149100790Y-54059558D01*
X149099978Y-54060369D01*
X149097563Y-54061031D01*
X149002325Y-54108650D01*
X148995996Y-54113561D01*
X148989330Y-54118016D01*
X148941712Y-54165635D01*
X148937260Y-54172296D01*
X148932345Y-54178630D01*
X148884727Y-54273867D01*
X148884065Y-54276282D01*
X148883254Y-54277094D01*
X148881690Y-54284955D01*
X148879574Y-54292683D01*
X148879936Y-54293771D01*
X148879448Y-54296228D01*
X148550876Y-54296228D01*
X148550876Y-54105752D01*
X148547070Y-54086618D01*
X148520010Y-54059558D01*
X148481742Y-54059558D01*
X148454682Y-54086618D01*
X148450876Y-54105752D01*
X148041252Y-54105752D01*
X147951809Y-54061031D01*
X147949393Y-54060369D01*
X147948582Y-54059558D01*
X147940720Y-54057994D01*
X147932993Y-54055878D01*
X147931904Y-54056240D01*
X147929448Y-54055752D01*
X147738972Y-54055752D01*
X147736515Y-54056240D01*
X147735427Y-54055878D01*
X147727699Y-54057994D01*
X147719838Y-54059558D01*
X147719026Y-54060369D01*
X147716611Y-54061031D01*
X147621373Y-54108650D01*
X147613507Y-54114754D01*
X147610974Y-54115599D01*
X147608784Y-54118419D01*
X147605961Y-54120611D01*
X147605115Y-54123146D01*
X147599012Y-54131011D01*
X147551394Y-54226248D01*
X147550732Y-54228663D01*
X147549921Y-54229475D01*
X147548357Y-54237336D01*
X147546241Y-54245064D01*
X147546603Y-54246152D01*
X147546115Y-54248609D01*
X147217543Y-54248609D01*
X147217543Y-54155752D01*
X147310400Y-54155752D01*
X147329534Y-54151946D01*
X147356594Y-54124886D01*
X147356594Y-54086618D01*
X147329534Y-54059558D01*
X147310400Y-54055752D01*
X147217543Y-54055752D01*
X147217543Y-53962895D01*
X150403258Y-53962895D01*
X150403258Y-54105752D01*
X150403746Y-54108208D01*
X150403384Y-54109297D01*
X150405500Y-54117024D01*
X150407064Y-54124886D01*
X150407875Y-54125697D01*
X150408537Y-54128113D01*
X150456155Y-54223350D01*
X150461070Y-54229683D01*
X150465522Y-54236345D01*
X150513140Y-54283964D01*
X150519806Y-54288418D01*
X150526135Y-54293330D01*
X150621373Y-54340949D01*
X150623788Y-54341610D01*
X150624600Y-54342422D01*
X150632461Y-54343985D01*
X150640189Y-54346102D01*
X150641277Y-54345739D01*
X150643734Y-54346228D01*
X150974686Y-54346228D01*
X150974686Y-54772419D01*
X150978492Y-54791553D01*
X151005552Y-54818613D01*
X151043820Y-54818613D01*
X151070880Y-54791553D01*
X151074686Y-54772419D01*
X151074686Y-53772419D01*
X151070880Y-53753285D01*
X152073731Y-53753285D01*
X152073731Y-53791553D01*
X152100791Y-53818613D01*
X152119925Y-53822419D01*
X152355639Y-53822419D01*
X152355639Y-54772419D01*
X152359445Y-54791553D01*
X152386505Y-54818613D01*
X152424773Y-54818613D01*
X152451833Y-54791553D01*
X152455639Y-54772419D01*
X152455639Y-53822419D01*
X152691353Y-53822419D01*
X152710487Y-53818613D01*
X152737547Y-53791553D01*
X152737547Y-53772419D01*
X152974687Y-53772419D01*
X152974687Y-54772419D01*
X152978493Y-54791553D01*
X153005553Y-54818613D01*
X153043821Y-54818613D01*
X153070881Y-54791553D01*
X153074687Y-54772419D01*
X153074687Y-54298609D01*
X153546115Y-54298609D01*
X153546115Y-54772419D01*
X153549921Y-54791553D01*
X153576981Y-54818613D01*
X153615249Y-54818613D01*
X153642309Y-54791553D01*
X153646115Y-54772419D01*
X153646115Y-54439085D01*
X153974687Y-54439085D01*
X153974687Y-54581942D01*
X153975175Y-54584398D01*
X153974813Y-54585487D01*
X153976929Y-54593214D01*
X153978493Y-54601076D01*
X153979304Y-54601887D01*
X153979966Y-54604303D01*
X154027584Y-54699540D01*
X154032495Y-54705868D01*
X154036950Y-54712535D01*
X154084569Y-54760155D01*
X154091235Y-54764609D01*
X154097564Y-54769521D01*
X154192802Y-54817140D01*
X154195217Y-54817801D01*
X154196029Y-54818613D01*
X154203890Y-54820176D01*
X154211618Y-54822293D01*
X154212706Y-54821930D01*
X154215163Y-54822419D01*
X154596115Y-54822419D01*
X154615249Y-54818613D01*
X154642309Y-54791553D01*
X154646115Y-54772419D01*
X154646115Y-53772419D01*
X154642309Y-53753285D01*
X154615249Y-53726225D01*
X154596115Y-53722419D01*
X154262782Y-53722419D01*
X154260325Y-53722907D01*
X154259237Y-53722545D01*
X154251509Y-53724661D01*
X154243648Y-53726225D01*
X154242836Y-53727036D01*
X154240421Y-53727698D01*
X154145183Y-53775317D01*
X154138854Y-53780228D01*
X154132188Y-53784683D01*
X154084570Y-53832302D01*
X154080118Y-53838963D01*
X154075203Y-53845297D01*
X154027585Y-53940534D01*
X154026923Y-53942949D01*
X154026112Y-53943761D01*
X154024548Y-53951622D01*
X154022432Y-53959350D01*
X154022794Y-53960438D01*
X154022306Y-53962895D01*
X154022306Y-54058133D01*
X154022794Y-54060589D01*
X154022432Y-54061678D01*
X154024548Y-54069405D01*
X154026112Y-54077267D01*
X154026923Y-54078078D01*
X154027585Y-54080494D01*
X154075203Y-54175731D01*
X154080118Y-54182064D01*
X154084570Y-54188726D01*
X154132188Y-54236345D01*
X154135274Y-54238407D01*
X154104114Y-54248794D01*
X154101939Y-54250034D01*
X154100790Y-54250034D01*
X154094123Y-54254488D01*
X154087165Y-54258455D01*
X154086651Y-54259481D01*
X154084569Y-54260873D01*
X154036951Y-54308492D01*
X154032499Y-54315153D01*
X154027584Y-54321487D01*
X153979966Y-54416724D01*
X153979304Y-54419139D01*
X153978493Y-54419951D01*
X153976929Y-54427812D01*
X153974813Y-54435540D01*
X153975175Y-54436628D01*
X153974687Y-54439085D01*
X153646115Y-54439085D01*
X153646115Y-53772419D01*
X153642309Y-53753285D01*
X153615249Y-53726225D01*
X153576981Y-53726225D01*
X153549921Y-53753285D01*
X153546115Y-53772419D01*
X153546115Y-54198609D01*
X153074687Y-54198609D01*
X153074687Y-53772419D01*
X153070881Y-53753285D01*
X153043821Y-53726225D01*
X153005553Y-53726225D01*
X152978493Y-53753285D01*
X152974687Y-53772419D01*
X152737547Y-53772419D01*
X152737547Y-53753285D01*
X152710487Y-53726225D01*
X152691353Y-53722419D01*
X152119925Y-53722419D01*
X152100791Y-53726225D01*
X152073731Y-53753285D01*
X151070880Y-53753285D01*
X151043820Y-53726225D01*
X151024686Y-53722419D01*
X150643734Y-53722419D01*
X150641277Y-53722907D01*
X150640189Y-53722545D01*
X150632461Y-53724661D01*
X150624600Y-53726225D01*
X150623788Y-53727036D01*
X150621373Y-53727698D01*
X150526135Y-53775317D01*
X150519806Y-53780228D01*
X150513140Y-53784683D01*
X150465522Y-53832302D01*
X150461070Y-53838963D01*
X150456155Y-53845297D01*
X150408537Y-53940534D01*
X150407875Y-53942949D01*
X150407064Y-53943761D01*
X150405500Y-53951622D01*
X150403384Y-53959350D01*
X150403746Y-53960438D01*
X150403258Y-53962895D01*
X147217543Y-53962895D01*
X147217543Y-53800904D01*
X148407063Y-53800904D01*
X148407063Y-53839172D01*
X148417902Y-53855393D01*
X148465520Y-53903012D01*
X148481741Y-53913851D01*
X148481742Y-53913851D01*
X148520010Y-53913851D01*
X148536231Y-53903012D01*
X148583850Y-53855394D01*
X148594689Y-53839173D01*
X148594689Y-53800904D01*
X148594689Y-53800903D01*
X148583850Y-53784682D01*
X148536231Y-53737064D01*
X148520010Y-53726225D01*
X148481741Y-53726225D01*
X148465520Y-53737064D01*
X148417902Y-53784683D01*
X148407064Y-53800903D01*
X148407063Y-53800904D01*
X147217543Y-53800904D01*
X147217543Y-53772419D01*
X147213737Y-53753285D01*
X147186677Y-53726225D01*
X147148409Y-53726225D01*
X147121349Y-53753285D01*
X147117543Y-53772419D01*
X147117543Y-54055752D01*
X146929448Y-54055752D01*
X146910314Y-54059558D01*
X146883254Y-54086618D01*
X145904774Y-54086618D01*
X145882716Y-53998387D01*
X145879074Y-53990679D01*
X145875812Y-53982779D01*
X145780574Y-53839922D01*
X145777076Y-53836417D01*
X145774326Y-53832301D01*
X145726707Y-53784683D01*
X145720045Y-53780231D01*
X145713712Y-53775316D01*
X145618475Y-53727698D01*
X145616059Y-53727036D01*
X145615248Y-53726225D01*
X145607386Y-53724661D01*
X145599659Y-53722545D01*
X145598570Y-53722907D01*
X145596114Y-53722419D01*
X145405638Y-53722419D01*
X145386504Y-53726225D01*
X145359444Y-53753285D01*
X145359444Y-53791553D01*
X145386504Y-53818613D01*
X145405638Y-53822419D01*
X145584311Y-53822419D01*
X145661734Y-53861130D01*
X145700113Y-53899510D01*
X145787802Y-54031041D01*
X145821351Y-54165238D01*
X145815283Y-54161183D01*
X145808950Y-54156268D01*
X145713713Y-54108650D01*
X145711297Y-54107988D01*
X145710486Y-54107177D01*
X145702624Y-54105613D01*
X145694897Y-54103497D01*
X145693808Y-54103859D01*
X145691352Y-54103371D01*
X145500876Y-54103371D01*
X145498419Y-54103859D01*
X145497331Y-54103497D01*
X145489603Y-54105613D01*
X145481742Y-54107177D01*
X145480930Y-54107988D01*
X145478515Y-54108650D01*
X145383277Y-54156269D01*
X145376948Y-54161180D01*
X145370282Y-54165635D01*
X145322664Y-54213254D01*
X145318212Y-54219915D01*
X145313297Y-54226249D01*
X145265679Y-54321486D01*
X145265017Y-54323901D01*
X145264206Y-54324713D01*
X145262642Y-54332574D01*
X145260526Y-54340302D01*
X145260888Y-54341390D01*
X145260400Y-54343847D01*
X144217542Y-54343847D01*
X144217542Y-54200990D01*
X144216346Y-54194980D01*
X144216049Y-54188863D01*
X144168430Y-53998387D01*
X144166090Y-53993434D01*
X144164644Y-53988153D01*
X144117025Y-53892915D01*
X144112109Y-53886580D01*
X144107659Y-53879921D01*
X144012421Y-53784683D01*
X144010338Y-53783291D01*
X144009825Y-53782265D01*
X144002864Y-53778297D01*
X143996200Y-53773844D01*
X143995052Y-53773844D01*
X143992877Y-53772604D01*
X143850020Y-53724985D01*
X143842071Y-53723982D01*
X143834209Y-53722419D01*
X143738971Y-53722419D01*
X143731109Y-53723982D01*
X143723159Y-53724985D01*
X143580303Y-53772604D01*
X143578128Y-53773844D01*
X143576979Y-53773844D01*
X143570312Y-53778298D01*
X143563354Y-53782265D01*
X143562840Y-53783291D01*
X143560758Y-53784683D01*
X143513140Y-53832302D01*
X143502301Y-53848523D01*
X143169923Y-53848523D01*
X143169923Y-53772419D01*
X143166117Y-53753285D01*
X143139057Y-53726225D01*
X143100789Y-53726225D01*
X143073729Y-53753285D01*
X143069923Y-53772419D01*
X143069923Y-54722419D01*
X142643733Y-54722419D01*
X142624599Y-54726225D01*
X142597539Y-54753285D01*
X142395421Y-54753285D01*
X142407892Y-54728344D01*
X142395790Y-54692040D01*
X142361562Y-54674926D01*
X142342206Y-54677366D01*
X142207048Y-54722419D01*
X141988870Y-54722419D01*
X141911447Y-54683708D01*
X141875301Y-54647561D01*
X141836590Y-54570139D01*
X141836590Y-54498507D01*
X141875301Y-54421083D01*
X141911446Y-54384939D01*
X141994518Y-54343403D01*
X142179669Y-54297116D01*
X142184621Y-54294776D01*
X142189903Y-54293330D01*
X142285140Y-54245712D01*
X142291473Y-54240796D01*
X142298135Y-54236345D01*
X142345754Y-54188727D01*
X142350208Y-54182060D01*
X142355120Y-54175732D01*
X142402739Y-54080494D01*
X142403400Y-54078078D01*
X142404212Y-54077267D01*
X142405775Y-54069405D01*
X142407892Y-54061678D01*
X142407529Y-54060589D01*
X142408018Y-54058133D01*
X142408018Y-53962895D01*
X142407529Y-53960438D01*
X142407892Y-53959350D01*
X142405775Y-53951622D01*
X142404212Y-53943761D01*
X142403400Y-53942949D01*
X142402739Y-53940534D01*
X142355120Y-53845296D01*
X142350208Y-53838967D01*
X142345754Y-53832301D01*
X142298135Y-53784683D01*
X142291473Y-53780231D01*
X142285140Y-53775316D01*
X142189903Y-53727698D01*
X142187487Y-53727036D01*
X142186676Y-53726225D01*
X142178814Y-53724661D01*
X142171087Y-53722545D01*
X142169998Y-53722907D01*
X142167542Y-53722419D01*
X141929447Y-53722419D01*
X141921585Y-53723982D01*
X141913635Y-53724985D01*
X141770779Y-53772604D01*
X141753830Y-53782265D01*
X141736716Y-53816494D01*
X141748817Y-53852798D01*
X141783046Y-53869912D01*
X141802401Y-53867472D01*
X141937560Y-53822419D01*
X142155739Y-53822419D01*
X142233162Y-53861130D01*
X142269306Y-53897275D01*
X142308018Y-53974698D01*
X142308018Y-54046329D01*
X142269306Y-54123752D01*
X142233162Y-54159897D01*
X142150091Y-54201433D01*
X141964939Y-54247721D01*
X141959986Y-54250060D01*
X141954705Y-54251507D01*
X141859467Y-54299126D01*
X141853138Y-54304037D01*
X141846472Y-54308492D01*
X141798854Y-54356111D01*
X141794402Y-54362772D01*
X141789487Y-54369106D01*
X141741869Y-54464343D01*
X141741207Y-54466758D01*
X141740396Y-54467570D01*
X141738832Y-54475431D01*
X141736716Y-54483159D01*
X141737078Y-54484247D01*
X141736590Y-54486704D01*
X141625479Y-54486704D01*
X141625479Y-53611308D01*
X154757226Y-53611308D01*
X154757226Y-55266863D01*
G37*
D11*
%TO.C,J1*%
X103420000Y-47380000D02*
X103420000Y-49980000D01*
X103420000Y-47380000D02*
X154340000Y-47380000D01*
X103420000Y-49980000D02*
X106020000Y-49980000D01*
X103420000Y-51250000D02*
X103420000Y-52580000D01*
X103420000Y-52580000D02*
X104750000Y-52580000D01*
X106020000Y-49980000D02*
X106020000Y-52580000D01*
X106020000Y-52580000D02*
X154340000Y-52580000D01*
X154340000Y-47380000D02*
X154340000Y-52580000D01*
%TD*%
M02*
