%TF.GenerationSoftware,KiCad,Pcbnew,9.0.7*%
%TF.CreationDate,2026-01-26T16:26:35+01:00*%
%TF.ProjectId,Projet 6 KICAD CLS COMPLET,50726f6a-6574-4203-9620-4b4943414420,rev?*%
%TF.SameCoordinates,Original*%
%TF.FileFunction,Copper,L3,Inr*%
%TF.FilePolarity,Positive*%
%FSLAX46Y46*%
G04 Gerber Fmt 4.6, Leading zero omitted, Abs format (unit mm)*
G04 Created by KiCad (PCBNEW 9.0.7) date 2026-01-26 16:26:35*
%MOMM*%
%LPD*%
G01*
G04 APERTURE LIST*
G04 Aperture macros list*
%AMRoundRect*
0 Rectangle with rounded corners*
0 $1 Rounding radius*
0 $2 $3 $4 $5 $6 $7 $8 $9 X,Y pos of 4 corners*
0 Add a 4 corners polygon primitive as box body*
4,1,4,$2,$3,$4,$5,$6,$7,$8,$9,$2,$3,0*
0 Add four circle primitives for the rounded corners*
1,1,$1+$1,$2,$3*
1,1,$1+$1,$4,$5*
1,1,$1+$1,$6,$7*
1,1,$1+$1,$8,$9*
0 Add four rect primitives between the rounded corners*
20,1,$1+$1,$2,$3,$4,$5,0*
20,1,$1+$1,$4,$5,$6,$7,0*
20,1,$1+$1,$6,$7,$8,$9,0*
20,1,$1+$1,$8,$9,$2,$3,0*%
G04 Aperture macros list end*
%TA.AperFunction,ComponentPad*%
%ADD10C,5.400000*%
%TD*%
%TA.AperFunction,HeatsinkPad*%
%ADD11C,0.600000*%
%TD*%
%TA.AperFunction,ComponentPad*%
%ADD12RoundRect,0.250000X-0.625000X0.350000X-0.625000X-0.350000X0.625000X-0.350000X0.625000X0.350000X0*%
%TD*%
%TA.AperFunction,ComponentPad*%
%ADD13O,1.750000X1.200000*%
%TD*%
%TA.AperFunction,ComponentPad*%
%ADD14RoundRect,0.250000X0.625000X-0.350000X0.625000X0.350000X-0.625000X0.350000X-0.625000X-0.350000X0*%
%TD*%
%TA.AperFunction,ComponentPad*%
%ADD15RoundRect,0.250000X-0.350000X-0.625000X0.350000X-0.625000X0.350000X0.625000X-0.350000X0.625000X0*%
%TD*%
%TA.AperFunction,ComponentPad*%
%ADD16O,1.200000X1.750000*%
%TD*%
%TA.AperFunction,ComponentPad*%
%ADD17RoundRect,0.250000X0.600000X0.750000X-0.600000X0.750000X-0.600000X-0.750000X0.600000X-0.750000X0*%
%TD*%
%TA.AperFunction,ComponentPad*%
%ADD18O,1.700000X2.000000*%
%TD*%
%TA.AperFunction,ComponentPad*%
%ADD19R,1.700000X1.700000*%
%TD*%
%TA.AperFunction,ComponentPad*%
%ADD20C,1.700000*%
%TD*%
%TA.AperFunction,ViaPad*%
%ADD21C,0.600000*%
%TD*%
G04 APERTURE END LIST*
D10*
%TO.N,GND*%
%TO.C,H2*%
X158000000Y-50000000D03*
%TD*%
%TO.N,GND*%
%TO.C,H1*%
X100000000Y-50000000D03*
%TD*%
D11*
%TO.N,GND*%
%TO.C,U2*%
X146262500Y-63725000D03*
X146262500Y-62125000D03*
X146262500Y-60525000D03*
X146262500Y-58925000D03*
X144012500Y-63725000D03*
X144012500Y-62125000D03*
X144012500Y-60525000D03*
X144012500Y-58925000D03*
%TD*%
D10*
%TO.N,GND*%
%TO.C,H4*%
X158000000Y-73000000D03*
%TD*%
D11*
%TO.N,GND*%
%TO.C,U1*%
X111875000Y-59350000D03*
X111875000Y-60950000D03*
X111875000Y-62550000D03*
X111875000Y-64150000D03*
X114125000Y-59350000D03*
X114125000Y-60950000D03*
X114125000Y-62550000D03*
X114125000Y-64150000D03*
%TD*%
D12*
%TO.N,MOT1_2_A2*%
%TO.C,J3*%
X100150435Y-58495718D03*
D13*
%TO.N,MOT1_1_A1*%
X100150435Y-60495718D03*
%TO.N,MOT1_1_B1*%
X100150435Y-62495718D03*
%TO.N,MOT1_2_B2*%
X100150435Y-64495718D03*
%TD*%
D14*
%TO.N,MOT2_2_A2*%
%TO.C,J4*%
X157750000Y-64250000D03*
D13*
%TO.N,MOT2_1_A1*%
X157750000Y-62250000D03*
%TO.N,MOT2_1_B1*%
X157750000Y-60250000D03*
%TO.N,MOT2_2_B2*%
X157750000Y-58250000D03*
%TD*%
D15*
%TO.N,GND*%
%TO.C,J2*%
X120000000Y-72750000D03*
D16*
%TO.N,CS*%
X122000000Y-72750000D03*
%TO.N,MOSI*%
X124000000Y-72750000D03*
%TO.N,MISO*%
X126000000Y-72750000D03*
%TO.N,SCLK*%
X128000000Y-72750000D03*
%TO.N,+3.3V*%
X130000000Y-72750000D03*
%TD*%
D17*
%TO.N,GND*%
%TO.C,J5*%
X149500000Y-74000000D03*
D18*
%TO.N,VCC*%
X147000000Y-74000000D03*
%TD*%
D10*
%TO.N,GND*%
%TO.C,H3*%
X100000000Y-73000000D03*
%TD*%
D19*
%TO.N,+3.3V*%
%TO.C,J1*%
X104750000Y-51250000D03*
D20*
%TO.N,unconnected-(J1-Pin_2-Pad2)*%
X104750000Y-48710000D03*
%TO.N,SDA*%
X107290000Y-51250000D03*
%TO.N,unconnected-(J1-Pin_4-Pad4)*%
X107290000Y-48710000D03*
%TO.N,SCL*%
X109830000Y-51250000D03*
%TO.N,GND*%
X109830000Y-48710000D03*
%TO.N,unconnected-(J1-Pin_7-Pad7)*%
X112370000Y-51250000D03*
%TO.N,unconnected-(J1-Pin_8-Pad8)*%
X112370000Y-48710000D03*
%TO.N,GND*%
X114910000Y-51250000D03*
%TO.N,unconnected-(J1-Pin_10-Pad10)*%
X114910000Y-48710000D03*
%TO.N,unconnected-(J1-Pin_11-Pad11)*%
X117450000Y-51250000D03*
%TO.N,unconnected-(J1-Pin_12-Pad12)*%
X117450000Y-48710000D03*
%TO.N,unconnected-(J1-Pin_13-Pad13)*%
X119990000Y-51250000D03*
%TO.N,GND*%
X119990000Y-48710000D03*
%TO.N,unconnected-(J1-Pin_15-Pad15)*%
X122530000Y-51250000D03*
%TO.N,unconnected-(J1-Pin_16-Pad16)*%
X122530000Y-48710000D03*
%TO.N,+3.3V*%
X125070000Y-51250000D03*
%TO.N,unconnected-(J1-Pin_18-Pad18)*%
X125070000Y-48710000D03*
%TO.N,MOSI*%
X127610000Y-51250000D03*
%TO.N,GND*%
X127610000Y-48710000D03*
%TO.N,MISO*%
X130150000Y-51250000D03*
%TO.N,unconnected-(J1-Pin_22-Pad22)*%
X130150000Y-48710000D03*
%TO.N,SCLK*%
X132690000Y-51250000D03*
%TO.N,CS*%
X132690000Y-48710000D03*
%TO.N,GND*%
X135230000Y-51250000D03*
%TO.N,unconnected-(J1-Pin_26-Pad26)*%
X135230000Y-48710000D03*
%TO.N,unconnected-(J1-Pin_27-Pad27)*%
X137770000Y-51250000D03*
%TO.N,unconnected-(J1-Pin_28-Pad28)*%
X137770000Y-48710000D03*
%TO.N,unconnected-(J1-Pin_29-Pad29)*%
X140310000Y-51250000D03*
%TO.N,GND*%
X140310000Y-48710000D03*
%TO.N,DIR2*%
X142850000Y-51250000D03*
%TO.N,STEP1*%
X142850000Y-48710000D03*
%TO.N,STEP2*%
X145390000Y-51250000D03*
%TO.N,GND*%
X145390000Y-48710000D03*
%TO.N,unconnected-(J1-Pin_35-Pad35)*%
X147930000Y-51250000D03*
%TO.N,DIR1*%
X147930000Y-48710000D03*
%TO.N,unconnected-(J1-Pin_37-Pad37)*%
X150470000Y-51250000D03*
%TO.N,unconnected-(J1-Pin_38-Pad38)*%
X150470000Y-48710000D03*
%TO.N,GND*%
X153010000Y-51250000D03*
%TO.N,unconnected-(J1-Pin_40-Pad40)*%
X153010000Y-48710000D03*
%TD*%
D21*
%TO.N,GND*%
X111250000Y-65250000D03*
X137262500Y-61925000D03*
X121500000Y-59500000D03*
X146750000Y-57750000D03*
X117250000Y-62075000D03*
X128000000Y-62750000D03*
X141012500Y-60925000D03*
%TO.N,+3.3V*%
X104750000Y-53000000D03*
X113750000Y-67750000D03*
X121500000Y-60500000D03*
X140762500Y-57600000D03*
X140492164Y-67529664D03*
X132570000Y-57320000D03*
X127160000Y-62750000D03*
X117612500Y-55362500D03*
X124000000Y-58500000D03*
X130000000Y-67750000D03*
X129500000Y-57250000D03*
X117250000Y-65475000D03*
X137262500Y-63425000D03*
X130320000Y-64020000D03*
X110250000Y-69250000D03*
%TO.N,MOSI*%
X124000000Y-70250000D03*
%TO.N,STEP1*%
X122600000Y-65200000D03*
X117250000Y-61250000D03*
X128100000Y-64800000D03*
%TO.N,CS*%
X127049765Y-68451235D03*
%TO.N,MISO*%
X126000000Y-70250000D03*
%TO.N,SCLK*%
X128000000Y-70250000D03*
%TO.N,SDA*%
X123000000Y-57000000D03*
%TO.N,STEP2*%
X141033380Y-61795880D03*
%TO.N,DIR2*%
X139762500Y-60425000D03*
%TO.N,SCL*%
X123575000Y-55325000D03*
%TO.N,DIR1*%
X127700000Y-66500000D03*
X118250000Y-62725000D03*
X123500000Y-66500000D03*
%TO.N,MOT1_2_B2*%
X108500000Y-63750000D03*
%TO.N,MOT1_2_A2*%
X108000000Y-60000000D03*
%TO.N,MOT2_1_A1*%
X151000000Y-61000000D03*
%TO.N,MOT2_1_B1*%
X150725451Y-63995403D03*
X155000000Y-65250000D03*
%TO.N,MOT2_2_A2*%
X151000000Y-62250000D03*
%TO.N,MOT2_2_B2*%
X149625000Y-59375000D03*
%TO.N,VCC*%
X146000000Y-70250000D03*
X108000000Y-59000000D03*
X136250000Y-68700000D03*
X149619342Y-63880658D03*
X104500000Y-56500000D03*
X149549396Y-58299396D03*
X115000000Y-74150000D03*
X102700000Y-65800000D03*
X152250000Y-68500000D03*
%TD*%
%TA.AperFunction,Conductor*%
%TO.N,+3.3V*%
G36*
X156791437Y-46820185D02*
G01*
X156837192Y-46872989D01*
X156847136Y-46942147D01*
X156818111Y-47005703D01*
X156775998Y-47036064D01*
X156776427Y-47036954D01*
X156449420Y-47194432D01*
X156145045Y-47385684D01*
X155863997Y-47609811D01*
X155609811Y-47863997D01*
X155385684Y-48145045D01*
X155194432Y-48449420D01*
X155038465Y-48773288D01*
X154919741Y-49112580D01*
X154919737Y-49112592D01*
X154839748Y-49463048D01*
X154839746Y-49463064D01*
X154799500Y-49820259D01*
X154799500Y-50179740D01*
X154839746Y-50536935D01*
X154839748Y-50536951D01*
X154919737Y-50887407D01*
X154919741Y-50887419D01*
X155038465Y-51226711D01*
X155194432Y-51550579D01*
X155253596Y-51644738D01*
X155385685Y-51854956D01*
X155609812Y-52136003D01*
X155863997Y-52390188D01*
X156145044Y-52614315D01*
X156449418Y-52805566D01*
X156773292Y-52961536D01*
X157028119Y-53050703D01*
X157112580Y-53080258D01*
X157112592Y-53080262D01*
X157463052Y-53160252D01*
X157820260Y-53200499D01*
X157820261Y-53200500D01*
X157820264Y-53200500D01*
X158179739Y-53200500D01*
X158179739Y-53200499D01*
X158536948Y-53160252D01*
X158887408Y-53080262D01*
X159226708Y-52961536D01*
X159550582Y-52805566D01*
X159854956Y-52614315D01*
X160136003Y-52390188D01*
X160390188Y-52136003D01*
X160614315Y-51854956D01*
X160805566Y-51550582D01*
X160961536Y-51226708D01*
X160963046Y-51223573D01*
X160964190Y-51224123D01*
X161004760Y-51173759D01*
X161071050Y-51151682D01*
X161138753Y-51168948D01*
X161186373Y-51220076D01*
X161199500Y-51275602D01*
X161199500Y-54870500D01*
X161179815Y-54937539D01*
X161127011Y-54983294D01*
X161075500Y-54994500D01*
X146874000Y-54994500D01*
X146873991Y-54994500D01*
X146873990Y-54994501D01*
X146766549Y-55006052D01*
X146766537Y-55006054D01*
X146715027Y-55017260D01*
X146612502Y-55051383D01*
X146612496Y-55051386D01*
X146491462Y-55129171D01*
X146491451Y-55129179D01*
X146438659Y-55174923D01*
X146344433Y-55283664D01*
X146344430Y-55283668D01*
X146284664Y-55414534D01*
X146282469Y-55422011D01*
X146264977Y-55481580D01*
X146264976Y-55481584D01*
X146248752Y-55594430D01*
X146244500Y-55624001D01*
X146244500Y-56832064D01*
X146247896Y-56890542D01*
X146247900Y-56890592D01*
X146251222Y-56919087D01*
X146251586Y-56921155D01*
X146261371Y-56976817D01*
X146261371Y-56976819D01*
X146261372Y-56976820D01*
X146268250Y-56994301D01*
X146274476Y-57063893D01*
X146242089Y-57125803D01*
X146240541Y-57127380D01*
X146128210Y-57239711D01*
X146040609Y-57370814D01*
X146040602Y-57370827D01*
X145980264Y-57516498D01*
X145980261Y-57516510D01*
X145949500Y-57671153D01*
X145949500Y-57828846D01*
X145980261Y-57983489D01*
X145980263Y-57983497D01*
X146000676Y-58032778D01*
X146008145Y-58102248D01*
X145976870Y-58164727D01*
X145933569Y-58194791D01*
X145883329Y-58215601D01*
X145883314Y-58215609D01*
X145752211Y-58303210D01*
X145752207Y-58303213D01*
X145640713Y-58414707D01*
X145640710Y-58414711D01*
X145553109Y-58545814D01*
X145553102Y-58545827D01*
X145492764Y-58691498D01*
X145492761Y-58691510D01*
X145462000Y-58846153D01*
X145462000Y-59003846D01*
X145492761Y-59158489D01*
X145492764Y-59158501D01*
X145553102Y-59304172D01*
X145553109Y-59304185D01*
X145640710Y-59435288D01*
X145640713Y-59435292D01*
X145752207Y-59546786D01*
X145752211Y-59546789D01*
X145864618Y-59621898D01*
X145909423Y-59675510D01*
X145918130Y-59744835D01*
X145887975Y-59807863D01*
X145864618Y-59828102D01*
X145752211Y-59903210D01*
X145752207Y-59903213D01*
X145640713Y-60014707D01*
X145640710Y-60014711D01*
X145553109Y-60145814D01*
X145553102Y-60145827D01*
X145492764Y-60291498D01*
X145492761Y-60291510D01*
X145462000Y-60446153D01*
X145462000Y-60603846D01*
X145492761Y-60758489D01*
X145492764Y-60758501D01*
X145553102Y-60904172D01*
X145553109Y-60904185D01*
X145640710Y-61035288D01*
X145640713Y-61035292D01*
X145752207Y-61146786D01*
X145752211Y-61146789D01*
X145864618Y-61221898D01*
X145909423Y-61275510D01*
X145918130Y-61344835D01*
X145887975Y-61407863D01*
X145864618Y-61428102D01*
X145752211Y-61503210D01*
X145752207Y-61503213D01*
X145640713Y-61614707D01*
X145640710Y-61614711D01*
X145553109Y-61745814D01*
X145553102Y-61745827D01*
X145492764Y-61891498D01*
X145492761Y-61891510D01*
X145462000Y-62046153D01*
X145462000Y-62203846D01*
X145492761Y-62358489D01*
X145492764Y-62358501D01*
X145553102Y-62504172D01*
X145553109Y-62504185D01*
X145640710Y-62635288D01*
X145640713Y-62635292D01*
X145752207Y-62746786D01*
X145752211Y-62746789D01*
X145864618Y-62821898D01*
X145909423Y-62875510D01*
X145918130Y-62944835D01*
X145887975Y-63007863D01*
X145864618Y-63028102D01*
X145752211Y-63103210D01*
X145752207Y-63103213D01*
X145640713Y-63214707D01*
X145640710Y-63214711D01*
X145553109Y-63345814D01*
X145553102Y-63345827D01*
X145492764Y-63491498D01*
X145492761Y-63491510D01*
X145462000Y-63646153D01*
X145462000Y-63803846D01*
X145492761Y-63958489D01*
X145492764Y-63958501D01*
X145553102Y-64104172D01*
X145553109Y-64104185D01*
X145640710Y-64235288D01*
X145640713Y-64235292D01*
X145752207Y-64346786D01*
X145752211Y-64346789D01*
X145883314Y-64434390D01*
X145883327Y-64434397D01*
X146019020Y-64490602D01*
X146029003Y-64494737D01*
X146127054Y-64514240D01*
X146144691Y-64517749D01*
X146206602Y-64550134D01*
X146241176Y-64610849D01*
X146244500Y-64639366D01*
X146244500Y-67620500D01*
X146224815Y-67687539D01*
X146172011Y-67733294D01*
X146120500Y-67744500D01*
X140869591Y-67744500D01*
X140848044Y-67746622D01*
X140770974Y-67754212D01*
X140723524Y-67763651D01*
X140723519Y-67763652D01*
X140723516Y-67763652D01*
X140723503Y-67763656D01*
X140628711Y-67792411D01*
X140628684Y-67792421D01*
X140589490Y-67808654D01*
X140566239Y-67815707D01*
X140533201Y-67822280D01*
X140509005Y-67824664D01*
X140475323Y-67824664D01*
X140451132Y-67822281D01*
X140418088Y-67815708D01*
X140394829Y-67808652D01*
X140355634Y-67792417D01*
X140355629Y-67792415D01*
X140260824Y-67763656D01*
X140260815Y-67763653D01*
X140260809Y-67763652D01*
X140236844Y-67758885D01*
X140213353Y-67754212D01*
X140138925Y-67746882D01*
X140114737Y-67744500D01*
X130683441Y-67744500D01*
X130683439Y-67744500D01*
X130629390Y-67747397D01*
X130629389Y-67747397D01*
X130603056Y-67750229D01*
X130603029Y-67750232D01*
X130549633Y-67758885D01*
X130549631Y-67758885D01*
X130414826Y-67809166D01*
X130353502Y-67842651D01*
X130238319Y-67928874D01*
X130238309Y-67928882D01*
X130196688Y-67970504D01*
X130177900Y-67985923D01*
X130177898Y-67985925D01*
X130149887Y-68004641D01*
X130128450Y-68016099D01*
X130097331Y-68028989D01*
X130074071Y-68036045D01*
X130057340Y-68039373D01*
X130041031Y-68042617D01*
X130016841Y-68045000D01*
X129983159Y-68045000D01*
X129958970Y-68042617D01*
X129925924Y-68036044D01*
X129902667Y-68028988D01*
X129871547Y-68016098D01*
X129850107Y-68004638D01*
X129822099Y-67985923D01*
X129803311Y-67970504D01*
X129761694Y-67928888D01*
X129761688Y-67928882D01*
X129761680Y-67928874D01*
X129760591Y-67927896D01*
X129721418Y-67892709D01*
X129700773Y-67876073D01*
X129656895Y-67844433D01*
X129526021Y-67784663D01*
X129458976Y-67764976D01*
X129384115Y-67754213D01*
X129316559Y-67744500D01*
X127974265Y-67744500D01*
X127974256Y-67744500D01*
X127974255Y-67744501D01*
X127866814Y-67756052D01*
X127866802Y-67756054D01*
X127815292Y-67767260D01*
X127712763Y-67801385D01*
X127712760Y-67801387D01*
X127681877Y-67821234D01*
X127614837Y-67840918D01*
X127547798Y-67821233D01*
X127545948Y-67820020D01*
X127428950Y-67741844D01*
X127428937Y-67741837D01*
X127283266Y-67681499D01*
X127283254Y-67681496D01*
X127128610Y-67650735D01*
X127128607Y-67650735D01*
X126970923Y-67650735D01*
X126970920Y-67650735D01*
X126816275Y-67681496D01*
X126816263Y-67681499D01*
X126670592Y-67741837D01*
X126670574Y-67741847D01*
X126553658Y-67819968D01*
X126486981Y-67840846D01*
X126433256Y-67829660D01*
X126334730Y-67784664D01*
X126334725Y-67784662D01*
X126334724Y-67784662D01*
X126275457Y-67767259D01*
X126267682Y-67764976D01*
X126192821Y-67754213D01*
X126125265Y-67744500D01*
X114433441Y-67744500D01*
X114433439Y-67744500D01*
X114379390Y-67747397D01*
X114379389Y-67747397D01*
X114353056Y-67750229D01*
X114353029Y-67750232D01*
X114299633Y-67758885D01*
X114299631Y-67758885D01*
X114164826Y-67809166D01*
X114103502Y-67842651D01*
X113988319Y-67928874D01*
X113988309Y-67928882D01*
X113946688Y-67970504D01*
X113927900Y-67985923D01*
X113927898Y-67985925D01*
X113899887Y-68004641D01*
X113878450Y-68016099D01*
X113847331Y-68028989D01*
X113824071Y-68036045D01*
X113807340Y-68039373D01*
X113791031Y-68042617D01*
X113766841Y-68045000D01*
X113733159Y-68045000D01*
X113708970Y-68042617D01*
X113675924Y-68036044D01*
X113652667Y-68028988D01*
X113621547Y-68016098D01*
X113600107Y-68004638D01*
X113572099Y-67985923D01*
X113553312Y-67970505D01*
X113529495Y-67946689D01*
X113514074Y-67927899D01*
X113495358Y-67899890D01*
X113483901Y-67878455D01*
X113480780Y-67870921D01*
X113471007Y-67847326D01*
X113463954Y-67824075D01*
X113457381Y-67791031D01*
X113455000Y-67766844D01*
X113455000Y-67733153D01*
X113457382Y-67708965D01*
X113463955Y-67675919D01*
X113471007Y-67652671D01*
X113483901Y-67621540D01*
X113495352Y-67600117D01*
X113514081Y-67572088D01*
X113529488Y-67553316D01*
X113571121Y-67511685D01*
X113607288Y-67471421D01*
X113623922Y-67450779D01*
X113655567Y-67406895D01*
X113715338Y-67276018D01*
X113735023Y-67208979D01*
X113735024Y-67208975D01*
X113755500Y-67066559D01*
X113755500Y-65121153D01*
X121799500Y-65121153D01*
X121799500Y-65278846D01*
X121830261Y-65433489D01*
X121830264Y-65433501D01*
X121890602Y-65579172D01*
X121890609Y-65579185D01*
X121978210Y-65710288D01*
X121978213Y-65710292D01*
X122089707Y-65821786D01*
X122089711Y-65821789D01*
X122220814Y-65909390D01*
X122220827Y-65909397D01*
X122366498Y-65969735D01*
X122366503Y-65969737D01*
X122521153Y-66000499D01*
X122521156Y-66000500D01*
X122654866Y-66000500D01*
X122721905Y-66020185D01*
X122767660Y-66072989D01*
X122777604Y-66142147D01*
X122769427Y-66171953D01*
X122730263Y-66266502D01*
X122730261Y-66266510D01*
X122699500Y-66421153D01*
X122699500Y-66578846D01*
X122730261Y-66733489D01*
X122730264Y-66733501D01*
X122790602Y-66879172D01*
X122790609Y-66879185D01*
X122878210Y-67010288D01*
X122878213Y-67010292D01*
X122989707Y-67121786D01*
X122989711Y-67121789D01*
X123120814Y-67209390D01*
X123120827Y-67209397D01*
X123266498Y-67269735D01*
X123266503Y-67269737D01*
X123421153Y-67300499D01*
X123421156Y-67300500D01*
X123421158Y-67300500D01*
X123578844Y-67300500D01*
X123578845Y-67300499D01*
X123733497Y-67269737D01*
X123879179Y-67209394D01*
X124010289Y-67121789D01*
X124121789Y-67010289D01*
X124209394Y-66879179D01*
X124269737Y-66733497D01*
X124300500Y-66578842D01*
X124300500Y-66421158D01*
X124300500Y-66421155D01*
X124300499Y-66421153D01*
X126899500Y-66421153D01*
X126899500Y-66578846D01*
X126930261Y-66733489D01*
X126930264Y-66733501D01*
X126990602Y-66879172D01*
X126990609Y-66879185D01*
X127078210Y-67010288D01*
X127078213Y-67010292D01*
X127189707Y-67121786D01*
X127189711Y-67121789D01*
X127320814Y-67209390D01*
X127320827Y-67209397D01*
X127466498Y-67269735D01*
X127466503Y-67269737D01*
X127621153Y-67300499D01*
X127621156Y-67300500D01*
X127621158Y-67300500D01*
X127778844Y-67300500D01*
X127778845Y-67300499D01*
X127933497Y-67269737D01*
X128079179Y-67209394D01*
X128210289Y-67121789D01*
X128321789Y-67010289D01*
X128409394Y-66879179D01*
X128469737Y-66733497D01*
X128500500Y-66578842D01*
X128500500Y-66421158D01*
X128500500Y-66421155D01*
X128500499Y-66421153D01*
X128469738Y-66266510D01*
X128469737Y-66266503D01*
X128469735Y-66266498D01*
X128409397Y-66120827D01*
X128409390Y-66120814D01*
X128321789Y-65989711D01*
X128321786Y-65989707D01*
X128210292Y-65878213D01*
X128210288Y-65878210D01*
X128131707Y-65825703D01*
X128086902Y-65772090D01*
X128078195Y-65702765D01*
X128108350Y-65639738D01*
X128167793Y-65603019D01*
X128176407Y-65600984D01*
X128178840Y-65600500D01*
X128178842Y-65600500D01*
X128333497Y-65569737D01*
X128479179Y-65509394D01*
X128610289Y-65421789D01*
X128721789Y-65310289D01*
X128809394Y-65179179D01*
X128869737Y-65033497D01*
X128900500Y-64878842D01*
X128900500Y-64721158D01*
X128900500Y-64721155D01*
X128900499Y-64721153D01*
X128872066Y-64578211D01*
X128869737Y-64566503D01*
X128862957Y-64550134D01*
X128809397Y-64420827D01*
X128809390Y-64420814D01*
X128721789Y-64289711D01*
X128721786Y-64289707D01*
X128610292Y-64178213D01*
X128610288Y-64178210D01*
X128479185Y-64090609D01*
X128479172Y-64090602D01*
X128333501Y-64030264D01*
X128333489Y-64030261D01*
X128178845Y-63999500D01*
X128178842Y-63999500D01*
X128021158Y-63999500D01*
X128021155Y-63999500D01*
X127866510Y-64030261D01*
X127866498Y-64030264D01*
X127720827Y-64090602D01*
X127720814Y-64090609D01*
X127589711Y-64178210D01*
X127589707Y-64178213D01*
X127478213Y-64289707D01*
X127478210Y-64289711D01*
X127390609Y-64420814D01*
X127390602Y-64420827D01*
X127330264Y-64566498D01*
X127330261Y-64566510D01*
X127299500Y-64721153D01*
X127299500Y-64878846D01*
X127330261Y-65033489D01*
X127330264Y-65033501D01*
X127390602Y-65179172D01*
X127390609Y-65179185D01*
X127478210Y-65310288D01*
X127478213Y-65310292D01*
X127589707Y-65421786D01*
X127589711Y-65421789D01*
X127668292Y-65474296D01*
X127713097Y-65527909D01*
X127721804Y-65597234D01*
X127691649Y-65660261D01*
X127632206Y-65696980D01*
X127623593Y-65699015D01*
X127466508Y-65730261D01*
X127466498Y-65730264D01*
X127320827Y-65790602D01*
X127320814Y-65790609D01*
X127189711Y-65878210D01*
X127189707Y-65878213D01*
X127078213Y-65989707D01*
X127078210Y-65989711D01*
X126990609Y-66120814D01*
X126990602Y-66120827D01*
X126930264Y-66266498D01*
X126930261Y-66266510D01*
X126899500Y-66421153D01*
X124300499Y-66421153D01*
X124269738Y-66266510D01*
X124269737Y-66266503D01*
X124269735Y-66266498D01*
X124209397Y-66120827D01*
X124209390Y-66120814D01*
X124121789Y-65989711D01*
X124121786Y-65989707D01*
X124010292Y-65878213D01*
X124010288Y-65878210D01*
X123879185Y-65790609D01*
X123879172Y-65790602D01*
X123733501Y-65730264D01*
X123733489Y-65730261D01*
X123578845Y-65699500D01*
X123578842Y-65699500D01*
X123445134Y-65699500D01*
X123378095Y-65679815D01*
X123332340Y-65627011D01*
X123322396Y-65557853D01*
X123330573Y-65528047D01*
X123369737Y-65433497D01*
X123400500Y-65278842D01*
X123400500Y-65121158D01*
X123400500Y-65121155D01*
X123400499Y-65121153D01*
X123369738Y-64966510D01*
X123369737Y-64966503D01*
X123369735Y-64966498D01*
X123309397Y-64820827D01*
X123309390Y-64820814D01*
X123221789Y-64689711D01*
X123221786Y-64689707D01*
X123110292Y-64578213D01*
X123110288Y-64578210D01*
X122979185Y-64490609D01*
X122979172Y-64490602D01*
X122833501Y-64430264D01*
X122833489Y-64430261D01*
X122678845Y-64399500D01*
X122678842Y-64399500D01*
X122521158Y-64399500D01*
X122521155Y-64399500D01*
X122366510Y-64430261D01*
X122366498Y-64430264D01*
X122220827Y-64490602D01*
X122220814Y-64490609D01*
X122089711Y-64578210D01*
X122089707Y-64578213D01*
X121978213Y-64689707D01*
X121978210Y-64689711D01*
X121890609Y-64820814D01*
X121890602Y-64820827D01*
X121830264Y-64966498D01*
X121830261Y-64966510D01*
X121799500Y-65121153D01*
X113755500Y-65121153D01*
X113755500Y-65043778D01*
X113775185Y-64976739D01*
X113827989Y-64930984D01*
X113897147Y-64921040D01*
X113903671Y-64922157D01*
X113972611Y-64935870D01*
X114046155Y-64950500D01*
X114046158Y-64950500D01*
X114203844Y-64950500D01*
X114203845Y-64950499D01*
X114358497Y-64919737D01*
X114471166Y-64873067D01*
X114504172Y-64859397D01*
X114504172Y-64859396D01*
X114504179Y-64859394D01*
X114635289Y-64771789D01*
X114746789Y-64660289D01*
X114834394Y-64529179D01*
X114894737Y-64383497D01*
X114925500Y-64228842D01*
X114925500Y-64071158D01*
X114925500Y-64071155D01*
X114925499Y-64071153D01*
X114903090Y-63958497D01*
X114894737Y-63916503D01*
X114894735Y-63916498D01*
X114834397Y-63770827D01*
X114834390Y-63770814D01*
X114746789Y-63639711D01*
X114746786Y-63639707D01*
X114635292Y-63528213D01*
X114635288Y-63528210D01*
X114522881Y-63453102D01*
X114478076Y-63399490D01*
X114469369Y-63330165D01*
X114499523Y-63267137D01*
X114522881Y-63246898D01*
X114571058Y-63214707D01*
X114635289Y-63171789D01*
X114746789Y-63060289D01*
X114834394Y-62929179D01*
X114894737Y-62783497D01*
X114925500Y-62628842D01*
X114925500Y-62471158D01*
X114925500Y-62471155D01*
X114925499Y-62471153D01*
X114905543Y-62370827D01*
X114894737Y-62316503D01*
X114894735Y-62316498D01*
X114834397Y-62170827D01*
X114834390Y-62170814D01*
X114746789Y-62039711D01*
X114746786Y-62039707D01*
X114635292Y-61928213D01*
X114635288Y-61928210D01*
X114522881Y-61853102D01*
X114478076Y-61799490D01*
X114469369Y-61730165D01*
X114499523Y-61667137D01*
X114522881Y-61646898D01*
X114571058Y-61614707D01*
X114635289Y-61571789D01*
X114746789Y-61460289D01*
X114834394Y-61329179D01*
X114894737Y-61183497D01*
X114897192Y-61171153D01*
X116449500Y-61171153D01*
X116449500Y-61328846D01*
X116480261Y-61483489D01*
X116480264Y-61483501D01*
X116534752Y-61615048D01*
X116542221Y-61684517D01*
X116534752Y-61709952D01*
X116480264Y-61841498D01*
X116480261Y-61841510D01*
X116449500Y-61996153D01*
X116449500Y-62153846D01*
X116480261Y-62308489D01*
X116480264Y-62308501D01*
X116540602Y-62454172D01*
X116540609Y-62454185D01*
X116628210Y-62585288D01*
X116628213Y-62585292D01*
X116739707Y-62696786D01*
X116739711Y-62696789D01*
X116870814Y-62784390D01*
X116870827Y-62784397D01*
X117010226Y-62842137D01*
X117016503Y-62844737D01*
X117162330Y-62873744D01*
X117171153Y-62875499D01*
X117171156Y-62875500D01*
X117171158Y-62875500D01*
X117328842Y-62875500D01*
X117337668Y-62873744D01*
X117407259Y-62879968D01*
X117462438Y-62922827D01*
X117477418Y-62953082D01*
X117477932Y-62952870D01*
X117540602Y-63104172D01*
X117540609Y-63104185D01*
X117628210Y-63235288D01*
X117628213Y-63235292D01*
X117739707Y-63346786D01*
X117739711Y-63346789D01*
X117870814Y-63434390D01*
X117870827Y-63434397D01*
X118008683Y-63491498D01*
X118016503Y-63494737D01*
X118142176Y-63519735D01*
X118171153Y-63525499D01*
X118171156Y-63525500D01*
X118171158Y-63525500D01*
X118328844Y-63525500D01*
X118328845Y-63525499D01*
X118483497Y-63494737D01*
X118629179Y-63434394D01*
X118760289Y-63346789D01*
X118871789Y-63235289D01*
X118959394Y-63104179D01*
X119019737Y-62958497D01*
X119050500Y-62803842D01*
X119050500Y-62671153D01*
X127199500Y-62671153D01*
X127199500Y-62828846D01*
X127230261Y-62983489D01*
X127230264Y-62983501D01*
X127290602Y-63129172D01*
X127290609Y-63129185D01*
X127378210Y-63260288D01*
X127378213Y-63260292D01*
X127489707Y-63371786D01*
X127489711Y-63371789D01*
X127620814Y-63459390D01*
X127620827Y-63459397D01*
X127766498Y-63519735D01*
X127766503Y-63519737D01*
X127921153Y-63550499D01*
X127921156Y-63550500D01*
X127921158Y-63550500D01*
X128078844Y-63550500D01*
X128078845Y-63550499D01*
X128233497Y-63519737D01*
X128379179Y-63459394D01*
X128510289Y-63371789D01*
X128621789Y-63260289D01*
X128709394Y-63129179D01*
X128769737Y-62983497D01*
X128800500Y-62828842D01*
X128800500Y-62671158D01*
X128800500Y-62671155D01*
X128800499Y-62671153D01*
X128795527Y-62646158D01*
X128769737Y-62516503D01*
X128750955Y-62471158D01*
X128709397Y-62370827D01*
X128709390Y-62370814D01*
X128621789Y-62239711D01*
X128621786Y-62239707D01*
X128510292Y-62128213D01*
X128510288Y-62128210D01*
X128379185Y-62040609D01*
X128379172Y-62040602D01*
X128233501Y-61980264D01*
X128233491Y-61980261D01*
X128140092Y-61961683D01*
X128140091Y-61961682D01*
X128078845Y-61949500D01*
X128078842Y-61949500D01*
X127921158Y-61949500D01*
X127921155Y-61949500D01*
X127766510Y-61980261D01*
X127766498Y-61980264D01*
X127620827Y-62040602D01*
X127620814Y-62040609D01*
X127489711Y-62128210D01*
X127489707Y-62128213D01*
X127378213Y-62239707D01*
X127378210Y-62239711D01*
X127290609Y-62370814D01*
X127290602Y-62370827D01*
X127230264Y-62516498D01*
X127230261Y-62516510D01*
X127199500Y-62671153D01*
X119050500Y-62671153D01*
X119050500Y-62646158D01*
X119050500Y-62646155D01*
X119050499Y-62646153D01*
X119030734Y-62546789D01*
X119019737Y-62491503D01*
X119011308Y-62471153D01*
X118959397Y-62345827D01*
X118959390Y-62345814D01*
X118871789Y-62214711D01*
X118871786Y-62214707D01*
X118760292Y-62103213D01*
X118760288Y-62103210D01*
X118629185Y-62015609D01*
X118629172Y-62015602D01*
X118483501Y-61955264D01*
X118483489Y-61955261D01*
X118328845Y-61924500D01*
X118328842Y-61924500D01*
X118171158Y-61924500D01*
X118171154Y-61924500D01*
X118162321Y-61926257D01*
X118130506Y-61923408D01*
X118098586Y-61922163D01*
X118095942Y-61920314D01*
X118092730Y-61920027D01*
X118067498Y-61900425D01*
X118041326Y-61882125D01*
X118039514Y-61878686D01*
X118037554Y-61877163D01*
X118023417Y-61851713D01*
X118021135Y-61846153D01*
X136462000Y-61846153D01*
X136462000Y-62003846D01*
X136492761Y-62158489D01*
X136492764Y-62158501D01*
X136553102Y-62304172D01*
X136553109Y-62304185D01*
X136640710Y-62435288D01*
X136640713Y-62435292D01*
X136752207Y-62546786D01*
X136752211Y-62546789D01*
X136883314Y-62634390D01*
X136883327Y-62634397D01*
X137028998Y-62694735D01*
X137029003Y-62694737D01*
X137183653Y-62725499D01*
X137183656Y-62725500D01*
X137183658Y-62725500D01*
X137341344Y-62725500D01*
X137341345Y-62725499D01*
X137495997Y-62694737D01*
X137641679Y-62634394D01*
X137772789Y-62546789D01*
X137884289Y-62435289D01*
X137971894Y-62304179D01*
X138032237Y-62158497D01*
X138063000Y-62003842D01*
X138063000Y-61846158D01*
X138063000Y-61846155D01*
X138062999Y-61846153D01*
X138053717Y-61799490D01*
X138032237Y-61691503D01*
X138000429Y-61614711D01*
X137971897Y-61545827D01*
X137971890Y-61545814D01*
X137884289Y-61414711D01*
X137884286Y-61414707D01*
X137772792Y-61303213D01*
X137772788Y-61303210D01*
X137641685Y-61215609D01*
X137641672Y-61215602D01*
X137496001Y-61155264D01*
X137495989Y-61155261D01*
X137341345Y-61124500D01*
X137341342Y-61124500D01*
X137183658Y-61124500D01*
X137183655Y-61124500D01*
X137029010Y-61155261D01*
X137028998Y-61155264D01*
X136883327Y-61215602D01*
X136883314Y-61215609D01*
X136752211Y-61303210D01*
X136752207Y-61303213D01*
X136640713Y-61414707D01*
X136640710Y-61414711D01*
X136553109Y-61545814D01*
X136553102Y-61545827D01*
X136492764Y-61691498D01*
X136492761Y-61691510D01*
X136462000Y-61846153D01*
X118021135Y-61846153D01*
X118020216Y-61843913D01*
X118019737Y-61841503D01*
X117965091Y-61709574D01*
X117961503Y-61675137D01*
X117957778Y-61640483D01*
X117957863Y-61640191D01*
X117957852Y-61640080D01*
X117957958Y-61639869D01*
X117965247Y-61615048D01*
X118019737Y-61483497D01*
X118050500Y-61328842D01*
X118050500Y-61171158D01*
X118050500Y-61171155D01*
X118050499Y-61171153D01*
X118045336Y-61145198D01*
X118019737Y-61016503D01*
X117986099Y-60935292D01*
X117959397Y-60870827D01*
X117959390Y-60870814D01*
X117871789Y-60739711D01*
X117871786Y-60739707D01*
X117760292Y-60628213D01*
X117760288Y-60628210D01*
X117629185Y-60540609D01*
X117629172Y-60540602D01*
X117483501Y-60480264D01*
X117483489Y-60480261D01*
X117328845Y-60449500D01*
X117328842Y-60449500D01*
X117171158Y-60449500D01*
X117171155Y-60449500D01*
X117016510Y-60480261D01*
X117016498Y-60480264D01*
X116870827Y-60540602D01*
X116870814Y-60540609D01*
X116739711Y-60628210D01*
X116739707Y-60628213D01*
X116628213Y-60739707D01*
X116628210Y-60739711D01*
X116540609Y-60870814D01*
X116540602Y-60870827D01*
X116480264Y-61016498D01*
X116480261Y-61016510D01*
X116449500Y-61171153D01*
X114897192Y-61171153D01*
X114903216Y-61140874D01*
X114903216Y-61140873D01*
X114924217Y-61035292D01*
X114925500Y-61028842D01*
X114925500Y-60871158D01*
X114925500Y-60871155D01*
X114925499Y-60871153D01*
X114920527Y-60846158D01*
X114894737Y-60716503D01*
X114870712Y-60658501D01*
X114834397Y-60570827D01*
X114834390Y-60570814D01*
X114746789Y-60439711D01*
X114746786Y-60439707D01*
X114653232Y-60346153D01*
X138962000Y-60346153D01*
X138962000Y-60503846D01*
X138992761Y-60658489D01*
X138992764Y-60658501D01*
X139053102Y-60804172D01*
X139053109Y-60804185D01*
X139140710Y-60935288D01*
X139140713Y-60935292D01*
X139252207Y-61046786D01*
X139252211Y-61046789D01*
X139383314Y-61134390D01*
X139383327Y-61134397D01*
X139528998Y-61194735D01*
X139529003Y-61194737D01*
X139665550Y-61221898D01*
X139683653Y-61225499D01*
X139683656Y-61225500D01*
X139683658Y-61225500D01*
X139841344Y-61225500D01*
X139841345Y-61225499D01*
X139995997Y-61194737D01*
X140091294Y-61155264D01*
X140104877Y-61149638D01*
X140111885Y-61148884D01*
X140117831Y-61145094D01*
X140146171Y-61145198D01*
X140174346Y-61142169D01*
X140180650Y-61145325D01*
X140187700Y-61145351D01*
X140211479Y-61160756D01*
X140236825Y-61173444D01*
X140241840Y-61180426D01*
X140246339Y-61183341D01*
X140260687Y-61206664D01*
X140265312Y-61213102D01*
X140266131Y-61214914D01*
X140303106Y-61304179D01*
X140313615Y-61319908D01*
X140317825Y-61329215D01*
X140321311Y-61354113D01*
X140328822Y-61378101D01*
X140326433Y-61390693D01*
X140327514Y-61398409D01*
X140323193Y-61407778D01*
X140319403Y-61427764D01*
X140263644Y-61562378D01*
X140263641Y-61562390D01*
X140232880Y-61717033D01*
X140232880Y-61874726D01*
X140263641Y-62029369D01*
X140263644Y-62029381D01*
X140323982Y-62175052D01*
X140323989Y-62175065D01*
X140411590Y-62306168D01*
X140411593Y-62306172D01*
X140523087Y-62417666D01*
X140523091Y-62417669D01*
X140654194Y-62505270D01*
X140654207Y-62505277D01*
X140799878Y-62565615D01*
X140799883Y-62565617D01*
X140954533Y-62596379D01*
X140954536Y-62596380D01*
X140954538Y-62596380D01*
X141112224Y-62596380D01*
X141112225Y-62596379D01*
X141266877Y-62565617D01*
X141412559Y-62505274D01*
X141543669Y-62417669D01*
X141655169Y-62306169D01*
X141742774Y-62175059D01*
X141744530Y-62170821D01*
X141772534Y-62103211D01*
X141803117Y-62029377D01*
X141833880Y-61874722D01*
X141833880Y-61717038D01*
X141833880Y-61717035D01*
X141833879Y-61717033D01*
X141818530Y-61639869D01*
X141803117Y-61562383D01*
X141778608Y-61503213D01*
X141742777Y-61416707D01*
X141742770Y-61416694D01*
X141737938Y-61409463D01*
X141717057Y-61342786D01*
X141726475Y-61293118D01*
X141782237Y-61158497D01*
X141813000Y-61003842D01*
X141813000Y-60846158D01*
X141813000Y-60846155D01*
X141812999Y-60846153D01*
X141782238Y-60691510D01*
X141782237Y-60691503D01*
X141756021Y-60628211D01*
X141721897Y-60545827D01*
X141721890Y-60545814D01*
X141634289Y-60414711D01*
X141634286Y-60414707D01*
X141522792Y-60303213D01*
X141522788Y-60303210D01*
X141391685Y-60215609D01*
X141391672Y-60215602D01*
X141246001Y-60155264D01*
X141245989Y-60155261D01*
X141091345Y-60124500D01*
X141091342Y-60124500D01*
X140933658Y-60124500D01*
X140933655Y-60124500D01*
X140779010Y-60155261D01*
X140778998Y-60155264D01*
X140670122Y-60200362D01*
X140600653Y-60207831D01*
X140538174Y-60176555D01*
X140508111Y-60133257D01*
X140471894Y-60045821D01*
X140471892Y-60045818D01*
X140471890Y-60045814D01*
X140384289Y-59914711D01*
X140384286Y-59914707D01*
X140272792Y-59803213D01*
X140272788Y-59803210D01*
X140141685Y-59715609D01*
X140141672Y-59715602D01*
X139996001Y-59655264D01*
X139995989Y-59655261D01*
X139841345Y-59624500D01*
X139841342Y-59624500D01*
X139683658Y-59624500D01*
X139683655Y-59624500D01*
X139529010Y-59655261D01*
X139528998Y-59655264D01*
X139383327Y-59715602D01*
X139383314Y-59715609D01*
X139252211Y-59803210D01*
X139252207Y-59803213D01*
X139140713Y-59914707D01*
X139140710Y-59914711D01*
X139053109Y-60045814D01*
X139053102Y-60045827D01*
X138992764Y-60191498D01*
X138992761Y-60191510D01*
X138962000Y-60346153D01*
X114653232Y-60346153D01*
X114635292Y-60328213D01*
X114635288Y-60328210D01*
X114522881Y-60253102D01*
X114478076Y-60199490D01*
X114469369Y-60130165D01*
X114499523Y-60067137D01*
X114522881Y-60046898D01*
X114577665Y-60010292D01*
X114635289Y-59971789D01*
X114746789Y-59860289D01*
X114834394Y-59729179D01*
X114894737Y-59583497D01*
X114925500Y-59428842D01*
X114925500Y-59421153D01*
X120699500Y-59421153D01*
X120699500Y-59578846D01*
X120730261Y-59733489D01*
X120730264Y-59733501D01*
X120790602Y-59879172D01*
X120790609Y-59879185D01*
X120878210Y-60010288D01*
X120878213Y-60010292D01*
X120989707Y-60121786D01*
X120989711Y-60121789D01*
X121120814Y-60209390D01*
X121120827Y-60209397D01*
X121226342Y-60253102D01*
X121266503Y-60269737D01*
X121375963Y-60291510D01*
X121421153Y-60300499D01*
X121421156Y-60300500D01*
X121421158Y-60300500D01*
X121578844Y-60300500D01*
X121578845Y-60300499D01*
X121733497Y-60269737D01*
X121813507Y-60236596D01*
X121840284Y-60225505D01*
X121879173Y-60209397D01*
X121879176Y-60209395D01*
X121879179Y-60209394D01*
X122010289Y-60121789D01*
X122121789Y-60010289D01*
X122209394Y-59879179D01*
X122269737Y-59733497D01*
X122300500Y-59578842D01*
X122300500Y-59421158D01*
X122300500Y-59421155D01*
X122300499Y-59421153D01*
X122269738Y-59266510D01*
X122269737Y-59266503D01*
X122269735Y-59266498D01*
X122209397Y-59120827D01*
X122209390Y-59120814D01*
X122121789Y-58989711D01*
X122121786Y-58989707D01*
X122010292Y-58878213D01*
X122010288Y-58878210D01*
X121962312Y-58846153D01*
X143212000Y-58846153D01*
X143212000Y-59003846D01*
X143242761Y-59158489D01*
X143242764Y-59158501D01*
X143303102Y-59304172D01*
X143303109Y-59304185D01*
X143390710Y-59435288D01*
X143390713Y-59435292D01*
X143502207Y-59546786D01*
X143502211Y-59546789D01*
X143614618Y-59621898D01*
X143659423Y-59675510D01*
X143668130Y-59744835D01*
X143637975Y-59807863D01*
X143614618Y-59828102D01*
X143502211Y-59903210D01*
X143502207Y-59903213D01*
X143390713Y-60014707D01*
X143390710Y-60014711D01*
X143303109Y-60145814D01*
X143303102Y-60145827D01*
X143242764Y-60291498D01*
X143242761Y-60291510D01*
X143212000Y-60446153D01*
X143212000Y-60603846D01*
X143242761Y-60758489D01*
X143242764Y-60758501D01*
X143303102Y-60904172D01*
X143303109Y-60904185D01*
X143390710Y-61035288D01*
X143390713Y-61035292D01*
X143502207Y-61146786D01*
X143502211Y-61146789D01*
X143614618Y-61221898D01*
X143659423Y-61275510D01*
X143668130Y-61344835D01*
X143637975Y-61407863D01*
X143614618Y-61428102D01*
X143502211Y-61503210D01*
X143502207Y-61503213D01*
X143390713Y-61614707D01*
X143390710Y-61614711D01*
X143303109Y-61745814D01*
X143303102Y-61745827D01*
X143242764Y-61891498D01*
X143242761Y-61891510D01*
X143212000Y-62046153D01*
X143212000Y-62203846D01*
X143242761Y-62358489D01*
X143242764Y-62358501D01*
X143303102Y-62504172D01*
X143303109Y-62504185D01*
X143390710Y-62635288D01*
X143390713Y-62635292D01*
X143502207Y-62746786D01*
X143502211Y-62746789D01*
X143614618Y-62821898D01*
X143659423Y-62875510D01*
X143668130Y-62944835D01*
X143637975Y-63007863D01*
X143614618Y-63028102D01*
X143502211Y-63103210D01*
X143502207Y-63103213D01*
X143390713Y-63214707D01*
X143390710Y-63214711D01*
X143303109Y-63345814D01*
X143303102Y-63345827D01*
X143242764Y-63491498D01*
X143242761Y-63491510D01*
X143212000Y-63646153D01*
X143212000Y-63803846D01*
X143242761Y-63958489D01*
X143242764Y-63958501D01*
X143303102Y-64104172D01*
X143303109Y-64104185D01*
X143390710Y-64235288D01*
X143390713Y-64235292D01*
X143502207Y-64346786D01*
X143502211Y-64346789D01*
X143633314Y-64434390D01*
X143633327Y-64434397D01*
X143769020Y-64490602D01*
X143779003Y-64494737D01*
X143933653Y-64525499D01*
X143933656Y-64525500D01*
X143933658Y-64525500D01*
X144091344Y-64525500D01*
X144091345Y-64525499D01*
X144245997Y-64494737D01*
X144391679Y-64434394D01*
X144522789Y-64346789D01*
X144634289Y-64235289D01*
X144721894Y-64104179D01*
X144782237Y-63958497D01*
X144813000Y-63803842D01*
X144813000Y-63646158D01*
X144813000Y-63646155D01*
X144812999Y-63646153D01*
X144789539Y-63528213D01*
X144782237Y-63491503D01*
X144782235Y-63491498D01*
X144721897Y-63345827D01*
X144721890Y-63345814D01*
X144634289Y-63214711D01*
X144634286Y-63214707D01*
X144522792Y-63103213D01*
X144522788Y-63103210D01*
X144410381Y-63028102D01*
X144365576Y-62974490D01*
X144356869Y-62905165D01*
X144387023Y-62842137D01*
X144410381Y-62821898D01*
X144444481Y-62799112D01*
X144522789Y-62746789D01*
X144634289Y-62635289D01*
X144721894Y-62504179D01*
X144782237Y-62358497D01*
X144813000Y-62203842D01*
X144813000Y-62046158D01*
X144813000Y-62046155D01*
X144812999Y-62046153D01*
X144806922Y-62015602D01*
X144782237Y-61891503D01*
X144763455Y-61846158D01*
X144721897Y-61745827D01*
X144721890Y-61745814D01*
X144634289Y-61614711D01*
X144634286Y-61614707D01*
X144522792Y-61503213D01*
X144522788Y-61503210D01*
X144410381Y-61428102D01*
X144365576Y-61374490D01*
X144356869Y-61305165D01*
X144387023Y-61242137D01*
X144410381Y-61221898D01*
X144451033Y-61194735D01*
X144522789Y-61146789D01*
X144634289Y-61035289D01*
X144721894Y-60904179D01*
X144782237Y-60758497D01*
X144813000Y-60603842D01*
X144813000Y-60446158D01*
X144813000Y-60446155D01*
X144812999Y-60446153D01*
X144806744Y-60414707D01*
X144782237Y-60291503D01*
X144773221Y-60269737D01*
X144721897Y-60145827D01*
X144721890Y-60145814D01*
X144634289Y-60014711D01*
X144634286Y-60014707D01*
X144522792Y-59903213D01*
X144522788Y-59903210D01*
X144410381Y-59828102D01*
X144365576Y-59774490D01*
X144356869Y-59705165D01*
X144387023Y-59642137D01*
X144410381Y-59621898D01*
X144444481Y-59599112D01*
X144522789Y-59546789D01*
X144634289Y-59435289D01*
X144721894Y-59304179D01*
X144782237Y-59158497D01*
X144813000Y-59003842D01*
X144813000Y-58846158D01*
X144813000Y-58846155D01*
X144812999Y-58846153D01*
X144811717Y-58839707D01*
X144782237Y-58691503D01*
X144761155Y-58640606D01*
X144721897Y-58545827D01*
X144721890Y-58545814D01*
X144634289Y-58414711D01*
X144634286Y-58414707D01*
X144522792Y-58303213D01*
X144522788Y-58303210D01*
X144391685Y-58215609D01*
X144391672Y-58215602D01*
X144246001Y-58155264D01*
X144245989Y-58155261D01*
X144091345Y-58124500D01*
X144091342Y-58124500D01*
X143933658Y-58124500D01*
X143933655Y-58124500D01*
X143779010Y-58155261D01*
X143778998Y-58155264D01*
X143633327Y-58215602D01*
X143633314Y-58215609D01*
X143502211Y-58303210D01*
X143502207Y-58303213D01*
X143390713Y-58414707D01*
X143390710Y-58414711D01*
X143303109Y-58545814D01*
X143303102Y-58545827D01*
X143242764Y-58691498D01*
X143242761Y-58691510D01*
X143212000Y-58846153D01*
X121962312Y-58846153D01*
X121879185Y-58790609D01*
X121879172Y-58790602D01*
X121733501Y-58730264D01*
X121733489Y-58730261D01*
X121578845Y-58699500D01*
X121578842Y-58699500D01*
X121421158Y-58699500D01*
X121421155Y-58699500D01*
X121266510Y-58730261D01*
X121266498Y-58730264D01*
X121120827Y-58790602D01*
X121120814Y-58790609D01*
X120989711Y-58878210D01*
X120989707Y-58878213D01*
X120878213Y-58989707D01*
X120878210Y-58989711D01*
X120790609Y-59120814D01*
X120790602Y-59120827D01*
X120730264Y-59266498D01*
X120730261Y-59266510D01*
X120699500Y-59421153D01*
X114925500Y-59421153D01*
X114925500Y-59271158D01*
X114925500Y-59271155D01*
X114925499Y-59271153D01*
X114903090Y-59158497D01*
X114894737Y-59116503D01*
X114894735Y-59116498D01*
X114834397Y-58970827D01*
X114834390Y-58970814D01*
X114746789Y-58839711D01*
X114746786Y-58839707D01*
X114635292Y-58728213D01*
X114635288Y-58728210D01*
X114504185Y-58640609D01*
X114504172Y-58640602D01*
X114358501Y-58580264D01*
X114358489Y-58580261D01*
X114203845Y-58549500D01*
X114203842Y-58549500D01*
X114046158Y-58549500D01*
X114046155Y-58549500D01*
X113903691Y-58577838D01*
X113834100Y-58571611D01*
X113778922Y-58528748D01*
X113755678Y-58462858D01*
X113755500Y-58456221D01*
X113755500Y-56921153D01*
X122199500Y-56921153D01*
X122199500Y-57078846D01*
X122230261Y-57233489D01*
X122230264Y-57233501D01*
X122290602Y-57379172D01*
X122290609Y-57379185D01*
X122378210Y-57510288D01*
X122378213Y-57510292D01*
X122489707Y-57621786D01*
X122489711Y-57621789D01*
X122620814Y-57709390D01*
X122620827Y-57709397D01*
X122766498Y-57769735D01*
X122766503Y-57769737D01*
X122921153Y-57800499D01*
X122921156Y-57800500D01*
X122921158Y-57800500D01*
X123078844Y-57800500D01*
X123078845Y-57800499D01*
X123233497Y-57769737D01*
X123379179Y-57709394D01*
X123510289Y-57621789D01*
X123621789Y-57510289D01*
X123709394Y-57379179D01*
X123712854Y-57370827D01*
X123769735Y-57233501D01*
X123769737Y-57233497D01*
X123800500Y-57078842D01*
X123800500Y-56921158D01*
X123800500Y-56921155D01*
X123800499Y-56921153D01*
X123782778Y-56832064D01*
X123769737Y-56766503D01*
X123769735Y-56766498D01*
X123709397Y-56620827D01*
X123709390Y-56620814D01*
X123621789Y-56489711D01*
X123621786Y-56489707D01*
X123510292Y-56378213D01*
X123510288Y-56378210D01*
X123471963Y-56352602D01*
X123427158Y-56298990D01*
X123418451Y-56229665D01*
X123448605Y-56166637D01*
X123508048Y-56129918D01*
X123540854Y-56125500D01*
X123653844Y-56125500D01*
X123653845Y-56125499D01*
X123808497Y-56094737D01*
X123954179Y-56034394D01*
X124085289Y-55946789D01*
X124196789Y-55835289D01*
X124284394Y-55704179D01*
X124344737Y-55558497D01*
X124375500Y-55403842D01*
X124375500Y-55246158D01*
X124375500Y-55246155D01*
X124375499Y-55246153D01*
X124352230Y-55129175D01*
X124344737Y-55091503D01*
X124313985Y-55017260D01*
X124284397Y-54945827D01*
X124284390Y-54945814D01*
X124196789Y-54814711D01*
X124196786Y-54814707D01*
X124085292Y-54703213D01*
X124085288Y-54703210D01*
X123954185Y-54615609D01*
X123954172Y-54615602D01*
X123808501Y-54555264D01*
X123808489Y-54555261D01*
X123653845Y-54524500D01*
X123653842Y-54524500D01*
X123496158Y-54524500D01*
X123496155Y-54524500D01*
X123341510Y-54555261D01*
X123341498Y-54555264D01*
X123195827Y-54615602D01*
X123195814Y-54615609D01*
X123064711Y-54703210D01*
X123064707Y-54703213D01*
X122953213Y-54814707D01*
X122953210Y-54814711D01*
X122865609Y-54945814D01*
X122865602Y-54945827D01*
X122805264Y-55091498D01*
X122805261Y-55091510D01*
X122774500Y-55246153D01*
X122774500Y-55403846D01*
X122805261Y-55558489D01*
X122805264Y-55558501D01*
X122865602Y-55704172D01*
X122865609Y-55704185D01*
X122953210Y-55835288D01*
X122953213Y-55835292D01*
X123064707Y-55946786D01*
X123064711Y-55946789D01*
X123103037Y-55972398D01*
X123147842Y-56026010D01*
X123156549Y-56095335D01*
X123126395Y-56158363D01*
X123066952Y-56195082D01*
X123034146Y-56199500D01*
X122921155Y-56199500D01*
X122766510Y-56230261D01*
X122766498Y-56230264D01*
X122620827Y-56290602D01*
X122620814Y-56290609D01*
X122489711Y-56378210D01*
X122489707Y-56378213D01*
X122378213Y-56489707D01*
X122378210Y-56489711D01*
X122290609Y-56620814D01*
X122290602Y-56620827D01*
X122230264Y-56766498D01*
X122230261Y-56766510D01*
X122199500Y-56921153D01*
X113755500Y-56921153D01*
X113755500Y-56124010D01*
X113755500Y-56124000D01*
X113743947Y-56016544D01*
X113732741Y-55965033D01*
X113726668Y-55946786D01*
X113698616Y-55862502D01*
X113698613Y-55862496D01*
X113620828Y-55741462D01*
X113620825Y-55741457D01*
X113588529Y-55704185D01*
X113575076Y-55688659D01*
X113575072Y-55688656D01*
X113575070Y-55688653D01*
X113466336Y-55594433D01*
X113466333Y-55594431D01*
X113466331Y-55594430D01*
X113335465Y-55534664D01*
X113335460Y-55534662D01*
X113335459Y-55534662D01*
X113268420Y-55514977D01*
X113268422Y-55514977D01*
X113268417Y-55514976D01*
X113206354Y-55506053D01*
X113126000Y-55494500D01*
X96924500Y-55494500D01*
X96857461Y-55474815D01*
X96811706Y-55422011D01*
X96800500Y-55370500D01*
X96800500Y-51275602D01*
X96820185Y-51208563D01*
X96872989Y-51162808D01*
X96942147Y-51152864D01*
X97005703Y-51181889D01*
X97036064Y-51224001D01*
X97036954Y-51223573D01*
X97194432Y-51550579D01*
X97253596Y-51644738D01*
X97385685Y-51854956D01*
X97609812Y-52136003D01*
X97863997Y-52390188D01*
X98145044Y-52614315D01*
X98449418Y-52805566D01*
X98773292Y-52961536D01*
X99028119Y-53050703D01*
X99112580Y-53080258D01*
X99112592Y-53080262D01*
X99463052Y-53160252D01*
X99820260Y-53200499D01*
X99820261Y-53200500D01*
X99820264Y-53200500D01*
X100179739Y-53200500D01*
X100179739Y-53200499D01*
X100536948Y-53160252D01*
X100887408Y-53080262D01*
X101226708Y-52961536D01*
X101550582Y-52805566D01*
X101854956Y-52614315D01*
X102136003Y-52390188D01*
X102390188Y-52136003D01*
X102614315Y-51854956D01*
X102805566Y-51550582D01*
X102899135Y-51356286D01*
X102940839Y-51269685D01*
X102961536Y-51226708D01*
X103080262Y-50887408D01*
X103155109Y-50559480D01*
X103189218Y-50498502D01*
X103250879Y-50465644D01*
X103320516Y-50471339D01*
X103376020Y-50513779D01*
X103399768Y-50579489D01*
X103400000Y-50587073D01*
X103400000Y-51000000D01*
X104316988Y-51000000D01*
X104284075Y-51057007D01*
X104250000Y-51184174D01*
X104250000Y-51315826D01*
X104284075Y-51442993D01*
X104316988Y-51500000D01*
X103400000Y-51500000D01*
X103400000Y-52147844D01*
X103406401Y-52207372D01*
X103406403Y-52207379D01*
X103456645Y-52342086D01*
X103456649Y-52342093D01*
X103542809Y-52457187D01*
X103542812Y-52457190D01*
X103657906Y-52543350D01*
X103657913Y-52543354D01*
X103792620Y-52593596D01*
X103792627Y-52593598D01*
X103852155Y-52599999D01*
X103852172Y-52600000D01*
X104500000Y-52600000D01*
X104500000Y-51683012D01*
X104557007Y-51715925D01*
X104684174Y-51750000D01*
X104815826Y-51750000D01*
X104942993Y-51715925D01*
X105000000Y-51683012D01*
X105000000Y-52600000D01*
X105647828Y-52600000D01*
X105647844Y-52599999D01*
X105707372Y-52593598D01*
X105707379Y-52593596D01*
X105842086Y-52543354D01*
X105842093Y-52543350D01*
X105957187Y-52457190D01*
X105957190Y-52457187D01*
X106043350Y-52342093D01*
X106043354Y-52342086D01*
X106092422Y-52210529D01*
X106134293Y-52154595D01*
X106199757Y-52130178D01*
X106268030Y-52145030D01*
X106296285Y-52166181D01*
X106410213Y-52280109D01*
X106582179Y-52405048D01*
X106582181Y-52405049D01*
X106582184Y-52405051D01*
X106771588Y-52501557D01*
X106973757Y-52567246D01*
X107183713Y-52600500D01*
X107183714Y-52600500D01*
X107396286Y-52600500D01*
X107396287Y-52600500D01*
X107606243Y-52567246D01*
X107808412Y-52501557D01*
X107997816Y-52405051D01*
X108084471Y-52342093D01*
X108169786Y-52280109D01*
X108169788Y-52280106D01*
X108169792Y-52280104D01*
X108320104Y-52129792D01*
X108320106Y-52129788D01*
X108320109Y-52129786D01*
X108445048Y-51957820D01*
X108445047Y-51957820D01*
X108445051Y-51957816D01*
X108449514Y-51949054D01*
X108497488Y-51898259D01*
X108565308Y-51881463D01*
X108631444Y-51903999D01*
X108670486Y-51949056D01*
X108674951Y-51957820D01*
X108799890Y-52129786D01*
X108950213Y-52280109D01*
X109122179Y-52405048D01*
X109122181Y-52405049D01*
X109122184Y-52405051D01*
X109311588Y-52501557D01*
X109513757Y-52567246D01*
X109723713Y-52600500D01*
X109723714Y-52600500D01*
X109936286Y-52600500D01*
X109936287Y-52600500D01*
X110146243Y-52567246D01*
X110348412Y-52501557D01*
X110537816Y-52405051D01*
X110624471Y-52342093D01*
X110709786Y-52280109D01*
X110709788Y-52280106D01*
X110709792Y-52280104D01*
X110860104Y-52129792D01*
X110860106Y-52129788D01*
X110860109Y-52129786D01*
X110985048Y-51957820D01*
X110985047Y-51957820D01*
X110985051Y-51957816D01*
X110989514Y-51949054D01*
X111037488Y-51898259D01*
X111105308Y-51881463D01*
X111171444Y-51903999D01*
X111210486Y-51949056D01*
X111214951Y-51957820D01*
X111339890Y-52129786D01*
X111490213Y-52280109D01*
X111662179Y-52405048D01*
X111662181Y-52405049D01*
X111662184Y-52405051D01*
X111851588Y-52501557D01*
X112053757Y-52567246D01*
X112263713Y-52600500D01*
X112263714Y-52600500D01*
X112476286Y-52600500D01*
X112476287Y-52600500D01*
X112686243Y-52567246D01*
X112888412Y-52501557D01*
X113077816Y-52405051D01*
X113164471Y-52342093D01*
X113249786Y-52280109D01*
X113249788Y-52280106D01*
X113249792Y-52280104D01*
X113400104Y-52129792D01*
X113400106Y-52129788D01*
X113400109Y-52129786D01*
X113525048Y-51957820D01*
X113525047Y-51957820D01*
X113525051Y-51957816D01*
X113529514Y-51949054D01*
X113577488Y-51898259D01*
X113645308Y-51881463D01*
X113711444Y-51903999D01*
X113750486Y-51949056D01*
X113754951Y-51957820D01*
X113879890Y-52129786D01*
X114030213Y-52280109D01*
X114202179Y-52405048D01*
X114202181Y-52405049D01*
X114202184Y-52405051D01*
X114391588Y-52501557D01*
X114593757Y-52567246D01*
X114803713Y-52600500D01*
X114803714Y-52600500D01*
X115016286Y-52600500D01*
X115016287Y-52600500D01*
X115226243Y-52567246D01*
X115428412Y-52501557D01*
X115617816Y-52405051D01*
X115704471Y-52342093D01*
X115789786Y-52280109D01*
X115789788Y-52280106D01*
X115789792Y-52280104D01*
X115940104Y-52129792D01*
X115940106Y-52129788D01*
X115940109Y-52129786D01*
X116065048Y-51957820D01*
X116065047Y-51957820D01*
X116065051Y-51957816D01*
X116069514Y-51949054D01*
X116117488Y-51898259D01*
X116185308Y-51881463D01*
X116251444Y-51903999D01*
X116290486Y-51949056D01*
X116294951Y-51957820D01*
X116419890Y-52129786D01*
X116570213Y-52280109D01*
X116742179Y-52405048D01*
X116742181Y-52405049D01*
X116742184Y-52405051D01*
X116931588Y-52501557D01*
X117133757Y-52567246D01*
X117343713Y-52600500D01*
X117343714Y-52600500D01*
X117556286Y-52600500D01*
X117556287Y-52600500D01*
X117766243Y-52567246D01*
X117968412Y-52501557D01*
X118157816Y-52405051D01*
X118244471Y-52342093D01*
X118329786Y-52280109D01*
X118329788Y-52280106D01*
X118329792Y-52280104D01*
X118480104Y-52129792D01*
X118480106Y-52129788D01*
X118480109Y-52129786D01*
X118605048Y-51957820D01*
X118605047Y-51957820D01*
X118605051Y-51957816D01*
X118609514Y-51949054D01*
X118657488Y-51898259D01*
X118725308Y-51881463D01*
X118791444Y-51903999D01*
X118830486Y-51949056D01*
X118834951Y-51957820D01*
X118959890Y-52129786D01*
X119110213Y-52280109D01*
X119282179Y-52405048D01*
X119282181Y-52405049D01*
X119282184Y-52405051D01*
X119471588Y-52501557D01*
X119673757Y-52567246D01*
X119883713Y-52600500D01*
X119883714Y-52600500D01*
X120096286Y-52600500D01*
X120096287Y-52600500D01*
X120306243Y-52567246D01*
X120508412Y-52501557D01*
X120697816Y-52405051D01*
X120784471Y-52342093D01*
X120869786Y-52280109D01*
X120869788Y-52280106D01*
X120869792Y-52280104D01*
X121020104Y-52129792D01*
X121020106Y-52129788D01*
X121020109Y-52129786D01*
X121145048Y-51957820D01*
X121145047Y-51957820D01*
X121145051Y-51957816D01*
X121149514Y-51949054D01*
X121197488Y-51898259D01*
X121265308Y-51881463D01*
X121331444Y-51903999D01*
X121370486Y-51949056D01*
X121374951Y-51957820D01*
X121499890Y-52129786D01*
X121650213Y-52280109D01*
X121822179Y-52405048D01*
X121822181Y-52405049D01*
X121822184Y-52405051D01*
X122011588Y-52501557D01*
X122213757Y-52567246D01*
X122423713Y-52600500D01*
X122423714Y-52600500D01*
X122636286Y-52600500D01*
X122636287Y-52600500D01*
X122846243Y-52567246D01*
X123048412Y-52501557D01*
X123237816Y-52405051D01*
X123324471Y-52342093D01*
X123409786Y-52280109D01*
X123409788Y-52280106D01*
X123409792Y-52280104D01*
X123560104Y-52129792D01*
X123560106Y-52129788D01*
X123560109Y-52129786D01*
X123645890Y-52011717D01*
X123685051Y-51957816D01*
X123689793Y-51948508D01*
X123737763Y-51897711D01*
X123805583Y-51880911D01*
X123871719Y-51903445D01*
X123910763Y-51948500D01*
X123915373Y-51957547D01*
X123954728Y-52011716D01*
X124587037Y-51379408D01*
X124604075Y-51442993D01*
X124669901Y-51557007D01*
X124762993Y-51650099D01*
X124877007Y-51715925D01*
X124940590Y-51732962D01*
X124308282Y-52365269D01*
X124308282Y-52365270D01*
X124362449Y-52404624D01*
X124551782Y-52501095D01*
X124753870Y-52566757D01*
X124963754Y-52600000D01*
X125176246Y-52600000D01*
X125386127Y-52566757D01*
X125386130Y-52566757D01*
X125588217Y-52501095D01*
X125777554Y-52404622D01*
X125831716Y-52365270D01*
X125831717Y-52365270D01*
X125199408Y-51732962D01*
X125262993Y-51715925D01*
X125377007Y-51650099D01*
X125470099Y-51557007D01*
X125535925Y-51442993D01*
X125552962Y-51379409D01*
X126185270Y-52011717D01*
X126185270Y-52011716D01*
X126224622Y-51957555D01*
X126229232Y-51948507D01*
X126277205Y-51897709D01*
X126345025Y-51880912D01*
X126411161Y-51903447D01*
X126450204Y-51948504D01*
X126454949Y-51957817D01*
X126579890Y-52129786D01*
X126730213Y-52280109D01*
X126902179Y-52405048D01*
X126902181Y-52405049D01*
X126902184Y-52405051D01*
X127091588Y-52501557D01*
X127293757Y-52567246D01*
X127503713Y-52600500D01*
X127503714Y-52600500D01*
X127716286Y-52600500D01*
X127716287Y-52600500D01*
X127926243Y-52567246D01*
X128128412Y-52501557D01*
X128317816Y-52405051D01*
X128404471Y-52342093D01*
X128489786Y-52280109D01*
X128489788Y-52280106D01*
X128489792Y-52280104D01*
X128640104Y-52129792D01*
X128640106Y-52129788D01*
X128640109Y-52129786D01*
X128765048Y-51957820D01*
X128765047Y-51957820D01*
X128765051Y-51957816D01*
X128769514Y-51949054D01*
X128817488Y-51898259D01*
X128885308Y-51881463D01*
X128951444Y-51903999D01*
X128990486Y-51949056D01*
X128994951Y-51957820D01*
X129119890Y-52129786D01*
X129270213Y-52280109D01*
X129442179Y-52405048D01*
X129442181Y-52405049D01*
X129442184Y-52405051D01*
X129631588Y-52501557D01*
X129833757Y-52567246D01*
X130043713Y-52600500D01*
X130043714Y-52600500D01*
X130256286Y-52600500D01*
X130256287Y-52600500D01*
X130466243Y-52567246D01*
X130668412Y-52501557D01*
X130857816Y-52405051D01*
X130944471Y-52342093D01*
X131029786Y-52280109D01*
X131029788Y-52280106D01*
X131029792Y-52280104D01*
X131180104Y-52129792D01*
X131180106Y-52129788D01*
X131180109Y-52129786D01*
X131305048Y-51957820D01*
X131305047Y-51957820D01*
X131305051Y-51957816D01*
X131309514Y-51949054D01*
X131357488Y-51898259D01*
X131425308Y-51881463D01*
X131491444Y-51903999D01*
X131530486Y-51949056D01*
X131534951Y-51957820D01*
X131659890Y-52129786D01*
X131810213Y-52280109D01*
X131982179Y-52405048D01*
X131982181Y-52405049D01*
X131982184Y-52405051D01*
X132171588Y-52501557D01*
X132373757Y-52567246D01*
X132583713Y-52600500D01*
X132583714Y-52600500D01*
X132796286Y-52600500D01*
X132796287Y-52600500D01*
X133006243Y-52567246D01*
X133208412Y-52501557D01*
X133397816Y-52405051D01*
X133484471Y-52342093D01*
X133569786Y-52280109D01*
X133569788Y-52280106D01*
X133569792Y-52280104D01*
X133720104Y-52129792D01*
X133720106Y-52129788D01*
X133720109Y-52129786D01*
X133845048Y-51957820D01*
X133845047Y-51957820D01*
X133845051Y-51957816D01*
X133849514Y-51949054D01*
X133897488Y-51898259D01*
X133965308Y-51881463D01*
X134031444Y-51903999D01*
X134070486Y-51949056D01*
X134074951Y-51957820D01*
X134199890Y-52129786D01*
X134350213Y-52280109D01*
X134522179Y-52405048D01*
X134522181Y-52405049D01*
X134522184Y-52405051D01*
X134711588Y-52501557D01*
X134913757Y-52567246D01*
X135123713Y-52600500D01*
X135123714Y-52600500D01*
X135336286Y-52600500D01*
X135336287Y-52600500D01*
X135546243Y-52567246D01*
X135748412Y-52501557D01*
X135937816Y-52405051D01*
X136024471Y-52342093D01*
X136109786Y-52280109D01*
X136109788Y-52280106D01*
X136109792Y-52280104D01*
X136260104Y-52129792D01*
X136260106Y-52129788D01*
X136260109Y-52129786D01*
X136385048Y-51957820D01*
X136385047Y-51957820D01*
X136385051Y-51957816D01*
X136389514Y-51949054D01*
X136437488Y-51898259D01*
X136505308Y-51881463D01*
X136571444Y-51903999D01*
X136610486Y-51949056D01*
X136614951Y-51957820D01*
X136739890Y-52129786D01*
X136890213Y-52280109D01*
X137062179Y-52405048D01*
X137062181Y-52405049D01*
X137062184Y-52405051D01*
X137251588Y-52501557D01*
X137453757Y-52567246D01*
X137663713Y-52600500D01*
X137663714Y-52600500D01*
X137876286Y-52600500D01*
X137876287Y-52600500D01*
X138086243Y-52567246D01*
X138288412Y-52501557D01*
X138477816Y-52405051D01*
X138564471Y-52342093D01*
X138649786Y-52280109D01*
X138649788Y-52280106D01*
X138649792Y-52280104D01*
X138800104Y-52129792D01*
X138800106Y-52129788D01*
X138800109Y-52129786D01*
X138925048Y-51957820D01*
X138925047Y-51957820D01*
X138925051Y-51957816D01*
X138929514Y-51949054D01*
X138977488Y-51898259D01*
X139045308Y-51881463D01*
X139111444Y-51903999D01*
X139150486Y-51949056D01*
X139154951Y-51957820D01*
X139279890Y-52129786D01*
X139430213Y-52280109D01*
X139602179Y-52405048D01*
X139602181Y-52405049D01*
X139602184Y-52405051D01*
X139791588Y-52501557D01*
X139993757Y-52567246D01*
X140203713Y-52600500D01*
X140203714Y-52600500D01*
X140416286Y-52600500D01*
X140416287Y-52600500D01*
X140626243Y-52567246D01*
X140828412Y-52501557D01*
X141017816Y-52405051D01*
X141104471Y-52342093D01*
X141189786Y-52280109D01*
X141189788Y-52280106D01*
X141189792Y-52280104D01*
X141340104Y-52129792D01*
X141340106Y-52129788D01*
X141340109Y-52129786D01*
X141465048Y-51957820D01*
X141465047Y-51957820D01*
X141465051Y-51957816D01*
X141469514Y-51949054D01*
X141517488Y-51898259D01*
X141585308Y-51881463D01*
X141651444Y-51903999D01*
X141690486Y-51949056D01*
X141694951Y-51957820D01*
X141819890Y-52129786D01*
X141970213Y-52280109D01*
X142142179Y-52405048D01*
X142142181Y-52405049D01*
X142142184Y-52405051D01*
X142331588Y-52501557D01*
X142533757Y-52567246D01*
X142743713Y-52600500D01*
X142743714Y-52600500D01*
X142956286Y-52600500D01*
X142956287Y-52600500D01*
X143166243Y-52567246D01*
X143368412Y-52501557D01*
X143557816Y-52405051D01*
X143644471Y-52342093D01*
X143729786Y-52280109D01*
X143729788Y-52280106D01*
X143729792Y-52280104D01*
X143880104Y-52129792D01*
X143880106Y-52129788D01*
X143880109Y-52129786D01*
X144005048Y-51957820D01*
X144005047Y-51957820D01*
X144005051Y-51957816D01*
X144009514Y-51949054D01*
X144057488Y-51898259D01*
X144125308Y-51881463D01*
X144191444Y-51903999D01*
X144230486Y-51949056D01*
X144234951Y-51957820D01*
X144359890Y-52129786D01*
X144510213Y-52280109D01*
X144682179Y-52405048D01*
X144682181Y-52405049D01*
X144682184Y-52405051D01*
X144871588Y-52501557D01*
X145073757Y-52567246D01*
X145283713Y-52600500D01*
X145283714Y-52600500D01*
X145496286Y-52600500D01*
X145496287Y-52600500D01*
X145706243Y-52567246D01*
X145908412Y-52501557D01*
X146097816Y-52405051D01*
X146184471Y-52342093D01*
X146269786Y-52280109D01*
X146269788Y-52280106D01*
X146269792Y-52280104D01*
X146420104Y-52129792D01*
X146420106Y-52129788D01*
X146420109Y-52129786D01*
X146545048Y-51957820D01*
X146545047Y-51957820D01*
X146545051Y-51957816D01*
X146549514Y-51949054D01*
X146597488Y-51898259D01*
X146665308Y-51881463D01*
X146731444Y-51903999D01*
X146770486Y-51949056D01*
X146774951Y-51957820D01*
X146899890Y-52129786D01*
X147050213Y-52280109D01*
X147222179Y-52405048D01*
X147222181Y-52405049D01*
X147222184Y-52405051D01*
X147411588Y-52501557D01*
X147613757Y-52567246D01*
X147823713Y-52600500D01*
X147823714Y-52600500D01*
X148036286Y-52600500D01*
X148036287Y-52600500D01*
X148246243Y-52567246D01*
X148448412Y-52501557D01*
X148637816Y-52405051D01*
X148724471Y-52342093D01*
X148809786Y-52280109D01*
X148809788Y-52280106D01*
X148809792Y-52280104D01*
X148960104Y-52129792D01*
X148960106Y-52129788D01*
X148960109Y-52129786D01*
X149085048Y-51957820D01*
X149085047Y-51957820D01*
X149085051Y-51957816D01*
X149089514Y-51949054D01*
X149137488Y-51898259D01*
X149205308Y-51881463D01*
X149271444Y-51903999D01*
X149310486Y-51949056D01*
X149314951Y-51957820D01*
X149439890Y-52129786D01*
X149590213Y-52280109D01*
X149762179Y-52405048D01*
X149762181Y-52405049D01*
X149762184Y-52405051D01*
X149951588Y-52501557D01*
X150153757Y-52567246D01*
X150363713Y-52600500D01*
X150363714Y-52600500D01*
X150576286Y-52600500D01*
X150576287Y-52600500D01*
X150786243Y-52567246D01*
X150988412Y-52501557D01*
X151177816Y-52405051D01*
X151264471Y-52342093D01*
X151349786Y-52280109D01*
X151349788Y-52280106D01*
X151349792Y-52280104D01*
X151500104Y-52129792D01*
X151500106Y-52129788D01*
X151500109Y-52129786D01*
X151625048Y-51957820D01*
X151625047Y-51957820D01*
X151625051Y-51957816D01*
X151629514Y-51949054D01*
X151677488Y-51898259D01*
X151745308Y-51881463D01*
X151811444Y-51903999D01*
X151850486Y-51949056D01*
X151854951Y-51957820D01*
X151979890Y-52129786D01*
X152130213Y-52280109D01*
X152302179Y-52405048D01*
X152302181Y-52405049D01*
X152302184Y-52405051D01*
X152491588Y-52501557D01*
X152693757Y-52567246D01*
X152903713Y-52600500D01*
X152903714Y-52600500D01*
X153116286Y-52600500D01*
X153116287Y-52600500D01*
X153326243Y-52567246D01*
X153528412Y-52501557D01*
X153717816Y-52405051D01*
X153804471Y-52342093D01*
X153889786Y-52280109D01*
X153889788Y-52280106D01*
X153889792Y-52280104D01*
X154040104Y-52129792D01*
X154040106Y-52129788D01*
X154040109Y-52129786D01*
X154165048Y-51957820D01*
X154165047Y-51957820D01*
X154165051Y-51957816D01*
X154261557Y-51768412D01*
X154327246Y-51566243D01*
X154360500Y-51356287D01*
X154360500Y-51143713D01*
X154327246Y-50933757D01*
X154261557Y-50731588D01*
X154165051Y-50542184D01*
X154165049Y-50542181D01*
X154165048Y-50542179D01*
X154040109Y-50370213D01*
X153889786Y-50219890D01*
X153717820Y-50094951D01*
X153709600Y-50090763D01*
X153709054Y-50090485D01*
X153658259Y-50042512D01*
X153641463Y-49974692D01*
X153663999Y-49908556D01*
X153709054Y-49869515D01*
X153717816Y-49865051D01*
X153759551Y-49834729D01*
X153889786Y-49740109D01*
X153889788Y-49740106D01*
X153889792Y-49740104D01*
X154040104Y-49589792D01*
X154040106Y-49589788D01*
X154040109Y-49589786D01*
X154165048Y-49417820D01*
X154165047Y-49417820D01*
X154165051Y-49417816D01*
X154261557Y-49228412D01*
X154327246Y-49026243D01*
X154360500Y-48816287D01*
X154360500Y-48603713D01*
X154327246Y-48393757D01*
X154261557Y-48191588D01*
X154165051Y-48002184D01*
X154165049Y-48002181D01*
X154165048Y-48002179D01*
X154040109Y-47830213D01*
X153889786Y-47679890D01*
X153717820Y-47554951D01*
X153528414Y-47458444D01*
X153528413Y-47458443D01*
X153528412Y-47458443D01*
X153326243Y-47392754D01*
X153326241Y-47392753D01*
X153326240Y-47392753D01*
X153164957Y-47367208D01*
X153116287Y-47359500D01*
X152903713Y-47359500D01*
X152855042Y-47367208D01*
X152693760Y-47392753D01*
X152491585Y-47458444D01*
X152302179Y-47554951D01*
X152130213Y-47679890D01*
X151979890Y-47830213D01*
X151854949Y-48002182D01*
X151850484Y-48010946D01*
X151802509Y-48061742D01*
X151734688Y-48078536D01*
X151668553Y-48055998D01*
X151629516Y-48010946D01*
X151625050Y-48002182D01*
X151500109Y-47830213D01*
X151349786Y-47679890D01*
X151177820Y-47554951D01*
X150988414Y-47458444D01*
X150988413Y-47458443D01*
X150988412Y-47458443D01*
X150786243Y-47392754D01*
X150786241Y-47392753D01*
X150786240Y-47392753D01*
X150624957Y-47367208D01*
X150576287Y-47359500D01*
X150363713Y-47359500D01*
X150315042Y-47367208D01*
X150153760Y-47392753D01*
X149951585Y-47458444D01*
X149762179Y-47554951D01*
X149590213Y-47679890D01*
X149439890Y-47830213D01*
X149314949Y-48002182D01*
X149310484Y-48010946D01*
X149262509Y-48061742D01*
X149194688Y-48078536D01*
X149128553Y-48055998D01*
X149089516Y-48010946D01*
X149085050Y-48002182D01*
X148960109Y-47830213D01*
X148809786Y-47679890D01*
X148637820Y-47554951D01*
X148448414Y-47458444D01*
X148448413Y-47458443D01*
X148448412Y-47458443D01*
X148246243Y-47392754D01*
X148246241Y-47392753D01*
X148246240Y-47392753D01*
X148084957Y-47367208D01*
X148036287Y-47359500D01*
X147823713Y-47359500D01*
X147775042Y-47367208D01*
X147613760Y-47392753D01*
X147411585Y-47458444D01*
X147222179Y-47554951D01*
X147050213Y-47679890D01*
X146899890Y-47830213D01*
X146774949Y-48002182D01*
X146770484Y-48010946D01*
X146722509Y-48061742D01*
X146654688Y-48078536D01*
X146588553Y-48055998D01*
X146549516Y-48010946D01*
X146545050Y-48002182D01*
X146420109Y-47830213D01*
X146269786Y-47679890D01*
X146097820Y-47554951D01*
X145908414Y-47458444D01*
X145908413Y-47458443D01*
X145908412Y-47458443D01*
X145706243Y-47392754D01*
X145706241Y-47392753D01*
X145706240Y-47392753D01*
X145544957Y-47367208D01*
X145496287Y-47359500D01*
X145283713Y-47359500D01*
X145235042Y-47367208D01*
X145073760Y-47392753D01*
X144871585Y-47458444D01*
X144682179Y-47554951D01*
X144510213Y-47679890D01*
X144359890Y-47830213D01*
X144234949Y-48002182D01*
X144230484Y-48010946D01*
X144182509Y-48061742D01*
X144114688Y-48078536D01*
X144048553Y-48055998D01*
X144009516Y-48010946D01*
X144005050Y-48002182D01*
X143880109Y-47830213D01*
X143729786Y-47679890D01*
X143557820Y-47554951D01*
X143368414Y-47458444D01*
X143368413Y-47458443D01*
X143368412Y-47458443D01*
X143166243Y-47392754D01*
X143166241Y-47392753D01*
X143166240Y-47392753D01*
X143004957Y-47367208D01*
X142956287Y-47359500D01*
X142743713Y-47359500D01*
X142695042Y-47367208D01*
X142533760Y-47392753D01*
X142331585Y-47458444D01*
X142142179Y-47554951D01*
X141970213Y-47679890D01*
X141819890Y-47830213D01*
X141694949Y-48002182D01*
X141690484Y-48010946D01*
X141642509Y-48061742D01*
X141574688Y-48078536D01*
X141508553Y-48055998D01*
X141469516Y-48010946D01*
X141465050Y-48002182D01*
X141340109Y-47830213D01*
X141189786Y-47679890D01*
X141017820Y-47554951D01*
X140828414Y-47458444D01*
X140828413Y-47458443D01*
X140828412Y-47458443D01*
X140626243Y-47392754D01*
X140626241Y-47392753D01*
X140626240Y-47392753D01*
X140464957Y-47367208D01*
X140416287Y-47359500D01*
X140203713Y-47359500D01*
X140155042Y-47367208D01*
X139993760Y-47392753D01*
X139791585Y-47458444D01*
X139602179Y-47554951D01*
X139430213Y-47679890D01*
X139279890Y-47830213D01*
X139154949Y-48002182D01*
X139150484Y-48010946D01*
X139102509Y-48061742D01*
X139034688Y-48078536D01*
X138968553Y-48055998D01*
X138929516Y-48010946D01*
X138925050Y-48002182D01*
X138800109Y-47830213D01*
X138649786Y-47679890D01*
X138477820Y-47554951D01*
X138288414Y-47458444D01*
X138288413Y-47458443D01*
X138288412Y-47458443D01*
X138086243Y-47392754D01*
X138086241Y-47392753D01*
X138086240Y-47392753D01*
X137924957Y-47367208D01*
X137876287Y-47359500D01*
X137663713Y-47359500D01*
X137615042Y-47367208D01*
X137453760Y-47392753D01*
X137251585Y-47458444D01*
X137062179Y-47554951D01*
X136890213Y-47679890D01*
X136739890Y-47830213D01*
X136614949Y-48002182D01*
X136610484Y-48010946D01*
X136562509Y-48061742D01*
X136494688Y-48078536D01*
X136428553Y-48055998D01*
X136389516Y-48010946D01*
X136385050Y-48002182D01*
X136260109Y-47830213D01*
X136109786Y-47679890D01*
X135937820Y-47554951D01*
X135748414Y-47458444D01*
X135748413Y-47458443D01*
X135748412Y-47458443D01*
X135546243Y-47392754D01*
X135546241Y-47392753D01*
X135546240Y-47392753D01*
X135384957Y-47367208D01*
X135336287Y-47359500D01*
X135123713Y-47359500D01*
X135075042Y-47367208D01*
X134913760Y-47392753D01*
X134711585Y-47458444D01*
X134522179Y-47554951D01*
X134350213Y-47679890D01*
X134199890Y-47830213D01*
X134074949Y-48002182D01*
X134070484Y-48010946D01*
X134022509Y-48061742D01*
X133954688Y-48078536D01*
X133888553Y-48055998D01*
X133849516Y-48010946D01*
X133845050Y-48002182D01*
X133720109Y-47830213D01*
X133569786Y-47679890D01*
X133397820Y-47554951D01*
X133208414Y-47458444D01*
X133208413Y-47458443D01*
X133208412Y-47458443D01*
X133006243Y-47392754D01*
X133006241Y-47392753D01*
X133006240Y-47392753D01*
X132844957Y-47367208D01*
X132796287Y-47359500D01*
X132583713Y-47359500D01*
X132535042Y-47367208D01*
X132373760Y-47392753D01*
X132171585Y-47458444D01*
X131982179Y-47554951D01*
X131810213Y-47679890D01*
X131659890Y-47830213D01*
X131534949Y-48002182D01*
X131530484Y-48010946D01*
X131482509Y-48061742D01*
X131414688Y-48078536D01*
X131348553Y-48055998D01*
X131309516Y-48010946D01*
X131305050Y-48002182D01*
X131180109Y-47830213D01*
X131029786Y-47679890D01*
X130857820Y-47554951D01*
X130668414Y-47458444D01*
X130668413Y-47458443D01*
X130668412Y-47458443D01*
X130466243Y-47392754D01*
X130466241Y-47392753D01*
X130466240Y-47392753D01*
X130304957Y-47367208D01*
X130256287Y-47359500D01*
X130043713Y-47359500D01*
X129995042Y-47367208D01*
X129833760Y-47392753D01*
X129631585Y-47458444D01*
X129442179Y-47554951D01*
X129270213Y-47679890D01*
X129119890Y-47830213D01*
X128994949Y-48002182D01*
X128990484Y-48010946D01*
X128942509Y-48061742D01*
X128874688Y-48078536D01*
X128808553Y-48055998D01*
X128769516Y-48010946D01*
X128765050Y-48002182D01*
X128640109Y-47830213D01*
X128489786Y-47679890D01*
X128317820Y-47554951D01*
X128128414Y-47458444D01*
X128128413Y-47458443D01*
X128128412Y-47458443D01*
X127926243Y-47392754D01*
X127926241Y-47392753D01*
X127926240Y-47392753D01*
X127764957Y-47367208D01*
X127716287Y-47359500D01*
X127503713Y-47359500D01*
X127455042Y-47367208D01*
X127293760Y-47392753D01*
X127091585Y-47458444D01*
X126902179Y-47554951D01*
X126730213Y-47679890D01*
X126579890Y-47830213D01*
X126454949Y-48002182D01*
X126450484Y-48010946D01*
X126402509Y-48061742D01*
X126334688Y-48078536D01*
X126268553Y-48055998D01*
X126229516Y-48010946D01*
X126225050Y-48002182D01*
X126100109Y-47830213D01*
X125949786Y-47679890D01*
X125777820Y-47554951D01*
X125588414Y-47458444D01*
X125588413Y-47458443D01*
X125588412Y-47458443D01*
X125386243Y-47392754D01*
X125386241Y-47392753D01*
X125386240Y-47392753D01*
X125224957Y-47367208D01*
X125176287Y-47359500D01*
X124963713Y-47359500D01*
X124915042Y-47367208D01*
X124753760Y-47392753D01*
X124551585Y-47458444D01*
X124362179Y-47554951D01*
X124190213Y-47679890D01*
X124039890Y-47830213D01*
X123914949Y-48002182D01*
X123910484Y-48010946D01*
X123862509Y-48061742D01*
X123794688Y-48078536D01*
X123728553Y-48055998D01*
X123689516Y-48010946D01*
X123685050Y-48002182D01*
X123560109Y-47830213D01*
X123409786Y-47679890D01*
X123237820Y-47554951D01*
X123048414Y-47458444D01*
X123048413Y-47458443D01*
X123048412Y-47458443D01*
X122846243Y-47392754D01*
X122846241Y-47392753D01*
X122846240Y-47392753D01*
X122684957Y-47367208D01*
X122636287Y-47359500D01*
X122423713Y-47359500D01*
X122375042Y-47367208D01*
X122213760Y-47392753D01*
X122011585Y-47458444D01*
X121822179Y-47554951D01*
X121650213Y-47679890D01*
X121499890Y-47830213D01*
X121374949Y-48002182D01*
X121370484Y-48010946D01*
X121322509Y-48061742D01*
X121254688Y-48078536D01*
X121188553Y-48055998D01*
X121149516Y-48010946D01*
X121145050Y-48002182D01*
X121020109Y-47830213D01*
X120869786Y-47679890D01*
X120697820Y-47554951D01*
X120508414Y-47458444D01*
X120508413Y-47458443D01*
X120508412Y-47458443D01*
X120306243Y-47392754D01*
X120306241Y-47392753D01*
X120306240Y-47392753D01*
X120144957Y-47367208D01*
X120096287Y-47359500D01*
X119883713Y-47359500D01*
X119835042Y-47367208D01*
X119673760Y-47392753D01*
X119471585Y-47458444D01*
X119282179Y-47554951D01*
X119110213Y-47679890D01*
X118959890Y-47830213D01*
X118834949Y-48002182D01*
X118830484Y-48010946D01*
X118782509Y-48061742D01*
X118714688Y-48078536D01*
X118648553Y-48055998D01*
X118609516Y-48010946D01*
X118605050Y-48002182D01*
X118480109Y-47830213D01*
X118329786Y-47679890D01*
X118157820Y-47554951D01*
X117968414Y-47458444D01*
X117968413Y-47458443D01*
X117968412Y-47458443D01*
X117766243Y-47392754D01*
X117766241Y-47392753D01*
X117766240Y-47392753D01*
X117604957Y-47367208D01*
X117556287Y-47359500D01*
X117343713Y-47359500D01*
X117295042Y-47367208D01*
X117133760Y-47392753D01*
X116931585Y-47458444D01*
X116742179Y-47554951D01*
X116570213Y-47679890D01*
X116419890Y-47830213D01*
X116294949Y-48002182D01*
X116290484Y-48010946D01*
X116242509Y-48061742D01*
X116174688Y-48078536D01*
X116108553Y-48055998D01*
X116069516Y-48010946D01*
X116065050Y-48002182D01*
X115940109Y-47830213D01*
X115789786Y-47679890D01*
X115617820Y-47554951D01*
X115428414Y-47458444D01*
X115428413Y-47458443D01*
X115428412Y-47458443D01*
X115226243Y-47392754D01*
X115226241Y-47392753D01*
X115226240Y-47392753D01*
X115064957Y-47367208D01*
X115016287Y-47359500D01*
X114803713Y-47359500D01*
X114755042Y-47367208D01*
X114593760Y-47392753D01*
X114391585Y-47458444D01*
X114202179Y-47554951D01*
X114030213Y-47679890D01*
X113879890Y-47830213D01*
X113754949Y-48002182D01*
X113750484Y-48010946D01*
X113702509Y-48061742D01*
X113634688Y-48078536D01*
X113568553Y-48055998D01*
X113529516Y-48010946D01*
X113525050Y-48002182D01*
X113400109Y-47830213D01*
X113249786Y-47679890D01*
X113077820Y-47554951D01*
X112888414Y-47458444D01*
X112888413Y-47458443D01*
X112888412Y-47458443D01*
X112686243Y-47392754D01*
X112686241Y-47392753D01*
X112686240Y-47392753D01*
X112524957Y-47367208D01*
X112476287Y-47359500D01*
X112263713Y-47359500D01*
X112215042Y-47367208D01*
X112053760Y-47392753D01*
X111851585Y-47458444D01*
X111662179Y-47554951D01*
X111490213Y-47679890D01*
X111339890Y-47830213D01*
X111214949Y-48002182D01*
X111210484Y-48010946D01*
X111162509Y-48061742D01*
X111094688Y-48078536D01*
X111028553Y-48055998D01*
X110989516Y-48010946D01*
X110985050Y-48002182D01*
X110860109Y-47830213D01*
X110709786Y-47679890D01*
X110537820Y-47554951D01*
X110348414Y-47458444D01*
X110348413Y-47458443D01*
X110348412Y-47458443D01*
X110146243Y-47392754D01*
X110146241Y-47392753D01*
X110146240Y-47392753D01*
X109984957Y-47367208D01*
X109936287Y-47359500D01*
X109723713Y-47359500D01*
X109675042Y-47367208D01*
X109513760Y-47392753D01*
X109311585Y-47458444D01*
X109122179Y-47554951D01*
X108950213Y-47679890D01*
X108799890Y-47830213D01*
X108674949Y-48002182D01*
X108670484Y-48010946D01*
X108622509Y-48061742D01*
X108554688Y-48078536D01*
X108488553Y-48055998D01*
X108449516Y-48010946D01*
X108445050Y-48002182D01*
X108320109Y-47830213D01*
X108169786Y-47679890D01*
X107997820Y-47554951D01*
X107808414Y-47458444D01*
X107808413Y-47458443D01*
X107808412Y-47458443D01*
X107606243Y-47392754D01*
X107606241Y-47392753D01*
X107606240Y-47392753D01*
X107444957Y-47367208D01*
X107396287Y-47359500D01*
X107183713Y-47359500D01*
X107135042Y-47367208D01*
X106973760Y-47392753D01*
X106771585Y-47458444D01*
X106582179Y-47554951D01*
X106410213Y-47679890D01*
X106259890Y-47830213D01*
X106134949Y-48002182D01*
X106130484Y-48010946D01*
X106082509Y-48061742D01*
X106014688Y-48078536D01*
X105948553Y-48055998D01*
X105909516Y-48010946D01*
X105905050Y-48002182D01*
X105780109Y-47830213D01*
X105629786Y-47679890D01*
X105457820Y-47554951D01*
X105268414Y-47458444D01*
X105268413Y-47458443D01*
X105268412Y-47458443D01*
X105066243Y-47392754D01*
X105066241Y-47392753D01*
X105066240Y-47392753D01*
X104904957Y-47367208D01*
X104856287Y-47359500D01*
X104643713Y-47359500D01*
X104595042Y-47367208D01*
X104433760Y-47392753D01*
X104231585Y-47458444D01*
X104042179Y-47554951D01*
X103870213Y-47679890D01*
X103719890Y-47830213D01*
X103594951Y-48002179D01*
X103498444Y-48191585D01*
X103432753Y-48393760D01*
X103399500Y-48603713D01*
X103399500Y-48816286D01*
X103432753Y-49026239D01*
X103498444Y-49228414D01*
X103594951Y-49417820D01*
X103719890Y-49589786D01*
X103833818Y-49703714D01*
X103867303Y-49765037D01*
X103862319Y-49834729D01*
X103820447Y-49890662D01*
X103789471Y-49907577D01*
X103657912Y-49956646D01*
X103657906Y-49956649D01*
X103542812Y-50042809D01*
X103542809Y-50042812D01*
X103456649Y-50157906D01*
X103456645Y-50157913D01*
X103440682Y-50200714D01*
X103398811Y-50256648D01*
X103333346Y-50281065D01*
X103265073Y-50266213D01*
X103215668Y-50216808D01*
X103200500Y-50157381D01*
X103200500Y-49820261D01*
X103200499Y-49820259D01*
X103199714Y-49813293D01*
X103160252Y-49463052D01*
X103080262Y-49112592D01*
X102961536Y-48773292D01*
X102805566Y-48449418D01*
X102614315Y-48145044D01*
X102390188Y-47863997D01*
X102136003Y-47609812D01*
X101854956Y-47385685D01*
X101550582Y-47194434D01*
X101550579Y-47194432D01*
X101223573Y-47036954D01*
X101224123Y-47035809D01*
X101173759Y-46995240D01*
X101151682Y-46928950D01*
X101168948Y-46861247D01*
X101220076Y-46813627D01*
X101275602Y-46800500D01*
X156724398Y-46800500D01*
X156791437Y-46820185D01*
G37*
%TD.AperFunction*%
%TA.AperFunction,Conductor*%
G36*
X123871444Y-49363999D02*
G01*
X123910486Y-49409056D01*
X123914951Y-49417820D01*
X124039890Y-49589786D01*
X124190213Y-49740109D01*
X124362179Y-49865048D01*
X124362181Y-49865049D01*
X124362184Y-49865051D01*
X124371493Y-49869794D01*
X124422290Y-49917766D01*
X124439087Y-49985587D01*
X124416552Y-50051722D01*
X124371505Y-50090760D01*
X124362446Y-50095376D01*
X124362440Y-50095380D01*
X124308282Y-50134727D01*
X124308282Y-50134728D01*
X124940591Y-50767037D01*
X124877007Y-50784075D01*
X124762993Y-50849901D01*
X124669901Y-50942993D01*
X124604075Y-51057007D01*
X124587037Y-51120591D01*
X123954728Y-50488282D01*
X123954727Y-50488282D01*
X123915380Y-50542440D01*
X123915376Y-50542446D01*
X123910760Y-50551505D01*
X123862781Y-50602297D01*
X123794959Y-50619087D01*
X123728826Y-50596543D01*
X123689794Y-50551493D01*
X123685051Y-50542184D01*
X123685049Y-50542181D01*
X123685048Y-50542179D01*
X123560109Y-50370213D01*
X123409786Y-50219890D01*
X123237820Y-50094951D01*
X123229600Y-50090763D01*
X123229054Y-50090485D01*
X123178259Y-50042512D01*
X123161463Y-49974692D01*
X123183999Y-49908556D01*
X123229054Y-49869515D01*
X123237816Y-49865051D01*
X123279551Y-49834729D01*
X123409786Y-49740109D01*
X123409788Y-49740106D01*
X123409792Y-49740104D01*
X123560104Y-49589792D01*
X123560106Y-49589788D01*
X123560109Y-49589786D01*
X123685048Y-49417820D01*
X123685047Y-49417820D01*
X123685051Y-49417816D01*
X123689514Y-49409054D01*
X123737488Y-49358259D01*
X123805308Y-49341463D01*
X123871444Y-49363999D01*
G37*
%TD.AperFunction*%
%TA.AperFunction,Conductor*%
G36*
X126411444Y-49363999D02*
G01*
X126450486Y-49409056D01*
X126454951Y-49417820D01*
X126579890Y-49589786D01*
X126730213Y-49740109D01*
X126902182Y-49865050D01*
X126910946Y-49869516D01*
X126961742Y-49917491D01*
X126978536Y-49985312D01*
X126955998Y-50051447D01*
X126910946Y-50090484D01*
X126902182Y-50094949D01*
X126730213Y-50219890D01*
X126579890Y-50370213D01*
X126454949Y-50542182D01*
X126450202Y-50551499D01*
X126402227Y-50602293D01*
X126334405Y-50619087D01*
X126268271Y-50596548D01*
X126229234Y-50551495D01*
X126224626Y-50542452D01*
X126185270Y-50488282D01*
X126185269Y-50488282D01*
X125552962Y-51120590D01*
X125535925Y-51057007D01*
X125470099Y-50942993D01*
X125377007Y-50849901D01*
X125262993Y-50784075D01*
X125199409Y-50767037D01*
X125831716Y-50134728D01*
X125777547Y-50095373D01*
X125777547Y-50095372D01*
X125768500Y-50090763D01*
X125717706Y-50042788D01*
X125700912Y-49974966D01*
X125723451Y-49908832D01*
X125768508Y-49869793D01*
X125777816Y-49865051D01*
X125867020Y-49800241D01*
X125949786Y-49740109D01*
X125949788Y-49740106D01*
X125949792Y-49740104D01*
X126100104Y-49589792D01*
X126100106Y-49589788D01*
X126100109Y-49589786D01*
X126225048Y-49417820D01*
X126225047Y-49417820D01*
X126225051Y-49417816D01*
X126229514Y-49409054D01*
X126277488Y-49358259D01*
X126345308Y-49341463D01*
X126411444Y-49363999D01*
G37*
%TD.AperFunction*%
%TD*%
%TA.AperFunction,Conductor*%
%TO.N,VCC*%
G36*
X161142539Y-55519685D02*
G01*
X161188294Y-55572489D01*
X161199500Y-55624000D01*
X161199500Y-71724397D01*
X161179815Y-71791436D01*
X161127011Y-71837191D01*
X161057853Y-71847135D01*
X160994297Y-71818110D01*
X160963931Y-71776000D01*
X160963046Y-71776427D01*
X160805567Y-71449420D01*
X160799765Y-71440186D01*
X160614315Y-71145044D01*
X160390188Y-70863997D01*
X160136003Y-70609812D01*
X159854956Y-70385685D01*
X159550582Y-70194434D01*
X159550579Y-70194432D01*
X159226711Y-70038465D01*
X158887419Y-69919741D01*
X158887407Y-69919737D01*
X158536951Y-69839748D01*
X158536935Y-69839746D01*
X158179740Y-69799500D01*
X158179736Y-69799500D01*
X157820264Y-69799500D01*
X157820259Y-69799500D01*
X157463064Y-69839746D01*
X157463048Y-69839748D01*
X157112592Y-69919737D01*
X157112580Y-69919741D01*
X156773288Y-70038465D01*
X156449420Y-70194432D01*
X156145045Y-70385684D01*
X155863997Y-70609811D01*
X155609811Y-70863997D01*
X155385684Y-71145045D01*
X155194432Y-71449420D01*
X155038465Y-71773288D01*
X154919741Y-72112580D01*
X154919737Y-72112592D01*
X154839748Y-72463048D01*
X154839746Y-72463064D01*
X154799500Y-72820259D01*
X154799500Y-73179740D01*
X154839746Y-73536935D01*
X154839748Y-73536951D01*
X154919737Y-73887407D01*
X154919741Y-73887419D01*
X155038465Y-74226711D01*
X155194432Y-74550579D01*
X155194434Y-74550582D01*
X155385685Y-74854956D01*
X155609812Y-75136003D01*
X155863997Y-75390188D01*
X156145044Y-75614315D01*
X156449418Y-75805566D01*
X156449420Y-75805567D01*
X156776427Y-75963046D01*
X156775876Y-75964190D01*
X156826241Y-76004760D01*
X156848318Y-76071050D01*
X156831052Y-76138753D01*
X156779924Y-76186373D01*
X156724398Y-76199500D01*
X101275602Y-76199500D01*
X101208563Y-76179815D01*
X101162808Y-76127011D01*
X101152864Y-76057853D01*
X101181889Y-75994297D01*
X101224001Y-75963935D01*
X101223573Y-75963046D01*
X101343839Y-75905128D01*
X101550582Y-75805566D01*
X101854956Y-75614315D01*
X102136003Y-75390188D01*
X102390188Y-75136003D01*
X102614315Y-74854956D01*
X102805566Y-74550582D01*
X102961536Y-74226708D01*
X103080262Y-73887408D01*
X103160252Y-73536948D01*
X103200500Y-73179736D01*
X103200500Y-72820264D01*
X103160252Y-72463052D01*
X103080262Y-72112592D01*
X103067102Y-72074983D01*
X118899500Y-72074983D01*
X118899500Y-73425001D01*
X118899501Y-73425018D01*
X118910000Y-73527796D01*
X118910001Y-73527799D01*
X118965185Y-73694331D01*
X118965187Y-73694336D01*
X118988870Y-73732732D01*
X119057288Y-73843656D01*
X119181344Y-73967712D01*
X119330666Y-74059814D01*
X119497203Y-74114999D01*
X119599991Y-74125500D01*
X120400008Y-74125499D01*
X120400016Y-74125498D01*
X120400019Y-74125498D01*
X120456302Y-74119748D01*
X120502797Y-74114999D01*
X120669334Y-74059814D01*
X120818656Y-73967712D01*
X120942712Y-73843656D01*
X120982310Y-73779456D01*
X121034258Y-73732732D01*
X121103220Y-73721509D01*
X121167303Y-73749352D01*
X121175530Y-73756872D01*
X121283072Y-73864414D01*
X121423212Y-73966232D01*
X121577555Y-74044873D01*
X121742299Y-74098402D01*
X121913389Y-74125500D01*
X121913390Y-74125500D01*
X122086610Y-74125500D01*
X122086611Y-74125500D01*
X122257701Y-74098402D01*
X122422445Y-74044873D01*
X122576788Y-73966232D01*
X122716928Y-73864414D01*
X122839414Y-73741928D01*
X122899682Y-73658975D01*
X122955012Y-73616311D01*
X123024626Y-73610332D01*
X123086421Y-73642938D01*
X123100315Y-73658973D01*
X123160586Y-73741928D01*
X123283072Y-73864414D01*
X123423212Y-73966232D01*
X123577555Y-74044873D01*
X123742299Y-74098402D01*
X123913389Y-74125500D01*
X123913390Y-74125500D01*
X124086610Y-74125500D01*
X124086611Y-74125500D01*
X124257701Y-74098402D01*
X124422445Y-74044873D01*
X124576788Y-73966232D01*
X124716928Y-73864414D01*
X124839414Y-73741928D01*
X124899682Y-73658975D01*
X124955012Y-73616311D01*
X125024626Y-73610332D01*
X125086421Y-73642938D01*
X125100315Y-73658973D01*
X125160586Y-73741928D01*
X125283072Y-73864414D01*
X125423212Y-73966232D01*
X125577555Y-74044873D01*
X125742299Y-74098402D01*
X125913389Y-74125500D01*
X125913390Y-74125500D01*
X126086610Y-74125500D01*
X126086611Y-74125500D01*
X126257701Y-74098402D01*
X126422445Y-74044873D01*
X126576788Y-73966232D01*
X126716928Y-73864414D01*
X126839414Y-73741928D01*
X126899682Y-73658975D01*
X126955012Y-73616311D01*
X127024626Y-73610332D01*
X127086421Y-73642938D01*
X127100315Y-73658973D01*
X127160586Y-73741928D01*
X127283072Y-73864414D01*
X127423212Y-73966232D01*
X127577555Y-74044873D01*
X127742299Y-74098402D01*
X127913389Y-74125500D01*
X127913390Y-74125500D01*
X128086610Y-74125500D01*
X128086611Y-74125500D01*
X128257701Y-74098402D01*
X128422445Y-74044873D01*
X128576788Y-73966232D01*
X128716928Y-73864414D01*
X128839414Y-73741928D01*
X128899682Y-73658975D01*
X128955012Y-73616311D01*
X129024626Y-73610332D01*
X129086421Y-73642938D01*
X129100315Y-73658973D01*
X129160586Y-73741928D01*
X129283072Y-73864414D01*
X129423212Y-73966232D01*
X129577555Y-74044873D01*
X129742299Y-74098402D01*
X129913389Y-74125500D01*
X129913390Y-74125500D01*
X130086610Y-74125500D01*
X130086611Y-74125500D01*
X130257701Y-74098402D01*
X130422445Y-74044873D01*
X130576788Y-73966232D01*
X130716928Y-73864414D01*
X130837589Y-73743753D01*
X145650000Y-73743753D01*
X145650000Y-73750000D01*
X146566988Y-73750000D01*
X146534075Y-73807007D01*
X146500000Y-73934174D01*
X146500000Y-74065826D01*
X146534075Y-74192993D01*
X146566988Y-74250000D01*
X145650000Y-74250000D01*
X145650000Y-74256246D01*
X145683242Y-74466127D01*
X145683242Y-74466130D01*
X145748904Y-74668217D01*
X145845379Y-74857557D01*
X145970272Y-75029459D01*
X145970276Y-75029464D01*
X146120535Y-75179723D01*
X146120540Y-75179727D01*
X146292442Y-75304620D01*
X146481782Y-75401095D01*
X146683871Y-75466757D01*
X146750000Y-75477231D01*
X146750000Y-74433012D01*
X146807007Y-74465925D01*
X146934174Y-74500000D01*
X147065826Y-74500000D01*
X147192993Y-74465925D01*
X147250000Y-74433012D01*
X147250000Y-75477230D01*
X147316126Y-75466757D01*
X147316129Y-75466757D01*
X147518217Y-75401095D01*
X147707557Y-75304620D01*
X147879458Y-75179728D01*
X148018330Y-75040856D01*
X148079653Y-75007371D01*
X148149345Y-75012355D01*
X148205279Y-75054226D01*
X148211551Y-75063440D01*
X148215185Y-75069331D01*
X148215186Y-75069334D01*
X148307288Y-75218656D01*
X148431344Y-75342712D01*
X148580666Y-75434814D01*
X148747203Y-75489999D01*
X148849991Y-75500500D01*
X150150008Y-75500499D01*
X150252797Y-75489999D01*
X150419334Y-75434814D01*
X150568656Y-75342712D01*
X150692712Y-75218656D01*
X150784814Y-75069334D01*
X150839999Y-74902797D01*
X150850500Y-74800009D01*
X150850499Y-73199992D01*
X150839999Y-73097203D01*
X150784814Y-72930666D01*
X150692712Y-72781344D01*
X150568656Y-72657288D01*
X150419334Y-72565186D01*
X150252797Y-72510001D01*
X150252795Y-72510000D01*
X150150010Y-72499500D01*
X148849998Y-72499500D01*
X148849981Y-72499501D01*
X148747203Y-72510000D01*
X148747200Y-72510001D01*
X148580668Y-72565185D01*
X148580663Y-72565187D01*
X148431342Y-72657289D01*
X148307289Y-72781342D01*
X148211551Y-72936559D01*
X148159603Y-72983283D01*
X148090640Y-72994506D01*
X148026558Y-72966662D01*
X148018331Y-72959143D01*
X147879464Y-72820276D01*
X147879459Y-72820272D01*
X147707557Y-72695379D01*
X147518215Y-72598903D01*
X147316124Y-72533241D01*
X147250000Y-72522768D01*
X147250000Y-73566988D01*
X147192993Y-73534075D01*
X147065826Y-73500000D01*
X146934174Y-73500000D01*
X146807007Y-73534075D01*
X146750000Y-73566988D01*
X146750000Y-72522768D01*
X146749999Y-72522768D01*
X146683875Y-72533241D01*
X146481784Y-72598903D01*
X146292442Y-72695379D01*
X146120540Y-72820272D01*
X146120535Y-72820276D01*
X145970276Y-72970535D01*
X145970272Y-72970540D01*
X145845379Y-73142442D01*
X145748904Y-73331782D01*
X145683242Y-73533869D01*
X145683242Y-73533872D01*
X145650000Y-73743753D01*
X130837589Y-73743753D01*
X130839414Y-73741928D01*
X130941232Y-73601788D01*
X131019873Y-73447445D01*
X131073402Y-73282701D01*
X131100500Y-73111611D01*
X131100500Y-72388389D01*
X131073402Y-72217299D01*
X131019873Y-72052555D01*
X130941232Y-71898212D01*
X130839414Y-71758072D01*
X130716928Y-71635586D01*
X130576788Y-71533768D01*
X130422445Y-71455127D01*
X130257701Y-71401598D01*
X130257699Y-71401597D01*
X130257698Y-71401597D01*
X130126271Y-71380781D01*
X130086611Y-71374500D01*
X129913389Y-71374500D01*
X129873728Y-71380781D01*
X129742302Y-71401597D01*
X129577552Y-71455128D01*
X129423211Y-71533768D01*
X129343256Y-71591859D01*
X129283072Y-71635586D01*
X129283070Y-71635588D01*
X129283069Y-71635588D01*
X129160588Y-71758069D01*
X129160581Y-71758078D01*
X129100317Y-71841023D01*
X129044987Y-71883689D01*
X128975374Y-71889667D01*
X128913579Y-71857061D01*
X128899683Y-71841023D01*
X128839418Y-71758078D01*
X128839414Y-71758072D01*
X128716928Y-71635586D01*
X128576788Y-71533768D01*
X128422445Y-71455127D01*
X128257701Y-71401598D01*
X128257699Y-71401597D01*
X128257698Y-71401597D01*
X128126271Y-71380781D01*
X128086611Y-71374500D01*
X127913389Y-71374500D01*
X127873728Y-71380781D01*
X127742302Y-71401597D01*
X127577552Y-71455128D01*
X127423211Y-71533768D01*
X127343256Y-71591859D01*
X127283072Y-71635586D01*
X127283070Y-71635588D01*
X127283069Y-71635588D01*
X127160588Y-71758069D01*
X127160581Y-71758078D01*
X127100317Y-71841023D01*
X127044987Y-71883689D01*
X126975374Y-71889667D01*
X126913579Y-71857061D01*
X126899683Y-71841023D01*
X126839418Y-71758078D01*
X126839414Y-71758072D01*
X126716928Y-71635586D01*
X126576788Y-71533768D01*
X126422445Y-71455127D01*
X126257701Y-71401598D01*
X126257699Y-71401597D01*
X126257698Y-71401597D01*
X126126271Y-71380781D01*
X126086611Y-71374500D01*
X125913389Y-71374500D01*
X125873728Y-71380781D01*
X125742302Y-71401597D01*
X125577552Y-71455128D01*
X125423211Y-71533768D01*
X125343256Y-71591859D01*
X125283072Y-71635586D01*
X125283070Y-71635588D01*
X125283069Y-71635588D01*
X125160588Y-71758069D01*
X125160581Y-71758078D01*
X125100317Y-71841023D01*
X125044987Y-71883689D01*
X124975374Y-71889667D01*
X124913579Y-71857061D01*
X124899683Y-71841023D01*
X124839418Y-71758078D01*
X124839414Y-71758072D01*
X124716928Y-71635586D01*
X124576788Y-71533768D01*
X124422445Y-71455127D01*
X124257701Y-71401598D01*
X124257699Y-71401597D01*
X124257698Y-71401597D01*
X124126271Y-71380781D01*
X124086611Y-71374500D01*
X123913389Y-71374500D01*
X123873728Y-71380781D01*
X123742302Y-71401597D01*
X123577552Y-71455128D01*
X123423211Y-71533768D01*
X123343256Y-71591859D01*
X123283072Y-71635586D01*
X123283070Y-71635588D01*
X123283069Y-71635588D01*
X123160588Y-71758069D01*
X123160581Y-71758078D01*
X123100317Y-71841023D01*
X123044987Y-71883689D01*
X122975374Y-71889667D01*
X122913579Y-71857061D01*
X122899683Y-71841023D01*
X122839418Y-71758078D01*
X122839414Y-71758072D01*
X122716928Y-71635586D01*
X122576788Y-71533768D01*
X122422445Y-71455127D01*
X122257701Y-71401598D01*
X122257699Y-71401597D01*
X122257698Y-71401597D01*
X122126271Y-71380781D01*
X122086611Y-71374500D01*
X121913389Y-71374500D01*
X121873728Y-71380781D01*
X121742302Y-71401597D01*
X121577552Y-71455128D01*
X121423211Y-71533768D01*
X121283073Y-71635585D01*
X121175530Y-71743128D01*
X121114207Y-71776612D01*
X121044515Y-71771628D01*
X120988582Y-71729756D01*
X120982310Y-71720543D01*
X120942712Y-71656344D01*
X120818656Y-71532288D01*
X120693559Y-71455128D01*
X120669336Y-71440187D01*
X120669331Y-71440185D01*
X120667862Y-71439698D01*
X120502797Y-71385001D01*
X120502795Y-71385000D01*
X120400010Y-71374500D01*
X119599998Y-71374500D01*
X119599980Y-71374501D01*
X119497203Y-71385000D01*
X119497200Y-71385001D01*
X119330668Y-71440185D01*
X119330663Y-71440187D01*
X119181342Y-71532289D01*
X119057289Y-71656342D01*
X118965187Y-71805663D01*
X118965185Y-71805668D01*
X118948155Y-71857061D01*
X118910001Y-71972203D01*
X118910001Y-71972204D01*
X118910000Y-71972204D01*
X118899500Y-72074983D01*
X103067102Y-72074983D01*
X102961536Y-71773292D01*
X102805566Y-71449418D01*
X102614315Y-71145044D01*
X102390188Y-70863997D01*
X102136003Y-70609812D01*
X101854956Y-70385685D01*
X101550582Y-70194434D01*
X101550579Y-70194432D01*
X101502240Y-70171153D01*
X123199500Y-70171153D01*
X123199500Y-70328846D01*
X123230261Y-70483489D01*
X123230264Y-70483501D01*
X123290602Y-70629172D01*
X123290609Y-70629185D01*
X123378210Y-70760288D01*
X123378213Y-70760292D01*
X123489707Y-70871786D01*
X123489711Y-70871789D01*
X123620814Y-70959390D01*
X123620827Y-70959397D01*
X123766498Y-71019735D01*
X123766503Y-71019737D01*
X123921153Y-71050499D01*
X123921156Y-71050500D01*
X123921158Y-71050500D01*
X124078844Y-71050500D01*
X124078845Y-71050499D01*
X124233497Y-71019737D01*
X124379179Y-70959394D01*
X124510289Y-70871789D01*
X124621789Y-70760289D01*
X124709394Y-70629179D01*
X124769737Y-70483497D01*
X124800500Y-70328842D01*
X124800500Y-70171158D01*
X124800500Y-70171155D01*
X124800499Y-70171153D01*
X125199500Y-70171153D01*
X125199500Y-70328846D01*
X125230261Y-70483489D01*
X125230264Y-70483501D01*
X125290602Y-70629172D01*
X125290609Y-70629185D01*
X125378210Y-70760288D01*
X125378213Y-70760292D01*
X125489707Y-70871786D01*
X125489711Y-70871789D01*
X125620814Y-70959390D01*
X125620827Y-70959397D01*
X125766498Y-71019735D01*
X125766503Y-71019737D01*
X125921153Y-71050499D01*
X125921156Y-71050500D01*
X125921158Y-71050500D01*
X126078844Y-71050500D01*
X126078845Y-71050499D01*
X126233497Y-71019737D01*
X126379179Y-70959394D01*
X126510289Y-70871789D01*
X126621789Y-70760289D01*
X126709394Y-70629179D01*
X126769737Y-70483497D01*
X126800500Y-70328842D01*
X126800500Y-70171158D01*
X126800500Y-70171155D01*
X126800499Y-70171153D01*
X127199500Y-70171153D01*
X127199500Y-70328846D01*
X127230261Y-70483489D01*
X127230264Y-70483501D01*
X127290602Y-70629172D01*
X127290609Y-70629185D01*
X127378210Y-70760288D01*
X127378213Y-70760292D01*
X127489707Y-70871786D01*
X127489711Y-70871789D01*
X127620814Y-70959390D01*
X127620827Y-70959397D01*
X127766498Y-71019735D01*
X127766503Y-71019737D01*
X127921153Y-71050499D01*
X127921156Y-71050500D01*
X127921158Y-71050500D01*
X128078844Y-71050500D01*
X128078845Y-71050499D01*
X128233497Y-71019737D01*
X128379179Y-70959394D01*
X128510289Y-70871789D01*
X128621789Y-70760289D01*
X128709394Y-70629179D01*
X128769737Y-70483497D01*
X128800500Y-70328842D01*
X128800500Y-70171158D01*
X128800500Y-70171155D01*
X128800499Y-70171153D01*
X128775097Y-70043449D01*
X128769737Y-70016503D01*
X128746080Y-69959390D01*
X128709397Y-69870827D01*
X128709390Y-69870814D01*
X128621789Y-69739711D01*
X128621786Y-69739707D01*
X128510292Y-69628213D01*
X128510288Y-69628210D01*
X128379185Y-69540609D01*
X128379172Y-69540602D01*
X128233501Y-69480264D01*
X128233489Y-69480261D01*
X128078845Y-69449500D01*
X128078842Y-69449500D01*
X127921158Y-69449500D01*
X127921155Y-69449500D01*
X127766510Y-69480261D01*
X127766498Y-69480264D01*
X127620827Y-69540602D01*
X127620814Y-69540609D01*
X127489711Y-69628210D01*
X127489707Y-69628213D01*
X127378213Y-69739707D01*
X127378210Y-69739711D01*
X127290609Y-69870814D01*
X127290602Y-69870827D01*
X127230264Y-70016498D01*
X127230261Y-70016510D01*
X127199500Y-70171153D01*
X126800499Y-70171153D01*
X126775097Y-70043449D01*
X126769737Y-70016503D01*
X126746080Y-69959390D01*
X126709397Y-69870827D01*
X126709390Y-69870814D01*
X126621789Y-69739711D01*
X126621786Y-69739707D01*
X126510292Y-69628213D01*
X126510288Y-69628210D01*
X126379185Y-69540609D01*
X126379172Y-69540602D01*
X126233501Y-69480264D01*
X126233489Y-69480261D01*
X126078845Y-69449500D01*
X126078842Y-69449500D01*
X125921158Y-69449500D01*
X125921155Y-69449500D01*
X125766510Y-69480261D01*
X125766498Y-69480264D01*
X125620827Y-69540602D01*
X125620814Y-69540609D01*
X125489711Y-69628210D01*
X125489707Y-69628213D01*
X125378213Y-69739707D01*
X125378210Y-69739711D01*
X125290609Y-69870814D01*
X125290602Y-69870827D01*
X125230264Y-70016498D01*
X125230261Y-70016510D01*
X125199500Y-70171153D01*
X124800499Y-70171153D01*
X124775097Y-70043449D01*
X124769737Y-70016503D01*
X124746080Y-69959390D01*
X124709397Y-69870827D01*
X124709390Y-69870814D01*
X124621789Y-69739711D01*
X124621786Y-69739707D01*
X124510292Y-69628213D01*
X124510288Y-69628210D01*
X124379185Y-69540609D01*
X124379172Y-69540602D01*
X124233501Y-69480264D01*
X124233489Y-69480261D01*
X124078845Y-69449500D01*
X124078842Y-69449500D01*
X123921158Y-69449500D01*
X123921155Y-69449500D01*
X123766510Y-69480261D01*
X123766498Y-69480264D01*
X123620827Y-69540602D01*
X123620814Y-69540609D01*
X123489711Y-69628210D01*
X123489707Y-69628213D01*
X123378213Y-69739707D01*
X123378210Y-69739711D01*
X123290609Y-69870814D01*
X123290602Y-69870827D01*
X123230264Y-70016498D01*
X123230261Y-70016510D01*
X123199500Y-70171153D01*
X101502240Y-70171153D01*
X101226711Y-70038465D01*
X100887419Y-69919741D01*
X100887407Y-69919737D01*
X100536951Y-69839748D01*
X100536935Y-69839746D01*
X100179740Y-69799500D01*
X100179736Y-69799500D01*
X99820264Y-69799500D01*
X99820259Y-69799500D01*
X99463064Y-69839746D01*
X99463048Y-69839748D01*
X99112592Y-69919737D01*
X99112580Y-69919741D01*
X98773288Y-70038465D01*
X98449420Y-70194432D01*
X98145045Y-70385684D01*
X97863997Y-70609811D01*
X97609811Y-70863997D01*
X97385684Y-71145045D01*
X97194432Y-71449420D01*
X97036954Y-71776427D01*
X97035814Y-71775878D01*
X96995219Y-71826254D01*
X96928925Y-71848318D01*
X96861226Y-71831038D01*
X96813616Y-71779901D01*
X96800500Y-71724397D01*
X96800500Y-69171153D01*
X109449500Y-69171153D01*
X109449500Y-69328846D01*
X109480261Y-69483489D01*
X109480264Y-69483501D01*
X109540602Y-69629172D01*
X109540609Y-69629185D01*
X109628210Y-69760288D01*
X109628213Y-69760292D01*
X109739707Y-69871786D01*
X109739711Y-69871789D01*
X109870814Y-69959390D01*
X109870827Y-69959397D01*
X110008683Y-70016498D01*
X110016503Y-70019737D01*
X110171153Y-70050499D01*
X110171156Y-70050500D01*
X110171158Y-70050500D01*
X110328844Y-70050500D01*
X110328845Y-70050499D01*
X110339179Y-70048443D01*
X110364287Y-70043450D01*
X110364292Y-70043449D01*
X110449800Y-70026439D01*
X110483497Y-70019737D01*
X110629179Y-69959394D01*
X110760289Y-69871789D01*
X110871789Y-69760289D01*
X110959394Y-69629179D01*
X111019737Y-69483497D01*
X111050500Y-69328842D01*
X111050500Y-69171158D01*
X111050500Y-69171155D01*
X111050499Y-69171153D01*
X111019738Y-69016510D01*
X111019737Y-69016503D01*
X111019735Y-69016498D01*
X110959397Y-68870827D01*
X110959390Y-68870814D01*
X110871789Y-68739711D01*
X110871786Y-68739707D01*
X110760292Y-68628213D01*
X110760288Y-68628210D01*
X110629185Y-68540609D01*
X110629172Y-68540602D01*
X110483501Y-68480264D01*
X110483489Y-68480261D01*
X110328845Y-68449500D01*
X110328842Y-68449500D01*
X110171158Y-68449500D01*
X110171155Y-68449500D01*
X110016510Y-68480261D01*
X110016498Y-68480264D01*
X109870827Y-68540602D01*
X109870814Y-68540609D01*
X109739711Y-68628210D01*
X109739707Y-68628213D01*
X109628213Y-68739707D01*
X109628210Y-68739711D01*
X109540609Y-68870814D01*
X109540602Y-68870827D01*
X109480264Y-69016498D01*
X109480261Y-69016510D01*
X109449500Y-69171153D01*
X96800500Y-69171153D01*
X96800500Y-58095701D01*
X98774935Y-58095701D01*
X98774935Y-58895719D01*
X98774936Y-58895737D01*
X98785435Y-58998514D01*
X98785436Y-58998517D01*
X98840620Y-59165049D01*
X98840622Y-59165054D01*
X98865269Y-59205013D01*
X98932723Y-59314374D01*
X99056779Y-59438430D01*
X99120978Y-59478028D01*
X99167703Y-59529976D01*
X99178924Y-59598939D01*
X99151081Y-59663021D01*
X99143563Y-59671248D01*
X99036020Y-59778791D01*
X98934203Y-59918929D01*
X98855563Y-60073270D01*
X98802032Y-60238020D01*
X98787747Y-60328213D01*
X98774935Y-60409107D01*
X98774935Y-60582329D01*
X98781184Y-60621786D01*
X98798877Y-60733497D01*
X98802033Y-60753419D01*
X98855562Y-60918163D01*
X98934203Y-61072506D01*
X99036021Y-61212646D01*
X99158507Y-61335132D01*
X99175692Y-61347617D01*
X99241458Y-61395401D01*
X99284124Y-61450731D01*
X99290102Y-61520344D01*
X99257496Y-61582139D01*
X99241458Y-61596035D01*
X99158513Y-61656299D01*
X99158504Y-61656306D01*
X99036023Y-61778787D01*
X99036023Y-61778788D01*
X99036021Y-61778790D01*
X99034951Y-61780263D01*
X98934203Y-61918929D01*
X98855563Y-62073270D01*
X98802032Y-62238020D01*
X98782952Y-62358489D01*
X98774935Y-62409107D01*
X98774935Y-62582329D01*
X98782302Y-62628842D01*
X98793063Y-62696789D01*
X98802033Y-62753419D01*
X98855562Y-62918163D01*
X98934203Y-63072506D01*
X99036021Y-63212646D01*
X99158507Y-63335132D01*
X99173219Y-63345821D01*
X99241458Y-63395401D01*
X99284124Y-63450731D01*
X99290102Y-63520344D01*
X99257496Y-63582139D01*
X99241458Y-63596035D01*
X99158513Y-63656299D01*
X99158504Y-63656306D01*
X99036023Y-63778787D01*
X99036023Y-63778788D01*
X99036021Y-63778790D01*
X99017820Y-63803842D01*
X98934203Y-63918929D01*
X98855563Y-64073270D01*
X98802032Y-64238020D01*
X98774935Y-64409107D01*
X98774935Y-64582328D01*
X98801934Y-64752799D01*
X98802033Y-64753419D01*
X98855562Y-64918163D01*
X98934203Y-65072506D01*
X99036021Y-65212646D01*
X99158507Y-65335132D01*
X99298647Y-65436950D01*
X99452990Y-65515591D01*
X99617734Y-65569120D01*
X99788824Y-65596218D01*
X99788825Y-65596218D01*
X100512045Y-65596218D01*
X100512046Y-65596218D01*
X100683136Y-65569120D01*
X100847880Y-65515591D01*
X101002223Y-65436950D01*
X101142363Y-65335132D01*
X101264849Y-65212646D01*
X101294996Y-65171153D01*
X110449500Y-65171153D01*
X110449500Y-65328846D01*
X110480261Y-65483489D01*
X110480264Y-65483501D01*
X110540602Y-65629172D01*
X110540609Y-65629185D01*
X110628210Y-65760288D01*
X110628213Y-65760292D01*
X110739707Y-65871786D01*
X110739711Y-65871789D01*
X110870814Y-65959390D01*
X110870827Y-65959397D01*
X110944013Y-65989711D01*
X111016503Y-66019737D01*
X111171153Y-66050499D01*
X111171156Y-66050500D01*
X111171158Y-66050500D01*
X111328844Y-66050500D01*
X111328845Y-66050499D01*
X111483497Y-66019737D01*
X111629179Y-65959394D01*
X111760289Y-65871789D01*
X111871789Y-65760289D01*
X111959394Y-65629179D01*
X112019737Y-65483497D01*
X112050500Y-65328842D01*
X112050500Y-65171158D01*
X112050500Y-65171155D01*
X112028561Y-65060864D01*
X112034788Y-64991272D01*
X112077651Y-64936095D01*
X112103412Y-64923381D01*
X112102869Y-64922068D01*
X112254172Y-64859397D01*
X112254172Y-64859396D01*
X112254179Y-64859394D01*
X112385289Y-64771789D01*
X112496789Y-64660289D01*
X112584394Y-64529179D01*
X112644737Y-64383497D01*
X112675500Y-64228842D01*
X112675500Y-64071158D01*
X112675500Y-64071155D01*
X112675499Y-64071153D01*
X112649641Y-63941158D01*
X112644737Y-63916503D01*
X112617190Y-63849998D01*
X112584397Y-63770827D01*
X112584390Y-63770814D01*
X112496789Y-63639711D01*
X112496786Y-63639707D01*
X112385292Y-63528213D01*
X112385288Y-63528210D01*
X112272881Y-63453102D01*
X112228076Y-63399490D01*
X112219369Y-63330165D01*
X112249523Y-63267137D01*
X112272881Y-63246898D01*
X112306981Y-63224112D01*
X112385289Y-63171789D01*
X112496789Y-63060289D01*
X112584394Y-62929179D01*
X112644737Y-62783497D01*
X112675500Y-62628842D01*
X112675500Y-62471158D01*
X112675500Y-62471155D01*
X112675499Y-62471153D01*
X112663157Y-62409107D01*
X112644737Y-62316503D01*
X112612229Y-62238020D01*
X112584397Y-62170827D01*
X112584390Y-62170814D01*
X112496789Y-62039711D01*
X112496786Y-62039707D01*
X112385292Y-61928213D01*
X112385288Y-61928210D01*
X112272881Y-61853102D01*
X112228076Y-61799490D01*
X112219369Y-61730165D01*
X112249523Y-61667137D01*
X112272881Y-61646898D01*
X112321058Y-61614707D01*
X112385289Y-61571789D01*
X112496789Y-61460289D01*
X112584394Y-61329179D01*
X112644737Y-61183497D01*
X112675500Y-61028842D01*
X112675500Y-60871158D01*
X112675500Y-60871155D01*
X112675499Y-60871153D01*
X112655326Y-60769737D01*
X112644737Y-60716503D01*
X112626488Y-60672445D01*
X112584397Y-60570827D01*
X112584390Y-60570814D01*
X112496789Y-60439711D01*
X112496786Y-60439707D01*
X112385292Y-60328213D01*
X112385288Y-60328210D01*
X112272881Y-60253102D01*
X112228076Y-60199490D01*
X112219369Y-60130165D01*
X112249523Y-60067137D01*
X112272881Y-60046898D01*
X112343068Y-60000000D01*
X112385289Y-59971789D01*
X112496789Y-59860289D01*
X112584394Y-59729179D01*
X112644737Y-59583497D01*
X112675500Y-59428842D01*
X112675500Y-59271158D01*
X112675500Y-59271155D01*
X112675499Y-59271153D01*
X112661246Y-59199500D01*
X112644737Y-59116503D01*
X112633518Y-59089418D01*
X112584397Y-58970827D01*
X112584390Y-58970814D01*
X112496789Y-58839711D01*
X112496786Y-58839707D01*
X112385292Y-58728213D01*
X112385288Y-58728210D01*
X112254185Y-58640609D01*
X112254172Y-58640602D01*
X112108501Y-58580264D01*
X112108489Y-58580261D01*
X111953845Y-58549500D01*
X111953842Y-58549500D01*
X111796158Y-58549500D01*
X111796155Y-58549500D01*
X111641510Y-58580261D01*
X111641498Y-58580264D01*
X111495827Y-58640602D01*
X111495814Y-58640609D01*
X111364711Y-58728210D01*
X111364707Y-58728213D01*
X111253213Y-58839707D01*
X111253210Y-58839711D01*
X111165609Y-58970814D01*
X111165602Y-58970827D01*
X111105264Y-59116498D01*
X111105261Y-59116510D01*
X111074500Y-59271153D01*
X111074500Y-59428846D01*
X111105261Y-59583489D01*
X111105264Y-59583501D01*
X111165602Y-59729172D01*
X111165609Y-59729185D01*
X111253210Y-59860288D01*
X111253213Y-59860292D01*
X111364707Y-59971786D01*
X111364711Y-59971789D01*
X111477118Y-60046898D01*
X111521923Y-60100510D01*
X111530630Y-60169835D01*
X111500475Y-60232863D01*
X111477118Y-60253102D01*
X111364711Y-60328210D01*
X111364707Y-60328213D01*
X111253213Y-60439707D01*
X111253210Y-60439711D01*
X111165609Y-60570814D01*
X111165602Y-60570827D01*
X111105264Y-60716498D01*
X111105261Y-60716510D01*
X111074500Y-60871153D01*
X111074500Y-61028846D01*
X111105261Y-61183489D01*
X111105264Y-61183501D01*
X111165602Y-61329172D01*
X111165609Y-61329185D01*
X111253210Y-61460288D01*
X111253213Y-61460292D01*
X111364707Y-61571786D01*
X111364711Y-61571789D01*
X111477118Y-61646898D01*
X111521923Y-61700510D01*
X111530630Y-61769835D01*
X111500475Y-61832863D01*
X111477118Y-61853102D01*
X111364711Y-61928210D01*
X111364707Y-61928213D01*
X111253213Y-62039707D01*
X111253210Y-62039711D01*
X111165609Y-62170814D01*
X111165602Y-62170827D01*
X111105264Y-62316498D01*
X111105261Y-62316510D01*
X111074500Y-62471153D01*
X111074500Y-62628846D01*
X111105261Y-62783489D01*
X111105264Y-62783501D01*
X111165602Y-62929172D01*
X111165609Y-62929185D01*
X111253210Y-63060288D01*
X111253213Y-63060292D01*
X111364707Y-63171786D01*
X111364711Y-63171789D01*
X111477118Y-63246898D01*
X111521923Y-63300510D01*
X111530630Y-63369835D01*
X111500475Y-63432863D01*
X111477118Y-63453102D01*
X111364711Y-63528210D01*
X111364707Y-63528213D01*
X111253213Y-63639707D01*
X111253210Y-63639711D01*
X111165609Y-63770814D01*
X111165602Y-63770827D01*
X111105264Y-63916498D01*
X111105261Y-63916510D01*
X111074500Y-64071153D01*
X111074500Y-64228846D01*
X111096438Y-64339136D01*
X111090211Y-64408728D01*
X111047348Y-64463905D01*
X111021621Y-64476703D01*
X111022130Y-64477932D01*
X110870827Y-64540602D01*
X110870814Y-64540609D01*
X110739711Y-64628210D01*
X110739707Y-64628213D01*
X110628213Y-64739707D01*
X110628210Y-64739711D01*
X110540609Y-64870814D01*
X110540602Y-64870827D01*
X110480264Y-65016498D01*
X110480261Y-65016510D01*
X110449500Y-65171153D01*
X101294996Y-65171153D01*
X101366667Y-65072506D01*
X101445308Y-64918163D01*
X101498837Y-64753419D01*
X101525935Y-64582329D01*
X101525935Y-64409107D01*
X101498837Y-64238017D01*
X101445308Y-64073273D01*
X101366667Y-63918930D01*
X101264849Y-63778790D01*
X101157212Y-63671153D01*
X107699500Y-63671153D01*
X107699500Y-63828846D01*
X107730261Y-63983489D01*
X107730264Y-63983501D01*
X107790602Y-64129172D01*
X107790609Y-64129185D01*
X107878210Y-64260288D01*
X107878213Y-64260292D01*
X107989707Y-64371786D01*
X107989711Y-64371789D01*
X108120814Y-64459390D01*
X108120827Y-64459397D01*
X108232595Y-64505692D01*
X108266503Y-64519737D01*
X108421153Y-64550499D01*
X108421156Y-64550500D01*
X108421158Y-64550500D01*
X108578844Y-64550500D01*
X108578845Y-64550499D01*
X108733497Y-64519737D01*
X108846166Y-64473067D01*
X108879172Y-64459397D01*
X108879172Y-64459396D01*
X108879179Y-64459394D01*
X109010289Y-64371789D01*
X109121789Y-64260289D01*
X109209394Y-64129179D01*
X109269737Y-63983497D01*
X109300500Y-63828842D01*
X109300500Y-63671158D01*
X109300500Y-63671155D01*
X109300499Y-63671153D01*
X109295527Y-63646158D01*
X109269737Y-63516503D01*
X109259380Y-63491498D01*
X109209397Y-63370827D01*
X109209390Y-63370814D01*
X109121789Y-63239711D01*
X109121786Y-63239707D01*
X109010292Y-63128213D01*
X109010288Y-63128210D01*
X108879185Y-63040609D01*
X108879172Y-63040602D01*
X108733501Y-62980264D01*
X108733489Y-62980261D01*
X108578845Y-62949500D01*
X108578842Y-62949500D01*
X108421158Y-62949500D01*
X108421155Y-62949500D01*
X108266510Y-62980261D01*
X108266498Y-62980264D01*
X108120827Y-63040602D01*
X108120814Y-63040609D01*
X107989711Y-63128210D01*
X107989707Y-63128213D01*
X107878213Y-63239707D01*
X107878210Y-63239711D01*
X107790609Y-63370814D01*
X107790602Y-63370827D01*
X107730264Y-63516498D01*
X107730261Y-63516510D01*
X107699500Y-63671153D01*
X101157212Y-63671153D01*
X101142363Y-63656304D01*
X101059410Y-63596035D01*
X101016746Y-63540706D01*
X101010767Y-63471092D01*
X101043373Y-63409297D01*
X101059411Y-63395400D01*
X101142363Y-63335132D01*
X101264849Y-63212646D01*
X101366667Y-63072506D01*
X101445308Y-62918163D01*
X101498837Y-62753419D01*
X101525935Y-62582329D01*
X101525935Y-62409107D01*
X101498837Y-62238017D01*
X101445308Y-62073273D01*
X101366667Y-61918930D01*
X101264849Y-61778790D01*
X101142363Y-61656304D01*
X101059410Y-61596035D01*
X101016746Y-61540706D01*
X101010767Y-61471092D01*
X101043373Y-61409297D01*
X101059411Y-61395400D01*
X101142363Y-61335132D01*
X101264849Y-61212646D01*
X101366667Y-61072506D01*
X101445308Y-60918163D01*
X101498837Y-60753419D01*
X101525935Y-60582329D01*
X101525935Y-60409107D01*
X101498837Y-60238017D01*
X101445308Y-60073273D01*
X101442182Y-60067137D01*
X101393383Y-59971362D01*
X101393382Y-59971361D01*
X101367802Y-59921158D01*
X101367799Y-59921153D01*
X107199500Y-59921153D01*
X107199500Y-60078846D01*
X107230261Y-60233489D01*
X107230264Y-60233501D01*
X107290602Y-60379172D01*
X107290609Y-60379185D01*
X107378210Y-60510288D01*
X107378213Y-60510292D01*
X107489707Y-60621786D01*
X107489711Y-60621789D01*
X107620814Y-60709390D01*
X107620827Y-60709397D01*
X107758683Y-60766498D01*
X107766503Y-60769737D01*
X107921153Y-60800499D01*
X107921156Y-60800500D01*
X107921158Y-60800500D01*
X108078844Y-60800500D01*
X108078845Y-60800499D01*
X108233497Y-60769737D01*
X108379179Y-60709394D01*
X108510289Y-60621789D01*
X108621789Y-60510289D01*
X108709394Y-60379179D01*
X108769737Y-60233497D01*
X108800500Y-60078842D01*
X108800500Y-59921158D01*
X108800500Y-59921155D01*
X108800499Y-59921153D01*
X108779504Y-59815606D01*
X108769737Y-59766503D01*
X108756066Y-59733497D01*
X108709397Y-59620827D01*
X108709390Y-59620814D01*
X108621789Y-59489711D01*
X108621786Y-59489707D01*
X108510292Y-59378213D01*
X108510288Y-59378210D01*
X108379185Y-59290609D01*
X108379172Y-59290602D01*
X108233501Y-59230264D01*
X108233489Y-59230261D01*
X108078845Y-59199500D01*
X108078842Y-59199500D01*
X107921158Y-59199500D01*
X107921155Y-59199500D01*
X107766510Y-59230261D01*
X107766498Y-59230264D01*
X107620827Y-59290602D01*
X107620814Y-59290609D01*
X107489711Y-59378210D01*
X107489707Y-59378213D01*
X107378213Y-59489707D01*
X107378210Y-59489711D01*
X107290609Y-59620814D01*
X107290602Y-59620827D01*
X107230264Y-59766498D01*
X107230261Y-59766510D01*
X107199500Y-59921153D01*
X101367799Y-59921153D01*
X101366667Y-59918930D01*
X101264849Y-59778790D01*
X101157307Y-59671248D01*
X101123822Y-59609925D01*
X101128806Y-59540233D01*
X101170678Y-59484300D01*
X101179892Y-59478028D01*
X101244091Y-59438430D01*
X101368147Y-59314374D01*
X101460249Y-59165052D01*
X101515434Y-58998515D01*
X101525935Y-58895727D01*
X101525934Y-58095710D01*
X101515434Y-57992921D01*
X101460249Y-57826384D01*
X101368147Y-57677062D01*
X101244091Y-57553006D01*
X101094769Y-57460904D01*
X100928232Y-57405719D01*
X100928230Y-57405718D01*
X100825445Y-57395218D01*
X99475433Y-57395218D01*
X99475416Y-57395219D01*
X99372638Y-57405718D01*
X99372635Y-57405719D01*
X99206103Y-57460903D01*
X99206098Y-57460905D01*
X99056777Y-57553007D01*
X98932724Y-57677060D01*
X98840622Y-57826381D01*
X98840621Y-57826384D01*
X98785436Y-57992921D01*
X98785436Y-57992922D01*
X98785435Y-57992922D01*
X98774935Y-58095701D01*
X96800500Y-58095701D01*
X96800500Y-56124000D01*
X96820185Y-56056961D01*
X96872989Y-56011206D01*
X96924500Y-56000000D01*
X113126000Y-56000000D01*
X113193039Y-56019685D01*
X113238794Y-56072489D01*
X113250000Y-56124000D01*
X113250000Y-67066559D01*
X113230315Y-67133598D01*
X113213681Y-67154240D01*
X113128213Y-67239707D01*
X113128210Y-67239711D01*
X113040609Y-67370814D01*
X113040602Y-67370827D01*
X112980264Y-67516498D01*
X112980261Y-67516510D01*
X112949500Y-67671153D01*
X112949500Y-67828846D01*
X112980261Y-67983489D01*
X112980264Y-67983501D01*
X113040602Y-68129172D01*
X113040609Y-68129185D01*
X113128210Y-68260288D01*
X113128213Y-68260292D01*
X113239707Y-68371786D01*
X113239711Y-68371789D01*
X113370814Y-68459390D01*
X113370827Y-68459397D01*
X113516498Y-68519735D01*
X113516503Y-68519737D01*
X113671153Y-68550499D01*
X113671156Y-68550500D01*
X113671158Y-68550500D01*
X113828844Y-68550500D01*
X113828845Y-68550499D01*
X113983497Y-68519737D01*
X114129179Y-68459394D01*
X114260289Y-68371789D01*
X114301915Y-68330163D01*
X114345760Y-68286319D01*
X114407083Y-68252834D01*
X114433441Y-68250000D01*
X126125265Y-68250000D01*
X126192304Y-68269685D01*
X126238059Y-68322489D01*
X126249265Y-68374000D01*
X126249265Y-68530081D01*
X126280026Y-68684724D01*
X126280029Y-68684736D01*
X126340367Y-68830407D01*
X126340374Y-68830420D01*
X126427975Y-68961523D01*
X126427978Y-68961527D01*
X126539472Y-69073021D01*
X126539476Y-69073024D01*
X126670579Y-69160625D01*
X126670592Y-69160632D01*
X126816263Y-69220970D01*
X126816268Y-69220972D01*
X126970918Y-69251734D01*
X126970921Y-69251735D01*
X126970923Y-69251735D01*
X127128609Y-69251735D01*
X127128610Y-69251734D01*
X127283262Y-69220972D01*
X127428944Y-69160629D01*
X127560054Y-69073024D01*
X127671554Y-68961524D01*
X127759159Y-68830414D01*
X127819502Y-68684732D01*
X127850265Y-68530077D01*
X127850265Y-68374000D01*
X127869950Y-68306961D01*
X127922754Y-68261206D01*
X127974265Y-68250000D01*
X129316559Y-68250000D01*
X129383598Y-68269685D01*
X129404240Y-68286319D01*
X129489707Y-68371786D01*
X129489711Y-68371789D01*
X129620814Y-68459390D01*
X129620827Y-68459397D01*
X129766498Y-68519735D01*
X129766503Y-68519737D01*
X129921153Y-68550499D01*
X129921156Y-68550500D01*
X129921158Y-68550500D01*
X130078844Y-68550500D01*
X130078845Y-68550499D01*
X130233497Y-68519737D01*
X130379179Y-68459394D01*
X130510289Y-68371789D01*
X130551915Y-68330163D01*
X130595760Y-68286319D01*
X130657083Y-68252834D01*
X130683441Y-68250000D01*
X140114737Y-68250000D01*
X140162189Y-68259439D01*
X140227084Y-68286319D01*
X140258667Y-68299401D01*
X140413317Y-68330163D01*
X140413320Y-68330164D01*
X140413322Y-68330164D01*
X140571008Y-68330164D01*
X140571009Y-68330163D01*
X140725661Y-68299401D01*
X140817873Y-68261206D01*
X140822139Y-68259439D01*
X140869591Y-68250000D01*
X146750000Y-68250000D01*
X146750000Y-65171153D01*
X154199500Y-65171153D01*
X154199500Y-65328846D01*
X154230261Y-65483489D01*
X154230264Y-65483501D01*
X154290602Y-65629172D01*
X154290609Y-65629185D01*
X154378210Y-65760288D01*
X154378213Y-65760292D01*
X154489707Y-65871786D01*
X154489711Y-65871789D01*
X154620814Y-65959390D01*
X154620827Y-65959397D01*
X154694013Y-65989711D01*
X154766503Y-66019737D01*
X154921153Y-66050499D01*
X154921156Y-66050500D01*
X154921158Y-66050500D01*
X155078844Y-66050500D01*
X155078845Y-66050499D01*
X155233497Y-66019737D01*
X155379179Y-65959394D01*
X155510289Y-65871789D01*
X155621789Y-65760289D01*
X155709394Y-65629179D01*
X155769737Y-65483497D01*
X155800500Y-65328842D01*
X155800500Y-65171158D01*
X155800500Y-65171155D01*
X155800499Y-65171153D01*
X155769738Y-65016510D01*
X155769737Y-65016503D01*
X155759286Y-64991272D01*
X155709397Y-64870827D01*
X155709390Y-64870814D01*
X155621789Y-64739711D01*
X155621786Y-64739707D01*
X155510292Y-64628213D01*
X155510288Y-64628210D01*
X155379185Y-64540609D01*
X155379172Y-64540602D01*
X155233501Y-64480264D01*
X155233489Y-64480261D01*
X155078845Y-64449500D01*
X155078842Y-64449500D01*
X154921158Y-64449500D01*
X154921155Y-64449500D01*
X154766510Y-64480261D01*
X154766498Y-64480264D01*
X154620827Y-64540602D01*
X154620814Y-64540609D01*
X154489711Y-64628210D01*
X154489707Y-64628213D01*
X154378213Y-64739707D01*
X154378210Y-64739711D01*
X154290609Y-64870814D01*
X154290602Y-64870827D01*
X154230264Y-65016498D01*
X154230261Y-65016510D01*
X154199500Y-65171153D01*
X146750000Y-65171153D01*
X146750000Y-64420941D01*
X146769685Y-64353902D01*
X146786319Y-64333260D01*
X146884286Y-64235292D01*
X146884289Y-64235289D01*
X146971894Y-64104179D01*
X147032237Y-63958497D01*
X147036853Y-63935289D01*
X147040580Y-63916556D01*
X149924951Y-63916556D01*
X149924951Y-64074249D01*
X149955712Y-64228892D01*
X149955715Y-64228904D01*
X150016053Y-64374575D01*
X150016060Y-64374588D01*
X150103661Y-64505691D01*
X150103664Y-64505695D01*
X150215158Y-64617189D01*
X150215162Y-64617192D01*
X150346265Y-64704793D01*
X150346278Y-64704800D01*
X150491949Y-64765138D01*
X150491954Y-64765140D01*
X150615611Y-64789737D01*
X150646604Y-64795902D01*
X150646607Y-64795903D01*
X150646609Y-64795903D01*
X150804295Y-64795903D01*
X150804296Y-64795902D01*
X150958948Y-64765140D01*
X151104630Y-64704797D01*
X151235740Y-64617192D01*
X151347240Y-64505692D01*
X151434845Y-64374582D01*
X151495188Y-64228900D01*
X151525951Y-64074245D01*
X151525951Y-63916561D01*
X151525951Y-63916558D01*
X151525950Y-63916556D01*
X151512711Y-63849998D01*
X151495188Y-63761906D01*
X151489097Y-63747200D01*
X151434848Y-63616230D01*
X151434841Y-63616217D01*
X151347240Y-63485114D01*
X151347237Y-63485110D01*
X151235743Y-63373616D01*
X151235739Y-63373613D01*
X151104636Y-63286012D01*
X151104627Y-63286007D01*
X151089806Y-63279868D01*
X151035404Y-63236025D01*
X151013341Y-63169730D01*
X151030622Y-63102031D01*
X151081761Y-63054422D01*
X151113061Y-63043693D01*
X151233497Y-63019737D01*
X151379179Y-62959394D01*
X151510289Y-62871789D01*
X151621789Y-62760289D01*
X151709394Y-62629179D01*
X151769737Y-62483497D01*
X151800500Y-62328842D01*
X151800500Y-62171158D01*
X151800500Y-62171155D01*
X151800499Y-62171153D01*
X151781029Y-62073273D01*
X151769737Y-62016503D01*
X151769735Y-62016498D01*
X151709397Y-61870827D01*
X151709390Y-61870814D01*
X151621789Y-61739711D01*
X151621786Y-61739707D01*
X151594760Y-61712681D01*
X151561275Y-61651358D01*
X151566259Y-61581666D01*
X151594760Y-61537319D01*
X151621786Y-61510292D01*
X151621789Y-61510289D01*
X151709394Y-61379179D01*
X151769737Y-61233497D01*
X151800500Y-61078842D01*
X151800500Y-60921158D01*
X151800500Y-60921155D01*
X151800499Y-60921153D01*
X151785581Y-60846158D01*
X151769737Y-60766503D01*
X151769735Y-60766498D01*
X151709397Y-60620827D01*
X151709390Y-60620814D01*
X151621789Y-60489711D01*
X151621786Y-60489707D01*
X151510292Y-60378213D01*
X151510288Y-60378210D01*
X151379185Y-60290609D01*
X151379172Y-60290602D01*
X151233501Y-60230264D01*
X151233489Y-60230261D01*
X151078845Y-60199500D01*
X151078842Y-60199500D01*
X150921158Y-60199500D01*
X150921155Y-60199500D01*
X150766510Y-60230261D01*
X150766498Y-60230264D01*
X150620827Y-60290602D01*
X150620814Y-60290609D01*
X150489711Y-60378210D01*
X150489707Y-60378213D01*
X150378213Y-60489707D01*
X150378210Y-60489711D01*
X150290609Y-60620814D01*
X150290602Y-60620827D01*
X150230264Y-60766498D01*
X150230261Y-60766510D01*
X150199500Y-60921153D01*
X150199500Y-61078846D01*
X150230261Y-61233489D01*
X150230264Y-61233501D01*
X150290602Y-61379172D01*
X150290609Y-61379185D01*
X150378210Y-61510288D01*
X150378213Y-61510292D01*
X150405240Y-61537319D01*
X150438725Y-61598642D01*
X150433741Y-61668334D01*
X150405240Y-61712681D01*
X150378213Y-61739707D01*
X150378210Y-61739711D01*
X150290609Y-61870814D01*
X150290602Y-61870827D01*
X150230264Y-62016498D01*
X150230261Y-62016510D01*
X150199500Y-62171153D01*
X150199500Y-62328846D01*
X150230261Y-62483489D01*
X150230264Y-62483501D01*
X150290602Y-62629172D01*
X150290609Y-62629185D01*
X150378210Y-62760288D01*
X150378213Y-62760292D01*
X150489707Y-62871786D01*
X150489711Y-62871789D01*
X150620814Y-62959390D01*
X150620818Y-62959392D01*
X150620821Y-62959394D01*
X150635642Y-62965533D01*
X150690045Y-63009375D01*
X150712109Y-63075669D01*
X150694829Y-63143368D01*
X150643692Y-63190978D01*
X150612380Y-63201711D01*
X150491959Y-63225664D01*
X150491949Y-63225667D01*
X150346278Y-63286005D01*
X150346265Y-63286012D01*
X150215162Y-63373613D01*
X150215158Y-63373616D01*
X150103664Y-63485110D01*
X150103661Y-63485114D01*
X150016060Y-63616217D01*
X150016053Y-63616230D01*
X149955715Y-63761901D01*
X149955712Y-63761913D01*
X149924951Y-63916556D01*
X147040580Y-63916556D01*
X147046603Y-63886277D01*
X147046603Y-63886276D01*
X147062999Y-63803846D01*
X147063000Y-63803844D01*
X147063000Y-63646155D01*
X147062999Y-63646153D01*
X147039539Y-63528213D01*
X147032237Y-63491503D01*
X147007318Y-63431342D01*
X146971897Y-63345827D01*
X146971890Y-63345814D01*
X146884289Y-63214711D01*
X146884286Y-63214707D01*
X146786319Y-63116740D01*
X146771615Y-63089812D01*
X146755023Y-63063994D01*
X146754131Y-63057793D01*
X146752834Y-63055417D01*
X146750000Y-63029059D01*
X146750000Y-62820941D01*
X146769685Y-62753902D01*
X146786319Y-62733260D01*
X146884286Y-62635292D01*
X146884289Y-62635289D01*
X146971894Y-62504179D01*
X147032237Y-62358497D01*
X147063000Y-62203842D01*
X147063000Y-62046158D01*
X147063000Y-62046155D01*
X147062999Y-62046153D01*
X147052287Y-61992299D01*
X147032237Y-61891503D01*
X147023670Y-61870821D01*
X146971897Y-61745827D01*
X146971890Y-61745814D01*
X146884289Y-61614711D01*
X146884286Y-61614707D01*
X146786319Y-61516740D01*
X146771615Y-61489812D01*
X146755023Y-61463994D01*
X146754131Y-61457793D01*
X146752834Y-61455417D01*
X146750000Y-61429059D01*
X146750000Y-61220941D01*
X146769685Y-61153902D01*
X146786319Y-61133260D01*
X146884286Y-61035292D01*
X146884289Y-61035289D01*
X146971894Y-60904179D01*
X147032237Y-60758497D01*
X147063000Y-60603842D01*
X147063000Y-60446158D01*
X147063000Y-60446155D01*
X147062999Y-60446153D01*
X147049677Y-60379179D01*
X147032237Y-60291503D01*
X147031867Y-60290609D01*
X146971897Y-60145827D01*
X146971890Y-60145814D01*
X146884289Y-60014711D01*
X146884286Y-60014707D01*
X146786319Y-59916740D01*
X146771615Y-59889812D01*
X146755023Y-59863994D01*
X146754131Y-59857793D01*
X146752834Y-59855417D01*
X146750000Y-59829059D01*
X146750000Y-59620941D01*
X146769685Y-59553902D01*
X146786319Y-59533260D01*
X146884286Y-59435292D01*
X146884289Y-59435289D01*
X146971894Y-59304179D01*
X146971895Y-59304176D01*
X146971897Y-59304173D01*
X146975219Y-59296153D01*
X148824500Y-59296153D01*
X148824500Y-59453846D01*
X148855261Y-59608489D01*
X148855264Y-59608501D01*
X148915602Y-59754172D01*
X148915609Y-59754185D01*
X149003210Y-59885288D01*
X149003213Y-59885292D01*
X149114707Y-59996786D01*
X149114711Y-59996789D01*
X149245814Y-60084390D01*
X149245827Y-60084397D01*
X149391498Y-60144735D01*
X149391503Y-60144737D01*
X149546153Y-60175499D01*
X149546156Y-60175500D01*
X149546158Y-60175500D01*
X149703844Y-60175500D01*
X149703845Y-60175499D01*
X149858497Y-60144737D01*
X150004179Y-60084394D01*
X150135289Y-59996789D01*
X150246789Y-59885289D01*
X150334394Y-59754179D01*
X150394737Y-59608497D01*
X150425500Y-59453842D01*
X150425500Y-59296158D01*
X150425500Y-59296155D01*
X150425499Y-59296153D01*
X150420527Y-59271158D01*
X150394737Y-59141503D01*
X150340387Y-59010289D01*
X150334397Y-58995827D01*
X150334390Y-58995814D01*
X150246789Y-58864711D01*
X150246786Y-58864707D01*
X150135292Y-58753213D01*
X150135288Y-58753210D01*
X150004185Y-58665609D01*
X150004172Y-58665602D01*
X149858501Y-58605264D01*
X149858489Y-58605261D01*
X149703845Y-58574500D01*
X149703842Y-58574500D01*
X149546158Y-58574500D01*
X149546155Y-58574500D01*
X149391510Y-58605261D01*
X149391498Y-58605264D01*
X149245827Y-58665602D01*
X149245814Y-58665609D01*
X149114711Y-58753210D01*
X149114707Y-58753213D01*
X149003213Y-58864707D01*
X149003210Y-58864711D01*
X148915609Y-58995814D01*
X148915602Y-58995827D01*
X148855264Y-59141498D01*
X148855261Y-59141510D01*
X148824500Y-59296153D01*
X146975219Y-59296153D01*
X146997395Y-59242614D01*
X146997395Y-59242613D01*
X147002510Y-59230264D01*
X147032237Y-59158497D01*
X147063000Y-59003842D01*
X147063000Y-58846158D01*
X147063000Y-58846155D01*
X147062999Y-58846153D01*
X147044512Y-58753213D01*
X147032237Y-58691503D01*
X147011822Y-58642218D01*
X147004354Y-58572751D01*
X147035629Y-58510271D01*
X147078930Y-58480207D01*
X147129179Y-58459394D01*
X147260289Y-58371789D01*
X147371789Y-58260289D01*
X147436536Y-58163389D01*
X156374500Y-58163389D01*
X156374500Y-58336611D01*
X156401598Y-58507701D01*
X156455127Y-58672445D01*
X156533768Y-58826788D01*
X156635586Y-58966928D01*
X156758072Y-59089414D01*
X156758078Y-59089418D01*
X156841023Y-59149683D01*
X156883689Y-59205013D01*
X156889667Y-59274626D01*
X156857061Y-59336421D01*
X156841023Y-59350317D01*
X156758078Y-59410581D01*
X156758069Y-59410588D01*
X156635588Y-59533069D01*
X156635588Y-59533070D01*
X156635586Y-59533072D01*
X156602332Y-59578842D01*
X156533768Y-59673211D01*
X156455128Y-59827552D01*
X156401597Y-59992302D01*
X156374500Y-60163389D01*
X156374500Y-60336610D01*
X156400986Y-60503842D01*
X156401598Y-60507701D01*
X156455127Y-60672445D01*
X156533768Y-60826788D01*
X156635586Y-60966928D01*
X156758072Y-61089414D01*
X156758078Y-61089418D01*
X156841023Y-61149683D01*
X156883689Y-61205013D01*
X156889667Y-61274626D01*
X156857061Y-61336421D01*
X156841023Y-61350317D01*
X156758078Y-61410581D01*
X156758069Y-61410588D01*
X156635588Y-61533069D01*
X156635588Y-61533070D01*
X156635586Y-61533072D01*
X156600280Y-61581666D01*
X156533768Y-61673211D01*
X156455128Y-61827552D01*
X156401597Y-61992302D01*
X156374500Y-62163389D01*
X156374500Y-62336610D01*
X156401213Y-62505274D01*
X156401598Y-62507701D01*
X156455127Y-62672445D01*
X156533768Y-62826788D01*
X156635586Y-62966928D01*
X156635588Y-62966930D01*
X156743127Y-63074469D01*
X156776612Y-63135792D01*
X156771628Y-63205484D01*
X156729756Y-63261417D01*
X156720544Y-63267688D01*
X156656344Y-63307287D01*
X156532289Y-63431342D01*
X156440187Y-63580663D01*
X156440185Y-63580668D01*
X156418486Y-63646153D01*
X156385001Y-63747203D01*
X156385001Y-63747204D01*
X156385000Y-63747204D01*
X156374500Y-63849983D01*
X156374500Y-64650001D01*
X156374501Y-64650019D01*
X156385000Y-64752796D01*
X156385001Y-64752799D01*
X156440185Y-64919331D01*
X156440187Y-64919336D01*
X156459409Y-64950500D01*
X156532288Y-65068656D01*
X156656344Y-65192712D01*
X156805666Y-65284814D01*
X156972203Y-65339999D01*
X157074991Y-65350500D01*
X158425008Y-65350499D01*
X158527797Y-65339999D01*
X158694334Y-65284814D01*
X158843656Y-65192712D01*
X158967712Y-65068656D01*
X159059814Y-64919334D01*
X159114999Y-64752797D01*
X159125500Y-64650009D01*
X159125499Y-63849992D01*
X159118225Y-63778788D01*
X159114999Y-63747203D01*
X159114998Y-63747200D01*
X159089798Y-63671153D01*
X159059814Y-63580666D01*
X158967712Y-63431344D01*
X158843656Y-63307288D01*
X158843652Y-63307285D01*
X158779456Y-63267688D01*
X158732731Y-63215740D01*
X158721510Y-63146777D01*
X158749353Y-63082695D01*
X158756850Y-63074491D01*
X158864414Y-62966928D01*
X158966232Y-62826788D01*
X159044873Y-62672445D01*
X159098402Y-62507701D01*
X159125500Y-62336611D01*
X159125500Y-62163389D01*
X159098402Y-61992299D01*
X159044873Y-61827555D01*
X158966232Y-61673212D01*
X158864414Y-61533072D01*
X158741928Y-61410586D01*
X158658975Y-61350317D01*
X158616311Y-61294988D01*
X158610332Y-61225374D01*
X158642938Y-61163579D01*
X158658976Y-61149682D01*
X158662958Y-61146789D01*
X158741928Y-61089414D01*
X158864414Y-60966928D01*
X158966232Y-60826788D01*
X159044873Y-60672445D01*
X159098402Y-60507701D01*
X159125500Y-60336611D01*
X159125500Y-60163389D01*
X159098402Y-59992299D01*
X159044873Y-59827555D01*
X158966232Y-59673212D01*
X158864414Y-59533072D01*
X158741928Y-59410586D01*
X158658975Y-59350317D01*
X158616311Y-59294988D01*
X158610332Y-59225374D01*
X158642938Y-59163579D01*
X158658976Y-59149682D01*
X158741928Y-59089414D01*
X158864414Y-58966928D01*
X158966232Y-58826788D01*
X159044873Y-58672445D01*
X159098402Y-58507701D01*
X159125500Y-58336611D01*
X159125500Y-58163389D01*
X159098402Y-57992299D01*
X159044873Y-57827555D01*
X158966232Y-57673212D01*
X158864414Y-57533072D01*
X158741928Y-57410586D01*
X158601788Y-57308768D01*
X158447445Y-57230127D01*
X158282701Y-57176598D01*
X158282699Y-57176597D01*
X158282698Y-57176597D01*
X158151271Y-57155781D01*
X158111611Y-57149500D01*
X157388389Y-57149500D01*
X157348728Y-57155781D01*
X157217302Y-57176597D01*
X157052552Y-57230128D01*
X156898211Y-57308768D01*
X156818747Y-57366503D01*
X156758072Y-57410586D01*
X156758070Y-57410588D01*
X156758069Y-57410588D01*
X156635588Y-57533069D01*
X156635588Y-57533070D01*
X156635586Y-57533072D01*
X156591859Y-57593256D01*
X156533768Y-57673211D01*
X156455128Y-57827552D01*
X156401597Y-57992302D01*
X156381293Y-58120500D01*
X156374500Y-58163389D01*
X147436536Y-58163389D01*
X147459394Y-58129179D01*
X147519737Y-57983497D01*
X147550500Y-57828842D01*
X147550500Y-57671158D01*
X147550500Y-57671155D01*
X147550499Y-57671153D01*
X147540680Y-57621789D01*
X147519737Y-57516503D01*
X147496708Y-57460905D01*
X147459397Y-57370827D01*
X147459390Y-57370814D01*
X147371789Y-57239711D01*
X147371786Y-57239707D01*
X147260292Y-57128213D01*
X147260288Y-57128210D01*
X147129185Y-57040609D01*
X147129172Y-57040602D01*
X146983501Y-56980264D01*
X146983491Y-56980261D01*
X146849808Y-56953669D01*
X146787897Y-56921284D01*
X146753323Y-56860568D01*
X146750000Y-56832052D01*
X146750000Y-55624000D01*
X146769685Y-55556961D01*
X146822489Y-55511206D01*
X146874000Y-55500000D01*
X161075500Y-55500000D01*
X161142539Y-55519685D01*
G37*
%TD.AperFunction*%
%TD*%
M02*
