%TF.GenerationSoftware,KiCad,Pcbnew,9.0.7*%
%TF.CreationDate,2026-01-26T16:26:35+01:00*%
%TF.ProjectId,Projet 6 KICAD CLS COMPLET,50726f6a-6574-4203-9620-4b4943414420,rev?*%
%TF.SameCoordinates,Original*%
%TF.FileFunction,Legend,Top*%
%TF.FilePolarity,Positive*%
%FSLAX46Y46*%
G04 Gerber Fmt 4.6, Leading zero omitted, Abs format (unit mm)*
G04 Created by KiCad (PCBNEW 9.0.7) date 2026-01-26 16:26:35*
%MOMM*%
%LPD*%
G01*
G04 APERTURE LIST*
%ADD10C,0.100000*%
%ADD11C,0.150000*%
%ADD12C,0.120000*%
%ADD13C,0.127000*%
%ADD14C,0.200000*%
G04 APERTURE END LIST*
D10*
X126472419Y-70196115D02*
X125472419Y-70196115D01*
X125472419Y-70196115D02*
X126186704Y-69862782D01*
X126186704Y-69862782D02*
X125472419Y-69529449D01*
X125472419Y-69529449D02*
X126472419Y-69529449D01*
X126472419Y-69053258D02*
X125472419Y-69053258D01*
X126424800Y-68624687D02*
X126472419Y-68481830D01*
X126472419Y-68481830D02*
X126472419Y-68243735D01*
X126472419Y-68243735D02*
X126424800Y-68148497D01*
X126424800Y-68148497D02*
X126377180Y-68100878D01*
X126377180Y-68100878D02*
X126281942Y-68053259D01*
X126281942Y-68053259D02*
X126186704Y-68053259D01*
X126186704Y-68053259D02*
X126091466Y-68100878D01*
X126091466Y-68100878D02*
X126043847Y-68148497D01*
X126043847Y-68148497D02*
X125996228Y-68243735D01*
X125996228Y-68243735D02*
X125948609Y-68434211D01*
X125948609Y-68434211D02*
X125900990Y-68529449D01*
X125900990Y-68529449D02*
X125853371Y-68577068D01*
X125853371Y-68577068D02*
X125758133Y-68624687D01*
X125758133Y-68624687D02*
X125662895Y-68624687D01*
X125662895Y-68624687D02*
X125567657Y-68577068D01*
X125567657Y-68577068D02*
X125520038Y-68529449D01*
X125520038Y-68529449D02*
X125472419Y-68434211D01*
X125472419Y-68434211D02*
X125472419Y-68196116D01*
X125472419Y-68196116D02*
X125520038Y-68053259D01*
X125472419Y-67434211D02*
X125472419Y-67243735D01*
X125472419Y-67243735D02*
X125520038Y-67148497D01*
X125520038Y-67148497D02*
X125615276Y-67053259D01*
X125615276Y-67053259D02*
X125805752Y-67005640D01*
X125805752Y-67005640D02*
X126139085Y-67005640D01*
X126139085Y-67005640D02*
X126329561Y-67053259D01*
X126329561Y-67053259D02*
X126424800Y-67148497D01*
X126424800Y-67148497D02*
X126472419Y-67243735D01*
X126472419Y-67243735D02*
X126472419Y-67434211D01*
X126472419Y-67434211D02*
X126424800Y-67529449D01*
X126424800Y-67529449D02*
X126329561Y-67624687D01*
X126329561Y-67624687D02*
X126139085Y-67672306D01*
X126139085Y-67672306D02*
X125805752Y-67672306D01*
X125805752Y-67672306D02*
X125615276Y-67624687D01*
X125615276Y-67624687D02*
X125520038Y-67529449D01*
X125520038Y-67529449D02*
X125472419Y-67434211D01*
X128424800Y-70243734D02*
X128472419Y-70100877D01*
X128472419Y-70100877D02*
X128472419Y-69862782D01*
X128472419Y-69862782D02*
X128424800Y-69767544D01*
X128424800Y-69767544D02*
X128377180Y-69719925D01*
X128377180Y-69719925D02*
X128281942Y-69672306D01*
X128281942Y-69672306D02*
X128186704Y-69672306D01*
X128186704Y-69672306D02*
X128091466Y-69719925D01*
X128091466Y-69719925D02*
X128043847Y-69767544D01*
X128043847Y-69767544D02*
X127996228Y-69862782D01*
X127996228Y-69862782D02*
X127948609Y-70053258D01*
X127948609Y-70053258D02*
X127900990Y-70148496D01*
X127900990Y-70148496D02*
X127853371Y-70196115D01*
X127853371Y-70196115D02*
X127758133Y-70243734D01*
X127758133Y-70243734D02*
X127662895Y-70243734D01*
X127662895Y-70243734D02*
X127567657Y-70196115D01*
X127567657Y-70196115D02*
X127520038Y-70148496D01*
X127520038Y-70148496D02*
X127472419Y-70053258D01*
X127472419Y-70053258D02*
X127472419Y-69815163D01*
X127472419Y-69815163D02*
X127520038Y-69672306D01*
X128377180Y-68672306D02*
X128424800Y-68719925D01*
X128424800Y-68719925D02*
X128472419Y-68862782D01*
X128472419Y-68862782D02*
X128472419Y-68958020D01*
X128472419Y-68958020D02*
X128424800Y-69100877D01*
X128424800Y-69100877D02*
X128329561Y-69196115D01*
X128329561Y-69196115D02*
X128234323Y-69243734D01*
X128234323Y-69243734D02*
X128043847Y-69291353D01*
X128043847Y-69291353D02*
X127900990Y-69291353D01*
X127900990Y-69291353D02*
X127710514Y-69243734D01*
X127710514Y-69243734D02*
X127615276Y-69196115D01*
X127615276Y-69196115D02*
X127520038Y-69100877D01*
X127520038Y-69100877D02*
X127472419Y-68958020D01*
X127472419Y-68958020D02*
X127472419Y-68862782D01*
X127472419Y-68862782D02*
X127520038Y-68719925D01*
X127520038Y-68719925D02*
X127567657Y-68672306D01*
X128472419Y-67767544D02*
X128472419Y-68243734D01*
X128472419Y-68243734D02*
X127472419Y-68243734D01*
X128472419Y-67434210D02*
X127472419Y-67434210D01*
X128472419Y-66862782D02*
X127900990Y-67291353D01*
X127472419Y-66862782D02*
X128043847Y-67434210D01*
G36*
X142723753Y-75461017D02*
G01*
X142759897Y-75497162D01*
X142798609Y-75574585D01*
X142798609Y-75846115D01*
X142422419Y-75846115D01*
X142422419Y-75574585D01*
X142461130Y-75497161D01*
X142497275Y-75461017D01*
X142574699Y-75422306D01*
X142646330Y-75422306D01*
X142723753Y-75461017D01*
G37*
G36*
X143247561Y-75413398D02*
G01*
X143283708Y-75449544D01*
X143322419Y-75526966D01*
X143322419Y-75846115D01*
X142898609Y-75846115D01*
X142898609Y-75570895D01*
X142939929Y-75446933D01*
X142973465Y-75413398D01*
X143050889Y-75374687D01*
X143170139Y-75374687D01*
X143247561Y-75413398D01*
G37*
G36*
X143322419Y-74574585D02*
G01*
X143322419Y-74789073D01*
X143287532Y-74858847D01*
X143217759Y-74893734D01*
X143146127Y-74893734D01*
X143076352Y-74858847D01*
X143041466Y-74789074D01*
X143041466Y-74562782D01*
X143040977Y-74560325D01*
X143041340Y-74559237D01*
X143039223Y-74551509D01*
X143037660Y-74543648D01*
X143036848Y-74542836D01*
X143036187Y-74540421D01*
X143024749Y-74517544D01*
X143293898Y-74517544D01*
X143322419Y-74574585D01*
G37*
G36*
X142978095Y-72846114D02*
G01*
X142860413Y-72846114D01*
X142790638Y-72811227D01*
X142755752Y-72741454D01*
X142755752Y-72574584D01*
X142790638Y-72504810D01*
X142860413Y-72469924D01*
X142902857Y-72469924D01*
X142978095Y-72846114D01*
G37*
G36*
X143866737Y-76057226D02*
G01*
X142211308Y-76057226D01*
X142211308Y-75562782D01*
X142322419Y-75562782D01*
X142322419Y-75896115D01*
X142326225Y-75915249D01*
X142353285Y-75942309D01*
X142372419Y-75946115D01*
X143372419Y-75946115D01*
X143391553Y-75942309D01*
X143418613Y-75915249D01*
X143422419Y-75896115D01*
X143422419Y-75515163D01*
X143421930Y-75512706D01*
X143422293Y-75511618D01*
X143420176Y-75503890D01*
X143418613Y-75496029D01*
X143417801Y-75495217D01*
X143417140Y-75492802D01*
X143369521Y-75397564D01*
X143364609Y-75391235D01*
X143360155Y-75384569D01*
X143312535Y-75336950D01*
X143305868Y-75332495D01*
X143299540Y-75327584D01*
X143204303Y-75279966D01*
X143201887Y-75279304D01*
X143201076Y-75278493D01*
X143193214Y-75276929D01*
X143185487Y-75274813D01*
X143184398Y-75275175D01*
X143181942Y-75274687D01*
X143039085Y-75274687D01*
X143036628Y-75275175D01*
X143035540Y-75274813D01*
X143027812Y-75276929D01*
X143019951Y-75278493D01*
X143019139Y-75279304D01*
X143016724Y-75279966D01*
X142921486Y-75327585D01*
X142915157Y-75332496D01*
X142908491Y-75336951D01*
X142860873Y-75384570D01*
X142859481Y-75386652D01*
X142858455Y-75387166D01*
X142854487Y-75394126D01*
X142850034Y-75400791D01*
X142850034Y-75401938D01*
X142848794Y-75404114D01*
X142838407Y-75435274D01*
X142836345Y-75432188D01*
X142788726Y-75384570D01*
X142782064Y-75380118D01*
X142775731Y-75375203D01*
X142680494Y-75327585D01*
X142678078Y-75326923D01*
X142677267Y-75326112D01*
X142669405Y-75324548D01*
X142661678Y-75322432D01*
X142660589Y-75322794D01*
X142658133Y-75322306D01*
X142562895Y-75322306D01*
X142560438Y-75322794D01*
X142559350Y-75322432D01*
X142551622Y-75324548D01*
X142543761Y-75326112D01*
X142542949Y-75326923D01*
X142540534Y-75327585D01*
X142445296Y-75375204D01*
X142438967Y-75380115D01*
X142432301Y-75384570D01*
X142384683Y-75432189D01*
X142380231Y-75438850D01*
X142375316Y-75445184D01*
X142327698Y-75540421D01*
X142327036Y-75542836D01*
X142326225Y-75543648D01*
X142324661Y-75551509D01*
X142322545Y-75559237D01*
X142322907Y-75560325D01*
X142322419Y-75562782D01*
X142211308Y-75562782D01*
X142211308Y-74610401D01*
X142655752Y-74610401D01*
X142655752Y-74800877D01*
X142656240Y-74803333D01*
X142655878Y-74804422D01*
X142657994Y-74812149D01*
X142659558Y-74820011D01*
X142660369Y-74820822D01*
X142661031Y-74823238D01*
X142708649Y-74918475D01*
X142720611Y-74933887D01*
X142756915Y-74945989D01*
X142791143Y-74928875D01*
X142803245Y-74892570D01*
X142798092Y-74873754D01*
X142755752Y-74789074D01*
X142755752Y-74622204D01*
X142790638Y-74552430D01*
X142860413Y-74517544D01*
X142912945Y-74517544D01*
X142941466Y-74574585D01*
X142941466Y-74800877D01*
X142941954Y-74803333D01*
X142941592Y-74804422D01*
X142943708Y-74812149D01*
X142945272Y-74820011D01*
X142946083Y-74820822D01*
X142946745Y-74823238D01*
X142994363Y-74918475D01*
X143000466Y-74926339D01*
X143001312Y-74928875D01*
X143004135Y-74931066D01*
X143006325Y-74933887D01*
X143008858Y-74934731D01*
X143016724Y-74940836D01*
X143111962Y-74988455D01*
X143114377Y-74989116D01*
X143115189Y-74989928D01*
X143123050Y-74991491D01*
X143130778Y-74993608D01*
X143131866Y-74993245D01*
X143134323Y-74993734D01*
X143229561Y-74993734D01*
X143232017Y-74993245D01*
X143233105Y-74993608D01*
X143240829Y-74991492D01*
X143248695Y-74989928D01*
X143249506Y-74989116D01*
X143251921Y-74988455D01*
X143347160Y-74940837D01*
X143355024Y-74934733D01*
X143357560Y-74933888D01*
X143359751Y-74931064D01*
X143362572Y-74928875D01*
X143363416Y-74926341D01*
X143369521Y-74918476D01*
X143417140Y-74823238D01*
X143417801Y-74820822D01*
X143418613Y-74820011D01*
X143420176Y-74812149D01*
X143422293Y-74804422D01*
X143421930Y-74803333D01*
X143422419Y-74800877D01*
X143422419Y-74562782D01*
X143421930Y-74560325D01*
X143422293Y-74559237D01*
X143420176Y-74551509D01*
X143418613Y-74543648D01*
X143417801Y-74542836D01*
X143417140Y-74540421D01*
X143399716Y-74505574D01*
X143418613Y-74486678D01*
X143418613Y-74448410D01*
X143391553Y-74421350D01*
X143372419Y-74417544D01*
X142848609Y-74417544D01*
X142846152Y-74418032D01*
X142845064Y-74417670D01*
X142837336Y-74419786D01*
X142829475Y-74421350D01*
X142828663Y-74422161D01*
X142826248Y-74422823D01*
X142731010Y-74470442D01*
X142723144Y-74476546D01*
X142720611Y-74477391D01*
X142718421Y-74480211D01*
X142715598Y-74482403D01*
X142714752Y-74484938D01*
X142708649Y-74492803D01*
X142661031Y-74588040D01*
X142660369Y-74590455D01*
X142659558Y-74591267D01*
X142657994Y-74599128D01*
X142655878Y-74606856D01*
X142656240Y-74607944D01*
X142655752Y-74610401D01*
X142211308Y-74610401D01*
X142211308Y-73972219D01*
X142326225Y-73972219D01*
X142326225Y-74010487D01*
X142353285Y-74037547D01*
X142372419Y-74041353D01*
X142655752Y-74041353D01*
X142655752Y-74134210D01*
X142659558Y-74153344D01*
X142686618Y-74180404D01*
X142724886Y-74180404D01*
X142751946Y-74153344D01*
X142755752Y-74134210D01*
X142755752Y-74041353D01*
X143229561Y-74041353D01*
X143232017Y-74040864D01*
X143233105Y-74041227D01*
X143240829Y-74039111D01*
X143248695Y-74037547D01*
X143249506Y-74036735D01*
X143251921Y-74036074D01*
X143347160Y-73988456D01*
X143355024Y-73982352D01*
X143357560Y-73981507D01*
X143359751Y-73978683D01*
X143362572Y-73976494D01*
X143363416Y-73973960D01*
X143369521Y-73966095D01*
X143417140Y-73870857D01*
X143417801Y-73868441D01*
X143418613Y-73867630D01*
X143420176Y-73859768D01*
X143422293Y-73852041D01*
X143421930Y-73850952D01*
X143422419Y-73848496D01*
X143422419Y-73753258D01*
X143418613Y-73734124D01*
X143391553Y-73707064D01*
X143353285Y-73707064D01*
X143326225Y-73734124D01*
X143322419Y-73753258D01*
X143322419Y-73836692D01*
X143287532Y-73906466D01*
X143217759Y-73941353D01*
X142755752Y-73941353D01*
X142755752Y-73753258D01*
X142751946Y-73734124D01*
X142724886Y-73707064D01*
X142686618Y-73707064D01*
X142659558Y-73734124D01*
X142655752Y-73753258D01*
X142655752Y-73941353D01*
X142372419Y-73941353D01*
X142353285Y-73945159D01*
X142326225Y-73972219D01*
X142211308Y-73972219D01*
X142211308Y-73400790D01*
X142326225Y-73400790D01*
X142326225Y-73439058D01*
X142353285Y-73466118D01*
X142372419Y-73469924D01*
X142655752Y-73469924D01*
X142655752Y-73562781D01*
X142659558Y-73581915D01*
X142686618Y-73608975D01*
X142724886Y-73608975D01*
X142751946Y-73581915D01*
X142755752Y-73562781D01*
X142755752Y-73469924D01*
X143229561Y-73469924D01*
X143232017Y-73469435D01*
X143233105Y-73469798D01*
X143240829Y-73467682D01*
X143248695Y-73466118D01*
X143249506Y-73465306D01*
X143251921Y-73464645D01*
X143347160Y-73417027D01*
X143355024Y-73410923D01*
X143357560Y-73410078D01*
X143359751Y-73407254D01*
X143362572Y-73405065D01*
X143363416Y-73402531D01*
X143369521Y-73394666D01*
X143417140Y-73299428D01*
X143417801Y-73297012D01*
X143418613Y-73296201D01*
X143420176Y-73288339D01*
X143422293Y-73280612D01*
X143421930Y-73279523D01*
X143422419Y-73277067D01*
X143422419Y-73181829D01*
X143418613Y-73162695D01*
X143391553Y-73135635D01*
X143353285Y-73135635D01*
X143326225Y-73162695D01*
X143322419Y-73181829D01*
X143322419Y-73265263D01*
X143287532Y-73335037D01*
X143217759Y-73369924D01*
X142755752Y-73369924D01*
X142755752Y-73181829D01*
X142751946Y-73162695D01*
X142724886Y-73135635D01*
X142686618Y-73135635D01*
X142659558Y-73162695D01*
X142655752Y-73181829D01*
X142655752Y-73369924D01*
X142372419Y-73369924D01*
X142353285Y-73373730D01*
X142326225Y-73400790D01*
X142211308Y-73400790D01*
X142211308Y-72562781D01*
X142655752Y-72562781D01*
X142655752Y-72753257D01*
X142656240Y-72755713D01*
X142655878Y-72756802D01*
X142657994Y-72764529D01*
X142659558Y-72772391D01*
X142660369Y-72773202D01*
X142661031Y-72775618D01*
X142708649Y-72870855D01*
X142714752Y-72878719D01*
X142715598Y-72881255D01*
X142718421Y-72883446D01*
X142720611Y-72886267D01*
X142723144Y-72887111D01*
X142731010Y-72893216D01*
X142826248Y-72940835D01*
X142828663Y-72941496D01*
X142829475Y-72942308D01*
X142837336Y-72943871D01*
X142845064Y-72945988D01*
X142846152Y-72945625D01*
X142848609Y-72946114D01*
X143229561Y-72946114D01*
X143232017Y-72945625D01*
X143233105Y-72945988D01*
X143240829Y-72943872D01*
X143248695Y-72942308D01*
X143249506Y-72941496D01*
X143251921Y-72940835D01*
X143347160Y-72893217D01*
X143355024Y-72887113D01*
X143357560Y-72886268D01*
X143359751Y-72883444D01*
X143362572Y-72881255D01*
X143363416Y-72878721D01*
X143369521Y-72870856D01*
X143417140Y-72775618D01*
X143417801Y-72773202D01*
X143418613Y-72772391D01*
X143420176Y-72764529D01*
X143422293Y-72756802D01*
X143421930Y-72755713D01*
X143422419Y-72753257D01*
X143422419Y-72562781D01*
X143421930Y-72560324D01*
X143422293Y-72559236D01*
X143420176Y-72551508D01*
X143418613Y-72543647D01*
X143417801Y-72542835D01*
X143417140Y-72540420D01*
X143369521Y-72445182D01*
X143357560Y-72429770D01*
X143321255Y-72417669D01*
X143287027Y-72434783D01*
X143274926Y-72471088D01*
X143280079Y-72489904D01*
X143322419Y-72574584D01*
X143322419Y-72741453D01*
X143287532Y-72811227D01*
X143217759Y-72846114D01*
X143080075Y-72846114D01*
X142992876Y-72410118D01*
X142990041Y-72403294D01*
X142990041Y-72400790D01*
X142988261Y-72399010D01*
X142985391Y-72392102D01*
X142973277Y-72384026D01*
X142962981Y-72373730D01*
X142955643Y-72372270D01*
X142953550Y-72370875D01*
X142951095Y-72371365D01*
X142943847Y-72369924D01*
X142848609Y-72369924D01*
X142846152Y-72370412D01*
X142845064Y-72370050D01*
X142837336Y-72372166D01*
X142829475Y-72373730D01*
X142828663Y-72374541D01*
X142826248Y-72375203D01*
X142731010Y-72422822D01*
X142723144Y-72428926D01*
X142720611Y-72429771D01*
X142718421Y-72432591D01*
X142715598Y-72434783D01*
X142714752Y-72437318D01*
X142708649Y-72445183D01*
X142661031Y-72540420D01*
X142660369Y-72542835D01*
X142659558Y-72543647D01*
X142657994Y-72551508D01*
X142655878Y-72559236D01*
X142656240Y-72560324D01*
X142655752Y-72562781D01*
X142211308Y-72562781D01*
X142211308Y-71705638D01*
X142655752Y-71705638D01*
X142655752Y-71800876D01*
X142656240Y-71803332D01*
X142655878Y-71804421D01*
X142657994Y-71812148D01*
X142659558Y-71820010D01*
X142660369Y-71820821D01*
X142661031Y-71823237D01*
X142708649Y-71918474D01*
X142713564Y-71924807D01*
X142718016Y-71931469D01*
X142727899Y-71941352D01*
X142705752Y-71941352D01*
X142686618Y-71945158D01*
X142659558Y-71972218D01*
X142659558Y-72010486D01*
X142686618Y-72037546D01*
X142705752Y-72041352D01*
X143372419Y-72041352D01*
X143391553Y-72037546D01*
X143418613Y-72010486D01*
X143418613Y-71972218D01*
X143391553Y-71945158D01*
X143372419Y-71941352D01*
X142908032Y-71941352D01*
X142830608Y-71902640D01*
X142794463Y-71866496D01*
X142755752Y-71789073D01*
X142755752Y-71705638D01*
X142751946Y-71686504D01*
X142724886Y-71659444D01*
X142686618Y-71659444D01*
X142659558Y-71686504D01*
X142655752Y-71705638D01*
X142211308Y-71705638D01*
X142211308Y-70993835D01*
X142655814Y-70993835D01*
X142672196Y-71028419D01*
X142688935Y-71038439D01*
X143223758Y-71229447D01*
X142688935Y-71420455D01*
X142672196Y-71430475D01*
X142655814Y-71465059D01*
X142668685Y-71501098D01*
X142703269Y-71517480D01*
X142722569Y-71514629D01*
X143371416Y-71282898D01*
X143582417Y-71367298D01*
X143617040Y-71401922D01*
X143661030Y-71489902D01*
X143672992Y-71505314D01*
X143709296Y-71517416D01*
X143743524Y-71500302D01*
X143755626Y-71463997D01*
X143750473Y-71445181D01*
X143702854Y-71349943D01*
X143697942Y-71343614D01*
X143693488Y-71336948D01*
X143645869Y-71289330D01*
X143645518Y-71289095D01*
X143645435Y-71288901D01*
X143637502Y-71283739D01*
X143629648Y-71278491D01*
X143629436Y-71278491D01*
X143629083Y-71278261D01*
X143390989Y-71183023D01*
X143390052Y-71182848D01*
X143389236Y-71182360D01*
X142722569Y-70944265D01*
X142703269Y-70941414D01*
X142668685Y-70957796D01*
X142655814Y-70993835D01*
X142211308Y-70993835D01*
X142211308Y-70830303D01*
X143866737Y-70830303D01*
X143866737Y-76057226D01*
G37*
G36*
X159231661Y-68033530D02*
G01*
X157242773Y-68033530D01*
X157242773Y-66872419D01*
X157353884Y-66872419D01*
X157353884Y-67872419D01*
X157357690Y-67891553D01*
X157384750Y-67918613D01*
X157423018Y-67918613D01*
X157450078Y-67891553D01*
X157453884Y-67872419D01*
X157453884Y-67097796D01*
X157691908Y-67607849D01*
X157699530Y-67618238D01*
X157700343Y-67620473D01*
X157701600Y-67621059D01*
X157703448Y-67623578D01*
X157719520Y-67629422D01*
X157735021Y-67636656D01*
X157737217Y-67635857D01*
X157739413Y-67636656D01*
X157754913Y-67629422D01*
X157770986Y-67623578D01*
X157772833Y-67621059D01*
X157774091Y-67620473D01*
X157774903Y-67618237D01*
X157782526Y-67607848D01*
X158020550Y-67097796D01*
X158020550Y-67872419D01*
X158024356Y-67891553D01*
X158051416Y-67918613D01*
X158089684Y-67918613D01*
X158116744Y-67891553D01*
X158120550Y-67872419D01*
X158120550Y-67853285D01*
X158405309Y-67853285D01*
X158405309Y-67891553D01*
X158432369Y-67918613D01*
X158451503Y-67922419D01*
X159070550Y-67922419D01*
X159089684Y-67918613D01*
X159116744Y-67891553D01*
X159116744Y-67853285D01*
X159089684Y-67826225D01*
X159070550Y-67822419D01*
X158572213Y-67822419D01*
X159058286Y-67336345D01*
X159059676Y-67334263D01*
X159060704Y-67333750D01*
X159064674Y-67326784D01*
X159069125Y-67320124D01*
X159069125Y-67318976D01*
X159070365Y-67316801D01*
X159117984Y-67173945D01*
X159118986Y-67165994D01*
X159120550Y-67158133D01*
X159120550Y-67062895D01*
X159120061Y-67060438D01*
X159120424Y-67059350D01*
X159118307Y-67051622D01*
X159116744Y-67043761D01*
X159115932Y-67042949D01*
X159115271Y-67040534D01*
X159067652Y-66945296D01*
X159062740Y-66938967D01*
X159058286Y-66932301D01*
X159010667Y-66884683D01*
X159004005Y-66880231D01*
X158997672Y-66875316D01*
X158902435Y-66827698D01*
X158900019Y-66827036D01*
X158899208Y-66826225D01*
X158891346Y-66824661D01*
X158883619Y-66822545D01*
X158882530Y-66822907D01*
X158880074Y-66822419D01*
X158641979Y-66822419D01*
X158639522Y-66822907D01*
X158638434Y-66822545D01*
X158630706Y-66824661D01*
X158622845Y-66826225D01*
X158622033Y-66827036D01*
X158619618Y-66827698D01*
X158524380Y-66875317D01*
X158518051Y-66880228D01*
X158511385Y-66884683D01*
X158463767Y-66932302D01*
X158452928Y-66948523D01*
X158452928Y-66986791D01*
X158479988Y-67013851D01*
X158518256Y-67013851D01*
X158534477Y-67003012D01*
X158576359Y-66961130D01*
X158653783Y-66922419D01*
X158868271Y-66922419D01*
X158945694Y-66961130D01*
X158981838Y-66997275D01*
X159020550Y-67074698D01*
X159020550Y-67150020D01*
X158979229Y-67273981D01*
X158416148Y-67837064D01*
X158405309Y-67853285D01*
X158120550Y-67853285D01*
X158120550Y-66872419D01*
X158116744Y-66853285D01*
X158110461Y-66847002D01*
X158107424Y-66838650D01*
X158097458Y-66833999D01*
X158089684Y-66826225D01*
X158080799Y-66826225D01*
X158072746Y-66822467D01*
X158062411Y-66826225D01*
X158051416Y-66826225D01*
X158045133Y-66832507D01*
X158036781Y-66835545D01*
X158025241Y-66851274D01*
X157737216Y-67468469D01*
X157449193Y-66851275D01*
X157437653Y-66835545D01*
X157429300Y-66832507D01*
X157423018Y-66826225D01*
X157412023Y-66826225D01*
X157401688Y-66822467D01*
X157393635Y-66826225D01*
X157384750Y-66826225D01*
X157376975Y-66833999D01*
X157367010Y-66838650D01*
X157363972Y-66847002D01*
X157357690Y-66853285D01*
X157353884Y-66872419D01*
X157242773Y-66872419D01*
X157242773Y-66711308D01*
X159231661Y-66711308D01*
X159231661Y-68033530D01*
G37*
X124472419Y-70196115D02*
X123472419Y-70196115D01*
X123472419Y-70196115D02*
X124186704Y-69862782D01*
X124186704Y-69862782D02*
X123472419Y-69529449D01*
X123472419Y-69529449D02*
X124472419Y-69529449D01*
X123472419Y-68862782D02*
X123472419Y-68672306D01*
X123472419Y-68672306D02*
X123520038Y-68577068D01*
X123520038Y-68577068D02*
X123615276Y-68481830D01*
X123615276Y-68481830D02*
X123805752Y-68434211D01*
X123805752Y-68434211D02*
X124139085Y-68434211D01*
X124139085Y-68434211D02*
X124329561Y-68481830D01*
X124329561Y-68481830D02*
X124424800Y-68577068D01*
X124424800Y-68577068D02*
X124472419Y-68672306D01*
X124472419Y-68672306D02*
X124472419Y-68862782D01*
X124472419Y-68862782D02*
X124424800Y-68958020D01*
X124424800Y-68958020D02*
X124329561Y-69053258D01*
X124329561Y-69053258D02*
X124139085Y-69100877D01*
X124139085Y-69100877D02*
X123805752Y-69100877D01*
X123805752Y-69100877D02*
X123615276Y-69053258D01*
X123615276Y-69053258D02*
X123520038Y-68958020D01*
X123520038Y-68958020D02*
X123472419Y-68862782D01*
X124424800Y-68053258D02*
X124472419Y-67910401D01*
X124472419Y-67910401D02*
X124472419Y-67672306D01*
X124472419Y-67672306D02*
X124424800Y-67577068D01*
X124424800Y-67577068D02*
X124377180Y-67529449D01*
X124377180Y-67529449D02*
X124281942Y-67481830D01*
X124281942Y-67481830D02*
X124186704Y-67481830D01*
X124186704Y-67481830D02*
X124091466Y-67529449D01*
X124091466Y-67529449D02*
X124043847Y-67577068D01*
X124043847Y-67577068D02*
X123996228Y-67672306D01*
X123996228Y-67672306D02*
X123948609Y-67862782D01*
X123948609Y-67862782D02*
X123900990Y-67958020D01*
X123900990Y-67958020D02*
X123853371Y-68005639D01*
X123853371Y-68005639D02*
X123758133Y-68053258D01*
X123758133Y-68053258D02*
X123662895Y-68053258D01*
X123662895Y-68053258D02*
X123567657Y-68005639D01*
X123567657Y-68005639D02*
X123520038Y-67958020D01*
X123520038Y-67958020D02*
X123472419Y-67862782D01*
X123472419Y-67862782D02*
X123472419Y-67624687D01*
X123472419Y-67624687D02*
X123520038Y-67481830D01*
X124472419Y-67053258D02*
X123472419Y-67053258D01*
X150319048Y-70676466D02*
X151080953Y-70676466D01*
X129619048Y-69826466D02*
X130380953Y-69826466D01*
X130000000Y-70207419D02*
X130000000Y-69445514D01*
X144819048Y-70876466D02*
X145580953Y-70876466D01*
X145200000Y-71257419D02*
X145200000Y-70495514D01*
X122377180Y-69624687D02*
X122424800Y-69672306D01*
X122424800Y-69672306D02*
X122472419Y-69815163D01*
X122472419Y-69815163D02*
X122472419Y-69910401D01*
X122472419Y-69910401D02*
X122424800Y-70053258D01*
X122424800Y-70053258D02*
X122329561Y-70148496D01*
X122329561Y-70148496D02*
X122234323Y-70196115D01*
X122234323Y-70196115D02*
X122043847Y-70243734D01*
X122043847Y-70243734D02*
X121900990Y-70243734D01*
X121900990Y-70243734D02*
X121710514Y-70196115D01*
X121710514Y-70196115D02*
X121615276Y-70148496D01*
X121615276Y-70148496D02*
X121520038Y-70053258D01*
X121520038Y-70053258D02*
X121472419Y-69910401D01*
X121472419Y-69910401D02*
X121472419Y-69815163D01*
X121472419Y-69815163D02*
X121520038Y-69672306D01*
X121520038Y-69672306D02*
X121567657Y-69624687D01*
X122424800Y-69243734D02*
X122472419Y-69100877D01*
X122472419Y-69100877D02*
X122472419Y-68862782D01*
X122472419Y-68862782D02*
X122424800Y-68767544D01*
X122424800Y-68767544D02*
X122377180Y-68719925D01*
X122377180Y-68719925D02*
X122281942Y-68672306D01*
X122281942Y-68672306D02*
X122186704Y-68672306D01*
X122186704Y-68672306D02*
X122091466Y-68719925D01*
X122091466Y-68719925D02*
X122043847Y-68767544D01*
X122043847Y-68767544D02*
X121996228Y-68862782D01*
X121996228Y-68862782D02*
X121948609Y-69053258D01*
X121948609Y-69053258D02*
X121900990Y-69148496D01*
X121900990Y-69148496D02*
X121853371Y-69196115D01*
X121853371Y-69196115D02*
X121758133Y-69243734D01*
X121758133Y-69243734D02*
X121662895Y-69243734D01*
X121662895Y-69243734D02*
X121567657Y-69196115D01*
X121567657Y-69196115D02*
X121520038Y-69148496D01*
X121520038Y-69148496D02*
X121472419Y-69053258D01*
X121472419Y-69053258D02*
X121472419Y-68815163D01*
X121472419Y-68815163D02*
X121520038Y-68672306D01*
G36*
X100527855Y-68233530D02*
G01*
X98542773Y-68233530D01*
X98542773Y-67072419D01*
X98653884Y-67072419D01*
X98653884Y-68072419D01*
X98657690Y-68091553D01*
X98684750Y-68118613D01*
X98723018Y-68118613D01*
X98750078Y-68091553D01*
X98753884Y-68072419D01*
X98753884Y-67297796D01*
X98991908Y-67807849D01*
X98999530Y-67818238D01*
X99000343Y-67820473D01*
X99001600Y-67821059D01*
X99003448Y-67823578D01*
X99019520Y-67829422D01*
X99035021Y-67836656D01*
X99037217Y-67835857D01*
X99039413Y-67836656D01*
X99054913Y-67829422D01*
X99070986Y-67823578D01*
X99072833Y-67821059D01*
X99074091Y-67820473D01*
X99074903Y-67818237D01*
X99082526Y-67807848D01*
X99320550Y-67297796D01*
X99320550Y-68072419D01*
X99324356Y-68091553D01*
X99351416Y-68118613D01*
X99389684Y-68118613D01*
X99416744Y-68091553D01*
X99420550Y-68072419D01*
X99420550Y-67361678D01*
X99749248Y-67361678D01*
X99766362Y-67395906D01*
X99802667Y-67408007D01*
X99821483Y-67402854D01*
X99916720Y-67355236D01*
X99923053Y-67350320D01*
X99929715Y-67345869D01*
X100024953Y-67250631D01*
X100027701Y-67246517D01*
X100031201Y-67243011D01*
X100034836Y-67237558D01*
X100034836Y-68022419D01*
X99799122Y-68022419D01*
X99779988Y-68026225D01*
X99752928Y-68053285D01*
X99752928Y-68091553D01*
X99779988Y-68118613D01*
X99799122Y-68122419D01*
X100370550Y-68122419D01*
X100389684Y-68118613D01*
X100416744Y-68091553D01*
X100416744Y-68053285D01*
X100389684Y-68026225D01*
X100370550Y-68022419D01*
X100134836Y-68022419D01*
X100134836Y-67072419D01*
X100131030Y-67053285D01*
X100127389Y-67049644D01*
X100126380Y-67044597D01*
X100114264Y-67036519D01*
X100103970Y-67026225D01*
X100098824Y-67026225D01*
X100094540Y-67023369D01*
X100080262Y-67026225D01*
X100065702Y-67026225D01*
X100062061Y-67029865D01*
X100057014Y-67030875D01*
X100043234Y-67044684D01*
X99950739Y-67183424D01*
X99864743Y-67269421D01*
X99776761Y-67313412D01*
X99761349Y-67325373D01*
X99749248Y-67361678D01*
X99420550Y-67361678D01*
X99420550Y-67072419D01*
X99416744Y-67053285D01*
X99410461Y-67047002D01*
X99407424Y-67038650D01*
X99397458Y-67033999D01*
X99389684Y-67026225D01*
X99380799Y-67026225D01*
X99372746Y-67022467D01*
X99362411Y-67026225D01*
X99351416Y-67026225D01*
X99345133Y-67032507D01*
X99336781Y-67035545D01*
X99325241Y-67051274D01*
X99037216Y-67668469D01*
X98749193Y-67051275D01*
X98737653Y-67035545D01*
X98729300Y-67032507D01*
X98723018Y-67026225D01*
X98712023Y-67026225D01*
X98701688Y-67022467D01*
X98693635Y-67026225D01*
X98684750Y-67026225D01*
X98676975Y-67033999D01*
X98667010Y-67038650D01*
X98663972Y-67047002D01*
X98657690Y-67053285D01*
X98653884Y-67072419D01*
X98542773Y-67072419D01*
X98542773Y-66911356D01*
X100527855Y-66911356D01*
X100527855Y-68233530D01*
G37*
G36*
X117533530Y-74957226D02*
G01*
X116211308Y-74957226D01*
X116211308Y-74776981D01*
X116326225Y-74776981D01*
X116326225Y-74815249D01*
X116353285Y-74842309D01*
X116372419Y-74846115D01*
X117372419Y-74846115D01*
X117391553Y-74842309D01*
X117418613Y-74815249D01*
X117422419Y-74796115D01*
X117422419Y-74319925D01*
X117418613Y-74300791D01*
X117391553Y-74273731D01*
X117353285Y-74273731D01*
X117326225Y-74300791D01*
X117322419Y-74319925D01*
X117322419Y-74746115D01*
X116372419Y-74746115D01*
X116353285Y-74749921D01*
X116326225Y-74776981D01*
X116211308Y-74776981D01*
X116211308Y-73967457D01*
X116326225Y-73967457D01*
X116326225Y-74005725D01*
X116353285Y-74032785D01*
X116372419Y-74036591D01*
X117372419Y-74036591D01*
X117391553Y-74032785D01*
X117418613Y-74005725D01*
X117418613Y-73967457D01*
X117391553Y-73940397D01*
X117372419Y-73936591D01*
X116372419Y-73936591D01*
X116353285Y-73940397D01*
X116326225Y-73967457D01*
X116211308Y-73967457D01*
X116211308Y-73516707D01*
X116322818Y-73516707D01*
X116326225Y-73522669D01*
X116326225Y-73529535D01*
X116335378Y-73538688D01*
X116341804Y-73549933D01*
X116348430Y-73551740D01*
X116353285Y-73556595D01*
X116372419Y-73560401D01*
X117372419Y-73560401D01*
X117391553Y-73556595D01*
X117418613Y-73529535D01*
X117418613Y-73491267D01*
X117391553Y-73464207D01*
X117372419Y-73460401D01*
X116560697Y-73460401D01*
X117397226Y-72982385D01*
X117411951Y-72969587D01*
X117413757Y-72962962D01*
X117418613Y-72958107D01*
X117418613Y-72945159D01*
X117422020Y-72932667D01*
X117418613Y-72926704D01*
X117418613Y-72919839D01*
X117409459Y-72910685D01*
X117403034Y-72899441D01*
X117396407Y-72897633D01*
X117391553Y-72892779D01*
X117372419Y-72888973D01*
X116372419Y-72888973D01*
X116353285Y-72892779D01*
X116326225Y-72919839D01*
X116326225Y-72958107D01*
X116353285Y-72985167D01*
X116372419Y-72988973D01*
X117184141Y-72988973D01*
X116347612Y-73466989D01*
X116332887Y-73479786D01*
X116331079Y-73486412D01*
X116326225Y-73491267D01*
X116326225Y-73504214D01*
X116322818Y-73516707D01*
X116211308Y-73516707D01*
X116211308Y-71986592D01*
X116322419Y-71986592D01*
X116322419Y-72462782D01*
X116326225Y-72481916D01*
X116353285Y-72508976D01*
X116372419Y-72512782D01*
X117372419Y-72512782D01*
X117391553Y-72508976D01*
X117418613Y-72481916D01*
X117422419Y-72462782D01*
X117422419Y-71986592D01*
X117418613Y-71967458D01*
X117391553Y-71940398D01*
X117353285Y-71940398D01*
X117326225Y-71967458D01*
X117322419Y-71986592D01*
X117322419Y-72412782D01*
X116898609Y-72412782D01*
X116898609Y-72129449D01*
X116894803Y-72110315D01*
X116867743Y-72083255D01*
X116829475Y-72083255D01*
X116802415Y-72110315D01*
X116798609Y-72129449D01*
X116798609Y-72412782D01*
X116422419Y-72412782D01*
X116422419Y-71986592D01*
X116418613Y-71967458D01*
X116391553Y-71940398D01*
X116353285Y-71940398D01*
X116326225Y-71967458D01*
X116322419Y-71986592D01*
X116211308Y-71986592D01*
X116211308Y-71829287D01*
X117533530Y-71829287D01*
X117533530Y-74957226D01*
G37*
D11*
X109179580Y-72142857D02*
X109227200Y-72190476D01*
X109227200Y-72190476D02*
X109274819Y-72333333D01*
X109274819Y-72333333D02*
X109274819Y-72428571D01*
X109274819Y-72428571D02*
X109227200Y-72571428D01*
X109227200Y-72571428D02*
X109131961Y-72666666D01*
X109131961Y-72666666D02*
X109036723Y-72714285D01*
X109036723Y-72714285D02*
X108846247Y-72761904D01*
X108846247Y-72761904D02*
X108703390Y-72761904D01*
X108703390Y-72761904D02*
X108512914Y-72714285D01*
X108512914Y-72714285D02*
X108417676Y-72666666D01*
X108417676Y-72666666D02*
X108322438Y-72571428D01*
X108322438Y-72571428D02*
X108274819Y-72428571D01*
X108274819Y-72428571D02*
X108274819Y-72333333D01*
X108274819Y-72333333D02*
X108322438Y-72190476D01*
X108322438Y-72190476D02*
X108370057Y-72142857D01*
X109274819Y-71190476D02*
X109274819Y-71761904D01*
X109274819Y-71476190D02*
X108274819Y-71476190D01*
X108274819Y-71476190D02*
X108417676Y-71571428D01*
X108417676Y-71571428D02*
X108512914Y-71666666D01*
X108512914Y-71666666D02*
X108560533Y-71761904D01*
X108703390Y-70619047D02*
X108655771Y-70714285D01*
X108655771Y-70714285D02*
X108608152Y-70761904D01*
X108608152Y-70761904D02*
X108512914Y-70809523D01*
X108512914Y-70809523D02*
X108465295Y-70809523D01*
X108465295Y-70809523D02*
X108370057Y-70761904D01*
X108370057Y-70761904D02*
X108322438Y-70714285D01*
X108322438Y-70714285D02*
X108274819Y-70619047D01*
X108274819Y-70619047D02*
X108274819Y-70428571D01*
X108274819Y-70428571D02*
X108322438Y-70333333D01*
X108322438Y-70333333D02*
X108370057Y-70285714D01*
X108370057Y-70285714D02*
X108465295Y-70238095D01*
X108465295Y-70238095D02*
X108512914Y-70238095D01*
X108512914Y-70238095D02*
X108608152Y-70285714D01*
X108608152Y-70285714D02*
X108655771Y-70333333D01*
X108655771Y-70333333D02*
X108703390Y-70428571D01*
X108703390Y-70428571D02*
X108703390Y-70619047D01*
X108703390Y-70619047D02*
X108751009Y-70714285D01*
X108751009Y-70714285D02*
X108798628Y-70761904D01*
X108798628Y-70761904D02*
X108893866Y-70809523D01*
X108893866Y-70809523D02*
X109084342Y-70809523D01*
X109084342Y-70809523D02*
X109179580Y-70761904D01*
X109179580Y-70761904D02*
X109227200Y-70714285D01*
X109227200Y-70714285D02*
X109274819Y-70619047D01*
X109274819Y-70619047D02*
X109274819Y-70428571D01*
X109274819Y-70428571D02*
X109227200Y-70333333D01*
X109227200Y-70333333D02*
X109179580Y-70285714D01*
X109179580Y-70285714D02*
X109084342Y-70238095D01*
X109084342Y-70238095D02*
X108893866Y-70238095D01*
X108893866Y-70238095D02*
X108798628Y-70285714D01*
X108798628Y-70285714D02*
X108751009Y-70333333D01*
X108751009Y-70333333D02*
X108703390Y-70428571D01*
X140959580Y-72142857D02*
X141007200Y-72190476D01*
X141007200Y-72190476D02*
X141054819Y-72333333D01*
X141054819Y-72333333D02*
X141054819Y-72428571D01*
X141054819Y-72428571D02*
X141007200Y-72571428D01*
X141007200Y-72571428D02*
X140911961Y-72666666D01*
X140911961Y-72666666D02*
X140816723Y-72714285D01*
X140816723Y-72714285D02*
X140626247Y-72761904D01*
X140626247Y-72761904D02*
X140483390Y-72761904D01*
X140483390Y-72761904D02*
X140292914Y-72714285D01*
X140292914Y-72714285D02*
X140197676Y-72666666D01*
X140197676Y-72666666D02*
X140102438Y-72571428D01*
X140102438Y-72571428D02*
X140054819Y-72428571D01*
X140054819Y-72428571D02*
X140054819Y-72333333D01*
X140054819Y-72333333D02*
X140102438Y-72190476D01*
X140102438Y-72190476D02*
X140150057Y-72142857D01*
X141054819Y-71190476D02*
X141054819Y-71761904D01*
X141054819Y-71476190D02*
X140054819Y-71476190D01*
X140054819Y-71476190D02*
X140197676Y-71571428D01*
X140197676Y-71571428D02*
X140292914Y-71666666D01*
X140292914Y-71666666D02*
X140340533Y-71761904D01*
X140054819Y-70571428D02*
X140054819Y-70476190D01*
X140054819Y-70476190D02*
X140102438Y-70380952D01*
X140102438Y-70380952D02*
X140150057Y-70333333D01*
X140150057Y-70333333D02*
X140245295Y-70285714D01*
X140245295Y-70285714D02*
X140435771Y-70238095D01*
X140435771Y-70238095D02*
X140673866Y-70238095D01*
X140673866Y-70238095D02*
X140864342Y-70285714D01*
X140864342Y-70285714D02*
X140959580Y-70333333D01*
X140959580Y-70333333D02*
X141007200Y-70380952D01*
X141007200Y-70380952D02*
X141054819Y-70476190D01*
X141054819Y-70476190D02*
X141054819Y-70571428D01*
X141054819Y-70571428D02*
X141007200Y-70666666D01*
X141007200Y-70666666D02*
X140959580Y-70714285D01*
X140959580Y-70714285D02*
X140864342Y-70761904D01*
X140864342Y-70761904D02*
X140673866Y-70809523D01*
X140673866Y-70809523D02*
X140435771Y-70809523D01*
X140435771Y-70809523D02*
X140245295Y-70761904D01*
X140245295Y-70761904D02*
X140150057Y-70714285D01*
X140150057Y-70714285D02*
X140102438Y-70666666D01*
X140102438Y-70666666D02*
X140054819Y-70571428D01*
X144375595Y-55054819D02*
X144375595Y-55864342D01*
X144375595Y-55864342D02*
X144423214Y-55959580D01*
X144423214Y-55959580D02*
X144470833Y-56007200D01*
X144470833Y-56007200D02*
X144566071Y-56054819D01*
X144566071Y-56054819D02*
X144756547Y-56054819D01*
X144756547Y-56054819D02*
X144851785Y-56007200D01*
X144851785Y-56007200D02*
X144899404Y-55959580D01*
X144899404Y-55959580D02*
X144947023Y-55864342D01*
X144947023Y-55864342D02*
X144947023Y-55054819D01*
X145375595Y-55150057D02*
X145423214Y-55102438D01*
X145423214Y-55102438D02*
X145518452Y-55054819D01*
X145518452Y-55054819D02*
X145756547Y-55054819D01*
X145756547Y-55054819D02*
X145851785Y-55102438D01*
X145851785Y-55102438D02*
X145899404Y-55150057D01*
X145899404Y-55150057D02*
X145947023Y-55245295D01*
X145947023Y-55245295D02*
X145947023Y-55340533D01*
X145947023Y-55340533D02*
X145899404Y-55483390D01*
X145899404Y-55483390D02*
X145327976Y-56054819D01*
X145327976Y-56054819D02*
X145947023Y-56054819D01*
X112238095Y-55404819D02*
X112238095Y-56214342D01*
X112238095Y-56214342D02*
X112285714Y-56309580D01*
X112285714Y-56309580D02*
X112333333Y-56357200D01*
X112333333Y-56357200D02*
X112428571Y-56404819D01*
X112428571Y-56404819D02*
X112619047Y-56404819D01*
X112619047Y-56404819D02*
X112714285Y-56357200D01*
X112714285Y-56357200D02*
X112761904Y-56309580D01*
X112761904Y-56309580D02*
X112809523Y-56214342D01*
X112809523Y-56214342D02*
X112809523Y-55404819D01*
X113809523Y-56404819D02*
X113238095Y-56404819D01*
X113523809Y-56404819D02*
X113523809Y-55404819D01*
X113523809Y-55404819D02*
X113428571Y-55547676D01*
X113428571Y-55547676D02*
X113333333Y-55642914D01*
X113333333Y-55642914D02*
X113238095Y-55690533D01*
D12*
%TO.C,C23*%
X108890580Y-56260000D02*
X108609420Y-56260000D01*
X108890580Y-55240000D02*
X108609420Y-55240000D01*
%TO.C,C22*%
X105490000Y-56890580D02*
X105490000Y-56609420D01*
X106510000Y-56890580D02*
X106510000Y-56609420D01*
%TO.C,C18*%
X109740000Y-71640580D02*
X109740000Y-71359420D01*
X110760000Y-71640580D02*
X110760000Y-71359420D01*
%TO.C,C15*%
X119409420Y-64965000D02*
X119690580Y-64965000D01*
X119409420Y-65985000D02*
X119690580Y-65985000D01*
%TO.C,C13*%
X108510000Y-66609420D02*
X108510000Y-66890580D01*
X107490000Y-66609420D02*
X107490000Y-66890580D01*
%TO.C,C12*%
X106510000Y-66609420D02*
X106510000Y-66890580D01*
X105490000Y-66609420D02*
X105490000Y-66890580D01*
%TO.C,C11*%
X140940580Y-55900983D02*
X140659420Y-55900983D01*
X140940580Y-54880983D02*
X140659420Y-54880983D01*
%TO.C,C9*%
X149490000Y-55890580D02*
X149490000Y-55609420D01*
X150510000Y-55890580D02*
X150510000Y-55609420D01*
%TO.C,C8*%
X151490000Y-55890580D02*
X151490000Y-55609420D01*
X152510000Y-55890580D02*
X152510000Y-55609420D01*
%TO.C,C7*%
X138903080Y-57935000D02*
X138621920Y-57935000D01*
X138903080Y-56915000D02*
X138621920Y-56915000D01*
%TO.C,C6*%
X149359420Y-66990000D02*
X149640580Y-66990000D01*
X149359420Y-68010000D02*
X149640580Y-68010000D01*
%TO.C,C5*%
X152760000Y-66409420D02*
X152760000Y-66690580D01*
X151740000Y-66409420D02*
X151740000Y-66690580D01*
%TO.C,C4*%
X147909420Y-69740000D02*
X148190580Y-69740000D01*
X147909420Y-70760000D02*
X148190580Y-70760000D01*
%TO.C,C3*%
X117159420Y-66990000D02*
X117440580Y-66990000D01*
X117159420Y-68010000D02*
X117440580Y-68010000D01*
%TO.C,C2*%
X131129420Y-61990000D02*
X131410580Y-61990000D01*
X131129420Y-63010000D02*
X131410580Y-63010000D01*
%TO.C,C1*%
X131137798Y-59990000D02*
X131418958Y-59990000D01*
X131137798Y-61010000D02*
X131418958Y-61010000D01*
%TO.C,D3*%
X111515000Y-72487500D02*
X111515000Y-74772500D01*
X111515000Y-74772500D02*
X112985000Y-74772500D01*
X112985000Y-74772500D02*
X112985000Y-72487500D01*
%TO.C,C14*%
X153265000Y-56011252D02*
X153265000Y-55488748D01*
X154735000Y-56011252D02*
X154735000Y-55488748D01*
%TO.C,R14*%
X113227500Y-70412258D02*
X113227500Y-69937742D01*
X114272500Y-70412258D02*
X114272500Y-69937742D01*
%TO.C,D1*%
X135227500Y-58515000D02*
X135227500Y-59985000D01*
X135227500Y-59985000D02*
X137512500Y-59985000D01*
X137512500Y-58515000D02*
X135227500Y-58515000D01*
%TO.C,R1*%
X138950242Y-62902500D02*
X139424758Y-62902500D01*
X138950242Y-63947500D02*
X139424758Y-63947500D01*
%TO.C,C10*%
X132840000Y-69154437D02*
X132840000Y-74910000D01*
X132840000Y-74910000D02*
X135190000Y-74910000D01*
X133904437Y-68090000D02*
X132840000Y-69154437D01*
X133904437Y-68090000D02*
X135190000Y-68090000D01*
X138097500Y-67062500D02*
X138097500Y-67850000D01*
X138491250Y-67456250D02*
X137703750Y-67456250D01*
X138595563Y-68090000D02*
X137310000Y-68090000D01*
X138595563Y-68090000D02*
X139660000Y-69154437D01*
X139660000Y-69154437D02*
X139660000Y-74910000D01*
X139660000Y-74910000D02*
X137310000Y-74910000D01*
%TO.C,D4*%
X111515000Y-68727500D02*
X111515000Y-71012500D01*
X112985000Y-68727500D02*
X111515000Y-68727500D01*
X112985000Y-71012500D02*
X112985000Y-68727500D01*
%TO.C,R15*%
X117090000Y-56987742D02*
X117090000Y-57462258D01*
X118135000Y-56987742D02*
X118135000Y-57462258D01*
%TO.C,R2*%
X139424758Y-61402500D02*
X138950242Y-61402500D01*
X139424758Y-62447500D02*
X138950242Y-62447500D01*
%TO.C,C16*%
X103265000Y-66488748D02*
X103265000Y-67011252D01*
X104735000Y-66488748D02*
X104735000Y-67011252D01*
%TO.C,R8*%
X119012742Y-58977500D02*
X119487258Y-58977500D01*
X119012742Y-60022500D02*
X119487258Y-60022500D01*
%TO.C,R6*%
X131507742Y-57977500D02*
X131982258Y-57977500D01*
X131507742Y-59022500D02*
X131982258Y-59022500D01*
%TO.C,R7*%
X138502500Y-65470150D02*
X138502500Y-65944666D01*
X139547500Y-65470150D02*
X139547500Y-65944666D01*
%TO.C,U2*%
X142827500Y-56365000D02*
X147447500Y-56365000D01*
X142827500Y-56640000D02*
X142827500Y-56365000D01*
X142827500Y-66285000D02*
X142827500Y-66010000D01*
X147447500Y-56365000D02*
X147447500Y-56640000D01*
X147447500Y-66010000D02*
X147447500Y-66285000D01*
X147447500Y-66285000D02*
X142827500Y-66285000D01*
X148427500Y-66485000D02*
X147747500Y-66485000D01*
X148087500Y-66015000D01*
X148427500Y-66485000D01*
G36*
X148427500Y-66485000D02*
G01*
X147747500Y-66485000D01*
X148087500Y-66015000D01*
X148427500Y-66485000D01*
G37*
%TO.C,R16*%
X119487258Y-60477500D02*
X119012742Y-60477500D01*
X119487258Y-61522500D02*
X119012742Y-61522500D01*
%TO.C,R4*%
X128982258Y-57977500D02*
X128507742Y-57977500D01*
X128982258Y-59022500D02*
X128507742Y-59022500D01*
%TO.C,R13*%
X113227500Y-73087742D02*
X113227500Y-73562258D01*
X114272500Y-73087742D02*
X114272500Y-73562258D01*
%TO.C,R18*%
X153264564Y-57840000D02*
X151810436Y-57840000D01*
X153264564Y-59660000D02*
X151810436Y-59660000D01*
%TO.C,R9*%
X118590000Y-57462258D02*
X118590000Y-56987742D01*
X119635000Y-57462258D02*
X119635000Y-56987742D01*
%TO.C,R3*%
X139969664Y-65944666D02*
X139969664Y-65470150D01*
X141014664Y-65944666D02*
X141014664Y-65470150D01*
%TO.C,U1*%
X110690000Y-56790000D02*
X115310000Y-56790000D01*
X110690000Y-57065000D02*
X110690000Y-56790000D01*
X110690000Y-66710000D02*
X110690000Y-66435000D01*
X115310000Y-56790000D02*
X115310000Y-57065000D01*
X115310000Y-66435000D02*
X115310000Y-66710000D01*
X115310000Y-66710000D02*
X110690000Y-66710000D01*
X110050000Y-57060000D02*
X109710000Y-56590000D01*
X110390000Y-56590000D01*
X110050000Y-57060000D01*
G36*
X110050000Y-57060000D02*
G01*
X109710000Y-56590000D01*
X110390000Y-56590000D01*
X110050000Y-57060000D01*
G37*
%TO.C,R5*%
X125982258Y-57977500D02*
X125507742Y-57977500D01*
X125982258Y-59022500D02*
X125507742Y-59022500D01*
%TO.C,J3*%
X97850435Y-57045718D02*
X97850435Y-65945718D01*
X97850435Y-59395718D02*
X98350435Y-59395718D01*
X97850435Y-59495718D02*
X98350435Y-59495718D01*
X97850435Y-61395718D02*
X98350435Y-61395718D01*
X97850435Y-61495718D02*
X98350435Y-61495718D01*
X97850435Y-63395718D02*
X98350435Y-63395718D01*
X97850435Y-63495718D02*
X98350435Y-63495718D01*
X97850435Y-65945718D02*
X101350435Y-65945718D01*
X98350435Y-59395718D02*
X98350435Y-59595718D01*
X98350435Y-59595718D02*
X97850435Y-59595718D01*
X98350435Y-61395718D02*
X98350435Y-61595718D01*
X98350435Y-61595718D02*
X97850435Y-61595718D01*
X98350435Y-63395718D02*
X98350435Y-63595718D01*
X98350435Y-63595718D02*
X97850435Y-63595718D01*
X99350435Y-56435718D02*
X99350435Y-57045718D01*
X99350435Y-66555718D02*
X99350435Y-65945718D01*
X100650435Y-56435718D02*
X100650435Y-57045718D01*
X100650435Y-66555718D02*
X100650435Y-65945718D01*
X101350435Y-57045718D02*
X97850435Y-57045718D01*
X101350435Y-58995718D02*
X101350435Y-57045718D01*
X101350435Y-63995718D02*
X101960435Y-63995718D01*
X101350435Y-65945718D02*
X101350435Y-63995718D01*
X101960435Y-58195718D02*
X102160435Y-58195718D01*
X101960435Y-58995718D02*
X101350435Y-58995718D01*
X102060435Y-58195718D02*
X102060435Y-57895718D01*
X102160435Y-57895718D02*
X101960435Y-57895718D01*
X102160435Y-58195718D02*
X102160435Y-57895718D01*
X102260435Y-56135718D02*
X101010435Y-56135718D01*
X102260435Y-57385718D02*
X102260435Y-56135718D01*
X101960435Y-56435718D02*
X97240435Y-56435718D01*
X97240435Y-66555718D01*
X101960435Y-66555718D01*
X101960435Y-56435718D01*
%TO.C,D2*%
X120539057Y-64460778D02*
X122824057Y-64460778D01*
X122824057Y-62990778D02*
X120539057Y-62990778D01*
X122824057Y-64460778D02*
X122824057Y-62990778D01*
%TO.C,R19*%
X139462742Y-58727500D02*
X139937258Y-58727500D01*
X139462742Y-59772500D02*
X139937258Y-59772500D01*
%TO.C,J4*%
X155640000Y-65360000D02*
X155640000Y-66610000D01*
X155640000Y-66610000D02*
X156890000Y-66610000D01*
X155740000Y-64550000D02*
X155740000Y-64850000D01*
X155740000Y-64850000D02*
X155940000Y-64850000D01*
X155840000Y-64550000D02*
X155840000Y-64850000D01*
X155940000Y-63750000D02*
X156550000Y-63750000D01*
X155940000Y-64550000D02*
X155740000Y-64550000D01*
X156550000Y-56800000D02*
X156550000Y-58750000D01*
X156550000Y-58750000D02*
X155940000Y-58750000D01*
X156550000Y-63750000D02*
X156550000Y-65700000D01*
X156550000Y-65700000D02*
X160050000Y-65700000D01*
X157250000Y-56190000D02*
X157250000Y-56800000D01*
X157250000Y-66310000D02*
X157250000Y-65700000D01*
X158550000Y-56190000D02*
X158550000Y-56800000D01*
X158550000Y-66310000D02*
X158550000Y-65700000D01*
X159550000Y-59150000D02*
X160050000Y-59150000D01*
X159550000Y-59350000D02*
X159550000Y-59150000D01*
X159550000Y-61150000D02*
X160050000Y-61150000D01*
X159550000Y-61350000D02*
X159550000Y-61150000D01*
X159550000Y-63150000D02*
X160050000Y-63150000D01*
X159550000Y-63350000D02*
X159550000Y-63150000D01*
X160050000Y-56800000D02*
X156550000Y-56800000D01*
X160050000Y-59250000D02*
X159550000Y-59250000D01*
X160050000Y-59350000D02*
X159550000Y-59350000D01*
X160050000Y-61250000D02*
X159550000Y-61250000D01*
X160050000Y-61350000D02*
X159550000Y-61350000D01*
X160050000Y-63250000D02*
X159550000Y-63250000D01*
X160050000Y-63350000D02*
X159550000Y-63350000D01*
X160050000Y-65700000D02*
X160050000Y-56800000D01*
X155940000Y-66310000D02*
X160660000Y-66310000D01*
X160660000Y-56190000D01*
X155940000Y-56190000D01*
X155940000Y-66310000D01*
%TO.C,R12*%
X118599758Y-63202500D02*
X118125242Y-63202500D01*
X118599758Y-64247500D02*
X118125242Y-64247500D01*
%TO.C,J2*%
X117640000Y-70640000D02*
X117640000Y-71890000D01*
X117940000Y-72250000D02*
X118550000Y-72250000D01*
X117940000Y-73550000D02*
X118550000Y-73550000D01*
X118550000Y-71550000D02*
X118550000Y-75050000D01*
X118550000Y-75050000D02*
X131450000Y-75050000D01*
X118890000Y-70640000D02*
X117640000Y-70640000D01*
X119400000Y-70740000D02*
X119400000Y-70940000D01*
X119700000Y-70740000D02*
X119400000Y-70740000D01*
X119700000Y-70840000D02*
X119400000Y-70840000D01*
X119700000Y-70940000D02*
X119700000Y-70740000D01*
X120500000Y-70940000D02*
X120500000Y-71550000D01*
X120500000Y-71550000D02*
X118550000Y-71550000D01*
X120900000Y-74550000D02*
X121100000Y-74550000D01*
X120900000Y-75050000D02*
X120900000Y-74550000D01*
X121000000Y-75050000D02*
X121000000Y-74550000D01*
X121100000Y-74550000D02*
X121100000Y-75050000D01*
X122900000Y-74550000D02*
X123100000Y-74550000D01*
X122900000Y-75050000D02*
X122900000Y-74550000D01*
X123000000Y-75050000D02*
X123000000Y-74550000D01*
X123100000Y-74550000D02*
X123100000Y-75050000D01*
X124900000Y-74550000D02*
X125100000Y-74550000D01*
X124900000Y-75050000D02*
X124900000Y-74550000D01*
X125000000Y-75050000D02*
X125000000Y-74550000D01*
X125100000Y-74550000D02*
X125100000Y-75050000D01*
X126900000Y-74550000D02*
X127100000Y-74550000D01*
X126900000Y-75050000D02*
X126900000Y-74550000D01*
X127000000Y-75050000D02*
X127000000Y-74550000D01*
X127100000Y-74550000D02*
X127100000Y-75050000D01*
X128900000Y-74550000D02*
X129100000Y-74550000D01*
X128900000Y-75050000D02*
X128900000Y-74550000D01*
X129000000Y-75050000D02*
X129000000Y-74550000D01*
X129100000Y-74550000D02*
X129100000Y-75050000D01*
X129500000Y-71550000D02*
X129500000Y-70940000D01*
X131450000Y-71550000D02*
X129500000Y-71550000D01*
X131450000Y-75050000D02*
X131450000Y-71550000D01*
X132060000Y-72250000D02*
X131450000Y-72250000D01*
X132060000Y-73550000D02*
X131450000Y-73550000D01*
X117940000Y-70940000D02*
X132060000Y-70940000D01*
X132060000Y-75660000D01*
X117940000Y-75660000D01*
X117940000Y-70940000D01*
D13*
%TO.C,U3*%
X126110000Y-62300000D02*
X126670000Y-62300000D01*
X126670000Y-59700000D02*
X126110000Y-59700000D01*
X128650000Y-59700000D02*
X129210000Y-59700000D01*
X128650000Y-62300000D02*
X129210000Y-62300000D01*
D14*
X125670000Y-60005000D02*
G75*
G02*
X125470000Y-60005000I-100000J0D01*
G01*
X125470000Y-60005000D02*
G75*
G02*
X125670000Y-60005000I100000J0D01*
G01*
D12*
%TO.C,J5*%
X144390000Y-73190000D02*
X145390000Y-73190000D01*
X144890000Y-74000000D02*
X144390000Y-74000000D01*
X144890000Y-75210000D02*
X144890000Y-74000000D01*
X145390000Y-73190000D02*
X145390000Y-71690000D01*
X151110000Y-73190000D02*
X151110000Y-71690000D01*
X151610000Y-74000000D02*
X151610000Y-75210000D01*
X151610000Y-75210000D02*
X144890000Y-75210000D01*
X152110000Y-73190000D02*
X151110000Y-73190000D01*
X152110000Y-74000000D02*
X151610000Y-74000000D01*
X152410000Y-71390000D02*
X149910000Y-71390000D01*
X152410000Y-73890000D02*
X152410000Y-71390000D01*
X152110000Y-75710000D02*
X144390000Y-75710000D01*
X144390000Y-71690000D01*
X152110000Y-71690000D01*
X152110000Y-75710000D01*
%TO.C,R11*%
X104560436Y-62590000D02*
X106014564Y-62590000D01*
X104560436Y-64410000D02*
X106014564Y-64410000D01*
%TO.C,R10*%
X104522936Y-59090000D02*
X105977064Y-59090000D01*
X104522936Y-60910000D02*
X105977064Y-60910000D01*
%TO.C,R17*%
X151942941Y-61522936D02*
X151942941Y-62977064D01*
X153762941Y-61522936D02*
X153762941Y-62977064D01*
%TD*%
M02*
